<?xml version="1.0" encoding="UTF-8" standalone="no"?>
<!DOCTYPE svg PUBLIC "-//W3C//DTD SVG 1.1//EN"
 "http://www.w3.org/Graphics/SVG/1.1/DTD/svg11.dtd">
<!-- Generated by graphviz version 2.40.1 (20161225.0304)
 -->
<!-- Title: orphans Pages: 1 -->
<svg width="325pt" height="591pt"
 viewBox="0.00 0.00 325.00 591.00" xmlns="http://www.w3.org/2000/svg" xmlns:xlink="http://www.w3.org/1999/xlink">
<g id="graph0" class="graph" transform="scale(1 1) rotate(0) translate(4 587)">
<title>orphans</title>
<polygon fill="#ffffff" stroke="transparent" points="-4,4 -4,-587 321,-587 321,4 -4,4"/>
<!-- com_barcode -->
<g id="node1" class="node">
<title>com_barcode</title>
<g id="a_node1"><a xlink:href="../../tables/com_barcode.html" xlink:title="com_barcode" target="_top">
<polygon fill="#ffffff" stroke="transparent" points="58.5,-4 58.5,-226 258.5,-226 258.5,-4 58.5,-4"/>
<polygon fill="#f5f5f5" stroke="transparent" points="60.5,-201 60.5,-224 256.5,-224 256.5,-201 60.5,-201"/>
<polygon fill="none" stroke="#000000" points="60.5,-201 60.5,-224 256.5,-224 256.5,-201 60.5,-201"/>
<text text-anchor="start" x="65.5" y="-209.6" font-family="Helvetica,sans-Serif" font-weight="bold" font-size="11.00" fill="#000000">com_barcode</text>
<text text-anchor="start" x="221.5437" y="-209.1" font-family="Helvetica,sans-Serif" font-size="11.00" fill="#000000">[table]</text>
<polygon fill="none" stroke="#000000" points="60.5,-179 60.5,-201 172.5,-201 172.5,-179 60.5,-179"/>
<image xlink:href="../../images/primaryKeys.png" width="11px" height="12px" preserveAspectRatio="xMinYMin meet" x="65.5" y="-196"/>
<text text-anchor="start" x="80.5" y="-186.1" font-family="Helvetica,sans-Serif" font-size="11.00" fill="#000000">c_pk</text>
<polygon fill="none" stroke="#000000" points="172.5,-179 172.5,-201 256.5,-201 256.5,-179 172.5,-179"/>
<text text-anchor="start" x="175.5" y="-186.7" font-family="Helvetica,sans-Serif" font-size="11.00" fill="#000000">int8[19]</text>
<polygon fill="none" stroke="#000000" points="60.5,-157 60.5,-179 172.5,-179 172.5,-157 60.5,-157"/>
<text text-anchor="start" x="80.5" y="-164.1" font-family="Helvetica,sans-Serif" font-size="11.00" fill="#000000">c_created</text>
<polygon fill="none" stroke="#000000" points="172.5,-157 172.5,-179 256.5,-179 256.5,-157 172.5,-157"/>
<text text-anchor="start" x="175.3807" y="-164.7" font-family="Helvetica,sans-Serif" font-size="11.00" fill="#000000">timestamp[29,6]</text>
<polygon fill="none" stroke="#000000" points="60.5,-135 60.5,-157 172.5,-157 172.5,-135 60.5,-135"/>
<text text-anchor="start" x="80.5" y="-142.1" font-family="Helvetica,sans-Serif" font-size="11.00" fill="#000000">c_created_by</text>
<polygon fill="none" stroke="#000000" points="172.5,-135 172.5,-157 256.5,-157 256.5,-135 172.5,-135"/>
<text text-anchor="start" x="175.5" y="-142.7" font-family="Helvetica,sans-Serif" font-size="11.00" fill="#000000">varchar[255]</text>
<polygon fill="none" stroke="#000000" points="60.5,-113 60.5,-135 172.5,-135 172.5,-113 60.5,-113"/>
<text text-anchor="start" x="80.5" y="-120.1" font-family="Helvetica,sans-Serif" font-size="11.00" fill="#000000">c_updated_by</text>
<polygon fill="none" stroke="#000000" points="172.5,-113 172.5,-135 256.5,-135 256.5,-113 172.5,-113"/>
<text text-anchor="start" x="175.5" y="-120.7" font-family="Helvetica,sans-Serif" font-size="11.00" fill="#000000">varchar[255]</text>
<polygon fill="none" stroke="#000000" points="60.5,-91 60.5,-113 172.5,-113 172.5,-91 60.5,-91"/>
<text text-anchor="start" x="80.5" y="-98.1" font-family="Helvetica,sans-Serif" font-size="11.00" fill="#000000">c_updated</text>
<polygon fill="none" stroke="#000000" points="172.5,-91 172.5,-113 256.5,-113 256.5,-91 172.5,-91"/>
<text text-anchor="start" x="175.3807" y="-98.7" font-family="Helvetica,sans-Serif" font-size="11.00" fill="#000000">timestamp[29,6]</text>
<polygon fill="none" stroke="#000000" points="60.5,-69 60.5,-91 172.5,-91 172.5,-69 60.5,-69"/>
<text text-anchor="start" x="80.5" y="-76.1" font-family="Helvetica,sans-Serif" font-size="11.00" fill="#000000">c_ol</text>
<polygon fill="none" stroke="#000000" points="172.5,-69 172.5,-91 256.5,-91 256.5,-69 172.5,-69"/>
<text text-anchor="start" x="175.5" y="-76.7" font-family="Helvetica,sans-Serif" font-size="11.00" fill="#000000">int8[19]</text>
<polygon fill="none" stroke="#000000" points="60.5,-47 60.5,-69 172.5,-69 172.5,-47 60.5,-47"/>
<text text-anchor="start" x="80.5" y="-54.1" font-family="Helvetica,sans-Serif" font-size="11.00" fill="#000000">c_current</text>
<polygon fill="none" stroke="#000000" points="172.5,-47 172.5,-69 256.5,-69 256.5,-47 172.5,-47"/>
<text text-anchor="start" x="175.5" y="-54.7" font-family="Helvetica,sans-Serif" font-size="11.00" fill="#000000">varchar[40]</text>
<polygon fill="#ffffff" stroke="transparent" points="60.5,-25 60.5,-47 172.5,-47 172.5,-25 60.5,-25"/>
<polygon fill="none" stroke="#000000" points="60.5,-25 60.5,-47 172.5,-47 172.5,-25 60.5,-25"/>
<text text-anchor="start" x="80.5" y="-32.1" font-family="Helvetica,sans-Serif" font-size="11.00" fill="#000000">c_name</text>
<polygon fill="none" stroke="#000000" points="172.5,-25 172.5,-47 256.5,-47 256.5,-25 172.5,-25"/>
<text text-anchor="start" x="175.5" y="-32.7" font-family="Helvetica,sans-Serif" font-size="11.00" fill="#000000">varchar[255]</text>
<polygon fill="#ffffff" stroke="transparent" points="60.5,-6 60.5,-25 120.5,-25 120.5,-6 60.5,-6"/>
<polygon fill="none" stroke="#000000" points="60.5,-6 60.5,-25 120.5,-25 120.5,-6 60.5,-6"/>
<text text-anchor="start" x="63.5" y="-12.1" font-family="Helvetica,sans-Serif" font-size="11.00" fill="#000000">&lt; 0</text>
<polygon fill="#ffffff" stroke="transparent" points="120.5,-6 120.5,-25 172.5,-25 172.5,-6 120.5,-6"/>
<polygon fill="none" stroke="#000000" points="120.5,-6 120.5,-25 172.5,-25 172.5,-6 120.5,-6"/>
<text text-anchor="start" x="163.3862" y="-12.1" font-family="Helvetica,sans-Serif" font-size="11.00" fill="#000000"> &#160;</text>
<polygon fill="#ffffff" stroke="transparent" points="172.5,-6 172.5,-25 256.5,-25 256.5,-6 172.5,-6"/>
<polygon fill="none" stroke="#000000" points="172.5,-6 172.5,-25 256.5,-25 256.5,-6 172.5,-6"/>
<text text-anchor="start" x="237.9053" y="-12.1" font-family="Helvetica,sans-Serif" font-size="11.00" fill="#000000">0 &gt;</text>
<polygon fill="none" stroke="#000000" stroke-width="2" points="59.5,-5 59.5,-225 257.5,-225 257.5,-5 59.5,-5"/>
</a>
</g>
</g>
<!-- com_replica_registry -->
<g id="node2" class="node">
<title>com_replica_registry</title>
<g id="a_node2"><a xlink:href="../../tables/com_replica_registry.html" xlink:title="com_replica_registry" target="_top">
<polygon fill="#ffffff" stroke="transparent" points="8,-247 8,-579 309,-579 309,-247 8,-247"/>
<polygon fill="#f5f5f5" stroke="transparent" points="10.5,-554 10.5,-577 307.5,-577 307.5,-554 10.5,-554"/>
<polygon fill="none" stroke="#000000" points="10.5,-554 10.5,-577 307.5,-577 307.5,-554 10.5,-554"/>
<text text-anchor="start" x="15.5" y="-562.6" font-family="Helvetica,sans-Serif" font-weight="bold" font-size="11.00" fill="#000000">com_replica_registry</text>
<text text-anchor="start" x="272.5437" y="-562.1" font-family="Helvetica,sans-Serif" font-size="11.00" fill="#000000">[table]</text>
<polygon fill="none" stroke="#000000" points="10.5,-532 10.5,-554 223.5,-554 223.5,-532 10.5,-532"/>
<image xlink:href="../../images/primaryKeys.png" width="11px" height="12px" preserveAspectRatio="xMinYMin meet" x="15.5" y="-549"/>
<text text-anchor="start" x="30.5" y="-539.1" font-family="Helvetica,sans-Serif" font-size="11.00" fill="#000000">c_pk</text>
<polygon fill="none" stroke="#000000" points="223.5,-532 223.5,-554 307.5,-554 307.5,-532 223.5,-532"/>
<text text-anchor="start" x="226.5" y="-539.7" font-family="Helvetica,sans-Serif" font-size="11.00" fill="#000000">int8[19]</text>
<polygon fill="none" stroke="#000000" points="10.5,-510 10.5,-532 223.5,-532 223.5,-510 10.5,-510"/>
<text text-anchor="start" x="30.5" y="-517.1" font-family="Helvetica,sans-Serif" font-size="11.00" fill="#000000">c_created</text>
<polygon fill="none" stroke="#000000" points="223.5,-510 223.5,-532 307.5,-532 307.5,-510 223.5,-510"/>
<text text-anchor="start" x="226.3807" y="-517.7" font-family="Helvetica,sans-Serif" font-size="11.00" fill="#000000">timestamp[29,6]</text>
<polygon fill="none" stroke="#000000" points="10.5,-488 10.5,-510 223.5,-510 223.5,-488 10.5,-488"/>
<text text-anchor="start" x="30.5" y="-495.1" font-family="Helvetica,sans-Serif" font-size="11.00" fill="#000000">c_created_by</text>
<polygon fill="none" stroke="#000000" points="223.5,-488 223.5,-510 307.5,-510 307.5,-488 223.5,-488"/>
<text text-anchor="start" x="226.5" y="-495.7" font-family="Helvetica,sans-Serif" font-size="11.00" fill="#000000">varchar[255]</text>
<polygon fill="none" stroke="#000000" points="10.5,-466 10.5,-488 223.5,-488 223.5,-466 10.5,-466"/>
<text text-anchor="start" x="30.5" y="-473.1" font-family="Helvetica,sans-Serif" font-size="11.00" fill="#000000">c_updated_by</text>
<polygon fill="none" stroke="#000000" points="223.5,-466 223.5,-488 307.5,-488 307.5,-466 223.5,-466"/>
<text text-anchor="start" x="226.5" y="-473.7" font-family="Helvetica,sans-Serif" font-size="11.00" fill="#000000">varchar[255]</text>
<polygon fill="none" stroke="#000000" points="10.5,-444 10.5,-466 223.5,-466 223.5,-444 10.5,-444"/>
<text text-anchor="start" x="30.5" y="-451.1" font-family="Helvetica,sans-Serif" font-size="11.00" fill="#000000">c_updated</text>
<polygon fill="none" stroke="#000000" points="223.5,-444 223.5,-466 307.5,-466 307.5,-444 223.5,-444"/>
<text text-anchor="start" x="226.3807" y="-451.7" font-family="Helvetica,sans-Serif" font-size="11.00" fill="#000000">timestamp[29,6]</text>
<polygon fill="none" stroke="#000000" points="10.5,-422 10.5,-444 223.5,-444 223.5,-422 10.5,-422"/>
<text text-anchor="start" x="30.5" y="-429.1" font-family="Helvetica,sans-Serif" font-size="11.00" fill="#000000">c_ol</text>
<polygon fill="none" stroke="#000000" points="223.5,-422 223.5,-444 307.5,-444 307.5,-422 223.5,-422"/>
<text text-anchor="start" x="226.5" y="-429.7" font-family="Helvetica,sans-Serif" font-size="11.00" fill="#000000">int8[19]</text>
<polygon fill="#ffffff" stroke="transparent" points="10.5,-400 10.5,-422 223.5,-422 223.5,-400 10.5,-400"/>
<polygon fill="none" stroke="#000000" points="10.5,-400 10.5,-422 223.5,-422 223.5,-400 10.5,-400"/>
<text text-anchor="start" x="30.5" y="-407.1" font-family="Helvetica,sans-Serif" font-size="11.00" fill="#000000">c_pid</text>
<polygon fill="none" stroke="#000000" points="223.5,-400 223.5,-422 307.5,-422 307.5,-400 223.5,-400"/>
<text text-anchor="start" x="226.5" y="-407.7" font-family="Helvetica,sans-Serif" font-size="11.00" fill="#000000">varchar[255]</text>
<polygon fill="none" stroke="#000000" points="10.5,-378 10.5,-400 223.5,-400 223.5,-378 10.5,-378"/>
<text text-anchor="start" x="30.5" y="-385.1" font-family="Helvetica,sans-Serif" font-size="11.00" fill="#000000">c_application_name</text>
<polygon fill="none" stroke="#000000" points="223.5,-378 223.5,-400 307.5,-400 307.5,-378 223.5,-378"/>
<text text-anchor="start" x="226.5" y="-385.7" font-family="Helvetica,sans-Serif" font-size="11.00" fill="#000000">varchar[255]</text>
<polygon fill="none" stroke="#000000" points="10.5,-356 10.5,-378 223.5,-378 223.5,-356 10.5,-356"/>
<text text-anchor="start" x="30.5" y="-363.1" font-family="Helvetica,sans-Serif" font-size="11.00" fill="#000000">c_registered_at</text>
<polygon fill="none" stroke="#000000" points="223.5,-356 223.5,-378 307.5,-378 307.5,-356 223.5,-356"/>
<text text-anchor="start" x="226.3807" y="-363.7" font-family="Helvetica,sans-Serif" font-size="11.00" fill="#000000">timestamp[29,6]</text>
<polygon fill="none" stroke="#000000" points="10.5,-334 10.5,-356 223.5,-356 223.5,-334 10.5,-334"/>
<text text-anchor="start" x="30.5" y="-341.1" font-family="Helvetica,sans-Serif" font-size="11.00" fill="#000000">c_removal_endpoint</text>
<polygon fill="none" stroke="#000000" points="223.5,-334 223.5,-356 307.5,-356 307.5,-334 223.5,-334"/>
<text text-anchor="start" x="226.5" y="-341.7" font-family="Helvetica,sans-Serif" font-size="11.00" fill="#000000">varchar[255]</text>
<polygon fill="none" stroke="#000000" points="10.5,-312 10.5,-334 223.5,-334 223.5,-312 10.5,-312"/>
<text text-anchor="start" x="30.5" y="-319.1" font-family="Helvetica,sans-Serif" font-size="11.00" fill="#000000">c_request_removal_endpoint</text>
<polygon fill="none" stroke="#000000" points="223.5,-312 223.5,-334 307.5,-334 307.5,-312 223.5,-312"/>
<text text-anchor="start" x="226.5" y="-319.7" font-family="Helvetica,sans-Serif" font-size="11.00" fill="#000000">varchar[255]</text>
<polygon fill="none" stroke="#000000" points="10.5,-290 10.5,-312 223.5,-312 223.5,-290 10.5,-290"/>
<text text-anchor="start" x="30.5" y="-297.1" font-family="Helvetica,sans-Serif" font-size="11.00" fill="#000000">c_state</text>
<polygon fill="none" stroke="#000000" points="223.5,-290 223.5,-312 307.5,-312 307.5,-290 223.5,-290"/>
<text text-anchor="start" x="226.5" y="-297.7" font-family="Helvetica,sans-Serif" font-size="11.00" fill="#000000">varchar[255]</text>
<polygon fill="none" stroke="#000000" points="10.5,-268 10.5,-290 223.5,-290 223.5,-268 10.5,-268"/>
<text text-anchor="start" x="30.5" y="-275.1" font-family="Helvetica,sans-Serif" font-size="11.00" fill="#000000">c_unregistered_at</text>
<polygon fill="none" stroke="#000000" points="223.5,-268 223.5,-290 307.5,-290 307.5,-268 223.5,-268"/>
<text text-anchor="start" x="226.3807" y="-275.7" font-family="Helvetica,sans-Serif" font-size="11.00" fill="#000000">timestamp[29,6]</text>
<polygon fill="#ffffff" stroke="transparent" points="10.5,-249 10.5,-268 121.5,-268 121.5,-249 10.5,-249"/>
<polygon fill="none" stroke="#000000" points="10.5,-249 10.5,-268 121.5,-268 121.5,-249 10.5,-249"/>
<text text-anchor="start" x="13.5" y="-255.1" font-family="Helvetica,sans-Serif" font-size="11.00" fill="#000000">&lt; 0</text>
<polygon fill="#ffffff" stroke="transparent" points="121.5,-249 121.5,-268 223.5,-268 223.5,-249 121.5,-249"/>
<polygon fill="none" stroke="#000000" points="121.5,-249 121.5,-268 223.5,-268 223.5,-249 121.5,-249"/>
<text text-anchor="start" x="214.3862" y="-255.1" font-family="Helvetica,sans-Serif" font-size="11.00" fill="#000000"> &#160;</text>
<polygon fill="#ffffff" stroke="transparent" points="223.5,-249 223.5,-268 307.5,-268 307.5,-249 223.5,-249"/>
<polygon fill="none" stroke="#000000" points="223.5,-249 223.5,-268 307.5,-268 307.5,-249 223.5,-249"/>
<text text-anchor="start" x="288.9053" y="-255.1" font-family="Helvetica,sans-Serif" font-size="11.00" fill="#000000">0 &gt;</text>
<polygon fill="none" stroke="#000000" stroke-width="2" points="9,-248 9,-578 308,-578 308,-248 9,-248"/>
</a>
</g>
</g>
</g>
</svg>
