<?xml version="1.0" encoding="utf-8" ?>
<!DOCTYPE svg PUBLIC "-//W3C//DTD SVG 1.1//EN" "http://www.w3.org/Graphics/SVG/1.1/DTD/svg11.dtd">
<svg height="684" version="1.1" width="1260" xmlns="http://www.w3.org/2000/svg">
<polygon fill="#ffffff" points="14,230 324,230 324,254 373,254 373,669 14,669 14,230" stroke="#ffffff" stroke-width="1"/>
<rect fill="none" height="24" stroke="#000000" stroke-width="1" width="310" x="14" y="230"/>
<text font-family="Lucida Grande" font-size="13" font-weight="bold" x="19" y="244">
transport.api</text>
<rect fill="none" height="415" stroke="#000000" stroke-width="1" width="359" x="14" y="254"/>
<rect fill="#ffffff" height="210" stroke="#ffffff" stroke-width="1" width="180" x="30" y="278"/>
<rect fill="none" height="210" stroke="#000000" stroke-width="1" width="180" x="30" y="278"/>
<text font-family="Lucida Grande" font-size="13" font-weight="bold" x="55" y="312">
+ TransportUnitVO</text>
<text font-family="Lucida Grande" font-size="13" x="65" y="293">
&lt;&lt;ViewObject&gt;&gt;</text>
<rect fill="#000000" height="1" stroke="#000000" stroke-width="1" width="180" x="30" y="322"/>
<text font-family="Lucida Grande" font-size="13" x="34" y="337">
-barcode : String</text>
<text font-family="Lucida Grande" font-size="13" x="34" y="354">
-target : String</text>
<text font-family="Lucida Grande" font-size="13" x="34" y="371">
-transportUnitType : String</text>
<text font-family="Lucida Grande" font-size="13" x="34" y="388">
-height : int</text>
<text font-family="Lucida Grande" font-size="13" x="34" y="405">
-width : int</text>
<text font-family="Lucida Grande" font-size="13" x="34" y="422">
-length : int</text>
<text font-family="Lucida Grande" font-size="13" x="34" y="439">
-actualPlcCode : String</text>
<text font-family="Lucida Grande" font-size="13" x="34" y="456">
-actualLocationDate : Date</text>
<rect fill="#000000" height="1" stroke="#000000" stroke-width="1" width="180" x="30" y="466"/>
<polygon fill="#ffffff" points="470,14 1196,14 1196,38 1245,38 1245,613 470,613 470,14" stroke="#ffffff" stroke-width="1"/>
<rect fill="none" height="24" stroke="#000000" stroke-width="1" width="726" x="470" y="14"/>
<text font-family="Lucida Grande" font-size="13" font-weight="bold" x="475" y="28">
location.api</text>
<rect fill="none" height="575" stroke="#000000" stroke-width="1" width="775" x="470" y="38"/>
<rect fill="#ffffff" height="142" stroke="#ffffff" stroke-width="1" width="161" x="710" y="238"/>
<rect fill="none" height="142" stroke="#000000" stroke-width="1" width="161" x="710" y="238"/>
<text font-family="Lucida Grande" font-size="13" font-weight="bold" x="724" y="272">
+ LocationGroupVO</text>
<text font-family="Lucida Grande" font-size="13" x="735" y="253">
&lt;&lt;ViewObject&gt;&gt;</text>
<rect fill="#000000" height="1" stroke="#000000" stroke-width="1" width="161" x="710" y="282"/>
<text font-family="Lucida Grande" font-size="13" x="714" y="297">
-pKey : String</text>
<text font-family="Lucida Grande" font-size="13" x="714" y="314">
-name : String</text>
<text font-family="Lucida Grande" font-size="13" x="714" y="331">
-parent : String</text>
<text font-family="Lucida Grande" font-size="13" x="714" y="348">
-operationMode : String</text>
<rect fill="#000000" height="1" stroke="#000000" stroke-width="1" width="161" x="710" y="358"/>
<rect fill="#ffffff" height="193" stroke="#ffffff" stroke-width="1" width="192" x="486" y="206"/>
<rect fill="none" height="193" stroke="#000000" stroke-width="1" width="192" x="486" y="206"/>
<text font-family="Lucida Grande" font-size="13" font-weight="bold" x="536" y="240">
+ LocationVO</text>
<text font-family="Lucida Grande" font-size="13" x="527" y="221">
&lt;&lt;ViewObject&gt;&gt;</text>
<rect fill="#000000" height="1" stroke="#000000" stroke-width="1" width="192" x="486" y="250"/>
<text font-family="Lucida Grande" font-size="13" x="490" y="265">
-pKey : String</text>
<text font-family="Lucida Grande" font-size="13" x="490" y="282">
-locationId : String</text>
<text font-family="Lucida Grande" font-size="13" x="490" y="299">
-locationGroupName : String</text>
<text font-family="Lucida Grande" font-size="13" x="490" y="316">
-plcCode : String</text>
<text font-family="Lucida Grande" font-size="13" x="490" y="333">
-incomingActive : boolean</text>
<text font-family="Lucida Grande" font-size="13" x="490" y="350">
-outgoingActive : boolean</text>
<text font-family="Lucida Grande" font-size="13" x="490" y="367">
-plcState : int</text>
<rect fill="#000000" height="1" stroke="#000000" stroke-width="1" width="192" x="486" y="377"/>
<rect fill="#ffffff" height="87" stroke="#ffffff" stroke-width="1" width="152" x="638" y="62"/>
<rect fill="none" height="87" stroke="#000000" stroke-width="1" width="152" x="638" y="62"/>
<text font-family="Lucida Grande" font-size="13" font-weight="bold" x="674" y="96">
+ TargetVO</text>
<text font-family="Lucida Grande" font-size="13" x="666" y="77">
&lt;&lt;interface&gt;&gt;</text>
<rect fill="#000000" height="1" stroke="#000000" stroke-width="1" width="152" x="638" y="106"/>
<text font-family="Lucida Grande" font-size="13" x="642" y="121">
+getpKey() : String</text>
<text font-family="Lucida Grande" font-size="13" x="642" y="138">
+asString() : String</text>
<line fill="#333399" stroke="#333399" stroke-width="1" x1="654" x2="654" y1="206" y2="201"/>
<line fill="#333399" stroke="#333399" stroke-width="1" x1="654" x2="654" y1="196" y2="191"/>
<line fill="#333399" stroke="#333399" stroke-width="1" x1="654" x2="654" y1="186" y2="181"/>
<line fill="#333399" stroke="#333399" stroke-width="1" x1="654" x2="654" y1="176" y2="171"/>
<line fill="#333399" stroke="#333399" stroke-width="1" x1="654" x2="654" y1="166" y2="161"/>
<line fill="#333399" stroke="#333399" stroke-width="1" x1="654" x2="654" y1="156" y2="151"/>
<polygon fill="#ffffff" points="654,148 661,160 647,160" stroke="#ffffff" stroke-width="1"/>
<polygon fill="none" points="654,148 661,160 647,160" stroke="#333399" stroke-width="1"/>
<text font-family="Lucida Grande" font-size="13" x="566" y="190">
&lt;&lt;realize&gt;&gt;</text>
<line fill="#333399" stroke="#333399" stroke-width="1" x1="726" x2="726" y1="238" y2="233"/>
<line fill="#333399" stroke="#333399" stroke-width="1" x1="726" x2="726" y1="228" y2="223"/>
<line fill="#333399" stroke="#333399" stroke-width="1" x1="726" x2="726" y1="218" y2="213"/>
<line fill="#333399" stroke="#333399" stroke-width="1" x1="726" x2="726" y1="208" y2="203"/>
<line fill="#333399" stroke="#333399" stroke-width="1" x1="726" x2="726" y1="198" y2="193"/>
<line fill="#333399" stroke="#333399" stroke-width="1" x1="726" x2="726" y1="188" y2="183"/>
<line fill="#333399" stroke="#333399" stroke-width="1" x1="726" x2="726" y1="178" y2="173"/>
<line fill="#333399" stroke="#333399" stroke-width="1" x1="726" x2="726" y1="168" y2="163"/>
<line fill="#333399" stroke="#333399" stroke-width="1" x1="726" x2="726" y1="158" y2="153"/>
<polygon fill="#ffffff" points="726,148 733,160 719,160" stroke="#ffffff" stroke-width="1"/>
<polygon fill="none" points="726,148 733,160 719,160" stroke="#333399" stroke-width="1"/>
<text font-family="Lucida Grande" font-size="13" x="732" y="198">
&lt;&lt;realize&gt;&gt;</text>
<rect fill="#ffffff" height="108" stroke="#ffffff" stroke-width="1" width="129" x="486" y="470"/>
<rect fill="none" height="108" stroke="#000000" stroke-width="1" width="129" x="486" y="470"/>
<text font-family="Lucida Grande" font-size="13" font-weight="bold" x="499" y="504">
+ ErrorCodeVO</text>
<text font-family="Lucida Grande" font-size="13" x="495" y="485">
&lt;&lt;ViewObject&gt;&gt;</text>
<rect fill="#000000" height="1" stroke="#000000" stroke-width="1" width="129" x="486" y="514"/>
<text font-family="Lucida Grande" font-size="13" x="490" y="529">
-errorCode : String</text>
<text font-family="Lucida Grande" font-size="13" x="490" y="546">
-plcState : int</text>
<rect fill="#000000" height="1" stroke="#000000" stroke-width="1" width="129" x="486" y="556"/>
<rect fill="#ffffff" height="108" stroke="#ffffff" stroke-width="1" width="225" x="998" y="246"/>
<rect fill="none" height="108" stroke="#000000" stroke-width="1" width="225" x="998" y="246"/>
<text font-family="Lucida Grande" font-size="13" font-weight="bold" x="1003" y="280">
location.api::LocationGroupState</text>
<text font-family="Lucida Grande" font-size="13" x="1051" y="261">
&lt;&lt;enumeration&gt;&gt;</text>
<rect fill="#000000" height="1" stroke="#000000" stroke-width="1" width="225" x="998" y="290"/>
<text font-family="Lucida Grande" font-size="13" x="1002" y="305">
AVAILABLE</text>
<text font-family="Lucida Grande" font-size="13" x="1002" y="322">
NOT_AVAILABLE</text>
<rect fill="#000000" height="1" stroke="#000000" stroke-width="1" width="225" x="998" y="332"/>
<polyline fill="none" points="878,334 1006,334" stroke="#333399" stroke-width="1"/>
<polygon fill="#ffffff" points="878,334 888,329 898,334 888,339" stroke="#ffffff" stroke-width="1"/>
<polygon fill="none" points="878,334 888,329 898,334 888,339" stroke="#333399" stroke-width="1"/>
<line fill="#333399" stroke="#333399" stroke-width="1" x1="994" x2="1006" y1="341" y2="334"/>
<line fill="#333399" stroke="#333399" stroke-width="1" x1="994" x2="1006" y1="327" y2="334"/>
<text font-family="Lucida Grande" font-size="13" x="911" y="314">
 </text>
<text font-family="Lucida Grande" font-size="13" x="883" y="354">
-groupStateOut</text>
<polyline fill="none" points="878,278 1006,278" stroke="#333399" stroke-width="1"/>
<polygon fill="#ffffff" points="878,278 888,273 898,278 888,283" stroke="#ffffff" stroke-width="1"/>
<polygon fill="none" points="878,278 888,273 898,278 888,283" stroke="#333399" stroke-width="1"/>
<line fill="#333399" stroke="#333399" stroke-width="1" x1="994" x2="1006" y1="285" y2="278"/>
<line fill="#333399" stroke="#333399" stroke-width="1" x1="994" x2="1006" y1="271" y2="278"/>
<text font-family="Lucida Grande" font-size="13" x="911" y="258">
 </text>
<text font-family="Lucida Grande" font-size="13" x="883" y="298">
-groupStateIn</text>
<rect fill="#ffffff" height="125" stroke="#ffffff" stroke-width="1" width="157" x="886" y="454"/>
<rect fill="none" height="125" stroke="#000000" stroke-width="1" width="157" x="886" y="454"/>
<text font-family="Lucida Grande" font-size="13" font-weight="bold" x="891" y="488">
location.api::LockType</text>
<text font-family="Lucida Grande" font-size="13" x="905" y="469">
&lt;&lt;enumeration&gt;&gt;</text>
<rect fill="#000000" height="1" stroke="#000000" stroke-width="1" width="157" x="886" y="498"/>
<text font-family="Lucida Grande" font-size="13" x="890" y="513">
ALLOCATION_LOCK</text>
<text font-family="Lucida Grande" font-size="13" x="890" y="530">
OPERATION_LOCK</text>
<text font-family="Lucida Grande" font-size="13" x="890" y="547">
PERMANENT_LOCK</text>
<rect fill="#000000" height="1" stroke="#000000" stroke-width="1" width="157" x="886" y="557"/>
<rect fill="#ffffff" height="142" stroke="#ffffff" stroke-width="1" width="161" x="670" y="446"/>
<rect fill="none" height="142" stroke="#000000" stroke-width="1" width="161" x="670" y="446"/>
<text font-family="Lucida Grande" font-size="13" font-weight="bold" x="675" y="480">
location.api::LockMode</text>
<text font-family="Lucida Grande" font-size="13" x="691" y="461">
&lt;&lt;enumeration&gt;&gt;</text>
<rect fill="#000000" height="1" stroke="#000000" stroke-width="1" width="161" x="670" y="490"/>
<text font-family="Lucida Grande" font-size="13" x="674" y="505">
IN</text>
<text font-family="Lucida Grande" font-size="13" x="674" y="522">
OUT</text>
<text font-family="Lucida Grande" font-size="13" x="674" y="539">
IN_AND_OUT</text>
<text font-family="Lucida Grande" font-size="13" x="674" y="556">
NONE</text>
<rect fill="#000000" height="1" stroke="#000000" stroke-width="1" width="161" x="670" y="566"/>
<rect fill="#ffffff" height="159" stroke="#ffffff" stroke-width="1" width="173" x="30" y="502"/>
<rect fill="none" height="159" stroke="#000000" stroke-width="1" width="173" x="30" y="502"/>
<text font-family="Lucida Grande" font-size="13" font-weight="bold" x="35" y="536">
+ TransportUnitTypeVO</text>
<text font-family="Lucida Grande" font-size="13" x="61" y="517">
&lt;&lt;ViewObject&gt;&gt;</text>
<rect fill="#000000" height="1" stroke="#000000" stroke-width="1" width="173" x="30" y="546"/>
<text font-family="Lucida Grande" font-size="13" x="34" y="561">
-type : String</text>
<text font-family="Lucida Grande" font-size="13" x="34" y="578">
-description : String</text>
<text font-family="Lucida Grande" font-size="13" x="34" y="595">
-height : String</text>
<text font-family="Lucida Grande" font-size="13" x="34" y="612">
-width : String</text>
<text font-family="Lucida Grande" font-size="13" x="34" y="629">
-length : String</text>
<rect fill="#000000" height="1" stroke="#000000" stroke-width="1" width="173" x="30" y="639"/>
<rect fill="#ffffff" height="88" stroke="#ffffff" stroke-width="1" width="124" x="230" y="526"/>
<rect fill="none" height="88" stroke="#000000" stroke-width="1" width="124" x="230" y="526"/>
<text font-family="Lucida Grande" font-size="13" font-weight="bold" x="244" y="540">
+ UnitErrorVO</text>
<rect fill="#000000" height="1" stroke="#000000" stroke-width="1" width="124" x="230" y="550"/>
<text font-family="Lucida Grande" font-size="13" x="234" y="565">
-errorNo : String</text>
<text font-family="Lucida Grande" font-size="13" x="234" y="582">
-errorText : String</text>
<rect fill="#000000" height="1" stroke="#000000" stroke-width="1" width="124" x="230" y="592"/>
<polyline fill="none" points="209,330 486,330" stroke="#333399" stroke-width="1"/>
<line fill="#333399" stroke="#333399" stroke-width="1" x1="474" x2="486" y1="337" y2="330"/>
<line fill="#333399" stroke="#333399" stroke-width="1" x1="474" x2="486" y1="323" y2="330"/>
<text font-family="Lucida Grande" font-size="13" x="316" y="310">
 </text>
<text font-family="Lucida Grande" font-size="13" x="217" y="346">
-actualLocation</text>
</svg>
