<?xml version="1.0" encoding="UTF-8" standalone="no"?>
<!DOCTYPE svg PUBLIC "-//W3C//DTD SVG 1.1//EN"
 "http://www.w3.org/Graphics/SVG/1.1/DTD/svg11.dtd">
<!-- Generated by graphviz version 2.40.1 (20161225.0304)
 -->
<!-- Title: oneDegreeRelationshipsDiagram Pages: 1 -->
<svg width="325pt" height="382pt"
 viewBox="0.00 0.00 325.00 382.20" xmlns="http://www.w3.org/2000/svg" xmlns:xlink="http://www.w3.org/1999/xlink">
<g id="graph0" class="graph" transform="scale(1 1) rotate(0) translate(4 378.2)">
<title>oneDegreeRelationshipsDiagram</title>
<polygon fill="#ffffff" stroke="transparent" points="-4,4 -4,-378.2 321,-378.2 321,4 -4,4"/>
<text text-anchor="middle" x="72.4936" y="-7.3" font-family="Helvetica,sans-Serif" font-size="11.00" fill="#000000">Generated by SchemaSpy</text>
<!-- com_replica_registry -->
<g id="node1" class="node">
<title>com_replica_registry</title>
<g id="a_node1"><a xlink:href="../../tables/com_replica_registry.html" xlink:title="com_replica_registry" target="_top">
<polygon fill="#ffffff" stroke="transparent" points="8,-38.2 8,-370.2 309,-370.2 309,-38.2 8,-38.2"/>
<polygon fill="#f5f5f5" stroke="transparent" points="10.5,-345.2 10.5,-368.2 307.5,-368.2 307.5,-345.2 10.5,-345.2"/>
<polygon fill="none" stroke="#000000" points="10.5,-345.2 10.5,-368.2 307.5,-368.2 307.5,-345.2 10.5,-345.2"/>
<text text-anchor="start" x="15.5" y="-353.8" font-family="Helvetica,sans-Serif" font-weight="bold" font-size="11.00" fill="#000000">com_replica_registry</text>
<text text-anchor="start" x="272.5437" y="-353.3" font-family="Helvetica,sans-Serif" font-size="11.00" fill="#000000">[table]</text>
<polygon fill="none" stroke="#000000" points="10.5,-323.2 10.5,-345.2 223.5,-345.2 223.5,-323.2 10.5,-323.2"/>
<image xlink:href="../../images/primaryKeys.png" width="11px" height="12px" preserveAspectRatio="xMinYMin meet" x="15.5" y="-340.2"/>
<text text-anchor="start" x="30.5" y="-330.3" font-family="Helvetica,sans-Serif" font-size="11.00" fill="#000000">c_pk</text>
<polygon fill="none" stroke="#000000" points="223.5,-323.2 223.5,-345.2 307.5,-345.2 307.5,-323.2 223.5,-323.2"/>
<text text-anchor="start" x="226.5" y="-330.9" font-family="Helvetica,sans-Serif" font-size="11.00" fill="#000000">int8[19]</text>
<polygon fill="none" stroke="#000000" points="10.5,-301.2 10.5,-323.2 223.5,-323.2 223.5,-301.2 10.5,-301.2"/>
<text text-anchor="start" x="30.5" y="-308.3" font-family="Helvetica,sans-Serif" font-size="11.00" fill="#000000">c_created</text>
<polygon fill="none" stroke="#000000" points="223.5,-301.2 223.5,-323.2 307.5,-323.2 307.5,-301.2 223.5,-301.2"/>
<text text-anchor="start" x="226.3807" y="-308.9" font-family="Helvetica,sans-Serif" font-size="11.00" fill="#000000">timestamp[29,6]</text>
<polygon fill="none" stroke="#000000" points="10.5,-279.2 10.5,-301.2 223.5,-301.2 223.5,-279.2 10.5,-279.2"/>
<text text-anchor="start" x="30.5" y="-286.3" font-family="Helvetica,sans-Serif" font-size="11.00" fill="#000000">c_created_by</text>
<polygon fill="none" stroke="#000000" points="223.5,-279.2 223.5,-301.2 307.5,-301.2 307.5,-279.2 223.5,-279.2"/>
<text text-anchor="start" x="226.5" y="-286.9" font-family="Helvetica,sans-Serif" font-size="11.00" fill="#000000">varchar[255]</text>
<polygon fill="none" stroke="#000000" points="10.5,-257.2 10.5,-279.2 223.5,-279.2 223.5,-257.2 10.5,-257.2"/>
<text text-anchor="start" x="30.5" y="-264.3" font-family="Helvetica,sans-Serif" font-size="11.00" fill="#000000">c_updated_by</text>
<polygon fill="none" stroke="#000000" points="223.5,-257.2 223.5,-279.2 307.5,-279.2 307.5,-257.2 223.5,-257.2"/>
<text text-anchor="start" x="226.5" y="-264.9" font-family="Helvetica,sans-Serif" font-size="11.00" fill="#000000">varchar[255]</text>
<polygon fill="none" stroke="#000000" points="10.5,-235.2 10.5,-257.2 223.5,-257.2 223.5,-235.2 10.5,-235.2"/>
<text text-anchor="start" x="30.5" y="-242.3" font-family="Helvetica,sans-Serif" font-size="11.00" fill="#000000">c_updated</text>
<polygon fill="none" stroke="#000000" points="223.5,-235.2 223.5,-257.2 307.5,-257.2 307.5,-235.2 223.5,-235.2"/>
<text text-anchor="start" x="226.3807" y="-242.9" font-family="Helvetica,sans-Serif" font-size="11.00" fill="#000000">timestamp[29,6]</text>
<polygon fill="none" stroke="#000000" points="10.5,-213.2 10.5,-235.2 223.5,-235.2 223.5,-213.2 10.5,-213.2"/>
<text text-anchor="start" x="30.5" y="-220.3" font-family="Helvetica,sans-Serif" font-size="11.00" fill="#000000">c_ol</text>
<polygon fill="none" stroke="#000000" points="223.5,-213.2 223.5,-235.2 307.5,-235.2 307.5,-213.2 223.5,-213.2"/>
<text text-anchor="start" x="226.5" y="-220.9" font-family="Helvetica,sans-Serif" font-size="11.00" fill="#000000">int8[19]</text>
<polygon fill="#ffffff" stroke="transparent" points="10.5,-191.2 10.5,-213.2 223.5,-213.2 223.5,-191.2 10.5,-191.2"/>
<polygon fill="none" stroke="#000000" points="10.5,-191.2 10.5,-213.2 223.5,-213.2 223.5,-191.2 10.5,-191.2"/>
<text text-anchor="start" x="30.5" y="-198.3" font-family="Helvetica,sans-Serif" font-size="11.00" fill="#000000">c_pid</text>
<polygon fill="none" stroke="#000000" points="223.5,-191.2 223.5,-213.2 307.5,-213.2 307.5,-191.2 223.5,-191.2"/>
<text text-anchor="start" x="226.5" y="-198.9" font-family="Helvetica,sans-Serif" font-size="11.00" fill="#000000">varchar[255]</text>
<polygon fill="none" stroke="#000000" points="10.5,-169.2 10.5,-191.2 223.5,-191.2 223.5,-169.2 10.5,-169.2"/>
<text text-anchor="start" x="30.5" y="-176.3" font-family="Helvetica,sans-Serif" font-size="11.00" fill="#000000">c_application_name</text>
<polygon fill="none" stroke="#000000" points="223.5,-169.2 223.5,-191.2 307.5,-191.2 307.5,-169.2 223.5,-169.2"/>
<text text-anchor="start" x="226.5" y="-176.9" font-family="Helvetica,sans-Serif" font-size="11.00" fill="#000000">varchar[255]</text>
<polygon fill="none" stroke="#000000" points="10.5,-147.2 10.5,-169.2 223.5,-169.2 223.5,-147.2 10.5,-147.2"/>
<text text-anchor="start" x="30.5" y="-154.3" font-family="Helvetica,sans-Serif" font-size="11.00" fill="#000000">c_registered_at</text>
<polygon fill="none" stroke="#000000" points="223.5,-147.2 223.5,-169.2 307.5,-169.2 307.5,-147.2 223.5,-147.2"/>
<text text-anchor="start" x="226.3807" y="-154.9" font-family="Helvetica,sans-Serif" font-size="11.00" fill="#000000">timestamp[29,6]</text>
<polygon fill="none" stroke="#000000" points="10.5,-125.2 10.5,-147.2 223.5,-147.2 223.5,-125.2 10.5,-125.2"/>
<text text-anchor="start" x="30.5" y="-132.3" font-family="Helvetica,sans-Serif" font-size="11.00" fill="#000000">c_removal_endpoint</text>
<polygon fill="none" stroke="#000000" points="223.5,-125.2 223.5,-147.2 307.5,-147.2 307.5,-125.2 223.5,-125.2"/>
<text text-anchor="start" x="226.5" y="-132.9" font-family="Helvetica,sans-Serif" font-size="11.00" fill="#000000">varchar[255]</text>
<polygon fill="none" stroke="#000000" points="10.5,-103.2 10.5,-125.2 223.5,-125.2 223.5,-103.2 10.5,-103.2"/>
<text text-anchor="start" x="30.5" y="-110.3" font-family="Helvetica,sans-Serif" font-size="11.00" fill="#000000">c_request_removal_endpoint</text>
<polygon fill="none" stroke="#000000" points="223.5,-103.2 223.5,-125.2 307.5,-125.2 307.5,-103.2 223.5,-103.2"/>
<text text-anchor="start" x="226.5" y="-110.9" font-family="Helvetica,sans-Serif" font-size="11.00" fill="#000000">varchar[255]</text>
<polygon fill="none" stroke="#000000" points="10.5,-81.2 10.5,-103.2 223.5,-103.2 223.5,-81.2 10.5,-81.2"/>
<text text-anchor="start" x="30.5" y="-88.3" font-family="Helvetica,sans-Serif" font-size="11.00" fill="#000000">c_state</text>
<polygon fill="none" stroke="#000000" points="223.5,-81.2 223.5,-103.2 307.5,-103.2 307.5,-81.2 223.5,-81.2"/>
<text text-anchor="start" x="226.5" y="-88.9" font-family="Helvetica,sans-Serif" font-size="11.00" fill="#000000">varchar[255]</text>
<polygon fill="none" stroke="#000000" points="10.5,-59.2 10.5,-81.2 223.5,-81.2 223.5,-59.2 10.5,-59.2"/>
<text text-anchor="start" x="30.5" y="-66.3" font-family="Helvetica,sans-Serif" font-size="11.00" fill="#000000">c_unregistered_at</text>
<polygon fill="none" stroke="#000000" points="223.5,-59.2 223.5,-81.2 307.5,-81.2 307.5,-59.2 223.5,-59.2"/>
<text text-anchor="start" x="226.3807" y="-66.9" font-family="Helvetica,sans-Serif" font-size="11.00" fill="#000000">timestamp[29,6]</text>
<polygon fill="#ffffff" stroke="transparent" points="10.5,-40.2 10.5,-59.2 121.5,-59.2 121.5,-40.2 10.5,-40.2"/>
<polygon fill="none" stroke="#000000" points="10.5,-40.2 10.5,-59.2 121.5,-59.2 121.5,-40.2 10.5,-40.2"/>
<text text-anchor="start" x="13.5" y="-46.3" font-family="Helvetica,sans-Serif" font-size="11.00" fill="#000000">&lt; 0</text>
<polygon fill="#ffffff" stroke="transparent" points="121.5,-40.2 121.5,-59.2 223.5,-59.2 223.5,-40.2 121.5,-40.2"/>
<polygon fill="none" stroke="#000000" points="121.5,-40.2 121.5,-59.2 223.5,-59.2 223.5,-40.2 121.5,-40.2"/>
<text text-anchor="start" x="214.3862" y="-46.3" font-family="Helvetica,sans-Serif" font-size="11.00" fill="#000000"> &#160;</text>
<polygon fill="#ffffff" stroke="transparent" points="223.5,-40.2 223.5,-59.2 307.5,-59.2 307.5,-40.2 223.5,-40.2"/>
<polygon fill="none" stroke="#000000" points="223.5,-40.2 223.5,-59.2 307.5,-59.2 307.5,-40.2 223.5,-40.2"/>
<text text-anchor="start" x="288.9053" y="-46.3" font-family="Helvetica,sans-Serif" font-size="11.00" fill="#000000">0 &gt;</text>
<polygon fill="none" stroke="#000000" stroke-width="2" points="9,-39.2 9,-369.2 308,-369.2 308,-39.2 9,-39.2"/>
</a>
</g>
</g>
</g>
</svg>
