<?xml version="1.0" encoding="UTF-8" standalone="no"?>
<!DOCTYPE svg PUBLIC "-//W3C//DTD SVG 1.1//EN"
 "http://www.w3.org/Graphics/SVG/1.1/DTD/svg11.dtd">
<!-- Generated by graphviz version 2.40.1 (20161225.0304)
 -->
<!-- Title: twoDegreesRelationshipsDiagram Pages: 1 -->
<svg width="888pt" height="479pt"
 viewBox="0.00 0.00 888.00 479.20" xmlns="http://www.w3.org/2000/svg" xmlns:xlink="http://www.w3.org/1999/xlink">
<g id="graph0" class="graph" transform="scale(1 1) rotate(0) translate(4 475.2)">
<title>twoDegreesRelationshipsDiagram</title>
<polygon fill="#ffffff" stroke="transparent" points="-4,4 -4,-475.2 884,-475.2 884,4 -4,4"/>
<text text-anchor="middle" x="72.4936" y="-7.3" font-family="Helvetica,sans-Serif" font-size="11.00" fill="#000000">Generated by SchemaSpy</text>
<!-- com_location -->
<g id="node1" class="node">
<title>com_location</title>
<g id="a_node1"><a xlink:href="../../tables/com_location.html" xlink:title="com_location" target="_top">
<polygon fill="#ffffff" stroke="transparent" points="404,-142.2 404,-467.2 603,-467.2 603,-142.2 404,-142.2"/>
<polygon fill="#f5f5f5" stroke="transparent" points="404.5,-443.7 404.5,-466.7 603.5,-466.7 603.5,-443.7 404.5,-443.7"/>
<polygon fill="none" stroke="#000000" points="404.5,-443.7 404.5,-466.7 603.5,-466.7 603.5,-443.7 404.5,-443.7"/>
<text text-anchor="start" x="409.5" y="-452.3" font-family="Helvetica,sans-Serif" font-weight="bold" font-size="11.00" fill="#000000">com_location</text>
<text text-anchor="start" x="568.5437" y="-451.8" font-family="Helvetica,sans-Serif" font-size="11.00" fill="#000000">[table]</text>
<polygon fill="none" stroke="#000000" points="404.5,-421.7 404.5,-443.7 603.5,-443.7 603.5,-421.7 404.5,-421.7"/>
<image xlink:href="../../images/primaryKeys.png" width="11px" height="12px" preserveAspectRatio="xMinYMin meet" x="409.5" y="-438.7"/>
<text text-anchor="start" x="424.5" y="-428.8" font-family="Helvetica,sans-Serif" font-size="11.00" fill="#000000">c_pk</text>
<polygon fill="#ffffff" stroke="transparent" points="404.5,-399.7 404.5,-421.7 603.5,-421.7 603.5,-399.7 404.5,-399.7"/>
<polygon fill="none" stroke="#000000" points="404.5,-399.7 404.5,-421.7 603.5,-421.7 603.5,-399.7 404.5,-399.7"/>
<text text-anchor="start" x="424.5" y="-406.8" font-family="Helvetica,sans-Serif" font-size="11.00" fill="#000000">c_pid</text>
<polygon fill="#ffffff" stroke="transparent" points="404.5,-377.7 404.5,-399.7 603.5,-399.7 603.5,-377.7 404.5,-377.7"/>
<polygon fill="none" stroke="#000000" points="404.5,-377.7 404.5,-399.7 603.5,-399.7 603.5,-377.7 404.5,-377.7"/>
<text text-anchor="start" x="424.5" y="-384.8" font-family="Helvetica,sans-Serif" font-size="11.00" fill="#000000">c_erp_code</text>
<polygon fill="#ffffff" stroke="transparent" points="404.5,-355.7 404.5,-377.7 603.5,-377.7 603.5,-355.7 404.5,-355.7"/>
<polygon fill="none" stroke="#000000" points="404.5,-355.7 404.5,-377.7 603.5,-377.7 603.5,-355.7 404.5,-355.7"/>
<text text-anchor="start" x="424.5" y="-362.8" font-family="Helvetica,sans-Serif" font-size="11.00" fill="#000000">c_aisle</text>
<polygon fill="#ffffff" stroke="transparent" points="404.5,-333.7 404.5,-355.7 603.5,-355.7 603.5,-333.7 404.5,-333.7"/>
<polygon fill="none" stroke="#000000" points="404.5,-333.7 404.5,-355.7 603.5,-355.7 603.5,-333.7 404.5,-333.7"/>
<text text-anchor="start" x="424.5" y="-340.8" font-family="Helvetica,sans-Serif" font-size="11.00" fill="#000000">c_area</text>
<polygon fill="#ffffff" stroke="transparent" points="404.5,-311.7 404.5,-333.7 603.5,-333.7 603.5,-311.7 404.5,-311.7"/>
<polygon fill="none" stroke="#000000" points="404.5,-311.7 404.5,-333.7 603.5,-333.7 603.5,-311.7 404.5,-311.7"/>
<text text-anchor="start" x="424.5" y="-318.8" font-family="Helvetica,sans-Serif" font-size="11.00" fill="#000000">c_x</text>
<polygon fill="#ffffff" stroke="transparent" points="404.5,-289.7 404.5,-311.7 603.5,-311.7 603.5,-289.7 404.5,-289.7"/>
<polygon fill="none" stroke="#000000" points="404.5,-289.7 404.5,-311.7 603.5,-311.7 603.5,-289.7 404.5,-289.7"/>
<text text-anchor="start" x="424.5" y="-296.8" font-family="Helvetica,sans-Serif" font-size="11.00" fill="#000000">c_y</text>
<polygon fill="#ffffff" stroke="transparent" points="404.5,-267.7 404.5,-289.7 603.5,-289.7 603.5,-267.7 404.5,-267.7"/>
<polygon fill="none" stroke="#000000" points="404.5,-267.7 404.5,-289.7 603.5,-289.7 603.5,-267.7 404.5,-267.7"/>
<text text-anchor="start" x="424.5" y="-274.8" font-family="Helvetica,sans-Serif" font-size="11.00" fill="#000000">c_z</text>
<polygon fill="#ffffff" stroke="transparent" points="404.5,-245.7 404.5,-267.7 603.5,-267.7 603.5,-245.7 404.5,-245.7"/>
<polygon fill="none" stroke="#000000" points="404.5,-245.7 404.5,-267.7 603.5,-267.7 603.5,-245.7 404.5,-245.7"/>
<text text-anchor="start" x="424.5" y="-252.8" font-family="Helvetica,sans-Serif" font-size="11.00" fill="#000000">c_plc_code</text>
<polygon fill="none" stroke="#000000" points="404.5,-223.7 404.5,-245.7 603.5,-245.7 603.5,-223.7 404.5,-223.7"/>
<image xlink:href="../../images/foreignKeys.png" width="11px" height="12px" preserveAspectRatio="xMinYMin meet" x="409.5" y="-240.7"/>
<text text-anchor="start" x="424.5" y="-230.8" font-family="Helvetica,sans-Serif" font-size="11.00" fill="#000000">c_account</text>
<polygon fill="none" stroke="#000000" points="404.5,-201.7 404.5,-223.7 603.5,-223.7 603.5,-201.7 404.5,-201.7"/>
<image xlink:href="../../images/foreignKeys.png" width="11px" height="12px" preserveAspectRatio="xMinYMin meet" x="409.5" y="-218.7"/>
<text text-anchor="start" x="424.5" y="-208.8" font-family="Helvetica,sans-Serif" font-size="11.00" fill="#000000">c_location_group</text>
<polygon fill="none" stroke="#000000" points="404.5,-179.7 404.5,-201.7 603.5,-201.7 603.5,-179.7 404.5,-179.7"/>
<image xlink:href="../../images/foreignKeys.png" width="11px" height="12px" preserveAspectRatio="xMinYMin meet" x="409.5" y="-196.7"/>
<text text-anchor="start" x="424.5" y="-186.8" font-family="Helvetica,sans-Serif" font-size="11.00" fill="#000000">c_location_type</text>
<polygon fill="none" stroke="#000000" points="404.5,-160.7 404.5,-179.7 603.5,-179.7 603.5,-160.7 404.5,-160.7"/>
<text text-anchor="start" x="407.5" y="-166.8" font-family="Helvetica,sans-Serif" font-size="11.00" fill="#000000">...</text>
<polygon fill="#ffffff" stroke="transparent" points="404.5,-141.7 404.5,-160.7 481.5,-160.7 481.5,-141.7 404.5,-141.7"/>
<polygon fill="none" stroke="#000000" points="404.5,-141.7 404.5,-160.7 481.5,-160.7 481.5,-141.7 404.5,-141.7"/>
<text text-anchor="start" x="407.5" y="-147.8" font-family="Helvetica,sans-Serif" font-size="11.00" fill="#000000">&lt; 3</text>
<polygon fill="#ffffff" stroke="transparent" points="481.5,-141.7 481.5,-160.7 553.5,-160.7 553.5,-141.7 481.5,-141.7"/>
<polygon fill="none" stroke="#000000" points="481.5,-141.7 481.5,-160.7 553.5,-160.7 553.5,-141.7 481.5,-141.7"/>
<text text-anchor="start" x="511.9956" y="-147.8" font-family="Helvetica,sans-Serif" font-size="11.00" fill="#000000">32 rows</text>
<polygon fill="#ffffff" stroke="transparent" points="553.5,-141.7 553.5,-160.7 603.5,-160.7 603.5,-141.7 553.5,-141.7"/>
<polygon fill="none" stroke="#000000" points="553.5,-141.7 553.5,-160.7 603.5,-160.7 603.5,-141.7 553.5,-141.7"/>
<text text-anchor="start" x="584.9053" y="-147.8" font-family="Helvetica,sans-Serif" font-size="11.00" fill="#000000">3 &gt;</text>
</a>
</g>
</g>
<!-- com_account -->
<g id="node2" class="node">
<title>com_account</title>
<g id="a_node2"><a xlink:href="../../tables/com_account.html" xlink:title="com_account" target="_top">
<polygon fill="#ffffff" stroke="transparent" points="8,-214.2 8,-275.2 134,-275.2 134,-214.2 8,-214.2"/>
<polygon fill="#f5f5f5" stroke="transparent" points="8,-251.7 8,-274.7 134,-274.7 134,-251.7 8,-251.7"/>
<polygon fill="none" stroke="#000000" points="8,-251.7 8,-274.7 134,-274.7 134,-251.7 8,-251.7"/>
<text text-anchor="start" x="13" y="-260.3" font-family="Helvetica,sans-Serif" font-weight="bold" font-size="11.00" fill="#000000">com_account</text>
<text text-anchor="start" x="99.5219" y="-259.8" font-family="Helvetica,sans-Serif" font-size="11.00" fill="#000000">[table]</text>
<polygon fill="none" stroke="#000000" points="8,-232.7 8,-251.7 134,-251.7 134,-232.7 8,-232.7"/>
<text text-anchor="start" x="11" y="-238.8" font-family="Helvetica,sans-Serif" font-size="11.00" fill="#000000">...</text>
<polygon fill="#ffffff" stroke="transparent" points="8,-213.7 8,-232.7 47,-232.7 47,-213.7 8,-213.7"/>
<polygon fill="none" stroke="#000000" points="8,-213.7 8,-232.7 47,-232.7 47,-213.7 8,-213.7"/>
<text text-anchor="start" x="11" y="-219.8" font-family="Helvetica,sans-Serif" font-size="11.00" fill="#000000"> &#160;</text>
<polygon fill="#ffffff" stroke="transparent" points="47,-213.7 47,-232.7 99,-232.7 99,-213.7 47,-213.7"/>
<polygon fill="none" stroke="#000000" points="47,-213.7 47,-232.7 99,-232.7 99,-213.7 47,-213.7"/>
<text text-anchor="start" x="63.6105" y="-219.8" font-family="Helvetica,sans-Serif" font-size="11.00" fill="#000000">2 rows</text>
<polygon fill="#ffffff" stroke="transparent" points="99,-213.7 99,-232.7 134,-232.7 134,-213.7 99,-213.7"/>
<polygon fill="none" stroke="#000000" points="99,-213.7 99,-232.7 134,-232.7 134,-213.7 99,-213.7"/>
<text text-anchor="start" x="115.4053" y="-219.8" font-family="Helvetica,sans-Serif" font-size="11.00" fill="#000000">2 &gt;</text>
</a>
</g>
</g>
<!-- com_location&#45;&gt;com_account -->
<g id="edge1" class="edge">
<title>com_location:w&#45;&gt;com_account:e</title>
<path fill="none" stroke="#000000" d="M390.2733,-238.4291C381.6539,-243.7204 377.2445,-253.1578 363,-256.7 281.9139,-276.8637 257.2741,-271.2776 175,-256.7 155.8941,-253.3147 153.4034,-241.7 134,-241.7"/>
<polygon fill="#000000" stroke="#000000" points="396.7614,-236.7285 405.4128,-238.1824 400.6307,-235.7142 404.5,-234.7 404.5,-234.7 404.5,-234.7 400.6307,-235.7142 403.5872,-231.2176 396.7614,-236.7285 396.7614,-236.7285"/>
<ellipse fill="none" stroke="#000000" cx="393.666" cy="-237.5398" rx="3.2" ry="3.2"/>
</g>
<!-- com_location_group -->
<g id="node3" class="node">
<title>com_location_group</title>
<g id="a_node3"><a xlink:href="../../tables/com_location_group.html" xlink:title="com_location_group" target="_top">
<polygon fill="#ffffff" stroke="transparent" points="183,-185.2 183,-246.2 355,-246.2 355,-185.2 183,-185.2"/>
<polygon fill="#f5f5f5" stroke="transparent" points="183,-222.7 183,-245.7 355,-245.7 355,-222.7 183,-222.7"/>
<polygon fill="none" stroke="#000000" points="183,-222.7 183,-245.7 355,-245.7 355,-222.7 183,-222.7"/>
<text text-anchor="start" x="188" y="-231.3" font-family="Helvetica,sans-Serif" font-weight="bold" font-size="11.00" fill="#000000">com_location_group</text>
<text text-anchor="start" x="320.5219" y="-230.8" font-family="Helvetica,sans-Serif" font-size="11.00" fill="#000000">[table]</text>
<polygon fill="none" stroke="#000000" points="183,-203.7 183,-222.7 355,-222.7 355,-203.7 183,-203.7"/>
<text text-anchor="start" x="186" y="-209.8" font-family="Helvetica,sans-Serif" font-size="11.00" fill="#000000">...</text>
<polygon fill="#ffffff" stroke="transparent" points="183,-184.7 183,-203.7 247,-203.7 247,-184.7 183,-184.7"/>
<polygon fill="none" stroke="#000000" points="183,-184.7 183,-203.7 247,-203.7 247,-184.7 183,-184.7"/>
<text text-anchor="start" x="186" y="-190.8" font-family="Helvetica,sans-Serif" font-size="11.00" fill="#000000">&lt; 4</text>
<polygon fill="#ffffff" stroke="transparent" points="247,-184.7 247,-203.7 312,-203.7 312,-184.7 247,-184.7"/>
<polygon fill="none" stroke="#000000" points="247,-184.7 247,-203.7 312,-203.7 312,-184.7 247,-184.7"/>
<text text-anchor="start" x="270.4956" y="-190.8" font-family="Helvetica,sans-Serif" font-size="11.00" fill="#000000">42 rows</text>
<polygon fill="#ffffff" stroke="transparent" points="312,-184.7 312,-203.7 355,-203.7 355,-184.7 312,-184.7"/>
<polygon fill="none" stroke="#000000" points="312,-184.7 312,-203.7 355,-203.7 355,-184.7 312,-184.7"/>
<text text-anchor="start" x="336.4053" y="-190.8" font-family="Helvetica,sans-Serif" font-size="11.00" fill="#000000">4 &gt;</text>
</a>
</g>
</g>
<!-- com_location&#45;&gt;com_location_group -->
<g id="edge2" class="edge">
<title>com_location:w&#45;&gt;com_location_group:e</title>
<path fill="none" stroke="#000000" d="M389.8428,-212.7C378.4139,-212.7 371.1563,-212.7 355,-212.7"/>
<polygon fill="#000000" stroke="#000000" points="396.5,-212.7001 404.5,-216.3 400.5,-212.7 404.5,-212.7 404.5,-212.7 404.5,-212.7 400.5,-212.7 404.5,-209.1 396.5,-212.7001 396.5,-212.7001"/>
<ellipse fill="none" stroke="#000000" cx="393.3" cy="-212.7001" rx="3.2" ry="3.2"/>
</g>
<!-- com_location_type -->
<g id="node4" class="node">
<title>com_location_type</title>
<g id="a_node4"><a xlink:href="../../tables/com_location_type.html" xlink:title="com_location_type" target="_top">
<polygon fill="#ffffff" stroke="transparent" points="187.5,-103.2 187.5,-164.2 350.5,-164.2 350.5,-103.2 187.5,-103.2"/>
<polygon fill="#f5f5f5" stroke="transparent" points="188,-140.7 188,-163.7 351,-163.7 351,-140.7 188,-140.7"/>
<polygon fill="none" stroke="#000000" points="188,-140.7 188,-163.7 351,-163.7 351,-140.7 188,-140.7"/>
<text text-anchor="start" x="193" y="-149.3" font-family="Helvetica,sans-Serif" font-weight="bold" font-size="11.00" fill="#000000">com_location_type</text>
<text text-anchor="start" x="316.5219" y="-148.8" font-family="Helvetica,sans-Serif" font-size="11.00" fill="#000000">[table]</text>
<polygon fill="none" stroke="#000000" points="188,-121.7 188,-140.7 351,-140.7 351,-121.7 188,-121.7"/>
<text text-anchor="start" x="191" y="-127.8" font-family="Helvetica,sans-Serif" font-size="11.00" fill="#000000">...</text>
<polygon fill="#ffffff" stroke="transparent" points="188,-102.7 188,-121.7 246,-121.7 246,-102.7 188,-102.7"/>
<polygon fill="none" stroke="#000000" points="188,-102.7 188,-121.7 246,-121.7 246,-102.7 188,-102.7"/>
<text text-anchor="start" x="191" y="-108.8" font-family="Helvetica,sans-Serif" font-size="11.00" fill="#000000"> &#160;</text>
<polygon fill="#ffffff" stroke="transparent" points="246,-102.7 246,-121.7 307,-121.7 307,-102.7 246,-102.7"/>
<polygon fill="none" stroke="#000000" points="246,-102.7 246,-121.7 307,-121.7 307,-102.7 246,-102.7"/>
<text text-anchor="start" x="271.6105" y="-108.8" font-family="Helvetica,sans-Serif" font-size="11.00" fill="#000000">2 rows</text>
<polygon fill="#ffffff" stroke="transparent" points="307,-102.7 307,-121.7 351,-121.7 351,-102.7 307,-102.7"/>
<polygon fill="none" stroke="#000000" points="307,-102.7 307,-121.7 351,-121.7 351,-102.7 307,-102.7"/>
<text text-anchor="start" x="332.4053" y="-108.8" font-family="Helvetica,sans-Serif" font-size="11.00" fill="#000000">2 &gt;</text>
</a>
</g>
</g>
<!-- com_location&#45;&gt;com_location_type -->
<g id="edge3" class="edge">
<title>com_location:w&#45;&gt;com_location_type:e</title>
<path fill="none" stroke="#000000" d="M390.2902,-185.9919C373.3585,-171.8475 380.5873,-130.7 351,-130.7"/>
<polygon fill="#000000" stroke="#000000" points="396.906,-188.1838 403.3677,-194.1173 400.703,-189.4419 404.5,-190.7 404.5,-190.7 404.5,-190.7 400.703,-189.4419 405.6323,-187.2827 396.906,-188.1838 396.906,-188.1838"/>
<ellipse fill="none" stroke="#000000" cx="393.8684" cy="-187.1774" rx="3.2" ry="3.2"/>
</g>
<!-- com_location_group&#45;&gt;com_account -->
<g id="edge4" class="edge">
<title>com_location_group:w&#45;&gt;com_account:e</title>
<path fill="none" stroke="#000000" d="M168.9495,-216.7323C156.971,-224.7007 153.3749,-241.7 134,-241.7"/>
<polygon fill="#000000" stroke="#000000" points="175.3104,-214.9069 183.9931,-216.1603 179.1552,-213.8034 183,-212.7 183,-212.7 183,-212.7 179.1552,-213.8034 182.0069,-209.2397 175.3104,-214.9069 175.3104,-214.9069"/>
<ellipse fill="none" stroke="#000000" cx="172.2346" cy="-215.7896" rx="3.2" ry="3.2"/>
</g>
<!-- com_location_message -->
<g id="node5" class="node">
<title>com_location_message</title>
<g id="a_node5"><a xlink:href="../../tables/com_location_message.html" xlink:title="com_location_message" target="_top">
<polygon fill="#ffffff" stroke="transparent" points="652,-173.7 652,-263.7 872,-263.7 872,-173.7 652,-173.7"/>
<polygon fill="#f5f5f5" stroke="transparent" points="654,-238.7 654,-261.7 870,-261.7 870,-238.7 654,-238.7"/>
<polygon fill="none" stroke="#000000" points="654,-238.7 654,-261.7 870,-261.7 870,-238.7 654,-238.7"/>
<text text-anchor="start" x="659" y="-247.3" font-family="Helvetica,sans-Serif" font-weight="bold" font-size="11.00" fill="#000000">com_location_message</text>
<text text-anchor="start" x="835.0437" y="-246.8" font-family="Helvetica,sans-Serif" font-size="11.00" fill="#000000">[table]</text>
<polygon fill="none" stroke="#000000" points="654,-216.7 654,-238.7 828,-238.7 828,-216.7 654,-216.7"/>
<image xlink:href="../../images/primaryKeys.png" width="11px" height="12px" preserveAspectRatio="xMinYMin meet" x="659" y="-233.7"/>
<text text-anchor="start" x="674" y="-223.8" font-family="Helvetica,sans-Serif" font-size="11.00" fill="#000000">c_location_id</text>
<polygon fill="none" stroke="#000000" points="828,-216.7 828,-238.7 870,-238.7 870,-216.7 828,-216.7"/>
<text text-anchor="start" x="830.9644" y="-224.4" font-family="Helvetica,sans-Serif" font-size="11.00" fill="#000000">int8[19]</text>
<polygon fill="none" stroke="#000000" points="654,-194.7 654,-216.7 828,-216.7 828,-194.7 654,-194.7"/>
<image xlink:href="../../images/primaryKeys.png" width="11px" height="12px" preserveAspectRatio="xMinYMin meet" x="659" y="-211.7"/>
<text text-anchor="start" x="674" y="-201.8" font-family="Helvetica,sans-Serif" font-size="11.00" fill="#000000">c_message_id</text>
<polygon fill="none" stroke="#000000" points="828,-194.7 828,-216.7 870,-216.7 870,-194.7 828,-194.7"/>
<text text-anchor="start" x="830.9644" y="-202.4" font-family="Helvetica,sans-Serif" font-size="11.00" fill="#000000">int8[19]</text>
<polygon fill="#ffffff" stroke="transparent" points="654,-175.7 654,-194.7 745,-194.7 745,-175.7 654,-175.7"/>
<polygon fill="none" stroke="#000000" points="654,-175.7 654,-194.7 745,-194.7 745,-175.7 654,-175.7"/>
<text text-anchor="start" x="657" y="-181.8" font-family="Helvetica,sans-Serif" font-size="11.00" fill="#000000">&lt; 2</text>
<polygon fill="#ffffff" stroke="transparent" points="745,-175.7 745,-194.7 828,-194.7 828,-175.7 745,-175.7"/>
<polygon fill="none" stroke="#000000" points="745,-175.7 745,-194.7 828,-194.7 828,-175.7 745,-175.7"/>
<text text-anchor="start" x="818.8862" y="-181.8" font-family="Helvetica,sans-Serif" font-size="11.00" fill="#000000"> &#160;</text>
<polygon fill="#ffffff" stroke="transparent" points="828,-175.7 828,-194.7 870,-194.7 870,-175.7 828,-175.7"/>
<polygon fill="none" stroke="#000000" points="828,-175.7 828,-194.7 870,-194.7 870,-175.7 828,-175.7"/>
<text text-anchor="start" x="851.4053" y="-181.8" font-family="Helvetica,sans-Serif" font-size="11.00" fill="#000000">0 &gt;</text>
<polygon fill="none" stroke="#000000" stroke-width="2" points="653,-174.7 653,-262.7 871,-262.7 871,-174.7 653,-174.7"/>
</a>
</g>
</g>
<!-- com_location_message&#45;&gt;com_location -->
<g id="edge5" class="edge">
<title>com_location_message:w&#45;&gt;com_location:e</title>
<path fill="none" stroke="#000000" d="M639.3938,-229.8635C575.9287,-251.7727 691.6535,-432.7 603.5,-432.7"/>
<polygon fill="#000000" stroke="#000000" points="646.0863,-228.8723 654.5275,-231.2611 650.0432,-228.2861 654,-227.7 654,-227.7 654,-227.7 650.0432,-228.2861 653.4725,-224.1389 646.0863,-228.8723 646.0863,-228.8723"/>
<ellipse fill="none" stroke="#000000" cx="642.9209" cy="-229.3412" rx="3.2" ry="3.2"/>
</g>
<!-- com_message -->
<g id="node6" class="node">
<title>com_message</title>
<g id="a_node6"><a xlink:href="../../tables/com_message.html" xlink:title="com_message" target="_top">
<polygon fill="#ffffff" stroke="transparent" points="437.5,-38.2 437.5,-121.2 569.5,-121.2 569.5,-38.2 437.5,-38.2"/>
<polygon fill="#f5f5f5" stroke="transparent" points="437.5,-97.7 437.5,-120.7 569.5,-120.7 569.5,-97.7 437.5,-97.7"/>
<polygon fill="none" stroke="#000000" points="437.5,-97.7 437.5,-120.7 569.5,-120.7 569.5,-97.7 437.5,-97.7"/>
<text text-anchor="start" x="442.5" y="-106.3" font-family="Helvetica,sans-Serif" font-weight="bold" font-size="11.00" fill="#000000">com_message</text>
<text text-anchor="start" x="535.0219" y="-105.8" font-family="Helvetica,sans-Serif" font-size="11.00" fill="#000000">[table]</text>
<polygon fill="none" stroke="#000000" points="437.5,-75.7 437.5,-97.7 569.5,-97.7 569.5,-75.7 437.5,-75.7"/>
<image xlink:href="../../images/primaryKeys.png" width="11px" height="12px" preserveAspectRatio="xMinYMin meet" x="442.5" y="-92.7"/>
<text text-anchor="start" x="460.5" y="-82.8" font-family="Helvetica,sans-Serif" font-size="11.00" fill="#000000">c_pk</text>
<polygon fill="none" stroke="#000000" points="437.5,-56.7 437.5,-75.7 569.5,-75.7 569.5,-56.7 437.5,-56.7"/>
<text text-anchor="start" x="440.5" y="-62.8" font-family="Helvetica,sans-Serif" font-size="11.00" fill="#000000">...</text>
<polygon fill="#ffffff" stroke="transparent" points="437.5,-37.7 437.5,-56.7 492.5,-56.7 492.5,-37.7 437.5,-37.7"/>
<polygon fill="none" stroke="#000000" points="437.5,-37.7 437.5,-56.7 492.5,-56.7 492.5,-37.7 437.5,-37.7"/>
<text text-anchor="start" x="440.5" y="-43.8" font-family="Helvetica,sans-Serif" font-size="11.00" fill="#000000"> &#160;</text>
<polygon fill="#ffffff" stroke="transparent" points="492.5,-37.7 492.5,-56.7 526.5,-56.7 526.5,-37.7 492.5,-37.7"/>
<polygon fill="none" stroke="#000000" points="492.5,-37.7 492.5,-56.7 526.5,-56.7 526.5,-37.7 492.5,-37.7"/>
<text text-anchor="start" x="517.3862" y="-43.8" font-family="Helvetica,sans-Serif" font-size="11.00" fill="#000000"> &#160;</text>
<polygon fill="#ffffff" stroke="transparent" points="526.5,-37.7 526.5,-56.7 569.5,-56.7 569.5,-37.7 526.5,-37.7"/>
<polygon fill="none" stroke="#000000" points="526.5,-37.7 526.5,-56.7 569.5,-56.7 569.5,-37.7 526.5,-37.7"/>
<text text-anchor="start" x="550.9053" y="-43.8" font-family="Helvetica,sans-Serif" font-size="11.00" fill="#000000">1 &gt;</text>
</a>
</g>
</g>
<!-- com_location_message&#45;&gt;com_message -->
<g id="edge6" class="edge">
<title>com_location_message:w&#45;&gt;com_message:e</title>
<path fill="none" stroke="#000000" d="M643.3908,-204.2162C619.3356,-196.361 631.114,-158.9605 611,-131.7 594.8469,-109.8077 596.7066,-86.7 569.5,-86.7"/>
<polygon fill="#000000" stroke="#000000" points="653.7618,-201.6277 652.6536,-209.5506 651.0691,-209.329 652.1772,-201.4061 653.7618,-201.6277"/>
<polyline fill="none" stroke="#000000" points="654,-205.7 650.0386,-205.1459 "/>
<ellipse fill="none" stroke="#000000" cx="646.8694" cy="-204.7027" rx="3.2" ry="3.2"/>
</g>
<!-- com_transport_unit -->
<g id="node7" class="node">
<title>com_transport_unit</title>
<g id="a_node7"><a xlink:href="../../tables/com_transport_unit.html" xlink:title="com_transport_unit" target="_top">
<polygon fill="#ffffff" stroke="transparent" points="677.5,-405.2 677.5,-466.2 846.5,-466.2 846.5,-405.2 677.5,-405.2"/>
<polygon fill="#f5f5f5" stroke="transparent" points="678,-442.7 678,-465.7 847,-465.7 847,-442.7 678,-442.7"/>
<polygon fill="none" stroke="#000000" points="678,-442.7 678,-465.7 847,-465.7 847,-442.7 678,-442.7"/>
<text text-anchor="start" x="683" y="-451.3" font-family="Helvetica,sans-Serif" font-weight="bold" font-size="11.00" fill="#000000">com_transport_unit</text>
<text text-anchor="start" x="812.5219" y="-450.8" font-family="Helvetica,sans-Serif" font-size="11.00" fill="#000000">[table]</text>
<polygon fill="none" stroke="#000000" points="678,-423.7 678,-442.7 847,-442.7 847,-423.7 678,-423.7"/>
<text text-anchor="start" x="681" y="-429.8" font-family="Helvetica,sans-Serif" font-size="11.00" fill="#000000">...</text>
<polygon fill="#ffffff" stroke="transparent" points="678,-404.7 678,-423.7 743,-423.7 743,-404.7 678,-404.7"/>
<polygon fill="none" stroke="#000000" points="678,-404.7 678,-423.7 743,-423.7 743,-404.7 678,-404.7"/>
<text text-anchor="start" x="681" y="-410.8" font-family="Helvetica,sans-Serif" font-size="11.00" fill="#000000">&lt; 4</text>
<polygon fill="#ffffff" stroke="transparent" points="743,-404.7 743,-423.7 803,-423.7 803,-404.7 743,-404.7"/>
<polygon fill="none" stroke="#000000" points="743,-404.7 743,-423.7 803,-423.7 803,-404.7 743,-404.7"/>
<text text-anchor="start" x="767.6105" y="-410.8" font-family="Helvetica,sans-Serif" font-size="11.00" fill="#000000">2 rows</text>
<polygon fill="#ffffff" stroke="transparent" points="803,-404.7 803,-423.7 847,-423.7 847,-404.7 803,-404.7"/>
<polygon fill="none" stroke="#000000" points="803,-404.7 803,-423.7 847,-423.7 847,-404.7 803,-404.7"/>
<text text-anchor="start" x="828.4053" y="-410.8" font-family="Helvetica,sans-Serif" font-size="11.00" fill="#000000">3 &gt;</text>
</a>
</g>
</g>
<!-- com_transport_unit&#45;&gt;com_location -->
<g id="edge7" class="edge">
<title>com_transport_unit:w&#45;&gt;com_location:e</title>
<path fill="none" stroke="#000000" d="M663.798,-430.2789C641.6004,-426.8539 631.3082,-427.6609 603.5,-432.7"/>
<polygon fill="#000000" stroke="#000000" points="670.1138,-431.3555 677.395,-436.2488 674.0569,-432.0278 678,-432.7 678,-432.7 678,-432.7 674.0569,-432.0278 678.605,-429.1512 670.1138,-431.3555 670.1138,-431.3555"/>
<ellipse fill="none" stroke="#000000" cx="666.9593" cy="-430.8177" rx="3.2" ry="3.2"/>
</g>
<!-- com_transport_unit&#45;&gt;com_location -->
<g id="edge8" class="edge">
<title>com_transport_unit:w&#45;&gt;com_location:e</title>
<path fill="none" stroke="#000000" d="M663.798,-435.5246C641.6004,-439.5204 631.3082,-438.5789 603.5,-432.7"/>
<polygon fill="#000000" stroke="#000000" points="670.1537,-434.2606 678.7023,-436.2308 674.0768,-433.4803 678,-432.7 678,-432.7 678,-432.7 674.0768,-433.4803 677.2977,-429.1692 670.1537,-434.2606 670.1537,-434.2606"/>
<ellipse fill="none" stroke="#000000" cx="667.0152" cy="-434.8848" rx="3.2" ry="3.2"/>
</g>
</g>
</svg>
