<?xml version="1.0" encoding="UTF-8" standalone="no"?>
<!DOCTYPE svg PUBLIC "-//W3C//DTD SVG 1.1//EN"
 "http://www.w3.org/Graphics/SVG/1.1/DTD/svg11.dtd">
<!-- Generated by graphviz version 2.40.1 (20161225.0304)
 -->
<!-- Title: oneDegreeRelationshipsDiagram Pages: 1 -->
<svg width="549pt" height="418pt"
 viewBox="0.00 0.00 549.00 417.70" xmlns="http://www.w3.org/2000/svg" xmlns:xlink="http://www.w3.org/1999/xlink">
<g id="graph0" class="graph" transform="scale(1 1) rotate(0) translate(4 413.7)">
<title>oneDegreeRelationshipsDiagram</title>
<polygon fill="#ffffff" stroke="transparent" points="-4,4 -4,-413.7 545,-413.7 545,4 -4,4"/>
<text text-anchor="middle" x="72.4936" y="-7.3" font-family="Helvetica,sans-Serif" font-size="11.00" fill="#000000">Generated by SchemaSpy</text>
<!-- com_type_placing_rule -->
<g id="node1" class="node">
<title>com_type_placing_rule</title>
<g id="a_node1"><a xlink:href="../../tables/com_type_placing_rule.html" xlink:title="com_type_placing_rule" target="_top">
<polygon fill="#ffffff" stroke="transparent" points="263,-161.7 263,-405.7 533,-405.7 533,-161.7 263,-161.7"/>
<polygon fill="#f5f5f5" stroke="transparent" points="265,-380.7 265,-403.7 531,-403.7 531,-380.7 265,-380.7"/>
<polygon fill="none" stroke="#000000" points="265,-380.7 265,-403.7 531,-403.7 531,-380.7 265,-380.7"/>
<text text-anchor="start" x="270" y="-389.3" font-family="Helvetica,sans-Serif" font-weight="bold" font-size="11.00" fill="#000000">com_type_placing_rule</text>
<text text-anchor="start" x="496.0437" y="-388.8" font-family="Helvetica,sans-Serif" font-size="11.00" fill="#000000">[table]</text>
<polygon fill="none" stroke="#000000" points="265,-358.7 265,-380.7 447,-380.7 447,-358.7 265,-358.7"/>
<image xlink:href="../../images/primaryKeys.png" width="11px" height="12px" preserveAspectRatio="xMinYMin meet" x="270" y="-375.7"/>
<text text-anchor="start" x="285" y="-365.8" font-family="Helvetica,sans-Serif" font-size="11.00" fill="#000000">c_pk</text>
<polygon fill="none" stroke="#000000" points="447,-358.7 447,-380.7 531,-380.7 531,-358.7 447,-358.7"/>
<text text-anchor="start" x="450" y="-366.4" font-family="Helvetica,sans-Serif" font-size="11.00" fill="#000000">int8[19]</text>
<polygon fill="none" stroke="#000000" points="265,-336.7 265,-358.7 447,-358.7 447,-336.7 265,-336.7"/>
<text text-anchor="start" x="285" y="-343.8" font-family="Helvetica,sans-Serif" font-size="11.00" fill="#000000">c_created</text>
<polygon fill="none" stroke="#000000" points="447,-336.7 447,-358.7 531,-358.7 531,-336.7 447,-336.7"/>
<text text-anchor="start" x="449.8807" y="-344.4" font-family="Helvetica,sans-Serif" font-size="11.00" fill="#000000">timestamp[29,6]</text>
<polygon fill="none" stroke="#000000" points="265,-314.7 265,-336.7 447,-336.7 447,-314.7 265,-314.7"/>
<text text-anchor="start" x="285" y="-321.8" font-family="Helvetica,sans-Serif" font-size="11.00" fill="#000000">c_created_by</text>
<polygon fill="none" stroke="#000000" points="447,-314.7 447,-336.7 531,-336.7 531,-314.7 447,-314.7"/>
<text text-anchor="start" x="450" y="-322.4" font-family="Helvetica,sans-Serif" font-size="11.00" fill="#000000">varchar[255]</text>
<polygon fill="none" stroke="#000000" points="265,-292.7 265,-314.7 447,-314.7 447,-292.7 265,-292.7"/>
<text text-anchor="start" x="285" y="-299.8" font-family="Helvetica,sans-Serif" font-size="11.00" fill="#000000">c_updated_by</text>
<polygon fill="none" stroke="#000000" points="447,-292.7 447,-314.7 531,-314.7 531,-292.7 447,-292.7"/>
<text text-anchor="start" x="450" y="-300.4" font-family="Helvetica,sans-Serif" font-size="11.00" fill="#000000">varchar[255]</text>
<polygon fill="none" stroke="#000000" points="265,-270.7 265,-292.7 447,-292.7 447,-270.7 265,-270.7"/>
<text text-anchor="start" x="285" y="-277.8" font-family="Helvetica,sans-Serif" font-size="11.00" fill="#000000">c_updated</text>
<polygon fill="none" stroke="#000000" points="447,-270.7 447,-292.7 531,-292.7 531,-270.7 447,-270.7"/>
<text text-anchor="start" x="449.8807" y="-278.4" font-family="Helvetica,sans-Serif" font-size="11.00" fill="#000000">timestamp[29,6]</text>
<polygon fill="none" stroke="#000000" points="265,-248.7 265,-270.7 447,-270.7 447,-248.7 265,-248.7"/>
<text text-anchor="start" x="285" y="-255.8" font-family="Helvetica,sans-Serif" font-size="11.00" fill="#000000">c_ol</text>
<polygon fill="none" stroke="#000000" points="447,-248.7 447,-270.7 531,-270.7 531,-248.7 447,-248.7"/>
<text text-anchor="start" x="450" y="-256.4" font-family="Helvetica,sans-Serif" font-size="11.00" fill="#000000">int8[19]</text>
<polygon fill="#ffffff" stroke="transparent" points="265,-226.7 265,-248.7 447,-248.7 447,-226.7 265,-226.7"/>
<polygon fill="none" stroke="#000000" points="265,-226.7 265,-248.7 447,-248.7 447,-226.7 265,-226.7"/>
<text text-anchor="start" x="285" y="-233.8" font-family="Helvetica,sans-Serif" font-size="11.00" fill="#000000">c_privilege_level</text>
<polygon fill="none" stroke="#000000" points="447,-226.7 447,-248.7 531,-248.7 531,-226.7 447,-226.7"/>
<text text-anchor="start" x="450" y="-234.4" font-family="Helvetica,sans-Serif" font-size="11.00" fill="#000000">int4[10]</text>
<polygon fill="#ffffff" stroke="transparent" points="265,-204.7 265,-226.7 447,-226.7 447,-204.7 265,-204.7"/>
<polygon fill="none" stroke="#000000" points="265,-204.7 265,-226.7 447,-226.7 447,-204.7 265,-204.7"/>
<image xlink:href="../../images/foreignKeys.png" width="11px" height="12px" preserveAspectRatio="xMinYMin meet" x="270" y="-221.7"/>
<text text-anchor="start" x="285" y="-211.8" font-family="Helvetica,sans-Serif" font-size="11.00" fill="#000000">c_allowed_location_type</text>
<polygon fill="none" stroke="#000000" points="447,-204.7 447,-226.7 531,-226.7 531,-204.7 447,-204.7"/>
<text text-anchor="start" x="450" y="-212.4" font-family="Helvetica,sans-Serif" font-size="11.00" fill="#000000">int8[19]</text>
<polygon fill="#ffffff" stroke="transparent" points="265,-182.7 265,-204.7 447,-204.7 447,-182.7 265,-182.7"/>
<polygon fill="none" stroke="#000000" points="265,-182.7 265,-204.7 447,-204.7 447,-182.7 265,-182.7"/>
<image xlink:href="../../images/foreignKeys.png" width="11px" height="12px" preserveAspectRatio="xMinYMin meet" x="270" y="-199.7"/>
<text text-anchor="start" x="285" y="-189.8" font-family="Helvetica,sans-Serif" font-size="11.00" fill="#000000">c_tut_id</text>
<polygon fill="none" stroke="#000000" points="447,-182.7 447,-204.7 531,-204.7 531,-182.7 447,-182.7"/>
<text text-anchor="start" x="450" y="-190.4" font-family="Helvetica,sans-Serif" font-size="11.00" fill="#000000">int8[19]</text>
<polygon fill="#ffffff" stroke="transparent" points="265,-163.7 265,-182.7 347,-182.7 347,-163.7 265,-163.7"/>
<polygon fill="none" stroke="#000000" points="265,-163.7 265,-182.7 347,-182.7 347,-163.7 265,-163.7"/>
<text text-anchor="start" x="268" y="-169.8" font-family="Helvetica,sans-Serif" font-size="11.00" fill="#000000">&lt; 2</text>
<polygon fill="#ffffff" stroke="transparent" points="347,-163.7 347,-182.7 447,-182.7 447,-163.7 347,-163.7"/>
<polygon fill="none" stroke="#000000" points="347,-163.7 347,-182.7 447,-182.7 447,-163.7 347,-163.7"/>
<text text-anchor="start" x="411.6105" y="-169.8" font-family="Helvetica,sans-Serif" font-size="11.00" fill="#000000">3 rows</text>
<polygon fill="#ffffff" stroke="transparent" points="447,-163.7 447,-182.7 531,-182.7 531,-163.7 447,-163.7"/>
<polygon fill="none" stroke="#000000" points="447,-163.7 447,-182.7 531,-182.7 531,-163.7 447,-163.7"/>
<text text-anchor="start" x="512.4053" y="-169.8" font-family="Helvetica,sans-Serif" font-size="11.00" fill="#000000">0 &gt;</text>
<polygon fill="none" stroke="#000000" stroke-width="2" points="264,-162.7 264,-404.7 532,-404.7 532,-162.7 264,-162.7"/>
</a>
</g>
</g>
<!-- com_location_type -->
<g id="node2" class="node">
<title>com_location_type</title>
<g id="a_node2"><a xlink:href="../../tables/com_location_type.html" xlink:title="com_location_type" target="_top">
<polygon fill="#ffffff" stroke="transparent" points="29.5,-186.2 29.5,-313.2 192.5,-313.2 192.5,-186.2 29.5,-186.2"/>
<polygon fill="#f5f5f5" stroke="transparent" points="30,-289.7 30,-312.7 193,-312.7 193,-289.7 30,-289.7"/>
<polygon fill="none" stroke="#000000" points="30,-289.7 30,-312.7 193,-312.7 193,-289.7 30,-289.7"/>
<text text-anchor="start" x="35" y="-298.3" font-family="Helvetica,sans-Serif" font-weight="bold" font-size="11.00" fill="#000000">com_location_type</text>
<text text-anchor="start" x="158.5219" y="-297.8" font-family="Helvetica,sans-Serif" font-size="11.00" fill="#000000">[table]</text>
<polygon fill="none" stroke="#000000" points="30,-267.7 30,-289.7 193,-289.7 193,-267.7 30,-267.7"/>
<image xlink:href="../../images/primaryKeys.png" width="11px" height="12px" preserveAspectRatio="xMinYMin meet" x="35" y="-284.7"/>
<text text-anchor="start" x="59" y="-274.8" font-family="Helvetica,sans-Serif" font-size="11.00" fill="#000000">c_pk</text>
<polygon fill="#ffffff" stroke="transparent" points="30,-245.7 30,-267.7 193,-267.7 193,-245.7 30,-245.7"/>
<polygon fill="none" stroke="#000000" points="30,-245.7 30,-267.7 193,-267.7 193,-245.7 30,-245.7"/>
<text text-anchor="start" x="59" y="-252.8" font-family="Helvetica,sans-Serif" font-size="11.00" fill="#000000">c_pid</text>
<polygon fill="#ffffff" stroke="transparent" points="30,-223.7 30,-245.7 193,-245.7 193,-223.7 30,-223.7"/>
<polygon fill="none" stroke="#000000" points="30,-223.7 30,-245.7 193,-245.7 193,-223.7 30,-223.7"/>
<text text-anchor="start" x="59" y="-230.8" font-family="Helvetica,sans-Serif" font-size="11.00" fill="#000000">c_type</text>
<polygon fill="none" stroke="#000000" points="30,-204.7 30,-223.7 193,-223.7 193,-204.7 30,-204.7"/>
<text text-anchor="start" x="33" y="-210.8" font-family="Helvetica,sans-Serif" font-size="11.00" fill="#000000">...</text>
<polygon fill="#ffffff" stroke="transparent" points="30,-185.7 30,-204.7 88,-204.7 88,-185.7 30,-185.7"/>
<polygon fill="none" stroke="#000000" points="30,-185.7 30,-204.7 88,-204.7 88,-185.7 30,-185.7"/>
<text text-anchor="start" x="33" y="-191.8" font-family="Helvetica,sans-Serif" font-size="11.00" fill="#000000"> &#160;</text>
<polygon fill="#ffffff" stroke="transparent" points="88,-185.7 88,-204.7 149,-204.7 149,-185.7 88,-185.7"/>
<polygon fill="none" stroke="#000000" points="88,-185.7 88,-204.7 149,-204.7 149,-185.7 88,-185.7"/>
<text text-anchor="start" x="113.6105" y="-191.8" font-family="Helvetica,sans-Serif" font-size="11.00" fill="#000000">2 rows</text>
<polygon fill="#ffffff" stroke="transparent" points="149,-185.7 149,-204.7 193,-204.7 193,-185.7 149,-185.7"/>
<polygon fill="none" stroke="#000000" points="149,-185.7 149,-204.7 193,-204.7 193,-185.7 149,-185.7"/>
<text text-anchor="start" x="174.4053" y="-191.8" font-family="Helvetica,sans-Serif" font-size="11.00" fill="#000000">2 &gt;</text>
</a>
</g>
</g>
<!-- com_type_placing_rule&#45;&gt;com_location_type -->
<g id="edge1" class="edge">
<title>com_type_placing_rule:w&#45;&gt;com_location_type:e</title>
<path fill="none" stroke="#000000" d="M250.7381,-218.7386C224.9634,-231.3231 229.8733,-278.7 193,-278.7"/>
<polygon fill="#000000" stroke="#000000" points="257.1756,-217.3671 265.7502,-219.221 261.0878,-216.5335 265,-215.7 265,-215.7 265,-215.7 261.0878,-216.5335 264.2498,-212.179 257.1756,-217.3671 257.1756,-217.3671"/>
<ellipse fill="none" stroke="#000000" cx="254.0459" cy="-218.0339" rx="3.2" ry="3.2"/>
</g>
<!-- com_transport_unit_type -->
<g id="node3" class="node">
<title>com_transport_unit_type</title>
<g id="a_node3"><a xlink:href="../../tables/com_transport_unit_type.html" xlink:title="com_transport_unit_type" target="_top">
<polygon fill="#ffffff" stroke="transparent" points="8,-38.2 8,-165.2 214,-165.2 214,-38.2 8,-38.2"/>
<polygon fill="#f5f5f5" stroke="transparent" points="8,-141.7 8,-164.7 214,-164.7 214,-141.7 8,-141.7"/>
<polygon fill="none" stroke="#000000" points="8,-141.7 8,-164.7 214,-164.7 214,-141.7 8,-141.7"/>
<text text-anchor="start" x="13" y="-150.3" font-family="Helvetica,sans-Serif" font-weight="bold" font-size="11.00" fill="#000000">com_transport_unit_type</text>
<text text-anchor="start" x="179.5219" y="-149.8" font-family="Helvetica,sans-Serif" font-size="11.00" fill="#000000">[table]</text>
<polygon fill="none" stroke="#000000" points="8,-119.7 8,-141.7 214,-141.7 214,-119.7 8,-119.7"/>
<image xlink:href="../../images/primaryKeys.png" width="11px" height="12px" preserveAspectRatio="xMinYMin meet" x="13" y="-136.7"/>
<text text-anchor="start" x="37" y="-126.8" font-family="Helvetica,sans-Serif" font-size="11.00" fill="#000000">c_pk</text>
<polygon fill="#ffffff" stroke="transparent" points="8,-97.7 8,-119.7 214,-119.7 214,-97.7 8,-97.7"/>
<polygon fill="none" stroke="#000000" points="8,-97.7 8,-119.7 214,-119.7 214,-97.7 8,-97.7"/>
<text text-anchor="start" x="37" y="-104.8" font-family="Helvetica,sans-Serif" font-size="11.00" fill="#000000">c_pid</text>
<polygon fill="#ffffff" stroke="transparent" points="8,-75.7 8,-97.7 214,-97.7 214,-75.7 8,-75.7"/>
<polygon fill="none" stroke="#000000" points="8,-75.7 8,-97.7 214,-97.7 214,-75.7 8,-75.7"/>
<text text-anchor="start" x="37" y="-82.8" font-family="Helvetica,sans-Serif" font-size="11.00" fill="#000000">c_type</text>
<polygon fill="none" stroke="#000000" points="8,-56.7 8,-75.7 214,-75.7 214,-56.7 8,-56.7"/>
<text text-anchor="start" x="11" y="-62.8" font-family="Helvetica,sans-Serif" font-size="11.00" fill="#000000">...</text>
<polygon fill="#ffffff" stroke="transparent" points="8,-37.7 8,-56.7 87,-56.7 87,-37.7 8,-37.7"/>
<polygon fill="none" stroke="#000000" points="8,-37.7 8,-56.7 87,-56.7 87,-37.7 8,-37.7"/>
<text text-anchor="start" x="11" y="-43.8" font-family="Helvetica,sans-Serif" font-size="11.00" fill="#000000"> &#160;</text>
<polygon fill="#ffffff" stroke="transparent" points="87,-37.7 87,-56.7 159,-56.7 159,-37.7 87,-37.7"/>
<polygon fill="none" stroke="#000000" points="87,-37.7 87,-56.7 159,-56.7 159,-37.7 87,-37.7"/>
<text text-anchor="start" x="123.6105" y="-43.8" font-family="Helvetica,sans-Serif" font-size="11.00" fill="#000000">2 rows</text>
<polygon fill="#ffffff" stroke="transparent" points="159,-37.7 159,-56.7 214,-56.7 214,-37.7 159,-37.7"/>
<polygon fill="none" stroke="#000000" points="159,-37.7 159,-56.7 214,-56.7 214,-37.7 159,-37.7"/>
<text text-anchor="start" x="195.4053" y="-43.8" font-family="Helvetica,sans-Serif" font-size="11.00" fill="#000000">4 &gt;</text>
</a>
</g>
</g>
<!-- com_type_placing_rule&#45;&gt;com_transport_unit_type -->
<g id="edge2" class="edge">
<title>com_type_placing_rule:w&#45;&gt;com_transport_unit_type:e</title>
<path fill="none" stroke="#000000" d="M250.9033,-188.7565C234.525,-173.9048 243.8329,-130.7 214,-130.7"/>
<polygon fill="#000000" stroke="#000000" points="257.4507,-191.0526 263.8087,-197.0972 261.2254,-192.3763 265,-193.7 265,-193.7 265,-193.7 261.2254,-192.3763 266.1913,-190.3028 257.4507,-191.0526 257.4507,-191.0526"/>
<ellipse fill="none" stroke="#000000" cx="254.431" cy="-189.9936" rx="3.2" ry="3.2"/>
</g>
</g>
</svg>
