<?xml version="1.0" encoding="UTF-8" standalone="no"?>
<!DOCTYPE svg PUBLIC "-//W3C//DTD SVG 1.1//EN"
 "http://www.w3.org/Graphics/SVG/1.1/DTD/svg11.dtd">
<!-- Generated by graphviz version 2.40.1 (20161225.0304)
 -->
<!-- Title: twoDegreesRelationshipsDiagram Pages: 1 -->
<svg width="890pt" height="747pt"
 viewBox="0.00 0.00 890.00 746.73" xmlns="http://www.w3.org/2000/svg" xmlns:xlink="http://www.w3.org/1999/xlink">
<g id="graph0" class="graph" transform="scale(1 1) rotate(0) translate(4 742.7325)">
<title>twoDegreesRelationshipsDiagram</title>
<polygon fill="#ffffff" stroke="transparent" points="-4,4 -4,-742.7325 886,-742.7325 886,4 -4,4"/>
<text text-anchor="middle" x="72.4936" y="-7.3" font-family="Helvetica,sans-Serif" font-size="11.00" fill="#000000">Generated by SchemaSpy</text>
<!-- com_location -->
<g id="node1" class="node">
<title>com_location</title>
<g id="a_node1"><a xlink:href="../../tables/com_location.html" xlink:title="com_location" target="_top">
<polygon fill="#ffffff" stroke="transparent" points="506,-562.2 506,-623.2 633,-623.2 633,-562.2 506,-562.2"/>
<polygon fill="#f5f5f5" stroke="transparent" points="506.5,-599.7 506.5,-622.7 633.5,-622.7 633.5,-599.7 506.5,-599.7"/>
<polygon fill="none" stroke="#000000" points="506.5,-599.7 506.5,-622.7 633.5,-622.7 633.5,-599.7 506.5,-599.7"/>
<text text-anchor="start" x="511.5" y="-608.3" font-family="Helvetica,sans-Serif" font-weight="bold" font-size="11.00" fill="#000000">com_location</text>
<text text-anchor="start" x="599.0219" y="-607.8" font-family="Helvetica,sans-Serif" font-size="11.00" fill="#000000">[table]</text>
<polygon fill="none" stroke="#000000" points="506.5,-580.7 506.5,-599.7 633.5,-599.7 633.5,-580.7 506.5,-580.7"/>
<text text-anchor="start" x="509.5" y="-586.8" font-family="Helvetica,sans-Serif" font-size="11.00" fill="#000000">...</text>
<polygon fill="#ffffff" stroke="transparent" points="506.5,-561.7 506.5,-580.7 547.5,-580.7 547.5,-561.7 506.5,-561.7"/>
<polygon fill="none" stroke="#000000" points="506.5,-561.7 506.5,-580.7 547.5,-580.7 547.5,-561.7 506.5,-561.7"/>
<text text-anchor="start" x="509.5" y="-567.8" font-family="Helvetica,sans-Serif" font-size="11.00" fill="#000000">&lt; 3</text>
<polygon fill="#ffffff" stroke="transparent" points="547.5,-561.7 547.5,-580.7 601.5,-580.7 601.5,-561.7 547.5,-561.7"/>
<polygon fill="none" stroke="#000000" points="547.5,-561.7 547.5,-580.7 601.5,-580.7 601.5,-561.7 547.5,-561.7"/>
<text text-anchor="start" x="559.9956" y="-567.8" font-family="Helvetica,sans-Serif" font-size="11.00" fill="#000000">32 rows</text>
<polygon fill="#ffffff" stroke="transparent" points="601.5,-561.7 601.5,-580.7 633.5,-580.7 633.5,-561.7 601.5,-561.7"/>
<polygon fill="none" stroke="#000000" points="601.5,-561.7 601.5,-580.7 633.5,-580.7 633.5,-561.7 601.5,-561.7"/>
<text text-anchor="start" x="614.9053" y="-567.8" font-family="Helvetica,sans-Serif" font-size="11.00" fill="#000000">3 &gt;</text>
</a>
</g>
</g>
<!-- com_account -->
<g id="node2" class="node">
<title>com_account</title>
<g id="a_node2"><a xlink:href="../../tables/com_account.html" xlink:title="com_account" target="_top">
<polygon fill="#ffffff" stroke="transparent" points="8,-432.2 8,-493.2 134,-493.2 134,-432.2 8,-432.2"/>
<polygon fill="#f5f5f5" stroke="transparent" points="8,-469.7 8,-492.7 134,-492.7 134,-469.7 8,-469.7"/>
<polygon fill="none" stroke="#000000" points="8,-469.7 8,-492.7 134,-492.7 134,-469.7 8,-469.7"/>
<text text-anchor="start" x="13" y="-478.3" font-family="Helvetica,sans-Serif" font-weight="bold" font-size="11.00" fill="#000000">com_account</text>
<text text-anchor="start" x="99.5219" y="-477.8" font-family="Helvetica,sans-Serif" font-size="11.00" fill="#000000">[table]</text>
<polygon fill="none" stroke="#000000" points="8,-450.7 8,-469.7 134,-469.7 134,-450.7 8,-450.7"/>
<text text-anchor="start" x="11" y="-456.8" font-family="Helvetica,sans-Serif" font-size="11.00" fill="#000000">...</text>
<polygon fill="#ffffff" stroke="transparent" points="8,-431.7 8,-450.7 47,-450.7 47,-431.7 8,-431.7"/>
<polygon fill="none" stroke="#000000" points="8,-431.7 8,-450.7 47,-450.7 47,-431.7 8,-431.7"/>
<text text-anchor="start" x="11" y="-437.8" font-family="Helvetica,sans-Serif" font-size="11.00" fill="#000000"> &#160;</text>
<polygon fill="#ffffff" stroke="transparent" points="47,-431.7 47,-450.7 99,-450.7 99,-431.7 47,-431.7"/>
<polygon fill="none" stroke="#000000" points="47,-431.7 47,-450.7 99,-450.7 99,-431.7 47,-431.7"/>
<text text-anchor="start" x="63.6105" y="-437.8" font-family="Helvetica,sans-Serif" font-size="11.00" fill="#000000">2 rows</text>
<polygon fill="#ffffff" stroke="transparent" points="99,-431.7 99,-450.7 134,-450.7 134,-431.7 99,-431.7"/>
<polygon fill="none" stroke="#000000" points="99,-431.7 99,-450.7 134,-450.7 134,-431.7 99,-431.7"/>
<text text-anchor="start" x="115.4053" y="-437.8" font-family="Helvetica,sans-Serif" font-size="11.00" fill="#000000">2 &gt;</text>
</a>
</g>
</g>
<!-- com_location&#45;&gt;com_account -->
<g id="edge1" class="edge">
<title>com_location:w&#45;&gt;com_account:e</title>
<path fill="none" stroke="#000000" d="M536.0985,-638.35C517.7628,-659.4719 493.0571,-682.3573 465,-693.7 345.5065,-742.0079 283.2409,-763.6732 175,-693.7 107.2235,-649.8853 83.176,-550.1958 74.9913,-497.2452"/>
<polygon fill="#000000" stroke="#000000" points="540.2388,-633.3643 548.1194,-629.5097 542.7943,-630.287 545.3498,-627.2097 545.3498,-627.2097 545.3498,-627.2097 542.7943,-630.287 542.5803,-624.9098 540.2388,-633.3643 540.2388,-633.3643"/>
<ellipse fill="none" stroke="#000000" cx="538.1945" cy="-635.8261" rx="3.2" ry="3.2"/>
</g>
<!-- com_location_group -->
<g id="node3" class="node">
<title>com_location_group</title>
<g id="a_node3"><a xlink:href="../../tables/com_location_group.html" xlink:title="com_location_group" target="_top">
<polygon fill="#ffffff" stroke="transparent" points="183,-120.7 183,-628.7 457,-628.7 457,-120.7 183,-120.7"/>
<polygon fill="#f5f5f5" stroke="transparent" points="185,-603.7 185,-626.7 455,-626.7 455,-603.7 185,-603.7"/>
<polygon fill="none" stroke="#000000" points="185,-603.7 185,-626.7 455,-626.7 455,-603.7 185,-603.7"/>
<text text-anchor="start" x="190" y="-612.3" font-family="Helvetica,sans-Serif" font-weight="bold" font-size="11.00" fill="#000000">com_location_group</text>
<text text-anchor="start" x="420.0437" y="-611.8" font-family="Helvetica,sans-Serif" font-size="11.00" fill="#000000">[table]</text>
<polygon fill="none" stroke="#000000" points="185,-581.7 185,-603.7 371,-603.7 371,-581.7 185,-581.7"/>
<image xlink:href="../../images/primaryKeys.png" width="11px" height="12px" preserveAspectRatio="xMinYMin meet" x="190" y="-598.7"/>
<text text-anchor="start" x="205" y="-588.8" font-family="Helvetica,sans-Serif" font-size="11.00" fill="#000000">c_pk</text>
<polygon fill="none" stroke="#000000" points="371,-581.7 371,-603.7 455,-603.7 455,-581.7 371,-581.7"/>
<text text-anchor="start" x="374" y="-589.4" font-family="Helvetica,sans-Serif" font-size="11.00" fill="#000000">int8[19]</text>
<polygon fill="none" stroke="#000000" points="185,-559.7 185,-581.7 371,-581.7 371,-559.7 185,-559.7"/>
<text text-anchor="start" x="205" y="-566.8" font-family="Helvetica,sans-Serif" font-size="11.00" fill="#000000">c_created</text>
<polygon fill="none" stroke="#000000" points="371,-559.7 371,-581.7 455,-581.7 455,-559.7 371,-559.7"/>
<text text-anchor="start" x="373.8807" y="-567.4" font-family="Helvetica,sans-Serif" font-size="11.00" fill="#000000">timestamp[29,6]</text>
<polygon fill="none" stroke="#000000" points="185,-537.7 185,-559.7 371,-559.7 371,-537.7 185,-537.7"/>
<text text-anchor="start" x="205" y="-544.8" font-family="Helvetica,sans-Serif" font-size="11.00" fill="#000000">c_created_by</text>
<polygon fill="none" stroke="#000000" points="371,-537.7 371,-559.7 455,-559.7 455,-537.7 371,-537.7"/>
<text text-anchor="start" x="374" y="-545.4" font-family="Helvetica,sans-Serif" font-size="11.00" fill="#000000">varchar[255]</text>
<polygon fill="none" stroke="#000000" points="185,-515.7 185,-537.7 371,-537.7 371,-515.7 185,-515.7"/>
<text text-anchor="start" x="205" y="-522.8" font-family="Helvetica,sans-Serif" font-size="11.00" fill="#000000">c_updated_by</text>
<polygon fill="none" stroke="#000000" points="371,-515.7 371,-537.7 455,-537.7 455,-515.7 371,-515.7"/>
<text text-anchor="start" x="374" y="-523.4" font-family="Helvetica,sans-Serif" font-size="11.00" fill="#000000">varchar[255]</text>
<polygon fill="none" stroke="#000000" points="185,-493.7 185,-515.7 371,-515.7 371,-493.7 185,-493.7"/>
<text text-anchor="start" x="205" y="-500.8" font-family="Helvetica,sans-Serif" font-size="11.00" fill="#000000">c_updated</text>
<polygon fill="none" stroke="#000000" points="371,-493.7 371,-515.7 455,-515.7 455,-493.7 371,-493.7"/>
<text text-anchor="start" x="373.8807" y="-501.4" font-family="Helvetica,sans-Serif" font-size="11.00" fill="#000000">timestamp[29,6]</text>
<polygon fill="none" stroke="#000000" points="185,-471.7 185,-493.7 371,-493.7 371,-471.7 185,-471.7"/>
<text text-anchor="start" x="205" y="-478.8" font-family="Helvetica,sans-Serif" font-size="11.00" fill="#000000">c_ol</text>
<polygon fill="none" stroke="#000000" points="371,-471.7 371,-493.7 455,-493.7 455,-471.7 371,-471.7"/>
<text text-anchor="start" x="374" y="-479.4" font-family="Helvetica,sans-Serif" font-size="11.00" fill="#000000">int8[19]</text>
<polygon fill="#ffffff" stroke="transparent" points="185,-449.7 185,-471.7 371,-471.7 371,-449.7 185,-449.7"/>
<polygon fill="none" stroke="#000000" points="185,-449.7 185,-471.7 371,-471.7 371,-449.7 185,-449.7"/>
<text text-anchor="start" x="205" y="-456.8" font-family="Helvetica,sans-Serif" font-size="11.00" fill="#000000">c_pid</text>
<polygon fill="none" stroke="#000000" points="371,-449.7 371,-471.7 455,-471.7 455,-449.7 371,-449.7"/>
<text text-anchor="start" x="374" y="-457.4" font-family="Helvetica,sans-Serif" font-size="11.00" fill="#000000">varchar[255]</text>
<polygon fill="none" stroke="#000000" points="185,-427.7 185,-449.7 371,-449.7 371,-427.7 185,-427.7"/>
<text text-anchor="start" x="205" y="-434.8" font-family="Helvetica,sans-Serif" font-size="11.00" fill="#000000">c_description</text>
<polygon fill="none" stroke="#000000" points="371,-427.7 371,-449.7 455,-449.7 455,-427.7 371,-427.7"/>
<text text-anchor="start" x="374" y="-435.4" font-family="Helvetica,sans-Serif" font-size="11.00" fill="#000000">varchar[255]</text>
<polygon fill="none" stroke="#000000" points="185,-405.7 185,-427.7 371,-427.7 371,-405.7 185,-405.7"/>
<text text-anchor="start" x="205" y="-412.8" font-family="Helvetica,sans-Serif" font-size="11.00" fill="#000000">c_group_state_in</text>
<polygon fill="none" stroke="#000000" points="371,-405.7 371,-427.7 455,-427.7 455,-405.7 371,-405.7"/>
<text text-anchor="start" x="374" y="-413.4" font-family="Helvetica,sans-Serif" font-size="11.00" fill="#000000">varchar[255]</text>
<polygon fill="none" stroke="#000000" points="185,-383.7 185,-405.7 371,-405.7 371,-383.7 185,-383.7"/>
<text text-anchor="start" x="205" y="-390.8" font-family="Helvetica,sans-Serif" font-size="11.00" fill="#000000">c_group_state_out</text>
<polygon fill="none" stroke="#000000" points="371,-383.7 371,-405.7 455,-405.7 455,-383.7 371,-383.7"/>
<text text-anchor="start" x="374" y="-391.4" font-family="Helvetica,sans-Serif" font-size="11.00" fill="#000000">varchar[255]</text>
<polygon fill="none" stroke="#000000" points="185,-361.7 185,-383.7 371,-383.7 371,-361.7 185,-361.7"/>
<text text-anchor="start" x="205" y="-368.8" font-family="Helvetica,sans-Serif" font-size="11.00" fill="#000000">c_group_type</text>
<polygon fill="none" stroke="#000000" points="371,-361.7 371,-383.7 455,-383.7 455,-361.7 371,-361.7"/>
<text text-anchor="start" x="374" y="-369.4" font-family="Helvetica,sans-Serif" font-size="11.00" fill="#000000">varchar[255]</text>
<polygon fill="none" stroke="#000000" points="185,-339.7 185,-361.7 371,-361.7 371,-339.7 185,-339.7"/>
<text text-anchor="start" x="205" y="-346.8" font-family="Helvetica,sans-Serif" font-size="11.00" fill="#000000">c_group_counting_active</text>
<polygon fill="none" stroke="#000000" points="371,-339.7 371,-361.7 455,-361.7 455,-339.7 371,-339.7"/>
<text text-anchor="start" x="374" y="-347.4" font-family="Helvetica,sans-Serif" font-size="11.00" fill="#000000">bool[1]</text>
<polygon fill="none" stroke="#000000" points="185,-317.7 185,-339.7 371,-339.7 371,-317.7 185,-317.7"/>
<text text-anchor="start" x="205" y="-324.8" font-family="Helvetica,sans-Serif" font-size="11.00" fill="#000000">c_max_fill_level</text>
<polygon fill="none" stroke="#000000" points="371,-317.7 371,-339.7 455,-339.7 455,-317.7 371,-317.7"/>
<text text-anchor="start" x="374" y="-325.4" font-family="Helvetica,sans-Serif" font-size="11.00" fill="#000000">float4[8,8]</text>
<polygon fill="#ffffff" stroke="transparent" points="185,-295.7 185,-317.7 371,-317.7 371,-295.7 185,-295.7"/>
<polygon fill="none" stroke="#000000" points="185,-295.7 185,-317.7 371,-317.7 371,-295.7 185,-295.7"/>
<text text-anchor="start" x="205" y="-302.8" font-family="Helvetica,sans-Serif" font-size="11.00" fill="#000000">c_name</text>
<polygon fill="none" stroke="#000000" points="371,-295.7 371,-317.7 455,-317.7 455,-295.7 371,-295.7"/>
<text text-anchor="start" x="374" y="-303.4" font-family="Helvetica,sans-Serif" font-size="11.00" fill="#000000">varchar[255]</text>
<polygon fill="none" stroke="#000000" points="185,-273.7 185,-295.7 371,-295.7 371,-273.7 185,-273.7"/>
<text text-anchor="start" x="205" y="-280.8" font-family="Helvetica,sans-Serif" font-size="11.00" fill="#000000">c_op_mode</text>
<polygon fill="none" stroke="#000000" points="371,-273.7 371,-295.7 455,-295.7 455,-273.7 371,-273.7"/>
<text text-anchor="start" x="374" y="-281.4" font-family="Helvetica,sans-Serif" font-size="11.00" fill="#000000">varchar[255]</text>
<polygon fill="none" stroke="#000000" points="185,-251.7 185,-273.7 371,-273.7 371,-251.7 185,-251.7"/>
<text text-anchor="start" x="205" y="-258.8" font-family="Helvetica,sans-Serif" font-size="11.00" fill="#000000">c_system_code</text>
<polygon fill="none" stroke="#000000" points="371,-251.7 371,-273.7 455,-273.7 455,-251.7 371,-251.7"/>
<text text-anchor="start" x="374" y="-259.4" font-family="Helvetica,sans-Serif" font-size="11.00" fill="#000000">varchar[255]</text>
<polygon fill="none" stroke="#000000" points="185,-229.7 185,-251.7 371,-251.7 371,-229.7 185,-229.7"/>
<text text-anchor="start" x="205" y="-236.8" font-family="Helvetica,sans-Serif" font-size="11.00" fill="#000000">c_system_name</text>
<polygon fill="none" stroke="#000000" points="371,-229.7 371,-251.7 455,-251.7 455,-229.7 371,-229.7"/>
<text text-anchor="start" x="374" y="-237.4" font-family="Helvetica,sans-Serif" font-size="11.00" fill="#000000">varchar[255]</text>
<polygon fill="none" stroke="#000000" points="185,-207.7 185,-229.7 371,-229.7 371,-207.7 185,-207.7"/>
<image xlink:href="../../images/foreignKeys.png" width="11px" height="12px" preserveAspectRatio="xMinYMin meet" x="190" y="-224.7"/>
<text text-anchor="start" x="205" y="-214.8" font-family="Helvetica,sans-Serif" font-size="11.00" fill="#000000">c_account</text>
<polygon fill="none" stroke="#000000" points="371,-207.7 371,-229.7 455,-229.7 455,-207.7 371,-207.7"/>
<text text-anchor="start" x="374" y="-215.4" font-family="Helvetica,sans-Serif" font-size="11.00" fill="#000000">varchar[255]</text>
<polygon fill="none" stroke="#000000" points="185,-185.7 185,-207.7 371,-207.7 371,-185.7 185,-185.7"/>
<image xlink:href="../../images/foreignKeys.png" width="11px" height="12px" preserveAspectRatio="xMinYMin meet" x="190" y="-202.7"/>
<text text-anchor="start" x="205" y="-192.8" font-family="Helvetica,sans-Serif" font-size="11.00" fill="#000000">c_parent</text>
<polygon fill="none" stroke="#000000" points="371,-185.7 371,-207.7 455,-207.7 455,-185.7 371,-185.7"/>
<text text-anchor="start" x="374" y="-193.4" font-family="Helvetica,sans-Serif" font-size="11.00" fill="#000000">int8[19]</text>
<polygon fill="none" stroke="#000000" points="185,-163.7 185,-185.7 371,-185.7 371,-163.7 185,-163.7"/>
<image xlink:href="../../images/foreignKeys.png" width="11px" height="12px" preserveAspectRatio="xMinYMin meet" x="190" y="-180.7"/>
<text text-anchor="start" x="205" y="-170.8" font-family="Helvetica,sans-Serif" font-size="11.00" fill="#000000">c_in_locker</text>
<polygon fill="none" stroke="#000000" points="371,-163.7 371,-185.7 455,-185.7 455,-163.7 371,-163.7"/>
<text text-anchor="start" x="374" y="-171.4" font-family="Helvetica,sans-Serif" font-size="11.00" fill="#000000">int8[19]</text>
<polygon fill="none" stroke="#000000" points="185,-141.7 185,-163.7 371,-163.7 371,-141.7 185,-141.7"/>
<image xlink:href="../../images/foreignKeys.png" width="11px" height="12px" preserveAspectRatio="xMinYMin meet" x="190" y="-158.7"/>
<text text-anchor="start" x="205" y="-148.8" font-family="Helvetica,sans-Serif" font-size="11.00" fill="#000000">c_out_locker</text>
<polygon fill="none" stroke="#000000" points="371,-141.7 371,-163.7 455,-163.7 455,-141.7 371,-141.7"/>
<text text-anchor="start" x="374" y="-149.4" font-family="Helvetica,sans-Serif" font-size="11.00" fill="#000000">int8[19]</text>
<polygon fill="#ffffff" stroke="transparent" points="185,-122.7 185,-141.7 266,-141.7 266,-122.7 185,-122.7"/>
<polygon fill="none" stroke="#000000" points="185,-122.7 185,-141.7 266,-141.7 266,-122.7 185,-122.7"/>
<text text-anchor="start" x="188" y="-128.8" font-family="Helvetica,sans-Serif" font-size="11.00" fill="#000000">&lt; 4</text>
<polygon fill="#ffffff" stroke="transparent" points="266,-122.7 266,-141.7 371,-141.7 371,-122.7 266,-122.7"/>
<polygon fill="none" stroke="#000000" points="266,-122.7 266,-141.7 371,-141.7 371,-122.7 266,-122.7"/>
<text text-anchor="start" x="329.4956" y="-128.8" font-family="Helvetica,sans-Serif" font-size="11.00" fill="#000000">42 rows</text>
<polygon fill="#ffffff" stroke="transparent" points="371,-122.7 371,-141.7 455,-141.7 455,-122.7 371,-122.7"/>
<polygon fill="none" stroke="#000000" points="371,-122.7 371,-141.7 455,-141.7 455,-122.7 371,-122.7"/>
<text text-anchor="start" x="436.4053" y="-128.8" font-family="Helvetica,sans-Serif" font-size="11.00" fill="#000000">4 &gt;</text>
<polygon fill="none" stroke="#000000" stroke-width="2" points="184,-121.7 184,-627.7 456,-627.7 456,-121.7 184,-121.7"/>
</a>
</g>
</g>
<!-- com_location&#45;&gt;com_location_group -->
<g id="edge2" class="edge">
<title>com_location:w&#45;&gt;com_location_group:e</title>
<path fill="none" stroke="#000000" d="M483.3164,-592.7C473.7623,-592.7 464.1744,-592.7 455,-592.7"/>
<polygon fill="#000000" stroke="#000000" points="489.7323,-592.7001 497.7323,-596.3 493.7323,-592.7 497.7323,-592.7 497.7323,-592.7 497.7323,-592.7 493.7323,-592.7 497.7322,-589.1 489.7323,-592.7001 489.7323,-592.7001"/>
<ellipse fill="none" stroke="#000000" cx="486.5323" cy="-592.7001" rx="3.2" ry="3.2"/>
</g>
<!-- com_location_type -->
<g id="node4" class="node">
<title>com_location_type</title>
<g id="a_node4"><a xlink:href="../../tables/com_location_type.html" xlink:title="com_location_type" target="_top">
<polygon fill="#ffffff" stroke="transparent" points="238.5,-38.2 238.5,-99.2 401.5,-99.2 401.5,-38.2 238.5,-38.2"/>
<polygon fill="#f5f5f5" stroke="transparent" points="239,-75.7 239,-98.7 402,-98.7 402,-75.7 239,-75.7"/>
<polygon fill="none" stroke="#000000" points="239,-75.7 239,-98.7 402,-98.7 402,-75.7 239,-75.7"/>
<text text-anchor="start" x="244" y="-84.3" font-family="Helvetica,sans-Serif" font-weight="bold" font-size="11.00" fill="#000000">com_location_type</text>
<text text-anchor="start" x="367.5219" y="-83.8" font-family="Helvetica,sans-Serif" font-size="11.00" fill="#000000">[table]</text>
<polygon fill="none" stroke="#000000" points="239,-56.7 239,-75.7 402,-75.7 402,-56.7 239,-56.7"/>
<text text-anchor="start" x="242" y="-62.8" font-family="Helvetica,sans-Serif" font-size="11.00" fill="#000000">...</text>
<polygon fill="#ffffff" stroke="transparent" points="239,-37.7 239,-56.7 297,-56.7 297,-37.7 239,-37.7"/>
<polygon fill="none" stroke="#000000" points="239,-37.7 239,-56.7 297,-56.7 297,-37.7 239,-37.7"/>
<text text-anchor="start" x="242" y="-43.8" font-family="Helvetica,sans-Serif" font-size="11.00" fill="#000000"> &#160;</text>
<polygon fill="#ffffff" stroke="transparent" points="297,-37.7 297,-56.7 358,-56.7 358,-37.7 297,-37.7"/>
<polygon fill="none" stroke="#000000" points="297,-37.7 297,-56.7 358,-56.7 358,-37.7 297,-37.7"/>
<text text-anchor="start" x="322.6105" y="-43.8" font-family="Helvetica,sans-Serif" font-size="11.00" fill="#000000">2 rows</text>
<polygon fill="#ffffff" stroke="transparent" points="358,-37.7 358,-56.7 402,-56.7 402,-37.7 358,-37.7"/>
<polygon fill="none" stroke="#000000" points="358,-37.7 358,-56.7 402,-56.7 402,-37.7 358,-37.7"/>
<text text-anchor="start" x="383.4053" y="-43.8" font-family="Helvetica,sans-Serif" font-size="11.00" fill="#000000">2 &gt;</text>
</a>
</g>
</g>
<!-- com_location&#45;&gt;com_location_type -->
<g id="edge3" class="edge">
<title>com_location:w&#45;&gt;com_location_type:e</title>
<path fill="none" stroke="#000000" d="M563.4846,-543.541C549.5315,-435.4549 512.4985,-181.0866 465,-109.7 446.0809,-81.2661 436.1529,-65.7 402,-65.7"/>
<polygon fill="#000000" stroke="#000000" points="564.3262,-550.1517 561.7655,-558.5423 564.8315,-554.1196 565.3367,-558.0876 565.3367,-558.0876 565.3367,-558.0876 564.8315,-554.1196 568.9079,-557.6329 564.3262,-550.1517 564.3262,-550.1517"/>
<ellipse fill="none" stroke="#000000" cx="563.9221" cy="-546.9773" rx="3.2" ry="3.2"/>
</g>
<!-- com_location_group&#45;&gt;com_account -->
<g id="edge4" class="edge">
<title>com_location_group:w&#45;&gt;com_account:e</title>
<path fill="none" stroke="#000000" d="M170.9551,-223.0226C130.8557,-247.2861 95.208,-367.609 79.5009,-427.9999"/>
<polygon fill="#000000" stroke="#000000" points="177.3539,-221.0533 186.059,-222.1407 181.177,-219.8766 185,-218.7 185,-218.7 185,-218.7 181.177,-219.8766 183.941,-215.2593 177.3539,-221.0533 177.3539,-221.0533"/>
<ellipse fill="none" stroke="#000000" cx="174.2955" cy="-221.9946" rx="3.2" ry="3.2"/>
</g>
<!-- com_location_group&#45;&gt;com_location_group -->
<g id="edge5" class="edge">
<title>com_location_group:w&#45;&gt;com_location_group:e</title>
<path fill="none" stroke="#000000" d="M177.6933,-187.2342C123.3314,-295.6195 131.0801,-645.7 320,-645.7 517,-645.7 517,-637.0333 455,-592.7"/>
<polygon fill="#000000" stroke="#000000" points="180.971,-181.6114 188.1101,-176.513 182.9855,-178.1557 185,-174.7 185,-174.7 185,-174.7 182.9855,-178.1557 181.8899,-172.887 180.971,-181.6114 180.971,-181.6114"/>
<ellipse fill="none" stroke="#000000" cx="179.3594" cy="-184.376" rx="3.2" ry="3.2"/>
</g>
<!-- com_location_group&#45;&gt;com_location_group -->
<g id="edge6" class="edge">
<title>com_location_group:w&#45;&gt;com_location_group:e</title>
<path fill="none" stroke="#000000" d="M177.6933,-165.3422C123.3314,-275.3872 131.0801,-645.7 320,-645.7 517,-645.7 517,-637.0333 455,-592.7"/>
<polygon fill="#000000" stroke="#000000" points="180.9968,-159.6264 188.1169,-154.5014 182.9984,-156.1632 185,-152.7 185,-152.7 185,-152.7 182.9984,-156.1632 181.8831,-150.8986 180.9968,-159.6264 180.9968,-159.6264"/>
<ellipse fill="none" stroke="#000000" cx="179.3955" cy="-162.3969" rx="3.2" ry="3.2"/>
</g>
<!-- com_location_group&#45;&gt;com_location_group -->
<g id="edge7" class="edge">
<title>com_location_group:w&#45;&gt;com_location_group:e</title>
<path fill="none" stroke="#000000" d="M177.6933,-209.1262C123.3314,-315.8518 131.0801,-645.7 320,-645.7 517,-645.7 517,-637.0333 455,-592.7"/>
<polygon fill="#000000" stroke="#000000" points="180.945,-203.5962 188.1033,-198.5248 182.9725,-200.1481 185,-196.7 185,-196.7 185,-196.7 182.9725,-200.1481 181.8967,-194.8752 180.945,-203.5962 180.945,-203.5962"/>
<ellipse fill="none" stroke="#000000" cx="179.323" cy="-206.3546" rx="3.2" ry="3.2"/>
</g>
<!-- com_location_message -->
<g id="node5" class="node">
<title>com_location_message</title>
<g id="a_node5"><a xlink:href="../../tables/com_location_message.html" xlink:title="com_location_message" target="_top">
<polygon fill="#ffffff" stroke="transparent" points="682,-647.2 682,-708.2 874,-708.2 874,-647.2 682,-647.2"/>
<polygon fill="#f5f5f5" stroke="transparent" points="682,-684.7 682,-707.7 874,-707.7 874,-684.7 682,-684.7"/>
<polygon fill="none" stroke="#000000" points="682,-684.7 682,-707.7 874,-707.7 874,-684.7 682,-684.7"/>
<text text-anchor="start" x="687" y="-693.3" font-family="Helvetica,sans-Serif" font-weight="bold" font-size="11.00" fill="#000000">com_location_message</text>
<text text-anchor="start" x="839.5219" y="-692.8" font-family="Helvetica,sans-Serif" font-size="11.00" fill="#000000">[table]</text>
<polygon fill="none" stroke="#000000" points="682,-665.7 682,-684.7 874,-684.7 874,-665.7 682,-665.7"/>
<text text-anchor="start" x="685" y="-671.8" font-family="Helvetica,sans-Serif" font-size="11.00" fill="#000000">...</text>
<polygon fill="#ffffff" stroke="transparent" points="682,-646.7 682,-665.7 776,-665.7 776,-646.7 682,-646.7"/>
<polygon fill="none" stroke="#000000" points="682,-646.7 682,-665.7 776,-665.7 776,-646.7 682,-646.7"/>
<text text-anchor="start" x="685" y="-652.8" font-family="Helvetica,sans-Serif" font-size="11.00" fill="#000000">&lt; 2</text>
<polygon fill="#ffffff" stroke="transparent" points="776,-646.7 776,-665.7 825,-665.7 825,-646.7 776,-646.7"/>
<polygon fill="none" stroke="#000000" points="776,-646.7 776,-665.7 825,-665.7 825,-646.7 776,-646.7"/>
<text text-anchor="start" x="815.8862" y="-652.8" font-family="Helvetica,sans-Serif" font-size="11.00" fill="#000000"> &#160;</text>
<polygon fill="#ffffff" stroke="transparent" points="825,-646.7 825,-665.7 874,-665.7 874,-646.7 825,-646.7"/>
<polygon fill="none" stroke="#000000" points="825,-646.7 825,-665.7 874,-665.7 874,-646.7 825,-646.7"/>
<text text-anchor="start" x="864.8862" y="-652.8" font-family="Helvetica,sans-Serif" font-size="11.00" fill="#000000"> &#160;</text>
</a>
</g>
</g>
<!-- com_location_message&#45;&gt;com_location -->
<g id="edge8" class="edge">
<title>com_location_message:w&#45;&gt;com_location:e</title>
<path fill="none" stroke="#000000" d="M667.4576,-673.2238C639.2659,-667.5622 614.2666,-646.5943 596.5795,-627.4754"/>
<polygon fill="#000000" stroke="#000000" points="674.0409,-673.892 681.6364,-678.2816 678.0204,-674.296 682,-674.7 682,-674.7 682,-674.7 678.0204,-674.296 682.3636,-671.1184 674.0409,-673.892 674.0409,-673.892"/>
<ellipse fill="none" stroke="#000000" cx="670.8573" cy="-673.5689" rx="3.2" ry="3.2"/>
</g>
<!-- com_transport_unit -->
<g id="node6" class="node">
<title>com_transport_unit</title>
<g id="a_node6"><a xlink:href="../../tables/com_transport_unit.html" xlink:title="com_transport_unit" target="_top">
<polygon fill="#ffffff" stroke="transparent" points="693.5,-565.2 693.5,-626.2 862.5,-626.2 862.5,-565.2 693.5,-565.2"/>
<polygon fill="#f5f5f5" stroke="transparent" points="694,-602.7 694,-625.7 863,-625.7 863,-602.7 694,-602.7"/>
<polygon fill="none" stroke="#000000" points="694,-602.7 694,-625.7 863,-625.7 863,-602.7 694,-602.7"/>
<text text-anchor="start" x="699" y="-611.3" font-family="Helvetica,sans-Serif" font-weight="bold" font-size="11.00" fill="#000000">com_transport_unit</text>
<text text-anchor="start" x="828.5219" y="-610.8" font-family="Helvetica,sans-Serif" font-size="11.00" fill="#000000">[table]</text>
<polygon fill="none" stroke="#000000" points="694,-583.7 694,-602.7 863,-602.7 863,-583.7 694,-583.7"/>
<text text-anchor="start" x="697" y="-589.8" font-family="Helvetica,sans-Serif" font-size="11.00" fill="#000000">...</text>
<polygon fill="#ffffff" stroke="transparent" points="694,-564.7 694,-583.7 759,-583.7 759,-564.7 694,-564.7"/>
<polygon fill="none" stroke="#000000" points="694,-564.7 694,-583.7 759,-583.7 759,-564.7 694,-564.7"/>
<text text-anchor="start" x="697" y="-570.8" font-family="Helvetica,sans-Serif" font-size="11.00" fill="#000000">&lt; 4</text>
<polygon fill="#ffffff" stroke="transparent" points="759,-564.7 759,-583.7 819,-583.7 819,-564.7 759,-564.7"/>
<polygon fill="none" stroke="#000000" points="759,-564.7 759,-583.7 819,-583.7 819,-564.7 759,-564.7"/>
<text text-anchor="start" x="783.6105" y="-570.8" font-family="Helvetica,sans-Serif" font-size="11.00" fill="#000000">2 rows</text>
<polygon fill="#ffffff" stroke="transparent" points="819,-564.7 819,-583.7 863,-583.7 863,-564.7 819,-564.7"/>
<polygon fill="none" stroke="#000000" points="819,-564.7 819,-583.7 863,-583.7 863,-564.7 819,-564.7"/>
<text text-anchor="start" x="844.4053" y="-570.8" font-family="Helvetica,sans-Serif" font-size="11.00" fill="#000000">3 &gt;</text>
</a>
</g>
</g>
<!-- com_transport_unit&#45;&gt;com_location -->
<g id="edge9" class="edge">
<title>com_transport_unit:w&#45;&gt;com_location:e</title>
<path fill="none" stroke="#000000" d="M679.3342,-591.2733C666.6672,-590.1735 653.6741,-589.3689 641.2605,-588.8595"/>
<polygon fill="#000000" stroke="#000000" points="686.0376,-591.9254 693.6514,-596.2831 690.0188,-592.3127 694,-592.7 694,-592.7 694,-592.7 690.0188,-592.3127 694.3486,-589.1169 686.0376,-591.9254 686.0376,-591.9254"/>
<ellipse fill="none" stroke="#000000" cx="682.8526" cy="-591.6155" rx="3.2" ry="3.2"/>
</g>
<!-- com_transport_unit&#45;&gt;com_location -->
<g id="edge10" class="edge">
<title>com_transport_unit:w&#45;&gt;com_location:e</title>
<path fill="none" stroke="#000000" d="M679.3342,-594.3644C666.6672,-595.6475 653.6741,-596.5863 641.2605,-597.1806"/>
<polygon fill="#000000" stroke="#000000" points="686.051,-593.6022 694.406,-596.277 690.0255,-593.1511 694,-592.7 694,-592.7 694,-592.7 690.0255,-593.1511 693.594,-589.123 686.051,-593.6022 686.051,-593.6022"/>
<ellipse fill="none" stroke="#000000" cx="682.8714" cy="-593.9631" rx="3.2" ry="3.2"/>
</g>
</g>
</svg>
