<?xml version="1.0" encoding="UTF-8" standalone="no"?>
<!DOCTYPE svg PUBLIC "-//W3C//DTD SVG 1.1//EN"
 "http://www.w3.org/Graphics/SVG/1.1/DTD/svg11.dtd">
<!-- Generated by graphviz version 2.40.1 (20161225.0304)
 -->
<!-- Title: twoDegreesRelationshipsDiagram Pages: 1 -->
<svg width="1005pt" height="840pt"
 viewBox="0.00 0.00 1005.00 839.70" xmlns="http://www.w3.org/2000/svg" xmlns:xlink="http://www.w3.org/1999/xlink">
<g id="graph0" class="graph" transform="scale(1 1) rotate(0) translate(4 835.7)">
<title>twoDegreesRelationshipsDiagram</title>
<polygon fill="#ffffff" stroke="transparent" points="-4,4 -4,-835.7 1001,-835.7 1001,4 -4,4"/>
<text text-anchor="middle" x="72.4936" y="-7.3" font-family="Helvetica,sans-Serif" font-size="11.00" fill="#000000">Generated by SchemaSpy</text>
<!-- com_location -->
<g id="node1" class="node">
<title>com_location</title>
<g id="a_node1"><a xlink:href="../../tables/com_location.html" xlink:title="com_location" target="_top">
<polygon fill="#ffffff" stroke="transparent" points="294.5,-615.7 294.5,-676.7 421.5,-676.7 421.5,-615.7 294.5,-615.7"/>
<polygon fill="#f5f5f5" stroke="transparent" points="295,-653.2 295,-676.2 422,-676.2 422,-653.2 295,-653.2"/>
<polygon fill="none" stroke="#000000" points="295,-653.2 295,-676.2 422,-676.2 422,-653.2 295,-653.2"/>
<text text-anchor="start" x="300" y="-661.8" font-family="Helvetica,sans-Serif" font-weight="bold" font-size="11.00" fill="#000000">com_location</text>
<text text-anchor="start" x="387.5219" y="-661.3" font-family="Helvetica,sans-Serif" font-size="11.00" fill="#000000">[table]</text>
<polygon fill="none" stroke="#000000" points="295,-634.2 295,-653.2 422,-653.2 422,-634.2 295,-634.2"/>
<text text-anchor="start" x="298" y="-640.3" font-family="Helvetica,sans-Serif" font-size="11.00" fill="#000000">...</text>
<polygon fill="#ffffff" stroke="transparent" points="295,-615.2 295,-634.2 336,-634.2 336,-615.2 295,-615.2"/>
<polygon fill="none" stroke="#000000" points="295,-615.2 295,-634.2 336,-634.2 336,-615.2 295,-615.2"/>
<text text-anchor="start" x="298" y="-621.3" font-family="Helvetica,sans-Serif" font-size="11.00" fill="#000000">&lt; 3</text>
<polygon fill="#ffffff" stroke="transparent" points="336,-615.2 336,-634.2 390,-634.2 390,-615.2 336,-615.2"/>
<polygon fill="none" stroke="#000000" points="336,-615.2 336,-634.2 390,-634.2 390,-615.2 336,-615.2"/>
<text text-anchor="start" x="348.4956" y="-621.3" font-family="Helvetica,sans-Serif" font-size="11.00" fill="#000000">32 rows</text>
<polygon fill="#ffffff" stroke="transparent" points="390,-615.2 390,-634.2 422,-634.2 422,-615.2 390,-615.2"/>
<polygon fill="none" stroke="#000000" points="390,-615.2 390,-634.2 422,-634.2 422,-615.2 390,-615.2"/>
<text text-anchor="start" x="403.4053" y="-621.3" font-family="Helvetica,sans-Serif" font-size="11.00" fill="#000000">3 &gt;</text>
</a>
</g>
</g>
<!-- com_location_type -->
<g id="node2" class="node">
<title>com_location_type</title>
<g id="a_node2"><a xlink:href="../../tables/com_location_type.html" xlink:title="com_location_type" target="_top">
<polygon fill="#ffffff" stroke="transparent" points="8,-572.7 8,-633.7 171,-633.7 171,-572.7 8,-572.7"/>
<polygon fill="#f5f5f5" stroke="transparent" points="8.5,-610.2 8.5,-633.2 171.5,-633.2 171.5,-610.2 8.5,-610.2"/>
<polygon fill="none" stroke="#000000" points="8.5,-610.2 8.5,-633.2 171.5,-633.2 171.5,-610.2 8.5,-610.2"/>
<text text-anchor="start" x="13.5" y="-618.8" font-family="Helvetica,sans-Serif" font-weight="bold" font-size="11.00" fill="#000000">com_location_type</text>
<text text-anchor="start" x="137.0219" y="-618.3" font-family="Helvetica,sans-Serif" font-size="11.00" fill="#000000">[table]</text>
<polygon fill="none" stroke="#000000" points="8.5,-591.2 8.5,-610.2 171.5,-610.2 171.5,-591.2 8.5,-591.2"/>
<text text-anchor="start" x="11.5" y="-597.3" font-family="Helvetica,sans-Serif" font-size="11.00" fill="#000000">...</text>
<polygon fill="#ffffff" stroke="transparent" points="8.5,-572.2 8.5,-591.2 66.5,-591.2 66.5,-572.2 8.5,-572.2"/>
<polygon fill="none" stroke="#000000" points="8.5,-572.2 8.5,-591.2 66.5,-591.2 66.5,-572.2 8.5,-572.2"/>
<text text-anchor="start" x="11.5" y="-578.3" font-family="Helvetica,sans-Serif" font-size="11.00" fill="#000000"> &#160;</text>
<polygon fill="#ffffff" stroke="transparent" points="66.5,-572.2 66.5,-591.2 127.5,-591.2 127.5,-572.2 66.5,-572.2"/>
<polygon fill="none" stroke="#000000" points="66.5,-572.2 66.5,-591.2 127.5,-591.2 127.5,-572.2 66.5,-572.2"/>
<text text-anchor="start" x="92.1105" y="-578.3" font-family="Helvetica,sans-Serif" font-size="11.00" fill="#000000">2 rows</text>
<polygon fill="#ffffff" stroke="transparent" points="127.5,-572.2 127.5,-591.2 171.5,-591.2 171.5,-572.2 127.5,-572.2"/>
<polygon fill="none" stroke="#000000" points="127.5,-572.2 127.5,-591.2 171.5,-591.2 171.5,-572.2 127.5,-572.2"/>
<text text-anchor="start" x="152.9053" y="-578.3" font-family="Helvetica,sans-Serif" font-size="11.00" fill="#000000">2 &gt;</text>
</a>
</g>
</g>
<!-- com_location&#45;&gt;com_location_type -->
<g id="edge1" class="edge">
<title>com_location:w&#45;&gt;com_location_type:e</title>
<path fill="none" stroke="#000000" d="M280.4925,-642.2211C235.1644,-635.8205 224.399,-600.2 171.5,-600.2"/>
<polygon fill="#000000" stroke="#000000" points="287.0181,-642.6614 294.7576,-646.7918 291.0091,-642.9307 295,-643.2 295,-643.2 295,-643.2 291.0091,-642.9307 295.2424,-639.6082 287.0181,-642.6614 287.0181,-642.6614"/>
<ellipse fill="none" stroke="#000000" cx="283.8254" cy="-642.4459" rx="3.2" ry="3.2"/>
</g>
<!-- com_transport_unit -->
<g id="node3" class="node">
<title>com_transport_unit</title>
<g id="a_node3"><a xlink:href="../../tables/com_transport_unit.html" xlink:title="com_transport_unit" target="_top">
<polygon fill="#ffffff" stroke="transparent" points="571.5,-572.7 571.5,-787.7 743.5,-787.7 743.5,-572.7 571.5,-572.7"/>
<polygon fill="#f5f5f5" stroke="transparent" points="571.5,-764.2 571.5,-787.2 743.5,-787.2 743.5,-764.2 571.5,-764.2"/>
<polygon fill="none" stroke="#000000" points="571.5,-764.2 571.5,-787.2 743.5,-787.2 743.5,-764.2 571.5,-764.2"/>
<text text-anchor="start" x="576.5" y="-772.8" font-family="Helvetica,sans-Serif" font-weight="bold" font-size="11.00" fill="#000000">com_transport_unit</text>
<text text-anchor="start" x="708.5437" y="-772.3" font-family="Helvetica,sans-Serif" font-size="11.00" fill="#000000">[table]</text>
<polygon fill="none" stroke="#000000" points="571.5,-742.2 571.5,-764.2 743.5,-764.2 743.5,-742.2 571.5,-742.2"/>
<image xlink:href="../../images/primaryKeys.png" width="11px" height="12px" preserveAspectRatio="xMinYMin meet" x="576.5" y="-759.2"/>
<text text-anchor="start" x="591.5" y="-749.3" font-family="Helvetica,sans-Serif" font-size="11.00" fill="#000000">c_pk</text>
<polygon fill="#ffffff" stroke="transparent" points="571.5,-720.2 571.5,-742.2 743.5,-742.2 743.5,-720.2 571.5,-720.2"/>
<polygon fill="none" stroke="#000000" points="571.5,-720.2 571.5,-742.2 743.5,-742.2 743.5,-720.2 571.5,-720.2"/>
<text text-anchor="start" x="591.5" y="-727.3" font-family="Helvetica,sans-Serif" font-size="11.00" fill="#000000">c_pid</text>
<polygon fill="#ffffff" stroke="transparent" points="571.5,-698.2 571.5,-720.2 743.5,-720.2 743.5,-698.2 571.5,-698.2"/>
<polygon fill="none" stroke="#000000" points="571.5,-698.2 571.5,-720.2 743.5,-720.2 743.5,-698.2 571.5,-698.2"/>
<text text-anchor="start" x="591.5" y="-705.3" font-family="Helvetica,sans-Serif" font-size="11.00" fill="#000000">c_barcode</text>
<polygon fill="none" stroke="#000000" points="571.5,-676.2 571.5,-698.2 743.5,-698.2 743.5,-676.2 571.5,-676.2"/>
<image xlink:href="../../images/foreignKeys.png" width="11px" height="12px" preserveAspectRatio="xMinYMin meet" x="576.5" y="-693.2"/>
<text text-anchor="start" x="591.5" y="-683.3" font-family="Helvetica,sans-Serif" font-size="11.00" fill="#000000">c_actual_location</text>
<polygon fill="none" stroke="#000000" points="571.5,-654.2 571.5,-676.2 743.5,-676.2 743.5,-654.2 571.5,-654.2"/>
<image xlink:href="../../images/foreignKeys.png" width="11px" height="12px" preserveAspectRatio="xMinYMin meet" x="576.5" y="-671.2"/>
<text text-anchor="start" x="591.5" y="-661.3" font-family="Helvetica,sans-Serif" font-size="11.00" fill="#000000">c_parent</text>
<polygon fill="none" stroke="#000000" points="571.5,-632.2 571.5,-654.2 743.5,-654.2 743.5,-632.2 571.5,-632.2"/>
<image xlink:href="../../images/foreignKeys.png" width="11px" height="12px" preserveAspectRatio="xMinYMin meet" x="576.5" y="-649.2"/>
<text text-anchor="start" x="591.5" y="-639.3" font-family="Helvetica,sans-Serif" font-size="11.00" fill="#000000">c_target_location</text>
<polygon fill="none" stroke="#000000" points="571.5,-610.2 571.5,-632.2 743.5,-632.2 743.5,-610.2 571.5,-610.2"/>
<image xlink:href="../../images/foreignKeys.png" width="11px" height="12px" preserveAspectRatio="xMinYMin meet" x="576.5" y="-627.2"/>
<text text-anchor="start" x="591.5" y="-617.3" font-family="Helvetica,sans-Serif" font-size="11.00" fill="#000000">c_transport_unit_type</text>
<polygon fill="none" stroke="#000000" points="571.5,-591.2 571.5,-610.2 743.5,-610.2 743.5,-591.2 571.5,-591.2"/>
<text text-anchor="start" x="574.5" y="-597.3" font-family="Helvetica,sans-Serif" font-size="11.00" fill="#000000">...</text>
<polygon fill="#ffffff" stroke="transparent" points="571.5,-572.2 571.5,-591.2 638.5,-591.2 638.5,-572.2 571.5,-572.2"/>
<polygon fill="none" stroke="#000000" points="571.5,-572.2 571.5,-591.2 638.5,-591.2 638.5,-572.2 571.5,-572.2"/>
<text text-anchor="start" x="574.5" y="-578.3" font-family="Helvetica,sans-Serif" font-size="11.00" fill="#000000">&lt; 4</text>
<polygon fill="#ffffff" stroke="transparent" points="638.5,-572.2 638.5,-591.2 699.5,-591.2 699.5,-572.2 638.5,-572.2"/>
<polygon fill="none" stroke="#000000" points="638.5,-572.2 638.5,-591.2 699.5,-591.2 699.5,-572.2 638.5,-572.2"/>
<text text-anchor="start" x="664.1105" y="-578.3" font-family="Helvetica,sans-Serif" font-size="11.00" fill="#000000">2 rows</text>
<polygon fill="#ffffff" stroke="transparent" points="699.5,-572.2 699.5,-591.2 743.5,-591.2 743.5,-572.2 699.5,-572.2"/>
<polygon fill="none" stroke="#000000" points="699.5,-572.2 699.5,-591.2 743.5,-591.2 743.5,-572.2 699.5,-572.2"/>
<text text-anchor="start" x="724.9053" y="-578.3" font-family="Helvetica,sans-Serif" font-size="11.00" fill="#000000">3 &gt;</text>
</a>
</g>
</g>
<!-- com_transport_unit&#45;&gt;com_location -->
<g id="edge2" class="edge">
<title>com_transport_unit:w&#45;&gt;com_location:e</title>
<path fill="none" stroke="#000000" d="M556.9938,-686.5089C500.2874,-680.9111 486.1219,-643.2 422,-643.2"/>
<polygon fill="#000000" stroke="#000000" points="563.5091,-686.8192 571.3287,-690.7959 567.5045,-687.0096 571.5,-687.2 571.5,-687.2 571.5,-687.2 567.5045,-687.0096 571.6713,-683.6041 563.5091,-686.8192 563.5091,-686.8192"/>
<ellipse fill="none" stroke="#000000" cx="560.3127" cy="-686.6669" rx="3.2" ry="3.2"/>
</g>
<!-- com_transport_unit&#45;&gt;com_location -->
<g id="edge3" class="edge">
<title>com_transport_unit:w&#45;&gt;com_location:e</title>
<path fill="none" stroke="#000000" d="M556.792,-643.2C502.1559,-643.2 483.2535,-643.2 422,-643.2"/>
<polygon fill="#000000" stroke="#000000" points="563.5,-643.2001 571.5,-646.8 567.5,-643.2 571.5,-643.2 571.5,-643.2 571.5,-643.2 567.5,-643.2 571.5,-639.6 563.5,-643.2001 563.5,-643.2001"/>
<ellipse fill="none" stroke="#000000" cx="560.3" cy="-643.2001" rx="3.2" ry="3.2"/>
</g>
<!-- com_transport_unit_type -->
<g id="node4" class="node">
<title>com_transport_unit_type</title>
<g id="a_node4"><a xlink:href="../../tables/com_transport_unit_type.html" xlink:title="com_transport_unit_type" target="_top">
<polygon fill="#ffffff" stroke="transparent" points="220,-38.2 220,-436.2 496,-436.2 496,-38.2 220,-38.2"/>
<polygon fill="#f5f5f5" stroke="transparent" points="222,-411.2 222,-434.2 494,-434.2 494,-411.2 222,-411.2"/>
<polygon fill="none" stroke="#000000" points="222,-411.2 222,-434.2 494,-434.2 494,-411.2 222,-411.2"/>
<text text-anchor="start" x="227" y="-419.8" font-family="Helvetica,sans-Serif" font-weight="bold" font-size="11.00" fill="#000000">com_transport_unit_type</text>
<text text-anchor="start" x="459.0437" y="-419.3" font-family="Helvetica,sans-Serif" font-size="11.00" fill="#000000">[table]</text>
<polygon fill="none" stroke="#000000" points="222,-389.2 222,-411.2 410,-411.2 410,-389.2 222,-389.2"/>
<image xlink:href="../../images/primaryKeys.png" width="11px" height="12px" preserveAspectRatio="xMinYMin meet" x="227" y="-406.2"/>
<text text-anchor="start" x="242" y="-396.3" font-family="Helvetica,sans-Serif" font-size="11.00" fill="#000000">c_pk</text>
<polygon fill="none" stroke="#000000" points="410,-389.2 410,-411.2 494,-411.2 494,-389.2 410,-389.2"/>
<text text-anchor="start" x="413" y="-396.9" font-family="Helvetica,sans-Serif" font-size="11.00" fill="#000000">int8[19]</text>
<polygon fill="none" stroke="#000000" points="222,-367.2 222,-389.2 410,-389.2 410,-367.2 222,-367.2"/>
<text text-anchor="start" x="242" y="-374.3" font-family="Helvetica,sans-Serif" font-size="11.00" fill="#000000">c_created</text>
<polygon fill="none" stroke="#000000" points="410,-367.2 410,-389.2 494,-389.2 494,-367.2 410,-367.2"/>
<text text-anchor="start" x="412.8807" y="-374.9" font-family="Helvetica,sans-Serif" font-size="11.00" fill="#000000">timestamp[29,6]</text>
<polygon fill="none" stroke="#000000" points="222,-345.2 222,-367.2 410,-367.2 410,-345.2 222,-345.2"/>
<text text-anchor="start" x="242" y="-352.3" font-family="Helvetica,sans-Serif" font-size="11.00" fill="#000000">c_created_by</text>
<polygon fill="none" stroke="#000000" points="410,-345.2 410,-367.2 494,-367.2 494,-345.2 410,-345.2"/>
<text text-anchor="start" x="413" y="-352.9" font-family="Helvetica,sans-Serif" font-size="11.00" fill="#000000">varchar[255]</text>
<polygon fill="none" stroke="#000000" points="222,-323.2 222,-345.2 410,-345.2 410,-323.2 222,-323.2"/>
<text text-anchor="start" x="242" y="-330.3" font-family="Helvetica,sans-Serif" font-size="11.00" fill="#000000">c_updated_by</text>
<polygon fill="none" stroke="#000000" points="410,-323.2 410,-345.2 494,-345.2 494,-323.2 410,-323.2"/>
<text text-anchor="start" x="413" y="-330.9" font-family="Helvetica,sans-Serif" font-size="11.00" fill="#000000">varchar[255]</text>
<polygon fill="none" stroke="#000000" points="222,-301.2 222,-323.2 410,-323.2 410,-301.2 222,-301.2"/>
<text text-anchor="start" x="242" y="-308.3" font-family="Helvetica,sans-Serif" font-size="11.00" fill="#000000">c_updated</text>
<polygon fill="none" stroke="#000000" points="410,-301.2 410,-323.2 494,-323.2 494,-301.2 410,-301.2"/>
<text text-anchor="start" x="412.8807" y="-308.9" font-family="Helvetica,sans-Serif" font-size="11.00" fill="#000000">timestamp[29,6]</text>
<polygon fill="none" stroke="#000000" points="222,-279.2 222,-301.2 410,-301.2 410,-279.2 222,-279.2"/>
<text text-anchor="start" x="242" y="-286.3" font-family="Helvetica,sans-Serif" font-size="11.00" fill="#000000">c_ol</text>
<polygon fill="none" stroke="#000000" points="410,-279.2 410,-301.2 494,-301.2 494,-279.2 410,-279.2"/>
<text text-anchor="start" x="413" y="-286.9" font-family="Helvetica,sans-Serif" font-size="11.00" fill="#000000">int8[19]</text>
<polygon fill="#ffffff" stroke="transparent" points="222,-257.2 222,-279.2 410,-279.2 410,-257.2 222,-257.2"/>
<polygon fill="none" stroke="#000000" points="222,-257.2 222,-279.2 410,-279.2 410,-257.2 222,-257.2"/>
<text text-anchor="start" x="242" y="-264.3" font-family="Helvetica,sans-Serif" font-size="11.00" fill="#000000">c_pid</text>
<polygon fill="none" stroke="#000000" points="410,-257.2 410,-279.2 494,-279.2 494,-257.2 410,-257.2"/>
<text text-anchor="start" x="413" y="-264.9" font-family="Helvetica,sans-Serif" font-size="11.00" fill="#000000">varchar[255]</text>
<polygon fill="none" stroke="#000000" points="222,-235.2 222,-257.2 410,-257.2 410,-235.2 222,-235.2"/>
<text text-anchor="start" x="242" y="-242.3" font-family="Helvetica,sans-Serif" font-size="11.00" fill="#000000">c_compatibility</text>
<polygon fill="none" stroke="#000000" points="410,-235.2 410,-257.2 494,-257.2 494,-235.2 410,-235.2"/>
<text text-anchor="start" x="413" y="-242.9" font-family="Helvetica,sans-Serif" font-size="11.00" fill="#000000">varchar[255]</text>
<polygon fill="none" stroke="#000000" points="222,-213.2 222,-235.2 410,-235.2 410,-213.2 222,-213.2"/>
<text text-anchor="start" x="242" y="-220.3" font-family="Helvetica,sans-Serif" font-size="11.00" fill="#000000">c_description</text>
<polygon fill="none" stroke="#000000" points="410,-213.2 410,-235.2 494,-235.2 494,-213.2 410,-213.2"/>
<text text-anchor="start" x="413" y="-220.9" font-family="Helvetica,sans-Serif" font-size="11.00" fill="#000000">varchar[255]</text>
<polygon fill="none" stroke="#000000" points="222,-191.2 222,-213.2 410,-213.2 410,-191.2 222,-191.2"/>
<text text-anchor="start" x="242" y="-198.3" font-family="Helvetica,sans-Serif" font-size="11.00" fill="#000000">c_height</text>
<polygon fill="none" stroke="#000000" points="410,-191.2 410,-213.2 494,-213.2 494,-191.2 410,-191.2"/>
<text text-anchor="start" x="413" y="-198.9" font-family="Helvetica,sans-Serif" font-size="11.00" fill="#000000">int4[10]</text>
<polygon fill="none" stroke="#000000" points="222,-169.2 222,-191.2 410,-191.2 410,-169.2 222,-169.2"/>
<text text-anchor="start" x="242" y="-176.3" font-family="Helvetica,sans-Serif" font-size="11.00" fill="#000000">c_length</text>
<polygon fill="none" stroke="#000000" points="410,-169.2 410,-191.2 494,-191.2 494,-169.2 410,-169.2"/>
<text text-anchor="start" x="413" y="-176.9" font-family="Helvetica,sans-Serif" font-size="11.00" fill="#000000">int4[10]</text>
<polygon fill="none" stroke="#000000" points="222,-147.2 222,-169.2 410,-169.2 410,-147.2 222,-147.2"/>
<text text-anchor="start" x="242" y="-154.3" font-family="Helvetica,sans-Serif" font-size="11.00" fill="#000000">c_payload</text>
<polygon fill="none" stroke="#000000" points="410,-147.2 410,-169.2 494,-169.2 494,-147.2 410,-147.2"/>
<text text-anchor="start" x="413" y="-154.9" font-family="Helvetica,sans-Serif" font-size="11.00" fill="#000000">numeric[38,2]</text>
<polygon fill="#ffffff" stroke="transparent" points="222,-125.2 222,-147.2 410,-147.2 410,-125.2 222,-125.2"/>
<polygon fill="none" stroke="#000000" points="222,-125.2 222,-147.2 410,-147.2 410,-125.2 222,-125.2"/>
<text text-anchor="start" x="242" y="-132.3" font-family="Helvetica,sans-Serif" font-size="11.00" fill="#000000">c_type</text>
<polygon fill="none" stroke="#000000" points="410,-125.2 410,-147.2 494,-147.2 494,-125.2 410,-125.2"/>
<text text-anchor="start" x="413" y="-132.9" font-family="Helvetica,sans-Serif" font-size="11.00" fill="#000000">varchar[255]</text>
<polygon fill="none" stroke="#000000" points="222,-103.2 222,-125.2 410,-125.2 410,-103.2 222,-103.2"/>
<text text-anchor="start" x="242" y="-110.3" font-family="Helvetica,sans-Serif" font-size="11.00" fill="#000000">c_weight_max</text>
<polygon fill="none" stroke="#000000" points="410,-103.2 410,-125.2 494,-125.2 494,-103.2 410,-103.2"/>
<text text-anchor="start" x="413" y="-110.9" font-family="Helvetica,sans-Serif" font-size="11.00" fill="#000000">numeric[38,2]</text>
<polygon fill="none" stroke="#000000" points="222,-81.2 222,-103.2 410,-103.2 410,-81.2 222,-81.2"/>
<text text-anchor="start" x="242" y="-88.3" font-family="Helvetica,sans-Serif" font-size="11.00" fill="#000000">c_weight_tare</text>
<polygon fill="none" stroke="#000000" points="410,-81.2 410,-103.2 494,-103.2 494,-81.2 410,-81.2"/>
<text text-anchor="start" x="413" y="-88.9" font-family="Helvetica,sans-Serif" font-size="11.00" fill="#000000">numeric[38,2]</text>
<polygon fill="none" stroke="#000000" points="222,-59.2 222,-81.2 410,-81.2 410,-59.2 222,-59.2"/>
<text text-anchor="start" x="242" y="-66.3" font-family="Helvetica,sans-Serif" font-size="11.00" fill="#000000">c_width</text>
<polygon fill="none" stroke="#000000" points="410,-59.2 410,-81.2 494,-81.2 494,-59.2 410,-59.2"/>
<text text-anchor="start" x="413" y="-66.9" font-family="Helvetica,sans-Serif" font-size="11.00" fill="#000000">int4[10]</text>
<polygon fill="#ffffff" stroke="transparent" points="222,-40.2 222,-59.2 307,-59.2 307,-40.2 222,-40.2"/>
<polygon fill="none" stroke="#000000" points="222,-40.2 222,-59.2 307,-59.2 307,-40.2 222,-40.2"/>
<text text-anchor="start" x="225" y="-46.3" font-family="Helvetica,sans-Serif" font-size="11.00" fill="#000000">&lt; 0</text>
<polygon fill="#ffffff" stroke="transparent" points="307,-40.2 307,-59.2 410,-59.2 410,-40.2 307,-40.2"/>
<polygon fill="none" stroke="#000000" points="307,-40.2 307,-59.2 410,-59.2 410,-40.2 307,-40.2"/>
<text text-anchor="start" x="374.6105" y="-46.3" font-family="Helvetica,sans-Serif" font-size="11.00" fill="#000000">2 rows</text>
<polygon fill="#ffffff" stroke="transparent" points="410,-40.2 410,-59.2 494,-59.2 494,-40.2 410,-40.2"/>
<polygon fill="none" stroke="#000000" points="410,-40.2 410,-59.2 494,-59.2 494,-40.2 410,-40.2"/>
<text text-anchor="start" x="475.4053" y="-46.3" font-family="Helvetica,sans-Serif" font-size="11.00" fill="#000000">4 &gt;</text>
<polygon fill="none" stroke="#000000" stroke-width="2" points="221,-39.2 221,-435.2 495,-435.2 495,-39.2 221,-39.2"/>
</a>
</g>
</g>
<!-- com_transport_unit&#45;&gt;com_transport_unit_type -->
<g id="edge4" class="edge">
<title>com_transport_unit:w&#45;&gt;com_transport_unit_type:e</title>
<path fill="none" stroke="#000000" d="M557.2045,-617.6523C543.3963,-608.7448 546.2988,-584.5487 537,-562.2 508.3833,-493.4227 568.4932,-400.2 494,-400.2"/>
<polygon fill="#000000" stroke="#000000" points="563.7355,-619.273 570.6329,-624.694 567.6178,-620.2365 571.5,-621.2 571.5,-621.2 571.5,-621.2 567.6178,-620.2365 572.3671,-617.706 563.7355,-619.273 563.7355,-619.273"/>
<ellipse fill="none" stroke="#000000" cx="560.6297" cy="-618.5023" rx="3.2" ry="3.2"/>
</g>
<!-- com_tu_reservation -->
<g id="node5" class="node">
<title>com_tu_reservation</title>
<g id="a_node5"><a xlink:href="../../tables/com_tu_reservation.html" xlink:title="com_tu_reservation" target="_top">
<polygon fill="#ffffff" stroke="transparent" points="819,-766.7 819,-827.7 989,-827.7 989,-766.7 819,-766.7"/>
<polygon fill="#f5f5f5" stroke="transparent" points="819,-804.2 819,-827.2 989,-827.2 989,-804.2 819,-804.2"/>
<polygon fill="none" stroke="#000000" points="819,-804.2 819,-827.2 989,-827.2 989,-804.2 819,-804.2"/>
<text text-anchor="start" x="824" y="-812.8" font-family="Helvetica,sans-Serif" font-weight="bold" font-size="11.00" fill="#000000">com_tu_reservation</text>
<text text-anchor="start" x="954.5219" y="-812.3" font-family="Helvetica,sans-Serif" font-size="11.00" fill="#000000">[table]</text>
<polygon fill="none" stroke="#000000" points="819,-785.2 819,-804.2 989,-804.2 989,-785.2 819,-785.2"/>
<text text-anchor="start" x="822" y="-791.3" font-family="Helvetica,sans-Serif" font-size="11.00" fill="#000000">...</text>
<polygon fill="#ffffff" stroke="transparent" points="819,-766.2 819,-785.2 902,-785.2 902,-766.2 819,-766.2"/>
<polygon fill="none" stroke="#000000" points="819,-766.2 819,-785.2 902,-785.2 902,-766.2 819,-766.2"/>
<text text-anchor="start" x="822" y="-772.3" font-family="Helvetica,sans-Serif" font-size="11.00" fill="#000000">&lt; 1</text>
<polygon fill="#ffffff" stroke="transparent" points="902,-766.2 902,-785.2 945,-785.2 945,-766.2 902,-766.2"/>
<polygon fill="none" stroke="#000000" points="902,-766.2 902,-785.2 945,-785.2 945,-766.2 902,-766.2"/>
<text text-anchor="start" x="935.8862" y="-772.3" font-family="Helvetica,sans-Serif" font-size="11.00" fill="#000000"> &#160;</text>
<polygon fill="#ffffff" stroke="transparent" points="945,-766.2 945,-785.2 989,-785.2 989,-766.2 945,-766.2"/>
<polygon fill="none" stroke="#000000" points="945,-766.2 945,-785.2 989,-785.2 989,-766.2 945,-766.2"/>
<text text-anchor="start" x="979.8862" y="-772.3" font-family="Helvetica,sans-Serif" font-size="11.00" fill="#000000"> &#160;</text>
</a>
</g>
</g>
<!-- com_tu_reservation&#45;&gt;com_transport_unit -->
<g id="edge5" class="edge">
<title>com_tu_reservation:w&#45;&gt;com_transport_unit:e</title>
<path fill="none" stroke="#000000" d="M804.6551,-791.8782C780.2511,-783.2049 776.1653,-753.2 743.5,-753.2"/>
<polygon fill="#000000" stroke="#000000" points="811.1028,-792.9217 818.4248,-797.7538 815.0514,-793.5609 819,-794.2 819,-794.2 819,-794.2 815.0514,-793.5609 819.5752,-790.6462 811.1028,-792.9217 811.1028,-792.9217"/>
<ellipse fill="none" stroke="#000000" cx="807.9439" cy="-792.4104" rx="3.2" ry="3.2"/>
</g>
<!-- com_type_placing_rule -->
<g id="node6" class="node">
<title>com_type_placing_rule</title>
<g id="a_node6"><a xlink:href="../../tables/com_type_placing_rule.html" xlink:title="com_type_placing_rule" target="_top">
<polygon fill="#ffffff" stroke="transparent" points="562,-402.7 562,-551.7 753,-551.7 753,-402.7 562,-402.7"/>
<polygon fill="#f5f5f5" stroke="transparent" points="562.5,-528.2 562.5,-551.2 753.5,-551.2 753.5,-528.2 562.5,-528.2"/>
<polygon fill="none" stroke="#000000" points="562.5,-528.2 562.5,-551.2 753.5,-551.2 753.5,-528.2 562.5,-528.2"/>
<text text-anchor="start" x="567.5" y="-536.8" font-family="Helvetica,sans-Serif" font-weight="bold" font-size="11.00" fill="#000000">com_type_placing_rule</text>
<text text-anchor="start" x="719.0219" y="-536.3" font-family="Helvetica,sans-Serif" font-size="11.00" fill="#000000">[table]</text>
<polygon fill="none" stroke="#000000" points="562.5,-506.2 562.5,-528.2 753.5,-528.2 753.5,-506.2 562.5,-506.2"/>
<image xlink:href="../../images/primaryKeys.png" width="11px" height="12px" preserveAspectRatio="xMinYMin meet" x="567.5" y="-523.2"/>
<text text-anchor="start" x="587.5" y="-513.3" font-family="Helvetica,sans-Serif" font-size="11.00" fill="#000000">c_pk</text>
<polygon fill="#ffffff" stroke="transparent" points="562.5,-484.2 562.5,-506.2 753.5,-506.2 753.5,-484.2 562.5,-484.2"/>
<polygon fill="none" stroke="#000000" points="562.5,-484.2 562.5,-506.2 753.5,-506.2 753.5,-484.2 562.5,-484.2"/>
<text text-anchor="start" x="587.5" y="-491.3" font-family="Helvetica,sans-Serif" font-size="11.00" fill="#000000">c_privilege_level</text>
<polygon fill="#ffffff" stroke="transparent" points="562.5,-462.2 562.5,-484.2 753.5,-484.2 753.5,-462.2 562.5,-462.2"/>
<polygon fill="none" stroke="#000000" points="562.5,-462.2 562.5,-484.2 753.5,-484.2 753.5,-462.2 562.5,-462.2"/>
<image xlink:href="../../images/foreignKeys.png" width="11px" height="12px" preserveAspectRatio="xMinYMin meet" x="567.5" y="-479.2"/>
<text text-anchor="start" x="587.5" y="-469.3" font-family="Helvetica,sans-Serif" font-size="11.00" fill="#000000">c_allowed_location_type</text>
<polygon fill="#ffffff" stroke="transparent" points="562.5,-440.2 562.5,-462.2 753.5,-462.2 753.5,-440.2 562.5,-440.2"/>
<polygon fill="none" stroke="#000000" points="562.5,-440.2 562.5,-462.2 753.5,-462.2 753.5,-440.2 562.5,-440.2"/>
<image xlink:href="../../images/foreignKeys.png" width="11px" height="12px" preserveAspectRatio="xMinYMin meet" x="567.5" y="-457.2"/>
<text text-anchor="start" x="587.5" y="-447.3" font-family="Helvetica,sans-Serif" font-size="11.00" fill="#000000">c_tut_id</text>
<polygon fill="none" stroke="#000000" points="562.5,-421.2 562.5,-440.2 753.5,-440.2 753.5,-421.2 562.5,-421.2"/>
<text text-anchor="start" x="565.5" y="-427.3" font-family="Helvetica,sans-Serif" font-size="11.00" fill="#000000">...</text>
<polygon fill="#ffffff" stroke="transparent" points="562.5,-402.2 562.5,-421.2 643.5,-421.2 643.5,-402.2 562.5,-402.2"/>
<polygon fill="none" stroke="#000000" points="562.5,-402.2 562.5,-421.2 643.5,-421.2 643.5,-402.2 562.5,-402.2"/>
<text text-anchor="start" x="565.5" y="-408.3" font-family="Helvetica,sans-Serif" font-size="11.00" fill="#000000">&lt; 2</text>
<polygon fill="#ffffff" stroke="transparent" points="643.5,-402.2 643.5,-421.2 711.5,-421.2 711.5,-402.2 643.5,-402.2"/>
<polygon fill="none" stroke="#000000" points="643.5,-402.2 643.5,-421.2 711.5,-421.2 711.5,-402.2 643.5,-402.2"/>
<text text-anchor="start" x="676.1105" y="-408.3" font-family="Helvetica,sans-Serif" font-size="11.00" fill="#000000">3 rows</text>
<polygon fill="#ffffff" stroke="transparent" points="711.5,-402.2 711.5,-421.2 753.5,-421.2 753.5,-402.2 711.5,-402.2"/>
<polygon fill="none" stroke="#000000" points="711.5,-402.2 711.5,-421.2 753.5,-421.2 753.5,-402.2 711.5,-402.2"/>
<text text-anchor="start" x="744.3862" y="-408.3" font-family="Helvetica,sans-Serif" font-size="11.00" fill="#000000"> &#160;</text>
</a>
</g>
</g>
<!-- com_type_placing_rule&#45;&gt;com_location_type -->
<g id="edge6" class="edge">
<title>com_type_placing_rule:w&#45;&gt;com_location_type:e</title>
<path fill="none" stroke="#000000" d="M547.8577,-473.4797C378.2693,-480.0504 349.2187,-600.2 171.5,-600.2"/>
<polygon fill="#000000" stroke="#000000" points="554.5015,-473.3528 562.5688,-476.7993 558.5007,-473.2764 562.5,-473.2 562.5,-473.2 562.5,-473.2 558.5007,-473.2764 562.4312,-469.6007 554.5015,-473.3528 554.5015,-473.3528"/>
<ellipse fill="none" stroke="#000000" cx="551.302" cy="-473.414" rx="3.2" ry="3.2"/>
</g>
<!-- com_type_placing_rule&#45;&gt;com_transport_unit_type -->
<g id="edge7" class="edge">
<title>com_type_placing_rule:w&#45;&gt;com_transport_unit_type:e</title>
<path fill="none" stroke="#000000" d="M548.2999,-448.1624C525.7449,-437.1831 526.3217,-400.2 494,-400.2"/>
<polygon fill="#000000" stroke="#000000" points="554.677,-449.5265 561.7469,-454.7204 558.5885,-450.3633 562.5,-451.2 562.5,-451.2 562.5,-451.2 558.5885,-450.3633 563.2531,-447.6796 554.677,-449.5265 554.677,-449.5265"/>
<ellipse fill="none" stroke="#000000" cx="551.5478" cy="-448.8571" rx="3.2" ry="3.2"/>
</g>
<!-- com_type_stacking_rule -->
<g id="node7" class="node">
<title>com_type_stacking_rule</title>
<g id="a_node7"><a xlink:href="../../tables/com_type_stacking_rule.html" xlink:title="com_type_stacking_rule" target="_top">
<polygon fill="#ffffff" stroke="transparent" points="545,-232.7 545,-381.7 770,-381.7 770,-232.7 545,-232.7"/>
<polygon fill="#f5f5f5" stroke="transparent" points="545.5,-358.2 545.5,-381.2 770.5,-381.2 770.5,-358.2 545.5,-358.2"/>
<polygon fill="none" stroke="#000000" points="545.5,-358.2 545.5,-381.2 770.5,-381.2 770.5,-358.2 545.5,-358.2"/>
<text text-anchor="start" x="550.5" y="-366.8" font-family="Helvetica,sans-Serif" font-weight="bold" font-size="11.00" fill="#000000">com_type_stacking_rule</text>
<text text-anchor="start" x="735.5437" y="-366.3" font-family="Helvetica,sans-Serif" font-size="11.00" fill="#000000">[table]</text>
<polygon fill="none" stroke="#000000" points="545.5,-336.2 545.5,-358.2 770.5,-358.2 770.5,-336.2 545.5,-336.2"/>
<image xlink:href="../../images/primaryKeys.png" width="11px" height="12px" preserveAspectRatio="xMinYMin meet" x="550.5" y="-353.2"/>
<text text-anchor="start" x="565.5" y="-343.3" font-family="Helvetica,sans-Serif" font-size="11.00" fill="#000000">c_pk</text>
<polygon fill="#ffffff" stroke="transparent" points="545.5,-314.2 545.5,-336.2 770.5,-336.2 770.5,-314.2 545.5,-314.2"/>
<polygon fill="none" stroke="#000000" points="545.5,-314.2 545.5,-336.2 770.5,-336.2 770.5,-314.2 545.5,-314.2"/>
<text text-anchor="start" x="565.5" y="-321.3" font-family="Helvetica,sans-Serif" font-size="11.00" fill="#000000">c_no_transport_units</text>
<polygon fill="#ffffff" stroke="transparent" points="545.5,-292.2 545.5,-314.2 770.5,-314.2 770.5,-292.2 545.5,-292.2"/>
<polygon fill="none" stroke="#000000" points="545.5,-292.2 545.5,-314.2 770.5,-314.2 770.5,-292.2 545.5,-292.2"/>
<image xlink:href="../../images/foreignKeys.png" width="11px" height="12px" preserveAspectRatio="xMinYMin meet" x="550.5" y="-309.2"/>
<text text-anchor="start" x="565.5" y="-299.3" font-family="Helvetica,sans-Serif" font-size="11.00" fill="#000000">c_allowed_transport_unit_type</text>
<polygon fill="#ffffff" stroke="transparent" points="545.5,-270.2 545.5,-292.2 770.5,-292.2 770.5,-270.2 545.5,-270.2"/>
<polygon fill="none" stroke="#000000" points="545.5,-270.2 545.5,-292.2 770.5,-292.2 770.5,-270.2 545.5,-270.2"/>
<image xlink:href="../../images/foreignKeys.png" width="11px" height="12px" preserveAspectRatio="xMinYMin meet" x="550.5" y="-287.2"/>
<text text-anchor="start" x="565.5" y="-277.3" font-family="Helvetica,sans-Serif" font-size="11.00" fill="#000000">c_transport_unit_type</text>
<polygon fill="none" stroke="#000000" points="545.5,-251.2 545.5,-270.2 770.5,-270.2 770.5,-251.2 545.5,-251.2"/>
<text text-anchor="start" x="548.5" y="-257.3" font-family="Helvetica,sans-Serif" font-size="11.00" fill="#000000">...</text>
<polygon fill="#ffffff" stroke="transparent" points="545.5,-232.2 545.5,-251.2 646.5,-251.2 646.5,-232.2 545.5,-232.2"/>
<polygon fill="none" stroke="#000000" points="545.5,-232.2 545.5,-251.2 646.5,-251.2 646.5,-232.2 545.5,-232.2"/>
<text text-anchor="start" x="548.5" y="-238.3" font-family="Helvetica,sans-Serif" font-size="11.00" fill="#000000">&lt; 2</text>
<polygon fill="#ffffff" stroke="transparent" points="646.5,-232.2 646.5,-251.2 718.5,-251.2 718.5,-232.2 646.5,-232.2"/>
<polygon fill="none" stroke="#000000" points="646.5,-232.2 646.5,-251.2 718.5,-251.2 718.5,-232.2 646.5,-232.2"/>
<text text-anchor="start" x="688.6105" y="-238.3" font-family="Helvetica,sans-Serif" font-size="11.00" fill="#000000">1 row</text>
<polygon fill="#ffffff" stroke="transparent" points="718.5,-232.2 718.5,-251.2 770.5,-251.2 770.5,-232.2 718.5,-232.2"/>
<polygon fill="none" stroke="#000000" points="718.5,-232.2 718.5,-251.2 770.5,-251.2 770.5,-232.2 718.5,-232.2"/>
<text text-anchor="start" x="761.3862" y="-238.3" font-family="Helvetica,sans-Serif" font-size="11.00" fill="#000000"> &#160;</text>
</a>
</g>
</g>
<!-- com_type_stacking_rule&#45;&gt;com_transport_unit_type -->
<g id="edge8" class="edge">
<title>com_type_stacking_rule:w&#45;&gt;com_transport_unit_type:e</title>
<path fill="none" stroke="#000000" d="M531.6071,-307.1227C506.4674,-325.2698 536.8999,-400.2 494,-400.2"/>
<polygon fill="#000000" stroke="#000000" points="537.801,-305.3738 546.4782,-306.6646 541.6505,-304.2869 545.5,-303.2 545.5,-303.2 545.5,-303.2 541.6505,-304.2869 544.5218,-299.7354 537.801,-305.3738 537.801,-305.3738"/>
<ellipse fill="none" stroke="#000000" cx="534.7214" cy="-306.2434" rx="3.2" ry="3.2"/>
</g>
<!-- com_type_stacking_rule&#45;&gt;com_transport_unit_type -->
<g id="edge9" class="edge">
<title>com_type_stacking_rule:w&#45;&gt;com_transport_unit_type:e</title>
<path fill="none" stroke="#000000" d="M531.4431,-284.6331C499.5696,-304.1444 545.7763,-400.2 494,-400.2"/>
<polygon fill="#000000" stroke="#000000" points="537.7284,-283.0981 546.3541,-284.6972 541.6142,-282.149 545.5,-281.2 545.5,-281.2 545.5,-281.2 541.6142,-282.149 544.6459,-277.7028 537.7284,-283.0981 537.7284,-283.0981"/>
<ellipse fill="none" stroke="#000000" cx="534.6198" cy="-283.8573" rx="3.2" ry="3.2"/>
</g>
<!-- com_unit_error -->
<g id="node8" class="node">
<title>com_unit_error</title>
<g id="a_node8"><a xlink:href="../../tables/com_unit_error.html" xlink:title="com_unit_error" target="_top">
<polygon fill="#ffffff" stroke="transparent" points="834.5,-684.7 834.5,-745.7 973.5,-745.7 973.5,-684.7 834.5,-684.7"/>
<polygon fill="#f5f5f5" stroke="transparent" points="835,-722.2 835,-745.2 974,-745.2 974,-722.2 835,-722.2"/>
<polygon fill="none" stroke="#000000" points="835,-722.2 835,-745.2 974,-745.2 974,-722.2 835,-722.2"/>
<text text-anchor="start" x="840" y="-730.8" font-family="Helvetica,sans-Serif" font-weight="bold" font-size="11.00" fill="#000000">com_unit_error</text>
<text text-anchor="start" x="939.5219" y="-730.3" font-family="Helvetica,sans-Serif" font-size="11.00" fill="#000000">[table]</text>
<polygon fill="none" stroke="#000000" points="835,-703.2 835,-722.2 974,-722.2 974,-703.2 835,-703.2"/>
<text text-anchor="start" x="838" y="-709.3" font-family="Helvetica,sans-Serif" font-size="11.00" fill="#000000">...</text>
<polygon fill="#ffffff" stroke="transparent" points="835,-684.2 835,-703.2 903,-703.2 903,-684.2 835,-684.2"/>
<polygon fill="none" stroke="#000000" points="835,-684.2 835,-703.2 903,-703.2 903,-684.2 835,-684.2"/>
<text text-anchor="start" x="838" y="-690.3" font-family="Helvetica,sans-Serif" font-size="11.00" fill="#000000">&lt; 1</text>
<polygon fill="#ffffff" stroke="transparent" points="903,-684.2 903,-703.2 938,-703.2 938,-684.2 903,-684.2"/>
<polygon fill="none" stroke="#000000" points="903,-684.2 903,-703.2 938,-703.2 938,-684.2 903,-684.2"/>
<text text-anchor="start" x="928.8862" y="-690.3" font-family="Helvetica,sans-Serif" font-size="11.00" fill="#000000"> &#160;</text>
<polygon fill="#ffffff" stroke="transparent" points="938,-684.2 938,-703.2 974,-703.2 974,-684.2 938,-684.2"/>
<polygon fill="none" stroke="#000000" points="938,-684.2 938,-703.2 974,-703.2 974,-684.2 938,-684.2"/>
<text text-anchor="start" x="964.8862" y="-690.3" font-family="Helvetica,sans-Serif" font-size="11.00" fill="#000000"> &#160;</text>
</a>
</g>
</g>
<!-- com_unit_error&#45;&gt;com_transport_unit -->
<g id="edge10" class="edge">
<title>com_unit_error:w&#45;&gt;com_transport_unit:e</title>
<path fill="none" stroke="#000000" d="M820.5173,-713.858C789.2436,-721.5285 782.6664,-753.2 743.5,-753.2"/>
<polygon fill="#000000" stroke="#000000" points="827.0519,-713.11 835.4095,-715.7766 831.026,-712.655 835,-712.2 835,-712.2 835,-712.2 831.026,-712.655 834.5905,-708.6234 827.0519,-713.11 827.0519,-713.11"/>
<ellipse fill="none" stroke="#000000" cx="823.8727" cy="-713.474" rx="3.2" ry="3.2"/>
</g>
</g>
</svg>
