<?xml version="1.0" encoding="UTF-8" standalone="no"?>
<!DOCTYPE svg PUBLIC "-//W3C//DTD SVG 1.1//EN"
 "http://www.w3.org/Graphics/SVG/1.1/DTD/svg11.dtd">
<!-- Generated by graphviz version 2.40.1 (20161225.0304)
 -->
<!-- Title: twoDegreesRelationshipsDiagram Pages: 1 -->
<svg width="761pt" height="511pt"
 viewBox="0.00 0.00 761.00 510.70" xmlns="http://www.w3.org/2000/svg" xmlns:xlink="http://www.w3.org/1999/xlink">
<g id="graph0" class="graph" transform="scale(1 1) rotate(0) translate(4 506.7)">
<title>twoDegreesRelationshipsDiagram</title>
<polygon fill="#ffffff" stroke="transparent" points="-4,4 -4,-506.7 757,-506.7 757,4 -4,4"/>
<text text-anchor="middle" x="72.4936" y="-7.3" font-family="Helvetica,sans-Serif" font-size="11.00" fill="#000000">Generated by SchemaSpy</text>
<!-- com_location -->
<g id="node1" class="node">
<title>com_location</title>
<g id="a_node1"><a xlink:href="../../tables/com_location.html" xlink:title="com_location" target="_top">
<polygon fill="#ffffff" stroke="transparent" points="259.5,-38.2 259.5,-99.2 386.5,-99.2 386.5,-38.2 259.5,-38.2"/>
<polygon fill="#f5f5f5" stroke="transparent" points="260,-75.7 260,-98.7 387,-98.7 387,-75.7 260,-75.7"/>
<polygon fill="none" stroke="#000000" points="260,-75.7 260,-98.7 387,-98.7 387,-75.7 260,-75.7"/>
<text text-anchor="start" x="265" y="-84.3" font-family="Helvetica,sans-Serif" font-weight="bold" font-size="11.00" fill="#000000">com_location</text>
<text text-anchor="start" x="352.5219" y="-83.8" font-family="Helvetica,sans-Serif" font-size="11.00" fill="#000000">[table]</text>
<polygon fill="none" stroke="#000000" points="260,-56.7 260,-75.7 387,-75.7 387,-56.7 260,-56.7"/>
<text text-anchor="start" x="263" y="-62.8" font-family="Helvetica,sans-Serif" font-size="11.00" fill="#000000">...</text>
<polygon fill="#ffffff" stroke="transparent" points="260,-37.7 260,-56.7 301,-56.7 301,-37.7 260,-37.7"/>
<polygon fill="none" stroke="#000000" points="260,-37.7 260,-56.7 301,-56.7 301,-37.7 260,-37.7"/>
<text text-anchor="start" x="263" y="-43.8" font-family="Helvetica,sans-Serif" font-size="11.00" fill="#000000">&lt; 3</text>
<polygon fill="#ffffff" stroke="transparent" points="301,-37.7 301,-56.7 355,-56.7 355,-37.7 301,-37.7"/>
<polygon fill="none" stroke="#000000" points="301,-37.7 301,-56.7 355,-56.7 355,-37.7 301,-37.7"/>
<text text-anchor="start" x="313.4956" y="-43.8" font-family="Helvetica,sans-Serif" font-size="11.00" fill="#000000">32 rows</text>
<polygon fill="#ffffff" stroke="transparent" points="355,-37.7 355,-56.7 387,-56.7 387,-37.7 355,-37.7"/>
<polygon fill="none" stroke="#000000" points="355,-37.7 355,-56.7 387,-56.7 387,-37.7 355,-37.7"/>
<text text-anchor="start" x="368.4053" y="-43.8" font-family="Helvetica,sans-Serif" font-size="11.00" fill="#000000">3 &gt;</text>
</a>
</g>
</g>
<!-- com_location_type -->
<g id="node2" class="node">
<title>com_location_type</title>
<g id="a_node2"><a xlink:href="../../tables/com_location_type.html" xlink:title="com_location_type" target="_top">
<polygon fill="#ffffff" stroke="transparent" points="8,-76.2 8,-203.2 171,-203.2 171,-76.2 8,-76.2"/>
<polygon fill="#f5f5f5" stroke="transparent" points="8.5,-179.7 8.5,-202.7 171.5,-202.7 171.5,-179.7 8.5,-179.7"/>
<polygon fill="none" stroke="#000000" points="8.5,-179.7 8.5,-202.7 171.5,-202.7 171.5,-179.7 8.5,-179.7"/>
<text text-anchor="start" x="13.5" y="-188.3" font-family="Helvetica,sans-Serif" font-weight="bold" font-size="11.00" fill="#000000">com_location_type</text>
<text text-anchor="start" x="137.0219" y="-187.8" font-family="Helvetica,sans-Serif" font-size="11.00" fill="#000000">[table]</text>
<polygon fill="none" stroke="#000000" points="8.5,-157.7 8.5,-179.7 171.5,-179.7 171.5,-157.7 8.5,-157.7"/>
<image xlink:href="../../images/primaryKeys.png" width="11px" height="12px" preserveAspectRatio="xMinYMin meet" x="13.5" y="-174.7"/>
<text text-anchor="start" x="37.5" y="-164.8" font-family="Helvetica,sans-Serif" font-size="11.00" fill="#000000">c_pk</text>
<polygon fill="#ffffff" stroke="transparent" points="8.5,-135.7 8.5,-157.7 171.5,-157.7 171.5,-135.7 8.5,-135.7"/>
<polygon fill="none" stroke="#000000" points="8.5,-135.7 8.5,-157.7 171.5,-157.7 171.5,-135.7 8.5,-135.7"/>
<text text-anchor="start" x="37.5" y="-142.8" font-family="Helvetica,sans-Serif" font-size="11.00" fill="#000000">c_pid</text>
<polygon fill="#ffffff" stroke="transparent" points="8.5,-113.7 8.5,-135.7 171.5,-135.7 171.5,-113.7 8.5,-113.7"/>
<polygon fill="none" stroke="#000000" points="8.5,-113.7 8.5,-135.7 171.5,-135.7 171.5,-113.7 8.5,-113.7"/>
<text text-anchor="start" x="37.5" y="-120.8" font-family="Helvetica,sans-Serif" font-size="11.00" fill="#000000">c_type</text>
<polygon fill="none" stroke="#000000" points="8.5,-94.7 8.5,-113.7 171.5,-113.7 171.5,-94.7 8.5,-94.7"/>
<text text-anchor="start" x="11.5" y="-100.8" font-family="Helvetica,sans-Serif" font-size="11.00" fill="#000000">...</text>
<polygon fill="#ffffff" stroke="transparent" points="8.5,-75.7 8.5,-94.7 66.5,-94.7 66.5,-75.7 8.5,-75.7"/>
<polygon fill="none" stroke="#000000" points="8.5,-75.7 8.5,-94.7 66.5,-94.7 66.5,-75.7 8.5,-75.7"/>
<text text-anchor="start" x="11.5" y="-81.8" font-family="Helvetica,sans-Serif" font-size="11.00" fill="#000000"> &#160;</text>
<polygon fill="#ffffff" stroke="transparent" points="66.5,-75.7 66.5,-94.7 127.5,-94.7 127.5,-75.7 66.5,-75.7"/>
<polygon fill="none" stroke="#000000" points="66.5,-75.7 66.5,-94.7 127.5,-94.7 127.5,-75.7 66.5,-75.7"/>
<text text-anchor="start" x="92.1105" y="-81.8" font-family="Helvetica,sans-Serif" font-size="11.00" fill="#000000">2 rows</text>
<polygon fill="#ffffff" stroke="transparent" points="127.5,-75.7 127.5,-94.7 171.5,-94.7 171.5,-75.7 127.5,-75.7"/>
<polygon fill="none" stroke="#000000" points="127.5,-75.7 127.5,-94.7 171.5,-94.7 171.5,-75.7 127.5,-75.7"/>
<text text-anchor="start" x="152.9053" y="-81.8" font-family="Helvetica,sans-Serif" font-size="11.00" fill="#000000">2 &gt;</text>
</a>
</g>
</g>
<!-- com_location&#45;&gt;com_location_type -->
<g id="edge1" class="edge">
<title>com_location:w&#45;&gt;com_location_type:e</title>
<path fill="none" stroke="#000000" d="M245.5365,-68.2537C230.247,-74.6865 227.1233,-92.2894 212,-109.7 191.1426,-133.712 203.3057,-168.7 171.5,-168.7"/>
<polygon fill="#000000" stroke="#000000" points="252.1219,-67.091 260.626,-69.2452 256.0609,-66.3955 260,-65.7 260,-65.7 260,-65.7 256.0609,-66.3955 259.374,-62.1548 252.1219,-67.091 252.1219,-67.091"/>
<ellipse fill="none" stroke="#000000" cx="248.9706" cy="-67.6474" rx="3.2" ry="3.2"/>
</g>
<!-- com_transport_unit -->
<g id="node3" class="node">
<title>com_transport_unit</title>
<g id="a_node3"><a xlink:href="../../tables/com_transport_unit.html" xlink:title="com_transport_unit" target="_top">
<polygon fill="#ffffff" stroke="transparent" points="525.5,-38.2 525.5,-99.2 694.5,-99.2 694.5,-38.2 525.5,-38.2"/>
<polygon fill="#f5f5f5" stroke="transparent" points="526,-75.7 526,-98.7 695,-98.7 695,-75.7 526,-75.7"/>
<polygon fill="none" stroke="#000000" points="526,-75.7 526,-98.7 695,-98.7 695,-75.7 526,-75.7"/>
<text text-anchor="start" x="531" y="-84.3" font-family="Helvetica,sans-Serif" font-weight="bold" font-size="11.00" fill="#000000">com_transport_unit</text>
<text text-anchor="start" x="660.5219" y="-83.8" font-family="Helvetica,sans-Serif" font-size="11.00" fill="#000000">[table]</text>
<polygon fill="none" stroke="#000000" points="526,-56.7 526,-75.7 695,-75.7 695,-56.7 526,-56.7"/>
<text text-anchor="start" x="529" y="-62.8" font-family="Helvetica,sans-Serif" font-size="11.00" fill="#000000">...</text>
<polygon fill="#ffffff" stroke="transparent" points="526,-37.7 526,-56.7 591,-56.7 591,-37.7 526,-37.7"/>
<polygon fill="none" stroke="#000000" points="526,-37.7 526,-56.7 591,-56.7 591,-37.7 526,-37.7"/>
<text text-anchor="start" x="529" y="-43.8" font-family="Helvetica,sans-Serif" font-size="11.00" fill="#000000">&lt; 4</text>
<polygon fill="#ffffff" stroke="transparent" points="591,-37.7 591,-56.7 651,-56.7 651,-37.7 591,-37.7"/>
<polygon fill="none" stroke="#000000" points="591,-37.7 591,-56.7 651,-56.7 651,-37.7 591,-37.7"/>
<text text-anchor="start" x="615.6105" y="-43.8" font-family="Helvetica,sans-Serif" font-size="11.00" fill="#000000">2 rows</text>
<polygon fill="#ffffff" stroke="transparent" points="651,-37.7 651,-56.7 695,-56.7 695,-37.7 651,-37.7"/>
<polygon fill="none" stroke="#000000" points="651,-37.7 651,-56.7 695,-56.7 695,-37.7 651,-37.7"/>
<text text-anchor="start" x="676.4053" y="-43.8" font-family="Helvetica,sans-Serif" font-size="11.00" fill="#000000">3 &gt;</text>
</a>
</g>
</g>
<!-- com_transport_unit&#45;&gt;com_location -->
<g id="edge2" class="edge">
<title>com_transport_unit:w&#45;&gt;com_location:e</title>
<path fill="none" stroke="#000000" d="M511.3604,-64.3152C461.3012,-59.7423 443.5894,-60.2039 387,-65.7"/>
<polygon fill="#000000" stroke="#000000" points="518.0356,-64.9466 525.661,-69.284 522.0178,-65.3233 526,-65.7 526,-65.7 526,-65.7 522.0178,-65.3233 526.339,-62.116 518.0356,-64.9466 518.0356,-64.9466"/>
<ellipse fill="none" stroke="#000000" cx="514.8498" cy="-64.6452" rx="3.2" ry="3.2"/>
</g>
<!-- com_transport_unit&#45;&gt;com_location -->
<g id="edge3" class="edge">
<title>com_transport_unit:w&#45;&gt;com_location:e</title>
<path fill="none" stroke="#000000" d="M511.6811,-67.2813C461.3766,-72.6529 443.7101,-72.1258 387,-65.7"/>
<polygon fill="#000000" stroke="#000000" points="518.0483,-66.5782 526.3952,-69.2782 522.0242,-66.1391 526,-65.7 526,-65.7 526,-65.7 522.0242,-66.1391 525.6048,-62.1218 518.0483,-66.5782 518.0483,-66.5782"/>
<ellipse fill="none" stroke="#000000" cx="514.8677" cy="-66.9295" rx="3.2" ry="3.2"/>
</g>
<!-- com_transport_unit_type -->
<g id="node4" class="node">
<title>com_transport_unit_type</title>
<g id="a_node4"><a xlink:href="../../tables/com_transport_unit_type.html" xlink:title="com_transport_unit_type" target="_top">
<polygon fill="#ffffff" stroke="transparent" points="220,-120.2 220,-247.2 426,-247.2 426,-120.2 220,-120.2"/>
<polygon fill="#f5f5f5" stroke="transparent" points="220,-223.7 220,-246.7 426,-246.7 426,-223.7 220,-223.7"/>
<polygon fill="none" stroke="#000000" points="220,-223.7 220,-246.7 426,-246.7 426,-223.7 220,-223.7"/>
<text text-anchor="start" x="225" y="-232.3" font-family="Helvetica,sans-Serif" font-weight="bold" font-size="11.00" fill="#000000">com_transport_unit_type</text>
<text text-anchor="start" x="391.5219" y="-231.8" font-family="Helvetica,sans-Serif" font-size="11.00" fill="#000000">[table]</text>
<polygon fill="none" stroke="#000000" points="220,-201.7 220,-223.7 426,-223.7 426,-201.7 220,-201.7"/>
<image xlink:href="../../images/primaryKeys.png" width="11px" height="12px" preserveAspectRatio="xMinYMin meet" x="225" y="-218.7"/>
<text text-anchor="start" x="249" y="-208.8" font-family="Helvetica,sans-Serif" font-size="11.00" fill="#000000">c_pk</text>
<polygon fill="#ffffff" stroke="transparent" points="220,-179.7 220,-201.7 426,-201.7 426,-179.7 220,-179.7"/>
<polygon fill="none" stroke="#000000" points="220,-179.7 220,-201.7 426,-201.7 426,-179.7 220,-179.7"/>
<text text-anchor="start" x="249" y="-186.8" font-family="Helvetica,sans-Serif" font-size="11.00" fill="#000000">c_pid</text>
<polygon fill="#ffffff" stroke="transparent" points="220,-157.7 220,-179.7 426,-179.7 426,-157.7 220,-157.7"/>
<polygon fill="none" stroke="#000000" points="220,-157.7 220,-179.7 426,-179.7 426,-157.7 220,-157.7"/>
<text text-anchor="start" x="249" y="-164.8" font-family="Helvetica,sans-Serif" font-size="11.00" fill="#000000">c_type</text>
<polygon fill="none" stroke="#000000" points="220,-138.7 220,-157.7 426,-157.7 426,-138.7 220,-138.7"/>
<text text-anchor="start" x="223" y="-144.8" font-family="Helvetica,sans-Serif" font-size="11.00" fill="#000000">...</text>
<polygon fill="#ffffff" stroke="transparent" points="220,-119.7 220,-138.7 299,-138.7 299,-119.7 220,-119.7"/>
<polygon fill="none" stroke="#000000" points="220,-119.7 220,-138.7 299,-138.7 299,-119.7 220,-119.7"/>
<text text-anchor="start" x="223" y="-125.8" font-family="Helvetica,sans-Serif" font-size="11.00" fill="#000000"> &#160;</text>
<polygon fill="#ffffff" stroke="transparent" points="299,-119.7 299,-138.7 371,-138.7 371,-119.7 299,-119.7"/>
<polygon fill="none" stroke="#000000" points="299,-119.7 299,-138.7 371,-138.7 371,-119.7 299,-119.7"/>
<text text-anchor="start" x="335.6105" y="-125.8" font-family="Helvetica,sans-Serif" font-size="11.00" fill="#000000">2 rows</text>
<polygon fill="#ffffff" stroke="transparent" points="371,-119.7 371,-138.7 426,-138.7 426,-119.7 371,-119.7"/>
<polygon fill="none" stroke="#000000" points="371,-119.7 371,-138.7 426,-138.7 426,-119.7 371,-119.7"/>
<text text-anchor="start" x="407.4053" y="-125.8" font-family="Helvetica,sans-Serif" font-size="11.00" fill="#000000">4 &gt;</text>
</a>
</g>
</g>
<!-- com_transport_unit&#45;&gt;com_transport_unit_type -->
<g id="edge4" class="edge">
<title>com_transport_unit:w&#45;&gt;com_transport_unit_type:e</title>
<path fill="none" stroke="#000000" d="M512.3964,-71.6446C481.1379,-99.146 460.7245,-212.7 426,-212.7"/>
<polygon fill="#000000" stroke="#000000" points="518.6694,-68.9034 527.4416,-68.9988 522.3347,-67.3017 526,-65.7 526,-65.7 526,-65.7 522.3347,-67.3017 524.5584,-62.4012 518.6694,-68.9034 518.6694,-68.9034"/>
<ellipse fill="none" stroke="#000000" cx="515.7371" cy="-70.1848" rx="3.2" ry="3.2"/>
</g>
<!-- com_type_placing_rule -->
<g id="node5" class="node">
<title>com_type_placing_rule</title>
<g id="a_node5"><a xlink:href="../../tables/com_type_placing_rule.html" xlink:title="com_type_placing_rule" target="_top">
<polygon fill="#ffffff" stroke="transparent" points="475,-254.7 475,-498.7 745,-498.7 745,-254.7 475,-254.7"/>
<polygon fill="#f5f5f5" stroke="transparent" points="477,-473.7 477,-496.7 743,-496.7 743,-473.7 477,-473.7"/>
<polygon fill="none" stroke="#000000" points="477,-473.7 477,-496.7 743,-496.7 743,-473.7 477,-473.7"/>
<text text-anchor="start" x="482" y="-482.3" font-family="Helvetica,sans-Serif" font-weight="bold" font-size="11.00" fill="#000000">com_type_placing_rule</text>
<text text-anchor="start" x="708.0437" y="-481.8" font-family="Helvetica,sans-Serif" font-size="11.00" fill="#000000">[table]</text>
<polygon fill="none" stroke="#000000" points="477,-451.7 477,-473.7 659,-473.7 659,-451.7 477,-451.7"/>
<image xlink:href="../../images/primaryKeys.png" width="11px" height="12px" preserveAspectRatio="xMinYMin meet" x="482" y="-468.7"/>
<text text-anchor="start" x="497" y="-458.8" font-family="Helvetica,sans-Serif" font-size="11.00" fill="#000000">c_pk</text>
<polygon fill="none" stroke="#000000" points="659,-451.7 659,-473.7 743,-473.7 743,-451.7 659,-451.7"/>
<text text-anchor="start" x="662" y="-459.4" font-family="Helvetica,sans-Serif" font-size="11.00" fill="#000000">int8[19]</text>
<polygon fill="none" stroke="#000000" points="477,-429.7 477,-451.7 659,-451.7 659,-429.7 477,-429.7"/>
<text text-anchor="start" x="497" y="-436.8" font-family="Helvetica,sans-Serif" font-size="11.00" fill="#000000">c_created</text>
<polygon fill="none" stroke="#000000" points="659,-429.7 659,-451.7 743,-451.7 743,-429.7 659,-429.7"/>
<text text-anchor="start" x="661.8807" y="-437.4" font-family="Helvetica,sans-Serif" font-size="11.00" fill="#000000">timestamp[29,6]</text>
<polygon fill="none" stroke="#000000" points="477,-407.7 477,-429.7 659,-429.7 659,-407.7 477,-407.7"/>
<text text-anchor="start" x="497" y="-414.8" font-family="Helvetica,sans-Serif" font-size="11.00" fill="#000000">c_created_by</text>
<polygon fill="none" stroke="#000000" points="659,-407.7 659,-429.7 743,-429.7 743,-407.7 659,-407.7"/>
<text text-anchor="start" x="662" y="-415.4" font-family="Helvetica,sans-Serif" font-size="11.00" fill="#000000">varchar[255]</text>
<polygon fill="none" stroke="#000000" points="477,-385.7 477,-407.7 659,-407.7 659,-385.7 477,-385.7"/>
<text text-anchor="start" x="497" y="-392.8" font-family="Helvetica,sans-Serif" font-size="11.00" fill="#000000">c_updated_by</text>
<polygon fill="none" stroke="#000000" points="659,-385.7 659,-407.7 743,-407.7 743,-385.7 659,-385.7"/>
<text text-anchor="start" x="662" y="-393.4" font-family="Helvetica,sans-Serif" font-size="11.00" fill="#000000">varchar[255]</text>
<polygon fill="none" stroke="#000000" points="477,-363.7 477,-385.7 659,-385.7 659,-363.7 477,-363.7"/>
<text text-anchor="start" x="497" y="-370.8" font-family="Helvetica,sans-Serif" font-size="11.00" fill="#000000">c_updated</text>
<polygon fill="none" stroke="#000000" points="659,-363.7 659,-385.7 743,-385.7 743,-363.7 659,-363.7"/>
<text text-anchor="start" x="661.8807" y="-371.4" font-family="Helvetica,sans-Serif" font-size="11.00" fill="#000000">timestamp[29,6]</text>
<polygon fill="none" stroke="#000000" points="477,-341.7 477,-363.7 659,-363.7 659,-341.7 477,-341.7"/>
<text text-anchor="start" x="497" y="-348.8" font-family="Helvetica,sans-Serif" font-size="11.00" fill="#000000">c_ol</text>
<polygon fill="none" stroke="#000000" points="659,-341.7 659,-363.7 743,-363.7 743,-341.7 659,-341.7"/>
<text text-anchor="start" x="662" y="-349.4" font-family="Helvetica,sans-Serif" font-size="11.00" fill="#000000">int8[19]</text>
<polygon fill="#ffffff" stroke="transparent" points="477,-319.7 477,-341.7 659,-341.7 659,-319.7 477,-319.7"/>
<polygon fill="none" stroke="#000000" points="477,-319.7 477,-341.7 659,-341.7 659,-319.7 477,-319.7"/>
<text text-anchor="start" x="497" y="-326.8" font-family="Helvetica,sans-Serif" font-size="11.00" fill="#000000">c_privilege_level</text>
<polygon fill="none" stroke="#000000" points="659,-319.7 659,-341.7 743,-341.7 743,-319.7 659,-319.7"/>
<text text-anchor="start" x="662" y="-327.4" font-family="Helvetica,sans-Serif" font-size="11.00" fill="#000000">int4[10]</text>
<polygon fill="#ffffff" stroke="transparent" points="477,-297.7 477,-319.7 659,-319.7 659,-297.7 477,-297.7"/>
<polygon fill="none" stroke="#000000" points="477,-297.7 477,-319.7 659,-319.7 659,-297.7 477,-297.7"/>
<image xlink:href="../../images/foreignKeys.png" width="11px" height="12px" preserveAspectRatio="xMinYMin meet" x="482" y="-314.7"/>
<text text-anchor="start" x="497" y="-304.8" font-family="Helvetica,sans-Serif" font-size="11.00" fill="#000000">c_allowed_location_type</text>
<polygon fill="none" stroke="#000000" points="659,-297.7 659,-319.7 743,-319.7 743,-297.7 659,-297.7"/>
<text text-anchor="start" x="662" y="-305.4" font-family="Helvetica,sans-Serif" font-size="11.00" fill="#000000">int8[19]</text>
<polygon fill="#ffffff" stroke="transparent" points="477,-275.7 477,-297.7 659,-297.7 659,-275.7 477,-275.7"/>
<polygon fill="none" stroke="#000000" points="477,-275.7 477,-297.7 659,-297.7 659,-275.7 477,-275.7"/>
<image xlink:href="../../images/foreignKeys.png" width="11px" height="12px" preserveAspectRatio="xMinYMin meet" x="482" y="-292.7"/>
<text text-anchor="start" x="497" y="-282.8" font-family="Helvetica,sans-Serif" font-size="11.00" fill="#000000">c_tut_id</text>
<polygon fill="none" stroke="#000000" points="659,-275.7 659,-297.7 743,-297.7 743,-275.7 659,-275.7"/>
<text text-anchor="start" x="662" y="-283.4" font-family="Helvetica,sans-Serif" font-size="11.00" fill="#000000">int8[19]</text>
<polygon fill="#ffffff" stroke="transparent" points="477,-256.7 477,-275.7 559,-275.7 559,-256.7 477,-256.7"/>
<polygon fill="none" stroke="#000000" points="477,-256.7 477,-275.7 559,-275.7 559,-256.7 477,-256.7"/>
<text text-anchor="start" x="480" y="-262.8" font-family="Helvetica,sans-Serif" font-size="11.00" fill="#000000">&lt; 2</text>
<polygon fill="#ffffff" stroke="transparent" points="559,-256.7 559,-275.7 659,-275.7 659,-256.7 559,-256.7"/>
<polygon fill="none" stroke="#000000" points="559,-256.7 559,-275.7 659,-275.7 659,-256.7 559,-256.7"/>
<text text-anchor="start" x="623.6105" y="-262.8" font-family="Helvetica,sans-Serif" font-size="11.00" fill="#000000">3 rows</text>
<polygon fill="#ffffff" stroke="transparent" points="659,-256.7 659,-275.7 743,-275.7 743,-256.7 659,-256.7"/>
<polygon fill="none" stroke="#000000" points="659,-256.7 659,-275.7 743,-275.7 743,-256.7 659,-256.7"/>
<text text-anchor="start" x="724.4053" y="-262.8" font-family="Helvetica,sans-Serif" font-size="11.00" fill="#000000">0 &gt;</text>
<polygon fill="none" stroke="#000000" stroke-width="2" points="476,-255.7 476,-497.7 744,-497.7 744,-255.7 476,-255.7"/>
</a>
</g>
</g>
<!-- com_type_placing_rule&#45;&gt;com_location_type -->
<g id="edge5" class="edge">
<title>com_type_placing_rule:w&#45;&gt;com_location_type:e</title>
<path fill="none" stroke="#000000" d="M462.5829,-308.8087C352.8189,-310.4387 302.3733,-328.8491 212,-257.7 177.8538,-230.8173 214.9585,-168.7 171.5,-168.7"/>
<polygon fill="#000000" stroke="#000000" points="469.0002,-308.7604 477.0272,-312.2999 473.0001,-308.7302 477,-308.7 477,-308.7 477,-308.7 473.0001,-308.7302 476.9728,-305.1001 469.0002,-308.7604 469.0002,-308.7604"/>
<ellipse fill="none" stroke="#000000" cx="465.8003" cy="-308.7845" rx="3.2" ry="3.2"/>
</g>
<!-- com_type_placing_rule&#45;&gt;com_transport_unit_type -->
<g id="edge6" class="edge">
<title>com_type_placing_rule:w&#45;&gt;com_transport_unit_type:e</title>
<path fill="none" stroke="#000000" d="M463.0503,-282.071C444.2607,-265.8706 459.8581,-212.7 426,-212.7"/>
<polygon fill="#000000" stroke="#000000" points="469.4071,-284.1804 475.8662,-290.1168 473.2036,-285.4402 477,-286.7 477,-286.7 477,-286.7 473.2036,-285.4402 478.1338,-283.2832 469.4071,-284.1804 469.4071,-284.1804"/>
<ellipse fill="none" stroke="#000000" cx="466.37" cy="-283.1725" rx="3.2" ry="3.2"/>
</g>
<!-- com_type_stacking_rule -->
<g id="node6" class="node">
<title>com_type_stacking_rule</title>
<g id="a_node6"><a xlink:href="../../tables/com_type_stacking_rule.html" xlink:title="com_type_stacking_rule" target="_top">
<polygon fill="#ffffff" stroke="transparent" points="510.5,-172.2 510.5,-233.2 709.5,-233.2 709.5,-172.2 510.5,-172.2"/>
<polygon fill="#f5f5f5" stroke="transparent" points="511,-209.7 511,-232.7 710,-232.7 710,-209.7 511,-209.7"/>
<polygon fill="none" stroke="#000000" points="511,-209.7 511,-232.7 710,-232.7 710,-209.7 511,-209.7"/>
<text text-anchor="start" x="516" y="-218.3" font-family="Helvetica,sans-Serif" font-weight="bold" font-size="11.00" fill="#000000">com_type_stacking_rule</text>
<text text-anchor="start" x="675.5219" y="-217.8" font-family="Helvetica,sans-Serif" font-size="11.00" fill="#000000">[table]</text>
<polygon fill="none" stroke="#000000" points="511,-190.7 511,-209.7 710,-209.7 710,-190.7 511,-190.7"/>
<text text-anchor="start" x="514" y="-196.8" font-family="Helvetica,sans-Serif" font-size="11.00" fill="#000000">...</text>
<polygon fill="#ffffff" stroke="transparent" points="511,-171.7 511,-190.7 599,-190.7 599,-171.7 511,-171.7"/>
<polygon fill="none" stroke="#000000" points="511,-171.7 511,-190.7 599,-190.7 599,-171.7 511,-171.7"/>
<text text-anchor="start" x="514" y="-177.8" font-family="Helvetica,sans-Serif" font-size="11.00" fill="#000000">&lt; 2</text>
<polygon fill="#ffffff" stroke="transparent" points="599,-171.7 599,-190.7 664,-190.7 664,-171.7 599,-171.7"/>
<polygon fill="none" stroke="#000000" points="599,-171.7 599,-190.7 664,-190.7 664,-171.7 599,-171.7"/>
<text text-anchor="start" x="634.1105" y="-177.8" font-family="Helvetica,sans-Serif" font-size="11.00" fill="#000000">1 row</text>
<polygon fill="#ffffff" stroke="transparent" points="664,-171.7 664,-190.7 710,-190.7 710,-171.7 664,-171.7"/>
<polygon fill="none" stroke="#000000" points="664,-171.7 664,-190.7 710,-190.7 710,-171.7 664,-171.7"/>
<text text-anchor="start" x="700.8862" y="-177.8" font-family="Helvetica,sans-Serif" font-size="11.00" fill="#000000"> &#160;</text>
</a>
</g>
</g>
<!-- com_type_stacking_rule&#45;&gt;com_transport_unit_type -->
<g id="edge7" class="edge">
<title>com_type_stacking_rule:w&#45;&gt;com_transport_unit_type:e</title>
<path fill="none" stroke="#000000" d="M496.4714,-198.2236C469.7874,-197.2178 458.8428,-207.5438 426,-212.7"/>
<polygon fill="#000000" stroke="#000000" points="503.041,-198.8912 510.636,-203.2816 507.0205,-199.2956 511,-199.7 511,-199.7 511,-199.7 507.0205,-199.2956 511.364,-196.1184 503.041,-198.8912 503.041,-198.8912"/>
<ellipse fill="none" stroke="#000000" cx="499.8574" cy="-198.5677" rx="3.2" ry="3.2"/>
</g>
<!-- com_type_stacking_rule&#45;&gt;com_transport_unit_type -->
<g id="edge8" class="edge">
<title>com_type_stacking_rule:w&#45;&gt;com_transport_unit_type:e</title>
<path fill="none" stroke="#000000" d="M496.8362,-202.8411C469.8865,-209.8808 458.9921,-218.743 426,-212.7"/>
<polygon fill="#000000" stroke="#000000" points="503.1898,-201.4321 511.7795,-203.2146 507.0949,-200.5661 511,-199.7 511,-199.7 511,-199.7 507.0949,-200.5661 510.2205,-196.1854 503.1898,-201.4321 503.1898,-201.4321"/>
<ellipse fill="none" stroke="#000000" cx="500.0657" cy="-202.125" rx="3.2" ry="3.2"/>
</g>
</g>
</svg>
