<?xml version="1.0" encoding="UTF-8" standalone="no"?>
<!DOCTYPE svg PUBLIC "-//W3C//DTD SVG 1.1//EN"
 "http://www.w3.org/Graphics/SVG/1.1/DTD/svg11.dtd">
<!-- Generated by graphviz version 2.40.1 (20161225.0304)
 -->
<!-- Title: oneDegreeRelationshipsDiagram Pages: 1 -->
<svg width="707pt" height="503pt"
 viewBox="0.00 0.00 707.00 503.20" xmlns="http://www.w3.org/2000/svg" xmlns:xlink="http://www.w3.org/1999/xlink">
<g id="graph0" class="graph" transform="scale(1 1) rotate(0) translate(4 499.2)">
<title>oneDegreeRelationshipsDiagram</title>
<polygon fill="#ffffff" stroke="transparent" points="-4,4 -4,-499.2 703,-499.2 703,4 -4,4"/>
<text text-anchor="middle" x="72.4936" y="-7.3" font-family="Helvetica,sans-Serif" font-size="11.00" fill="#000000">Generated by SchemaSpy</text>
<!-- com_location -->
<g id="node1" class="node">
<title>com_location</title>
<g id="a_node1"><a xlink:href="../../tables/com_location.html" xlink:title="com_location" target="_top">
<polygon fill="#ffffff" stroke="transparent" points="492,-166.2 492,-491.2 691,-491.2 691,-166.2 492,-166.2"/>
<polygon fill="#f5f5f5" stroke="transparent" points="492.5,-467.7 492.5,-490.7 691.5,-490.7 691.5,-467.7 492.5,-467.7"/>
<polygon fill="none" stroke="#000000" points="492.5,-467.7 492.5,-490.7 691.5,-490.7 691.5,-467.7 492.5,-467.7"/>
<text text-anchor="start" x="497.5" y="-476.3" font-family="Helvetica,sans-Serif" font-weight="bold" font-size="11.00" fill="#000000">com_location</text>
<text text-anchor="start" x="656.5437" y="-475.8" font-family="Helvetica,sans-Serif" font-size="11.00" fill="#000000">[table]</text>
<polygon fill="none" stroke="#000000" points="492.5,-445.7 492.5,-467.7 691.5,-467.7 691.5,-445.7 492.5,-445.7"/>
<image xlink:href="../../images/primaryKeys.png" width="11px" height="12px" preserveAspectRatio="xMinYMin meet" x="497.5" y="-462.7"/>
<text text-anchor="start" x="512.5" y="-452.8" font-family="Helvetica,sans-Serif" font-size="11.00" fill="#000000">c_pk</text>
<polygon fill="#ffffff" stroke="transparent" points="492.5,-423.7 492.5,-445.7 691.5,-445.7 691.5,-423.7 492.5,-423.7"/>
<polygon fill="none" stroke="#000000" points="492.5,-423.7 492.5,-445.7 691.5,-445.7 691.5,-423.7 492.5,-423.7"/>
<text text-anchor="start" x="512.5" y="-430.8" font-family="Helvetica,sans-Serif" font-size="11.00" fill="#000000">c_pid</text>
<polygon fill="#ffffff" stroke="transparent" points="492.5,-401.7 492.5,-423.7 691.5,-423.7 691.5,-401.7 492.5,-401.7"/>
<polygon fill="none" stroke="#000000" points="492.5,-401.7 492.5,-423.7 691.5,-423.7 691.5,-401.7 492.5,-401.7"/>
<text text-anchor="start" x="512.5" y="-408.8" font-family="Helvetica,sans-Serif" font-size="11.00" fill="#000000">c_erp_code</text>
<polygon fill="#ffffff" stroke="transparent" points="492.5,-379.7 492.5,-401.7 691.5,-401.7 691.5,-379.7 492.5,-379.7"/>
<polygon fill="none" stroke="#000000" points="492.5,-379.7 492.5,-401.7 691.5,-401.7 691.5,-379.7 492.5,-379.7"/>
<text text-anchor="start" x="512.5" y="-386.8" font-family="Helvetica,sans-Serif" font-size="11.00" fill="#000000">c_aisle</text>
<polygon fill="#ffffff" stroke="transparent" points="492.5,-357.7 492.5,-379.7 691.5,-379.7 691.5,-357.7 492.5,-357.7"/>
<polygon fill="none" stroke="#000000" points="492.5,-357.7 492.5,-379.7 691.5,-379.7 691.5,-357.7 492.5,-357.7"/>
<text text-anchor="start" x="512.5" y="-364.8" font-family="Helvetica,sans-Serif" font-size="11.00" fill="#000000">c_area</text>
<polygon fill="#ffffff" stroke="transparent" points="492.5,-335.7 492.5,-357.7 691.5,-357.7 691.5,-335.7 492.5,-335.7"/>
<polygon fill="none" stroke="#000000" points="492.5,-335.7 492.5,-357.7 691.5,-357.7 691.5,-335.7 492.5,-335.7"/>
<text text-anchor="start" x="512.5" y="-342.8" font-family="Helvetica,sans-Serif" font-size="11.00" fill="#000000">c_x</text>
<polygon fill="#ffffff" stroke="transparent" points="492.5,-313.7 492.5,-335.7 691.5,-335.7 691.5,-313.7 492.5,-313.7"/>
<polygon fill="none" stroke="#000000" points="492.5,-313.7 492.5,-335.7 691.5,-335.7 691.5,-313.7 492.5,-313.7"/>
<text text-anchor="start" x="512.5" y="-320.8" font-family="Helvetica,sans-Serif" font-size="11.00" fill="#000000">c_y</text>
<polygon fill="#ffffff" stroke="transparent" points="492.5,-291.7 492.5,-313.7 691.5,-313.7 691.5,-291.7 492.5,-291.7"/>
<polygon fill="none" stroke="#000000" points="492.5,-291.7 492.5,-313.7 691.5,-313.7 691.5,-291.7 492.5,-291.7"/>
<text text-anchor="start" x="512.5" y="-298.8" font-family="Helvetica,sans-Serif" font-size="11.00" fill="#000000">c_z</text>
<polygon fill="#ffffff" stroke="transparent" points="492.5,-269.7 492.5,-291.7 691.5,-291.7 691.5,-269.7 492.5,-269.7"/>
<polygon fill="none" stroke="#000000" points="492.5,-269.7 492.5,-291.7 691.5,-291.7 691.5,-269.7 492.5,-269.7"/>
<text text-anchor="start" x="512.5" y="-276.8" font-family="Helvetica,sans-Serif" font-size="11.00" fill="#000000">c_plc_code</text>
<polygon fill="none" stroke="#000000" points="492.5,-247.7 492.5,-269.7 691.5,-269.7 691.5,-247.7 492.5,-247.7"/>
<image xlink:href="../../images/foreignKeys.png" width="11px" height="12px" preserveAspectRatio="xMinYMin meet" x="497.5" y="-264.7"/>
<text text-anchor="start" x="512.5" y="-254.8" font-family="Helvetica,sans-Serif" font-size="11.00" fill="#000000">c_account</text>
<polygon fill="none" stroke="#000000" points="492.5,-225.7 492.5,-247.7 691.5,-247.7 691.5,-225.7 492.5,-225.7"/>
<image xlink:href="../../images/foreignKeys.png" width="11px" height="12px" preserveAspectRatio="xMinYMin meet" x="497.5" y="-242.7"/>
<text text-anchor="start" x="512.5" y="-232.8" font-family="Helvetica,sans-Serif" font-size="11.00" fill="#000000">c_location_group</text>
<polygon fill="none" stroke="#000000" points="492.5,-203.7 492.5,-225.7 691.5,-225.7 691.5,-203.7 492.5,-203.7"/>
<image xlink:href="../../images/foreignKeys.png" width="11px" height="12px" preserveAspectRatio="xMinYMin meet" x="497.5" y="-220.7"/>
<text text-anchor="start" x="512.5" y="-210.8" font-family="Helvetica,sans-Serif" font-size="11.00" fill="#000000">c_location_type</text>
<polygon fill="none" stroke="#000000" points="492.5,-184.7 492.5,-203.7 691.5,-203.7 691.5,-184.7 492.5,-184.7"/>
<text text-anchor="start" x="495.5" y="-190.8" font-family="Helvetica,sans-Serif" font-size="11.00" fill="#000000">...</text>
<polygon fill="#ffffff" stroke="transparent" points="492.5,-165.7 492.5,-184.7 569.5,-184.7 569.5,-165.7 492.5,-165.7"/>
<polygon fill="none" stroke="#000000" points="492.5,-165.7 492.5,-184.7 569.5,-184.7 569.5,-165.7 492.5,-165.7"/>
<text text-anchor="start" x="495.5" y="-171.8" font-family="Helvetica,sans-Serif" font-size="11.00" fill="#000000">&lt; 3</text>
<polygon fill="#ffffff" stroke="transparent" points="569.5,-165.7 569.5,-184.7 641.5,-184.7 641.5,-165.7 569.5,-165.7"/>
<polygon fill="none" stroke="#000000" points="569.5,-165.7 569.5,-184.7 641.5,-184.7 641.5,-165.7 569.5,-165.7"/>
<text text-anchor="start" x="599.9956" y="-171.8" font-family="Helvetica,sans-Serif" font-size="11.00" fill="#000000">32 rows</text>
<polygon fill="#ffffff" stroke="transparent" points="641.5,-165.7 641.5,-184.7 691.5,-184.7 691.5,-165.7 641.5,-165.7"/>
<polygon fill="none" stroke="#000000" points="641.5,-165.7 641.5,-184.7 691.5,-184.7 691.5,-165.7 641.5,-165.7"/>
<text text-anchor="start" x="672.9053" y="-171.8" font-family="Helvetica,sans-Serif" font-size="11.00" fill="#000000">3 &gt;</text>
</a>
</g>
</g>
<!-- com_account -->
<g id="node2" class="node">
<title>com_account</title>
<g id="a_node2"><a xlink:href="../../tables/com_account.html" xlink:title="com_account" target="_top">
<polygon fill="#ffffff" stroke="transparent" points="8,-160.7 8,-426.7 208,-426.7 208,-160.7 8,-160.7"/>
<polygon fill="#f5f5f5" stroke="transparent" points="10,-401.7 10,-424.7 206,-424.7 206,-401.7 10,-401.7"/>
<polygon fill="none" stroke="#000000" points="10,-401.7 10,-424.7 206,-424.7 206,-401.7 10,-401.7"/>
<text text-anchor="start" x="15" y="-410.3" font-family="Helvetica,sans-Serif" font-weight="bold" font-size="11.00" fill="#000000">com_account</text>
<text text-anchor="start" x="171.0437" y="-409.8" font-family="Helvetica,sans-Serif" font-size="11.00" fill="#000000">[table]</text>
<polygon fill="none" stroke="#000000" points="10,-379.7 10,-401.7 122,-401.7 122,-379.7 10,-379.7"/>
<image xlink:href="../../images/primaryKeys.png" width="11px" height="12px" preserveAspectRatio="xMinYMin meet" x="15" y="-396.7"/>
<text text-anchor="start" x="30" y="-386.8" font-family="Helvetica,sans-Serif" font-size="11.00" fill="#000000">c_pk</text>
<polygon fill="none" stroke="#000000" points="122,-379.7 122,-401.7 206,-401.7 206,-379.7 122,-379.7"/>
<text text-anchor="start" x="125" y="-387.4" font-family="Helvetica,sans-Serif" font-size="11.00" fill="#000000">int8[19]</text>
<polygon fill="none" stroke="#000000" points="10,-357.7 10,-379.7 122,-379.7 122,-357.7 10,-357.7"/>
<text text-anchor="start" x="30" y="-364.8" font-family="Helvetica,sans-Serif" font-size="11.00" fill="#000000">c_created</text>
<polygon fill="none" stroke="#000000" points="122,-357.7 122,-379.7 206,-379.7 206,-357.7 122,-357.7"/>
<text text-anchor="start" x="124.8807" y="-365.4" font-family="Helvetica,sans-Serif" font-size="11.00" fill="#000000">timestamp[29,6]</text>
<polygon fill="none" stroke="#000000" points="10,-335.7 10,-357.7 122,-357.7 122,-335.7 10,-335.7"/>
<text text-anchor="start" x="30" y="-342.8" font-family="Helvetica,sans-Serif" font-size="11.00" fill="#000000">c_created_by</text>
<polygon fill="none" stroke="#000000" points="122,-335.7 122,-357.7 206,-357.7 206,-335.7 122,-335.7"/>
<text text-anchor="start" x="125" y="-343.4" font-family="Helvetica,sans-Serif" font-size="11.00" fill="#000000">varchar[255]</text>
<polygon fill="none" stroke="#000000" points="10,-313.7 10,-335.7 122,-335.7 122,-313.7 10,-313.7"/>
<text text-anchor="start" x="30" y="-320.8" font-family="Helvetica,sans-Serif" font-size="11.00" fill="#000000">c_updated_by</text>
<polygon fill="none" stroke="#000000" points="122,-313.7 122,-335.7 206,-335.7 206,-313.7 122,-313.7"/>
<text text-anchor="start" x="125" y="-321.4" font-family="Helvetica,sans-Serif" font-size="11.00" fill="#000000">varchar[255]</text>
<polygon fill="none" stroke="#000000" points="10,-291.7 10,-313.7 122,-313.7 122,-291.7 10,-291.7"/>
<text text-anchor="start" x="30" y="-298.8" font-family="Helvetica,sans-Serif" font-size="11.00" fill="#000000">c_updated</text>
<polygon fill="none" stroke="#000000" points="122,-291.7 122,-313.7 206,-313.7 206,-291.7 122,-291.7"/>
<text text-anchor="start" x="124.8807" y="-299.4" font-family="Helvetica,sans-Serif" font-size="11.00" fill="#000000">timestamp[29,6]</text>
<polygon fill="none" stroke="#000000" points="10,-269.7 10,-291.7 122,-291.7 122,-269.7 10,-269.7"/>
<text text-anchor="start" x="30" y="-276.8" font-family="Helvetica,sans-Serif" font-size="11.00" fill="#000000">c_ol</text>
<polygon fill="none" stroke="#000000" points="122,-269.7 122,-291.7 206,-291.7 206,-269.7 122,-269.7"/>
<text text-anchor="start" x="125" y="-277.4" font-family="Helvetica,sans-Serif" font-size="11.00" fill="#000000">int8[19]</text>
<polygon fill="#ffffff" stroke="transparent" points="10,-247.7 10,-269.7 122,-269.7 122,-247.7 10,-247.7"/>
<polygon fill="none" stroke="#000000" points="10,-247.7 10,-269.7 122,-269.7 122,-247.7 10,-247.7"/>
<text text-anchor="start" x="30" y="-254.8" font-family="Helvetica,sans-Serif" font-size="11.00" fill="#000000">c_pid</text>
<polygon fill="none" stroke="#000000" points="122,-247.7 122,-269.7 206,-269.7 206,-247.7 122,-247.7"/>
<text text-anchor="start" x="125" y="-255.4" font-family="Helvetica,sans-Serif" font-size="11.00" fill="#000000">varchar[255]</text>
<polygon fill="none" stroke="#000000" points="10,-225.7 10,-247.7 122,-247.7 122,-225.7 10,-225.7"/>
<text text-anchor="start" x="30" y="-232.8" font-family="Helvetica,sans-Serif" font-size="11.00" fill="#000000">c_default</text>
<polygon fill="none" stroke="#000000" points="122,-225.7 122,-247.7 206,-247.7 206,-225.7 122,-225.7"/>
<text text-anchor="start" x="125" y="-233.4" font-family="Helvetica,sans-Serif" font-size="11.00" fill="#000000">bool[1]</text>
<polygon fill="#ffffff" stroke="transparent" points="10,-203.7 10,-225.7 122,-225.7 122,-203.7 10,-203.7"/>
<polygon fill="none" stroke="#000000" points="10,-203.7 10,-225.7 122,-225.7 122,-203.7 10,-203.7"/>
<text text-anchor="start" x="30" y="-210.8" font-family="Helvetica,sans-Serif" font-size="11.00" fill="#000000">c_identifier</text>
<polygon fill="none" stroke="#000000" points="122,-203.7 122,-225.7 206,-225.7 206,-203.7 122,-203.7"/>
<text text-anchor="start" x="125" y="-211.4" font-family="Helvetica,sans-Serif" font-size="11.00" fill="#000000">varchar[255]</text>
<polygon fill="#ffffff" stroke="transparent" points="10,-181.7 10,-203.7 122,-203.7 122,-181.7 10,-181.7"/>
<polygon fill="none" stroke="#000000" points="10,-181.7 10,-203.7 122,-203.7 122,-181.7 10,-181.7"/>
<text text-anchor="start" x="30" y="-188.8" font-family="Helvetica,sans-Serif" font-size="11.00" fill="#000000">c_name</text>
<polygon fill="none" stroke="#000000" points="122,-181.7 122,-203.7 206,-203.7 206,-181.7 122,-181.7"/>
<text text-anchor="start" x="125" y="-189.4" font-family="Helvetica,sans-Serif" font-size="11.00" fill="#000000">varchar[255]</text>
<polygon fill="#ffffff" stroke="transparent" points="10,-162.7 10,-181.7 57,-181.7 57,-162.7 10,-162.7"/>
<polygon fill="none" stroke="#000000" points="10,-162.7 10,-181.7 57,-181.7 57,-162.7 10,-162.7"/>
<text text-anchor="start" x="13" y="-168.8" font-family="Helvetica,sans-Serif" font-size="11.00" fill="#000000">&lt; 0</text>
<polygon fill="#ffffff" stroke="transparent" points="57,-162.7 57,-181.7 122,-181.7 122,-162.7 57,-162.7"/>
<polygon fill="none" stroke="#000000" points="57,-162.7 57,-181.7 122,-181.7 122,-162.7 57,-162.7"/>
<text text-anchor="start" x="86.6105" y="-168.8" font-family="Helvetica,sans-Serif" font-size="11.00" fill="#000000">2 rows</text>
<polygon fill="#ffffff" stroke="transparent" points="122,-162.7 122,-181.7 206,-181.7 206,-162.7 122,-162.7"/>
<polygon fill="none" stroke="#000000" points="122,-162.7 122,-181.7 206,-181.7 206,-162.7 122,-162.7"/>
<text text-anchor="start" x="187.4053" y="-168.8" font-family="Helvetica,sans-Serif" font-size="11.00" fill="#000000">2 &gt;</text>
<polygon fill="none" stroke="#000000" stroke-width="2" points="9,-161.7 9,-425.7 207,-425.7 207,-161.7 9,-161.7"/>
</a>
</g>
</g>
<!-- com_location&#45;&gt;com_account -->
<g id="edge1" class="edge">
<title>com_location:w&#45;&gt;com_account:e</title>
<path fill="none" stroke="#000000" d="M478.0864,-259.6775C469.6642,-260.9054 463.6044,-262.9434 451,-263.7 361.3835,-269.0791 330.7813,-300.7386 249,-263.7 222.6065,-251.7464 234.9742,-214.7 206,-214.7"/>
<polygon fill="#000000" stroke="#000000" points="484.5183,-259.2413 492.7436,-262.2917 488.5092,-258.9707 492.5,-258.7 492.5,-258.7 492.5,-258.7 488.5092,-258.9707 492.2564,-255.1083 484.5183,-259.2413 484.5183,-259.2413"/>
<ellipse fill="none" stroke="#000000" cx="481.3257" cy="-259.4579" rx="3.2" ry="3.2"/>
</g>
<!-- com_location_group -->
<g id="node3" class="node">
<title>com_location_group</title>
<g id="a_node3"><a xlink:href="../../tables/com_location_group.html" xlink:title="com_location_group" target="_top">
<polygon fill="#ffffff" stroke="transparent" points="257,-38.2 257,-253.2 443,-253.2 443,-38.2 257,-38.2"/>
<polygon fill="#f5f5f5" stroke="transparent" points="257,-229.7 257,-252.7 443,-252.7 443,-229.7 257,-229.7"/>
<polygon fill="none" stroke="#000000" points="257,-229.7 257,-252.7 443,-252.7 443,-229.7 257,-229.7"/>
<text text-anchor="start" x="262" y="-238.3" font-family="Helvetica,sans-Serif" font-weight="bold" font-size="11.00" fill="#000000">com_location_group</text>
<text text-anchor="start" x="408.0437" y="-237.8" font-family="Helvetica,sans-Serif" font-size="11.00" fill="#000000">[table]</text>
<polygon fill="none" stroke="#000000" points="257,-207.7 257,-229.7 443,-229.7 443,-207.7 257,-207.7"/>
<image xlink:href="../../images/primaryKeys.png" width="11px" height="12px" preserveAspectRatio="xMinYMin meet" x="262" y="-224.7"/>
<text text-anchor="start" x="277" y="-214.8" font-family="Helvetica,sans-Serif" font-size="11.00" fill="#000000">c_pk</text>
<polygon fill="#ffffff" stroke="transparent" points="257,-185.7 257,-207.7 443,-207.7 443,-185.7 257,-185.7"/>
<polygon fill="none" stroke="#000000" points="257,-185.7 257,-207.7 443,-207.7 443,-185.7 257,-185.7"/>
<text text-anchor="start" x="277" y="-192.8" font-family="Helvetica,sans-Serif" font-size="11.00" fill="#000000">c_pid</text>
<polygon fill="#ffffff" stroke="transparent" points="257,-163.7 257,-185.7 443,-185.7 443,-163.7 257,-163.7"/>
<polygon fill="none" stroke="#000000" points="257,-163.7 257,-185.7 443,-185.7 443,-163.7 257,-163.7"/>
<text text-anchor="start" x="277" y="-170.8" font-family="Helvetica,sans-Serif" font-size="11.00" fill="#000000">c_name</text>
<polygon fill="none" stroke="#000000" points="257,-141.7 257,-163.7 443,-163.7 443,-141.7 257,-141.7"/>
<image xlink:href="../../images/foreignKeys.png" width="11px" height="12px" preserveAspectRatio="xMinYMin meet" x="262" y="-158.7"/>
<text text-anchor="start" x="277" y="-148.8" font-family="Helvetica,sans-Serif" font-size="11.00" fill="#000000">c_account</text>
<polygon fill="none" stroke="#000000" points="257,-119.7 257,-141.7 443,-141.7 443,-119.7 257,-119.7"/>
<image xlink:href="../../images/foreignKeys.png" width="11px" height="12px" preserveAspectRatio="xMinYMin meet" x="262" y="-136.7"/>
<text text-anchor="start" x="277" y="-126.8" font-family="Helvetica,sans-Serif" font-size="11.00" fill="#000000">c_parent</text>
<polygon fill="none" stroke="#000000" points="257,-97.7 257,-119.7 443,-119.7 443,-97.7 257,-97.7"/>
<image xlink:href="../../images/foreignKeys.png" width="11px" height="12px" preserveAspectRatio="xMinYMin meet" x="262" y="-114.7"/>
<text text-anchor="start" x="277" y="-104.8" font-family="Helvetica,sans-Serif" font-size="11.00" fill="#000000">c_in_locker</text>
<polygon fill="none" stroke="#000000" points="257,-75.7 257,-97.7 443,-97.7 443,-75.7 257,-75.7"/>
<image xlink:href="../../images/foreignKeys.png" width="11px" height="12px" preserveAspectRatio="xMinYMin meet" x="262" y="-92.7"/>
<text text-anchor="start" x="277" y="-82.8" font-family="Helvetica,sans-Serif" font-size="11.00" fill="#000000">c_out_locker</text>
<polygon fill="none" stroke="#000000" points="257,-56.7 257,-75.7 443,-75.7 443,-56.7 257,-56.7"/>
<text text-anchor="start" x="260" y="-62.8" font-family="Helvetica,sans-Serif" font-size="11.00" fill="#000000">...</text>
<polygon fill="#ffffff" stroke="transparent" points="257,-37.7 257,-56.7 328,-56.7 328,-37.7 257,-37.7"/>
<polygon fill="none" stroke="#000000" points="257,-37.7 257,-56.7 328,-56.7 328,-37.7 257,-37.7"/>
<text text-anchor="start" x="260" y="-43.8" font-family="Helvetica,sans-Serif" font-size="11.00" fill="#000000">&lt; 4</text>
<polygon fill="#ffffff" stroke="transparent" points="328,-37.7 328,-56.7 397,-56.7 397,-37.7 328,-37.7"/>
<polygon fill="none" stroke="#000000" points="328,-37.7 328,-56.7 397,-56.7 397,-37.7 328,-37.7"/>
<text text-anchor="start" x="355.4956" y="-43.8" font-family="Helvetica,sans-Serif" font-size="11.00" fill="#000000">42 rows</text>
<polygon fill="#ffffff" stroke="transparent" points="397,-37.7 397,-56.7 443,-56.7 443,-37.7 397,-37.7"/>
<polygon fill="none" stroke="#000000" points="397,-37.7 397,-56.7 443,-56.7 443,-37.7 397,-37.7"/>
<text text-anchor="start" x="424.4053" y="-43.8" font-family="Helvetica,sans-Serif" font-size="11.00" fill="#000000">4 &gt;</text>
</a>
</g>
</g>
<!-- com_location&#45;&gt;com_location_group -->
<g id="edge2" class="edge">
<title>com_location:w&#45;&gt;com_location_group:e</title>
<path fill="none" stroke="#000000" d="M478.1817,-233.8875C466.4545,-228.825 460.557,-218.7 443,-218.7"/>
<polygon fill="#000000" stroke="#000000" points="484.65,-235.158 491.8061,-240.2325 488.575,-235.929 492.5,-236.7 492.5,-236.7 492.5,-236.7 488.575,-235.929 493.1939,-233.1675 484.65,-235.158 484.65,-235.158"/>
<ellipse fill="none" stroke="#000000" cx="481.51" cy="-234.5412" rx="3.2" ry="3.2"/>
</g>
<!-- com_location_group&#45;&gt;com_account -->
<g id="edge3" class="edge">
<title>com_location_group:w&#45;&gt;com_account:e</title>
<path fill="none" stroke="#000000" d="M242.9998,-157.565C226.6631,-172.181 235.5478,-214.7 206,-214.7"/>
<polygon fill="#000000" stroke="#000000" points="249.4433,-155.326 258.1817,-156.1005 253.2216,-154.013 257,-152.7 257,-152.7 257,-152.7 253.2216,-154.013 255.8183,-149.2995 249.4433,-155.326 249.4433,-155.326"/>
<ellipse fill="none" stroke="#000000" cx="246.4206" cy="-156.3764" rx="3.2" ry="3.2"/>
</g>
</g>
</svg>
