<?xml version="1.0" encoding="UTF-8" standalone="no"?>
<!DOCTYPE svg PUBLIC "-//W3C//DTD SVG 1.1//EN"
 "http://www.w3.org/Graphics/SVG/1.1/DTD/svg11.dtd">
<!-- Generated by graphviz version 2.40.1 (20161225.0304)
 -->
<!-- Title: twoDegreesRelationshipsDiagram Pages: 1 -->
<svg width="862pt" height="402pt"
 viewBox="0.00 0.00 862.00 401.70" xmlns="http://www.w3.org/2000/svg" xmlns:xlink="http://www.w3.org/1999/xlink">
<g id="graph0" class="graph" transform="scale(1 1) rotate(0) translate(4 397.7)">
<title>twoDegreesRelationshipsDiagram</title>
<polygon fill="#ffffff" stroke="transparent" points="-4,4 -4,-397.7 858,-397.7 858,4 -4,4"/>
<text text-anchor="middle" x="72.4936" y="-7.3" font-family="Helvetica,sans-Serif" font-size="11.00" fill="#000000">Generated by SchemaSpy</text>
<!-- com_location -->
<g id="node1" class="node">
<title>com_location</title>
<g id="a_node1"><a xlink:href="../../tables/com_location.html" xlink:title="com_location" target="_top">
<polygon fill="#ffffff" stroke="transparent" points="478,-120.2 478,-181.2 605,-181.2 605,-120.2 478,-120.2"/>
<polygon fill="#f5f5f5" stroke="transparent" points="478.5,-157.7 478.5,-180.7 605.5,-180.7 605.5,-157.7 478.5,-157.7"/>
<polygon fill="none" stroke="#000000" points="478.5,-157.7 478.5,-180.7 605.5,-180.7 605.5,-157.7 478.5,-157.7"/>
<text text-anchor="start" x="483.5" y="-166.3" font-family="Helvetica,sans-Serif" font-weight="bold" font-size="11.00" fill="#000000">com_location</text>
<text text-anchor="start" x="571.0219" y="-165.8" font-family="Helvetica,sans-Serif" font-size="11.00" fill="#000000">[table]</text>
<polygon fill="none" stroke="#000000" points="478.5,-138.7 478.5,-157.7 605.5,-157.7 605.5,-138.7 478.5,-138.7"/>
<text text-anchor="start" x="481.5" y="-144.8" font-family="Helvetica,sans-Serif" font-size="11.00" fill="#000000">...</text>
<polygon fill="#ffffff" stroke="transparent" points="478.5,-119.7 478.5,-138.7 519.5,-138.7 519.5,-119.7 478.5,-119.7"/>
<polygon fill="none" stroke="#000000" points="478.5,-119.7 478.5,-138.7 519.5,-138.7 519.5,-119.7 478.5,-119.7"/>
<text text-anchor="start" x="481.5" y="-125.8" font-family="Helvetica,sans-Serif" font-size="11.00" fill="#000000">&lt; 3</text>
<polygon fill="#ffffff" stroke="transparent" points="519.5,-119.7 519.5,-138.7 573.5,-138.7 573.5,-119.7 519.5,-119.7"/>
<polygon fill="none" stroke="#000000" points="519.5,-119.7 519.5,-138.7 573.5,-138.7 573.5,-119.7 519.5,-119.7"/>
<text text-anchor="start" x="531.9956" y="-125.8" font-family="Helvetica,sans-Serif" font-size="11.00" fill="#000000">32 rows</text>
<polygon fill="#ffffff" stroke="transparent" points="573.5,-119.7 573.5,-138.7 605.5,-138.7 605.5,-119.7 573.5,-119.7"/>
<polygon fill="none" stroke="#000000" points="573.5,-119.7 573.5,-138.7 605.5,-138.7 605.5,-119.7 573.5,-119.7"/>
<text text-anchor="start" x="586.9053" y="-125.8" font-family="Helvetica,sans-Serif" font-size="11.00" fill="#000000">3 &gt;</text>
</a>
</g>
</g>
<!-- com_account -->
<g id="node2" class="node">
<title>com_account</title>
<g id="a_node2"><a xlink:href="../../tables/com_account.html" xlink:title="com_account" target="_top">
<polygon fill="#ffffff" stroke="transparent" points="8,-123.7 8,-389.7 208,-389.7 208,-123.7 8,-123.7"/>
<polygon fill="#f5f5f5" stroke="transparent" points="10,-364.7 10,-387.7 206,-387.7 206,-364.7 10,-364.7"/>
<polygon fill="none" stroke="#000000" points="10,-364.7 10,-387.7 206,-387.7 206,-364.7 10,-364.7"/>
<text text-anchor="start" x="15" y="-373.3" font-family="Helvetica,sans-Serif" font-weight="bold" font-size="11.00" fill="#000000">com_account</text>
<text text-anchor="start" x="171.0437" y="-372.8" font-family="Helvetica,sans-Serif" font-size="11.00" fill="#000000">[table]</text>
<polygon fill="none" stroke="#000000" points="10,-342.7 10,-364.7 122,-364.7 122,-342.7 10,-342.7"/>
<image xlink:href="../../images/primaryKeys.png" width="11px" height="12px" preserveAspectRatio="xMinYMin meet" x="15" y="-359.7"/>
<text text-anchor="start" x="30" y="-349.8" font-family="Helvetica,sans-Serif" font-size="11.00" fill="#000000">c_pk</text>
<polygon fill="none" stroke="#000000" points="122,-342.7 122,-364.7 206,-364.7 206,-342.7 122,-342.7"/>
<text text-anchor="start" x="125" y="-350.4" font-family="Helvetica,sans-Serif" font-size="11.00" fill="#000000">int8[19]</text>
<polygon fill="none" stroke="#000000" points="10,-320.7 10,-342.7 122,-342.7 122,-320.7 10,-320.7"/>
<text text-anchor="start" x="30" y="-327.8" font-family="Helvetica,sans-Serif" font-size="11.00" fill="#000000">c_created</text>
<polygon fill="none" stroke="#000000" points="122,-320.7 122,-342.7 206,-342.7 206,-320.7 122,-320.7"/>
<text text-anchor="start" x="124.8807" y="-328.4" font-family="Helvetica,sans-Serif" font-size="11.00" fill="#000000">timestamp[29,6]</text>
<polygon fill="none" stroke="#000000" points="10,-298.7 10,-320.7 122,-320.7 122,-298.7 10,-298.7"/>
<text text-anchor="start" x="30" y="-305.8" font-family="Helvetica,sans-Serif" font-size="11.00" fill="#000000">c_created_by</text>
<polygon fill="none" stroke="#000000" points="122,-298.7 122,-320.7 206,-320.7 206,-298.7 122,-298.7"/>
<text text-anchor="start" x="125" y="-306.4" font-family="Helvetica,sans-Serif" font-size="11.00" fill="#000000">varchar[255]</text>
<polygon fill="none" stroke="#000000" points="10,-276.7 10,-298.7 122,-298.7 122,-276.7 10,-276.7"/>
<text text-anchor="start" x="30" y="-283.8" font-family="Helvetica,sans-Serif" font-size="11.00" fill="#000000">c_updated_by</text>
<polygon fill="none" stroke="#000000" points="122,-276.7 122,-298.7 206,-298.7 206,-276.7 122,-276.7"/>
<text text-anchor="start" x="125" y="-284.4" font-family="Helvetica,sans-Serif" font-size="11.00" fill="#000000">varchar[255]</text>
<polygon fill="none" stroke="#000000" points="10,-254.7 10,-276.7 122,-276.7 122,-254.7 10,-254.7"/>
<text text-anchor="start" x="30" y="-261.8" font-family="Helvetica,sans-Serif" font-size="11.00" fill="#000000">c_updated</text>
<polygon fill="none" stroke="#000000" points="122,-254.7 122,-276.7 206,-276.7 206,-254.7 122,-254.7"/>
<text text-anchor="start" x="124.8807" y="-262.4" font-family="Helvetica,sans-Serif" font-size="11.00" fill="#000000">timestamp[29,6]</text>
<polygon fill="none" stroke="#000000" points="10,-232.7 10,-254.7 122,-254.7 122,-232.7 10,-232.7"/>
<text text-anchor="start" x="30" y="-239.8" font-family="Helvetica,sans-Serif" font-size="11.00" fill="#000000">c_ol</text>
<polygon fill="none" stroke="#000000" points="122,-232.7 122,-254.7 206,-254.7 206,-232.7 122,-232.7"/>
<text text-anchor="start" x="125" y="-240.4" font-family="Helvetica,sans-Serif" font-size="11.00" fill="#000000">int8[19]</text>
<polygon fill="#ffffff" stroke="transparent" points="10,-210.7 10,-232.7 122,-232.7 122,-210.7 10,-210.7"/>
<polygon fill="none" stroke="#000000" points="10,-210.7 10,-232.7 122,-232.7 122,-210.7 10,-210.7"/>
<text text-anchor="start" x="30" y="-217.8" font-family="Helvetica,sans-Serif" font-size="11.00" fill="#000000">c_pid</text>
<polygon fill="none" stroke="#000000" points="122,-210.7 122,-232.7 206,-232.7 206,-210.7 122,-210.7"/>
<text text-anchor="start" x="125" y="-218.4" font-family="Helvetica,sans-Serif" font-size="11.00" fill="#000000">varchar[255]</text>
<polygon fill="none" stroke="#000000" points="10,-188.7 10,-210.7 122,-210.7 122,-188.7 10,-188.7"/>
<text text-anchor="start" x="30" y="-195.8" font-family="Helvetica,sans-Serif" font-size="11.00" fill="#000000">c_default</text>
<polygon fill="none" stroke="#000000" points="122,-188.7 122,-210.7 206,-210.7 206,-188.7 122,-188.7"/>
<text text-anchor="start" x="125" y="-196.4" font-family="Helvetica,sans-Serif" font-size="11.00" fill="#000000">bool[1]</text>
<polygon fill="#ffffff" stroke="transparent" points="10,-166.7 10,-188.7 122,-188.7 122,-166.7 10,-166.7"/>
<polygon fill="none" stroke="#000000" points="10,-166.7 10,-188.7 122,-188.7 122,-166.7 10,-166.7"/>
<text text-anchor="start" x="30" y="-173.8" font-family="Helvetica,sans-Serif" font-size="11.00" fill="#000000">c_identifier</text>
<polygon fill="none" stroke="#000000" points="122,-166.7 122,-188.7 206,-188.7 206,-166.7 122,-166.7"/>
<text text-anchor="start" x="125" y="-174.4" font-family="Helvetica,sans-Serif" font-size="11.00" fill="#000000">varchar[255]</text>
<polygon fill="#ffffff" stroke="transparent" points="10,-144.7 10,-166.7 122,-166.7 122,-144.7 10,-144.7"/>
<polygon fill="none" stroke="#000000" points="10,-144.7 10,-166.7 122,-166.7 122,-144.7 10,-144.7"/>
<text text-anchor="start" x="30" y="-151.8" font-family="Helvetica,sans-Serif" font-size="11.00" fill="#000000">c_name</text>
<polygon fill="none" stroke="#000000" points="122,-144.7 122,-166.7 206,-166.7 206,-144.7 122,-144.7"/>
<text text-anchor="start" x="125" y="-152.4" font-family="Helvetica,sans-Serif" font-size="11.00" fill="#000000">varchar[255]</text>
<polygon fill="#ffffff" stroke="transparent" points="10,-125.7 10,-144.7 57,-144.7 57,-125.7 10,-125.7"/>
<polygon fill="none" stroke="#000000" points="10,-125.7 10,-144.7 57,-144.7 57,-125.7 10,-125.7"/>
<text text-anchor="start" x="13" y="-131.8" font-family="Helvetica,sans-Serif" font-size="11.00" fill="#000000">&lt; 0</text>
<polygon fill="#ffffff" stroke="transparent" points="57,-125.7 57,-144.7 122,-144.7 122,-125.7 57,-125.7"/>
<polygon fill="none" stroke="#000000" points="57,-125.7 57,-144.7 122,-144.7 122,-125.7 57,-125.7"/>
<text text-anchor="start" x="86.6105" y="-131.8" font-family="Helvetica,sans-Serif" font-size="11.00" fill="#000000">2 rows</text>
<polygon fill="#ffffff" stroke="transparent" points="122,-125.7 122,-144.7 206,-144.7 206,-125.7 122,-125.7"/>
<polygon fill="none" stroke="#000000" points="122,-125.7 122,-144.7 206,-144.7 206,-125.7 122,-125.7"/>
<text text-anchor="start" x="187.4053" y="-131.8" font-family="Helvetica,sans-Serif" font-size="11.00" fill="#000000">2 &gt;</text>
<polygon fill="none" stroke="#000000" stroke-width="2" points="9,-124.7 9,-388.7 207,-388.7 207,-124.7 9,-124.7"/>
</a>
</g>
</g>
<!-- com_location&#45;&gt;com_account -->
<g id="edge1" class="edge">
<title>com_location:w&#45;&gt;com_account:e</title>
<path fill="none" stroke="#000000" d="M455.9514,-187.1664C449.6149,-188.9682 443.2549,-190.5169 437,-191.7 354.9003,-207.2294 331.5229,-204.7957 249,-191.7 229.1499,-188.55 226.0985,-177.7 206,-177.7"/>
<polygon fill="#000000" stroke="#000000" points="462.0992,-185.2465 470.8087,-186.298 465.9174,-184.0541 469.7355,-182.8617 469.7355,-182.8617 469.7355,-182.8617 465.9174,-184.0541 468.6623,-179.4253 462.0992,-185.2465 462.0992,-185.2465"/>
<ellipse fill="none" stroke="#000000" cx="459.0447" cy="-186.2004" rx="3.2" ry="3.2"/>
</g>
<!-- com_location_group -->
<g id="node3" class="node">
<title>com_location_group</title>
<g id="a_node3"><a xlink:href="../../tables/com_location_group.html" xlink:title="com_location_group" target="_top">
<polygon fill="#ffffff" stroke="transparent" points="257,-120.2 257,-181.2 429,-181.2 429,-120.2 257,-120.2"/>
<polygon fill="#f5f5f5" stroke="transparent" points="257,-157.7 257,-180.7 429,-180.7 429,-157.7 257,-157.7"/>
<polygon fill="none" stroke="#000000" points="257,-157.7 257,-180.7 429,-180.7 429,-157.7 257,-157.7"/>
<text text-anchor="start" x="262" y="-166.3" font-family="Helvetica,sans-Serif" font-weight="bold" font-size="11.00" fill="#000000">com_location_group</text>
<text text-anchor="start" x="394.5219" y="-165.8" font-family="Helvetica,sans-Serif" font-size="11.00" fill="#000000">[table]</text>
<polygon fill="none" stroke="#000000" points="257,-138.7 257,-157.7 429,-157.7 429,-138.7 257,-138.7"/>
<text text-anchor="start" x="260" y="-144.8" font-family="Helvetica,sans-Serif" font-size="11.00" fill="#000000">...</text>
<polygon fill="#ffffff" stroke="transparent" points="257,-119.7 257,-138.7 321,-138.7 321,-119.7 257,-119.7"/>
<polygon fill="none" stroke="#000000" points="257,-119.7 257,-138.7 321,-138.7 321,-119.7 257,-119.7"/>
<text text-anchor="start" x="260" y="-125.8" font-family="Helvetica,sans-Serif" font-size="11.00" fill="#000000">&lt; 4</text>
<polygon fill="#ffffff" stroke="transparent" points="321,-119.7 321,-138.7 386,-138.7 386,-119.7 321,-119.7"/>
<polygon fill="none" stroke="#000000" points="321,-119.7 321,-138.7 386,-138.7 386,-119.7 321,-119.7"/>
<text text-anchor="start" x="344.4956" y="-125.8" font-family="Helvetica,sans-Serif" font-size="11.00" fill="#000000">42 rows</text>
<polygon fill="#ffffff" stroke="transparent" points="386,-119.7 386,-138.7 429,-138.7 429,-119.7 386,-119.7"/>
<polygon fill="none" stroke="#000000" points="386,-119.7 386,-138.7 429,-138.7 429,-119.7 386,-119.7"/>
<text text-anchor="start" x="410.4053" y="-125.8" font-family="Helvetica,sans-Serif" font-size="11.00" fill="#000000">4 &gt;</text>
</a>
</g>
</g>
<!-- com_location&#45;&gt;com_location_group -->
<g id="edge2" class="edge">
<title>com_location:w&#45;&gt;com_location_group:e</title>
<path fill="none" stroke="#000000" d="M455.3686,-150.7C449.2876,-150.7 443.1396,-150.7 437.0183,-150.7"/>
<polygon fill="#000000" stroke="#000000" points="461.8369,-150.7001 469.837,-154.3 465.8369,-150.7 469.8369,-150.7 469.8369,-150.7 469.8369,-150.7 465.8369,-150.7 469.8369,-147.1 461.8369,-150.7001 461.8369,-150.7001"/>
<ellipse fill="none" stroke="#000000" cx="458.6369" cy="-150.7001" rx="3.2" ry="3.2"/>
</g>
<!-- com_location_type -->
<g id="node4" class="node">
<title>com_location_type</title>
<g id="a_node4"><a xlink:href="../../tables/com_location_type.html" xlink:title="com_location_type" target="_top">
<polygon fill="#ffffff" stroke="transparent" points="261.5,-38.2 261.5,-99.2 424.5,-99.2 424.5,-38.2 261.5,-38.2"/>
<polygon fill="#f5f5f5" stroke="transparent" points="262,-75.7 262,-98.7 425,-98.7 425,-75.7 262,-75.7"/>
<polygon fill="none" stroke="#000000" points="262,-75.7 262,-98.7 425,-98.7 425,-75.7 262,-75.7"/>
<text text-anchor="start" x="267" y="-84.3" font-family="Helvetica,sans-Serif" font-weight="bold" font-size="11.00" fill="#000000">com_location_type</text>
<text text-anchor="start" x="390.5219" y="-83.8" font-family="Helvetica,sans-Serif" font-size="11.00" fill="#000000">[table]</text>
<polygon fill="none" stroke="#000000" points="262,-56.7 262,-75.7 425,-75.7 425,-56.7 262,-56.7"/>
<text text-anchor="start" x="265" y="-62.8" font-family="Helvetica,sans-Serif" font-size="11.00" fill="#000000">...</text>
<polygon fill="#ffffff" stroke="transparent" points="262,-37.7 262,-56.7 320,-56.7 320,-37.7 262,-37.7"/>
<polygon fill="none" stroke="#000000" points="262,-37.7 262,-56.7 320,-56.7 320,-37.7 262,-37.7"/>
<text text-anchor="start" x="265" y="-43.8" font-family="Helvetica,sans-Serif" font-size="11.00" fill="#000000"> &#160;</text>
<polygon fill="#ffffff" stroke="transparent" points="320,-37.7 320,-56.7 381,-56.7 381,-37.7 320,-37.7"/>
<polygon fill="none" stroke="#000000" points="320,-37.7 320,-56.7 381,-56.7 381,-37.7 320,-37.7"/>
<text text-anchor="start" x="345.6105" y="-43.8" font-family="Helvetica,sans-Serif" font-size="11.00" fill="#000000">2 rows</text>
<polygon fill="#ffffff" stroke="transparent" points="381,-37.7 381,-56.7 425,-56.7 425,-37.7 381,-37.7"/>
<polygon fill="none" stroke="#000000" points="381,-37.7 381,-56.7 425,-56.7 425,-37.7 381,-37.7"/>
<text text-anchor="start" x="406.4053" y="-43.8" font-family="Helvetica,sans-Serif" font-size="11.00" fill="#000000">2 &gt;</text>
</a>
</g>
</g>
<!-- com_location&#45;&gt;com_location_type -->
<g id="edge3" class="edge">
<title>com_location:w&#45;&gt;com_location_type:e</title>
<path fill="none" stroke="#000000" d="M504.5836,-105.5246C483.721,-85.2028 455.7015,-65.7 425,-65.7"/>
<polygon fill="#000000" stroke="#000000" points="509.2615,-110.3711 512.2271,-118.6274 512.0395,-113.2492 514.8174,-116.1272 514.8174,-116.1272 514.8174,-116.1272 512.0395,-113.2492 517.4076,-113.6271 509.2615,-110.3711 509.2615,-110.3711"/>
<ellipse fill="none" stroke="#000000" cx="507.0392" cy="-108.0687" rx="3.2" ry="3.2"/>
</g>
<!-- com_location_group&#45;&gt;com_account -->
<g id="edge4" class="edge">
<title>com_location_group:w&#45;&gt;com_account:e</title>
<path fill="none" stroke="#000000" d="M234.3379,-176.0772C224.7996,-177.0993 215.2566,-177.7 206,-177.7"/>
<polygon fill="#000000" stroke="#000000" points="240.8371,-175.2435 249.2301,-177.7962 244.8046,-174.7345 248.7721,-174.2255 248.7721,-174.2255 248.7721,-174.2255 244.8046,-174.7345 248.314,-170.6548 240.8371,-175.2435 240.8371,-175.2435"/>
<ellipse fill="none" stroke="#000000" cx="237.6631" cy="-175.6507" rx="3.2" ry="3.2"/>
</g>
<!-- com_location_message -->
<g id="node5" class="node">
<title>com_location_message</title>
<g id="a_node5"><a xlink:href="../../tables/com_location_message.html" xlink:title="com_location_message" target="_top">
<polygon fill="#ffffff" stroke="transparent" points="654,-205.2 654,-266.2 846,-266.2 846,-205.2 654,-205.2"/>
<polygon fill="#f5f5f5" stroke="transparent" points="654,-242.7 654,-265.7 846,-265.7 846,-242.7 654,-242.7"/>
<polygon fill="none" stroke="#000000" points="654,-242.7 654,-265.7 846,-265.7 846,-242.7 654,-242.7"/>
<text text-anchor="start" x="659" y="-251.3" font-family="Helvetica,sans-Serif" font-weight="bold" font-size="11.00" fill="#000000">com_location_message</text>
<text text-anchor="start" x="811.5219" y="-250.8" font-family="Helvetica,sans-Serif" font-size="11.00" fill="#000000">[table]</text>
<polygon fill="none" stroke="#000000" points="654,-223.7 654,-242.7 846,-242.7 846,-223.7 654,-223.7"/>
<text text-anchor="start" x="657" y="-229.8" font-family="Helvetica,sans-Serif" font-size="11.00" fill="#000000">...</text>
<polygon fill="#ffffff" stroke="transparent" points="654,-204.7 654,-223.7 748,-223.7 748,-204.7 654,-204.7"/>
<polygon fill="none" stroke="#000000" points="654,-204.7 654,-223.7 748,-223.7 748,-204.7 654,-204.7"/>
<text text-anchor="start" x="657" y="-210.8" font-family="Helvetica,sans-Serif" font-size="11.00" fill="#000000">&lt; 2</text>
<polygon fill="#ffffff" stroke="transparent" points="748,-204.7 748,-223.7 797,-223.7 797,-204.7 748,-204.7"/>
<polygon fill="none" stroke="#000000" points="748,-204.7 748,-223.7 797,-223.7 797,-204.7 748,-204.7"/>
<text text-anchor="start" x="787.8862" y="-210.8" font-family="Helvetica,sans-Serif" font-size="11.00" fill="#000000"> &#160;</text>
<polygon fill="#ffffff" stroke="transparent" points="797,-204.7 797,-223.7 846,-223.7 846,-204.7 797,-204.7"/>
<polygon fill="none" stroke="#000000" points="797,-204.7 797,-223.7 846,-223.7 846,-204.7 797,-204.7"/>
<text text-anchor="start" x="836.8862" y="-210.8" font-family="Helvetica,sans-Serif" font-size="11.00" fill="#000000"> &#160;</text>
</a>
</g>
</g>
<!-- com_location_message&#45;&gt;com_location -->
<g id="edge5" class="edge">
<title>com_location_message:w&#45;&gt;com_location:e</title>
<path fill="none" stroke="#000000" d="M639.4576,-231.2238C611.2659,-225.5622 586.2666,-204.5943 568.5795,-185.4754"/>
<polygon fill="#000000" stroke="#000000" points="646.0409,-231.892 653.6364,-236.2816 650.0204,-232.296 654,-232.7 654,-232.7 654,-232.7 650.0204,-232.296 654.3636,-229.1184 646.0409,-231.892 646.0409,-231.892"/>
<ellipse fill="none" stroke="#000000" cx="642.8573" cy="-231.5689" rx="3.2" ry="3.2"/>
</g>
<!-- com_transport_unit -->
<g id="node6" class="node">
<title>com_transport_unit</title>
<g id="a_node6"><a xlink:href="../../tables/com_transport_unit.html" xlink:title="com_transport_unit" target="_top">
<polygon fill="#ffffff" stroke="transparent" points="665.5,-123.2 665.5,-184.2 834.5,-184.2 834.5,-123.2 665.5,-123.2"/>
<polygon fill="#f5f5f5" stroke="transparent" points="666,-160.7 666,-183.7 835,-183.7 835,-160.7 666,-160.7"/>
<polygon fill="none" stroke="#000000" points="666,-160.7 666,-183.7 835,-183.7 835,-160.7 666,-160.7"/>
<text text-anchor="start" x="671" y="-169.3" font-family="Helvetica,sans-Serif" font-weight="bold" font-size="11.00" fill="#000000">com_transport_unit</text>
<text text-anchor="start" x="800.5219" y="-168.8" font-family="Helvetica,sans-Serif" font-size="11.00" fill="#000000">[table]</text>
<polygon fill="none" stroke="#000000" points="666,-141.7 666,-160.7 835,-160.7 835,-141.7 666,-141.7"/>
<text text-anchor="start" x="669" y="-147.8" font-family="Helvetica,sans-Serif" font-size="11.00" fill="#000000">...</text>
<polygon fill="#ffffff" stroke="transparent" points="666,-122.7 666,-141.7 731,-141.7 731,-122.7 666,-122.7"/>
<polygon fill="none" stroke="#000000" points="666,-122.7 666,-141.7 731,-141.7 731,-122.7 666,-122.7"/>
<text text-anchor="start" x="669" y="-128.8" font-family="Helvetica,sans-Serif" font-size="11.00" fill="#000000">&lt; 4</text>
<polygon fill="#ffffff" stroke="transparent" points="731,-122.7 731,-141.7 791,-141.7 791,-122.7 731,-122.7"/>
<polygon fill="none" stroke="#000000" points="731,-122.7 731,-141.7 791,-141.7 791,-122.7 731,-122.7"/>
<text text-anchor="start" x="755.6105" y="-128.8" font-family="Helvetica,sans-Serif" font-size="11.00" fill="#000000">2 rows</text>
<polygon fill="#ffffff" stroke="transparent" points="791,-122.7 791,-141.7 835,-141.7 835,-122.7 791,-122.7"/>
<polygon fill="none" stroke="#000000" points="791,-122.7 791,-141.7 835,-141.7 835,-122.7 791,-122.7"/>
<text text-anchor="start" x="816.4053" y="-128.8" font-family="Helvetica,sans-Serif" font-size="11.00" fill="#000000">3 &gt;</text>
</a>
</g>
</g>
<!-- com_transport_unit&#45;&gt;com_location -->
<g id="edge6" class="edge">
<title>com_transport_unit:w&#45;&gt;com_location:e</title>
<path fill="none" stroke="#000000" d="M651.3342,-149.2733C638.6672,-148.1735 625.6741,-147.3689 613.2605,-146.8595"/>
<polygon fill="#000000" stroke="#000000" points="658.0376,-149.9254 665.6514,-154.2831 662.0188,-150.3127 666,-150.7 666,-150.7 666,-150.7 662.0188,-150.3127 666.3486,-147.1169 658.0376,-149.9254 658.0376,-149.9254"/>
<ellipse fill="none" stroke="#000000" cx="654.8526" cy="-149.6155" rx="3.2" ry="3.2"/>
</g>
<!-- com_transport_unit&#45;&gt;com_location -->
<g id="edge7" class="edge">
<title>com_transport_unit:w&#45;&gt;com_location:e</title>
<path fill="none" stroke="#000000" d="M651.3342,-152.3644C638.6672,-153.6475 625.6741,-154.5863 613.2605,-155.1806"/>
<polygon fill="#000000" stroke="#000000" points="658.051,-151.6022 666.406,-154.277 662.0255,-151.1511 666,-150.7 666,-150.7 666,-150.7 662.0255,-151.1511 665.594,-147.123 658.051,-151.6022 658.051,-151.6022"/>
<ellipse fill="none" stroke="#000000" cx="654.8714" cy="-151.9631" rx="3.2" ry="3.2"/>
</g>
</g>
</svg>
