<?xml version="1.0" encoding="UTF-8" standalone="no"?>
<!DOCTYPE svg PUBLIC "-//W3C//DTD SVG 1.1//EN"
 "http://www.w3.org/Graphics/SVG/1.1/DTD/svg11.dtd">
<!-- Generated by graphviz version 2.40.1 (20161225.0304)
 -->
<!-- Title: twoDegreesRelationshipsDiagram Pages: 1 -->
<svg width="928pt" height="750pt"
 viewBox="0.00 0.00 928.00 749.70" xmlns="http://www.w3.org/2000/svg" xmlns:xlink="http://www.w3.org/1999/xlink">
<g id="graph0" class="graph" transform="scale(1 1) rotate(0) translate(4 745.7)">
<title>twoDegreesRelationshipsDiagram</title>
<polygon fill="#ffffff" stroke="transparent" points="-4,4 -4,-745.7 924,-745.7 924,4 -4,4"/>
<text text-anchor="middle" x="72.4936" y="-7.3" font-family="Helvetica,sans-Serif" font-size="11.00" fill="#000000">Generated by SchemaSpy</text>
<!-- com_location -->
<g id="node1" class="node">
<title>com_location</title>
<g id="a_node1"><a xlink:href="../../tables/com_location.html" xlink:title="com_location" target="_top">
<polygon fill="#ffffff" stroke="transparent" points="468.5,-372.7 468.5,-697.7 667.5,-697.7 667.5,-372.7 468.5,-372.7"/>
<polygon fill="#f5f5f5" stroke="transparent" points="469,-674.2 469,-697.2 668,-697.2 668,-674.2 469,-674.2"/>
<polygon fill="none" stroke="#000000" points="469,-674.2 469,-697.2 668,-697.2 668,-674.2 469,-674.2"/>
<text text-anchor="start" x="474" y="-682.8" font-family="Helvetica,sans-Serif" font-weight="bold" font-size="11.00" fill="#000000">com_location</text>
<text text-anchor="start" x="633.0437" y="-682.3" font-family="Helvetica,sans-Serif" font-size="11.00" fill="#000000">[table]</text>
<polygon fill="none" stroke="#000000" points="469,-652.2 469,-674.2 668,-674.2 668,-652.2 469,-652.2"/>
<image xlink:href="../../images/primaryKeys.png" width="11px" height="12px" preserveAspectRatio="xMinYMin meet" x="474" y="-669.2"/>
<text text-anchor="start" x="489" y="-659.3" font-family="Helvetica,sans-Serif" font-size="11.00" fill="#000000">c_pk</text>
<polygon fill="#ffffff" stroke="transparent" points="469,-630.2 469,-652.2 668,-652.2 668,-630.2 469,-630.2"/>
<polygon fill="none" stroke="#000000" points="469,-630.2 469,-652.2 668,-652.2 668,-630.2 469,-630.2"/>
<text text-anchor="start" x="489" y="-637.3" font-family="Helvetica,sans-Serif" font-size="11.00" fill="#000000">c_pid</text>
<polygon fill="#ffffff" stroke="transparent" points="469,-608.2 469,-630.2 668,-630.2 668,-608.2 469,-608.2"/>
<polygon fill="none" stroke="#000000" points="469,-608.2 469,-630.2 668,-630.2 668,-608.2 469,-608.2"/>
<text text-anchor="start" x="489" y="-615.3" font-family="Helvetica,sans-Serif" font-size="11.00" fill="#000000">c_erp_code</text>
<polygon fill="#ffffff" stroke="transparent" points="469,-586.2 469,-608.2 668,-608.2 668,-586.2 469,-586.2"/>
<polygon fill="none" stroke="#000000" points="469,-586.2 469,-608.2 668,-608.2 668,-586.2 469,-586.2"/>
<text text-anchor="start" x="489" y="-593.3" font-family="Helvetica,sans-Serif" font-size="11.00" fill="#000000">c_aisle</text>
<polygon fill="#ffffff" stroke="transparent" points="469,-564.2 469,-586.2 668,-586.2 668,-564.2 469,-564.2"/>
<polygon fill="none" stroke="#000000" points="469,-564.2 469,-586.2 668,-586.2 668,-564.2 469,-564.2"/>
<text text-anchor="start" x="489" y="-571.3" font-family="Helvetica,sans-Serif" font-size="11.00" fill="#000000">c_area</text>
<polygon fill="#ffffff" stroke="transparent" points="469,-542.2 469,-564.2 668,-564.2 668,-542.2 469,-542.2"/>
<polygon fill="none" stroke="#000000" points="469,-542.2 469,-564.2 668,-564.2 668,-542.2 469,-542.2"/>
<text text-anchor="start" x="489" y="-549.3" font-family="Helvetica,sans-Serif" font-size="11.00" fill="#000000">c_x</text>
<polygon fill="#ffffff" stroke="transparent" points="469,-520.2 469,-542.2 668,-542.2 668,-520.2 469,-520.2"/>
<polygon fill="none" stroke="#000000" points="469,-520.2 469,-542.2 668,-542.2 668,-520.2 469,-520.2"/>
<text text-anchor="start" x="489" y="-527.3" font-family="Helvetica,sans-Serif" font-size="11.00" fill="#000000">c_y</text>
<polygon fill="#ffffff" stroke="transparent" points="469,-498.2 469,-520.2 668,-520.2 668,-498.2 469,-498.2"/>
<polygon fill="none" stroke="#000000" points="469,-498.2 469,-520.2 668,-520.2 668,-498.2 469,-498.2"/>
<text text-anchor="start" x="489" y="-505.3" font-family="Helvetica,sans-Serif" font-size="11.00" fill="#000000">c_z</text>
<polygon fill="#ffffff" stroke="transparent" points="469,-476.2 469,-498.2 668,-498.2 668,-476.2 469,-476.2"/>
<polygon fill="none" stroke="#000000" points="469,-476.2 469,-498.2 668,-498.2 668,-476.2 469,-476.2"/>
<text text-anchor="start" x="489" y="-483.3" font-family="Helvetica,sans-Serif" font-size="11.00" fill="#000000">c_plc_code</text>
<polygon fill="none" stroke="#000000" points="469,-454.2 469,-476.2 668,-476.2 668,-454.2 469,-454.2"/>
<image xlink:href="../../images/foreignKeys.png" width="11px" height="12px" preserveAspectRatio="xMinYMin meet" x="474" y="-471.2"/>
<text text-anchor="start" x="489" y="-461.3" font-family="Helvetica,sans-Serif" font-size="11.00" fill="#000000">c_account</text>
<polygon fill="none" stroke="#000000" points="469,-432.2 469,-454.2 668,-454.2 668,-432.2 469,-432.2"/>
<image xlink:href="../../images/foreignKeys.png" width="11px" height="12px" preserveAspectRatio="xMinYMin meet" x="474" y="-449.2"/>
<text text-anchor="start" x="489" y="-439.3" font-family="Helvetica,sans-Serif" font-size="11.00" fill="#000000">c_location_group</text>
<polygon fill="none" stroke="#000000" points="469,-410.2 469,-432.2 668,-432.2 668,-410.2 469,-410.2"/>
<image xlink:href="../../images/foreignKeys.png" width="11px" height="12px" preserveAspectRatio="xMinYMin meet" x="474" y="-427.2"/>
<text text-anchor="start" x="489" y="-417.3" font-family="Helvetica,sans-Serif" font-size="11.00" fill="#000000">c_location_type</text>
<polygon fill="none" stroke="#000000" points="469,-391.2 469,-410.2 668,-410.2 668,-391.2 469,-391.2"/>
<text text-anchor="start" x="472" y="-397.3" font-family="Helvetica,sans-Serif" font-size="11.00" fill="#000000">...</text>
<polygon fill="#ffffff" stroke="transparent" points="469,-372.2 469,-391.2 546,-391.2 546,-372.2 469,-372.2"/>
<polygon fill="none" stroke="#000000" points="469,-372.2 469,-391.2 546,-391.2 546,-372.2 469,-372.2"/>
<text text-anchor="start" x="472" y="-378.3" font-family="Helvetica,sans-Serif" font-size="11.00" fill="#000000">&lt; 3</text>
<polygon fill="#ffffff" stroke="transparent" points="546,-372.2 546,-391.2 618,-391.2 618,-372.2 546,-372.2"/>
<polygon fill="none" stroke="#000000" points="546,-372.2 546,-391.2 618,-391.2 618,-372.2 546,-372.2"/>
<text text-anchor="start" x="576.4956" y="-378.3" font-family="Helvetica,sans-Serif" font-size="11.00" fill="#000000">32 rows</text>
<polygon fill="#ffffff" stroke="transparent" points="618,-372.2 618,-391.2 668,-391.2 668,-372.2 618,-372.2"/>
<polygon fill="none" stroke="#000000" points="618,-372.2 618,-391.2 668,-391.2 668,-372.2 618,-372.2"/>
<text text-anchor="start" x="649.4053" y="-378.3" font-family="Helvetica,sans-Serif" font-size="11.00" fill="#000000">3 &gt;</text>
</a>
</g>
</g>
<!-- com_account -->
<g id="node2" class="node">
<title>com_account</title>
<g id="a_node2"><a xlink:href="../../tables/com_account.html" xlink:title="com_account" target="_top">
<polygon fill="#ffffff" stroke="transparent" points="8,-426.7 8,-487.7 134,-487.7 134,-426.7 8,-426.7"/>
<polygon fill="#f5f5f5" stroke="transparent" points="8,-464.2 8,-487.2 134,-487.2 134,-464.2 8,-464.2"/>
<polygon fill="none" stroke="#000000" points="8,-464.2 8,-487.2 134,-487.2 134,-464.2 8,-464.2"/>
<text text-anchor="start" x="13" y="-472.8" font-family="Helvetica,sans-Serif" font-weight="bold" font-size="11.00" fill="#000000">com_account</text>
<text text-anchor="start" x="99.5219" y="-472.3" font-family="Helvetica,sans-Serif" font-size="11.00" fill="#000000">[table]</text>
<polygon fill="none" stroke="#000000" points="8,-445.2 8,-464.2 134,-464.2 134,-445.2 8,-445.2"/>
<text text-anchor="start" x="11" y="-451.3" font-family="Helvetica,sans-Serif" font-size="11.00" fill="#000000">...</text>
<polygon fill="#ffffff" stroke="transparent" points="8,-426.2 8,-445.2 47,-445.2 47,-426.2 8,-426.2"/>
<polygon fill="none" stroke="#000000" points="8,-426.2 8,-445.2 47,-445.2 47,-426.2 8,-426.2"/>
<text text-anchor="start" x="11" y="-432.3" font-family="Helvetica,sans-Serif" font-size="11.00" fill="#000000"> &#160;</text>
<polygon fill="#ffffff" stroke="transparent" points="47,-426.2 47,-445.2 99,-445.2 99,-426.2 47,-426.2"/>
<polygon fill="none" stroke="#000000" points="47,-426.2 47,-445.2 99,-445.2 99,-426.2 47,-426.2"/>
<text text-anchor="start" x="63.6105" y="-432.3" font-family="Helvetica,sans-Serif" font-size="11.00" fill="#000000">2 rows</text>
<polygon fill="#ffffff" stroke="transparent" points="99,-426.2 99,-445.2 134,-445.2 134,-426.2 99,-426.2"/>
<polygon fill="none" stroke="#000000" points="99,-426.2 99,-445.2 134,-445.2 134,-426.2 99,-426.2"/>
<text text-anchor="start" x="115.4053" y="-432.3" font-family="Helvetica,sans-Serif" font-size="11.00" fill="#000000">2 &gt;</text>
</a>
</g>
</g>
<!-- com_location&#45;&gt;com_account -->
<g id="edge1" class="edge">
<title>com_location:w&#45;&gt;com_account:e</title>
<path fill="none" stroke="#000000" d="M454.3449,-465.8829C444.6949,-466.851 438.1041,-468.5744 424,-469.2 313.442,-474.104 283.9694,-488.5076 175,-469.2 155.8941,-465.8147 153.4034,-454.2 134,-454.2"/>
<polygon fill="#000000" stroke="#000000" points="461.0087,-465.5724 469.1676,-468.7961 465.0043,-465.3862 469,-465.2 469,-465.2 469,-465.2 465.0043,-465.3862 468.8324,-461.6039 461.0087,-465.5724 461.0087,-465.5724"/>
<ellipse fill="none" stroke="#000000" cx="457.8121" cy="-465.7214" rx="3.2" ry="3.2"/>
</g>
<!-- com_location_group -->
<g id="node3" class="node">
<title>com_location_group</title>
<g id="a_node3"><a xlink:href="../../tables/com_location_group.html" xlink:title="com_location_group" target="_top">
<polygon fill="#ffffff" stroke="transparent" points="213.5,-397.7 213.5,-458.7 385.5,-458.7 385.5,-397.7 213.5,-397.7"/>
<polygon fill="#f5f5f5" stroke="transparent" points="213.5,-435.2 213.5,-458.2 385.5,-458.2 385.5,-435.2 213.5,-435.2"/>
<polygon fill="none" stroke="#000000" points="213.5,-435.2 213.5,-458.2 385.5,-458.2 385.5,-435.2 213.5,-435.2"/>
<text text-anchor="start" x="218.5" y="-443.8" font-family="Helvetica,sans-Serif" font-weight="bold" font-size="11.00" fill="#000000">com_location_group</text>
<text text-anchor="start" x="351.0219" y="-443.3" font-family="Helvetica,sans-Serif" font-size="11.00" fill="#000000">[table]</text>
<polygon fill="none" stroke="#000000" points="213.5,-416.2 213.5,-435.2 385.5,-435.2 385.5,-416.2 213.5,-416.2"/>
<text text-anchor="start" x="216.5" y="-422.3" font-family="Helvetica,sans-Serif" font-size="11.00" fill="#000000">...</text>
<polygon fill="#ffffff" stroke="transparent" points="213.5,-397.2 213.5,-416.2 277.5,-416.2 277.5,-397.2 213.5,-397.2"/>
<polygon fill="none" stroke="#000000" points="213.5,-397.2 213.5,-416.2 277.5,-416.2 277.5,-397.2 213.5,-397.2"/>
<text text-anchor="start" x="216.5" y="-403.3" font-family="Helvetica,sans-Serif" font-size="11.00" fill="#000000">&lt; 4</text>
<polygon fill="#ffffff" stroke="transparent" points="277.5,-397.2 277.5,-416.2 342.5,-416.2 342.5,-397.2 277.5,-397.2"/>
<polygon fill="none" stroke="#000000" points="277.5,-397.2 277.5,-416.2 342.5,-416.2 342.5,-397.2 277.5,-397.2"/>
<text text-anchor="start" x="300.9956" y="-403.3" font-family="Helvetica,sans-Serif" font-size="11.00" fill="#000000">42 rows</text>
<polygon fill="#ffffff" stroke="transparent" points="342.5,-397.2 342.5,-416.2 385.5,-416.2 385.5,-397.2 342.5,-397.2"/>
<polygon fill="none" stroke="#000000" points="342.5,-397.2 342.5,-416.2 385.5,-416.2 385.5,-397.2 342.5,-397.2"/>
<text text-anchor="start" x="366.9053" y="-403.3" font-family="Helvetica,sans-Serif" font-size="11.00" fill="#000000">4 &gt;</text>
</a>
</g>
</g>
<!-- com_location&#45;&gt;com_location_group -->
<g id="edge2" class="edge">
<title>com_location:w&#45;&gt;com_location_group:e</title>
<path fill="none" stroke="#000000" d="M454.618,-442.2322C428.3056,-438.4935 418.125,-425.2 385.5,-425.2"/>
<polygon fill="#000000" stroke="#000000" points="461.0181,-442.6628 468.7583,-446.7919 465.009,-442.9314 469,-443.2 469,-443.2 469,-443.2 465.009,-442.9314 469.2417,-439.6081 461.0181,-442.6628 461.0181,-442.6628"/>
<ellipse fill="none" stroke="#000000" cx="457.8253" cy="-442.448" rx="3.2" ry="3.2"/>
</g>
<!-- com_location_type -->
<g id="node4" class="node">
<title>com_location_type</title>
<g id="a_node4"><a xlink:href="../../tables/com_location_type.html" xlink:title="com_location_type" target="_top">
<polygon fill="#ffffff" stroke="transparent" points="183,-38.2 183,-348.2 416,-348.2 416,-38.2 183,-38.2"/>
<polygon fill="#f5f5f5" stroke="transparent" points="185.5,-323.2 185.5,-346.2 414.5,-346.2 414.5,-323.2 185.5,-323.2"/>
<polygon fill="none" stroke="#000000" points="185.5,-323.2 185.5,-346.2 414.5,-346.2 414.5,-323.2 185.5,-323.2"/>
<text text-anchor="start" x="190.5" y="-331.8" font-family="Helvetica,sans-Serif" font-weight="bold" font-size="11.00" fill="#000000">com_location_type</text>
<text text-anchor="start" x="379.5437" y="-331.3" font-family="Helvetica,sans-Serif" font-size="11.00" fill="#000000">[table]</text>
<polygon fill="none" stroke="#000000" points="185.5,-301.2 185.5,-323.2 330.5,-323.2 330.5,-301.2 185.5,-301.2"/>
<image xlink:href="../../images/primaryKeys.png" width="11px" height="12px" preserveAspectRatio="xMinYMin meet" x="190.5" y="-318.2"/>
<text text-anchor="start" x="205.5" y="-308.3" font-family="Helvetica,sans-Serif" font-size="11.00" fill="#000000">c_pk</text>
<polygon fill="none" stroke="#000000" points="330.5,-301.2 330.5,-323.2 414.5,-323.2 414.5,-301.2 330.5,-301.2"/>
<text text-anchor="start" x="333.5" y="-308.9" font-family="Helvetica,sans-Serif" font-size="11.00" fill="#000000">int8[19]</text>
<polygon fill="none" stroke="#000000" points="185.5,-279.2 185.5,-301.2 330.5,-301.2 330.5,-279.2 185.5,-279.2"/>
<text text-anchor="start" x="205.5" y="-286.3" font-family="Helvetica,sans-Serif" font-size="11.00" fill="#000000">c_created</text>
<polygon fill="none" stroke="#000000" points="330.5,-279.2 330.5,-301.2 414.5,-301.2 414.5,-279.2 330.5,-279.2"/>
<text text-anchor="start" x="333.3807" y="-286.9" font-family="Helvetica,sans-Serif" font-size="11.00" fill="#000000">timestamp[29,6]</text>
<polygon fill="none" stroke="#000000" points="185.5,-257.2 185.5,-279.2 330.5,-279.2 330.5,-257.2 185.5,-257.2"/>
<text text-anchor="start" x="205.5" y="-264.3" font-family="Helvetica,sans-Serif" font-size="11.00" fill="#000000">c_created_by</text>
<polygon fill="none" stroke="#000000" points="330.5,-257.2 330.5,-279.2 414.5,-279.2 414.5,-257.2 330.5,-257.2"/>
<text text-anchor="start" x="333.5" y="-264.9" font-family="Helvetica,sans-Serif" font-size="11.00" fill="#000000">varchar[255]</text>
<polygon fill="none" stroke="#000000" points="185.5,-235.2 185.5,-257.2 330.5,-257.2 330.5,-235.2 185.5,-235.2"/>
<text text-anchor="start" x="205.5" y="-242.3" font-family="Helvetica,sans-Serif" font-size="11.00" fill="#000000">c_updated_by</text>
<polygon fill="none" stroke="#000000" points="330.5,-235.2 330.5,-257.2 414.5,-257.2 414.5,-235.2 330.5,-235.2"/>
<text text-anchor="start" x="333.5" y="-242.9" font-family="Helvetica,sans-Serif" font-size="11.00" fill="#000000">varchar[255]</text>
<polygon fill="none" stroke="#000000" points="185.5,-213.2 185.5,-235.2 330.5,-235.2 330.5,-213.2 185.5,-213.2"/>
<text text-anchor="start" x="205.5" y="-220.3" font-family="Helvetica,sans-Serif" font-size="11.00" fill="#000000">c_updated</text>
<polygon fill="none" stroke="#000000" points="330.5,-213.2 330.5,-235.2 414.5,-235.2 414.5,-213.2 330.5,-213.2"/>
<text text-anchor="start" x="333.3807" y="-220.9" font-family="Helvetica,sans-Serif" font-size="11.00" fill="#000000">timestamp[29,6]</text>
<polygon fill="none" stroke="#000000" points="185.5,-191.2 185.5,-213.2 330.5,-213.2 330.5,-191.2 185.5,-191.2"/>
<text text-anchor="start" x="205.5" y="-198.3" font-family="Helvetica,sans-Serif" font-size="11.00" fill="#000000">c_ol</text>
<polygon fill="none" stroke="#000000" points="330.5,-191.2 330.5,-213.2 414.5,-213.2 414.5,-191.2 330.5,-191.2"/>
<text text-anchor="start" x="333.5" y="-198.9" font-family="Helvetica,sans-Serif" font-size="11.00" fill="#000000">int8[19]</text>
<polygon fill="#ffffff" stroke="transparent" points="185.5,-169.2 185.5,-191.2 330.5,-191.2 330.5,-169.2 185.5,-169.2"/>
<polygon fill="none" stroke="#000000" points="185.5,-169.2 185.5,-191.2 330.5,-191.2 330.5,-169.2 185.5,-169.2"/>
<text text-anchor="start" x="205.5" y="-176.3" font-family="Helvetica,sans-Serif" font-size="11.00" fill="#000000">c_pid</text>
<polygon fill="none" stroke="#000000" points="330.5,-169.2 330.5,-191.2 414.5,-191.2 414.5,-169.2 330.5,-169.2"/>
<text text-anchor="start" x="333.5" y="-176.9" font-family="Helvetica,sans-Serif" font-size="11.00" fill="#000000">varchar[255]</text>
<polygon fill="none" stroke="#000000" points="185.5,-147.2 185.5,-169.2 330.5,-169.2 330.5,-147.2 185.5,-147.2"/>
<text text-anchor="start" x="205.5" y="-154.3" font-family="Helvetica,sans-Serif" font-size="11.00" fill="#000000">c_description</text>
<polygon fill="none" stroke="#000000" points="330.5,-147.2 330.5,-169.2 414.5,-169.2 414.5,-147.2 330.5,-147.2"/>
<text text-anchor="start" x="333.5" y="-154.9" font-family="Helvetica,sans-Serif" font-size="11.00" fill="#000000">varchar[255]</text>
<polygon fill="none" stroke="#000000" points="185.5,-125.2 185.5,-147.2 330.5,-147.2 330.5,-125.2 185.5,-125.2"/>
<text text-anchor="start" x="205.5" y="-132.3" font-family="Helvetica,sans-Serif" font-size="11.00" fill="#000000">c_height</text>
<polygon fill="none" stroke="#000000" points="330.5,-125.2 330.5,-147.2 414.5,-147.2 414.5,-125.2 330.5,-125.2"/>
<text text-anchor="start" x="333.5" y="-132.9" font-family="Helvetica,sans-Serif" font-size="11.00" fill="#000000">int4[10]</text>
<polygon fill="none" stroke="#000000" points="185.5,-103.2 185.5,-125.2 330.5,-125.2 330.5,-103.2 185.5,-103.2"/>
<text text-anchor="start" x="205.5" y="-110.3" font-family="Helvetica,sans-Serif" font-size="11.00" fill="#000000">c_length</text>
<polygon fill="none" stroke="#000000" points="330.5,-103.2 330.5,-125.2 414.5,-125.2 414.5,-103.2 330.5,-103.2"/>
<text text-anchor="start" x="333.5" y="-110.9" font-family="Helvetica,sans-Serif" font-size="11.00" fill="#000000">int4[10]</text>
<polygon fill="#ffffff" stroke="transparent" points="185.5,-81.2 185.5,-103.2 330.5,-103.2 330.5,-81.2 185.5,-81.2"/>
<polygon fill="none" stroke="#000000" points="185.5,-81.2 185.5,-103.2 330.5,-103.2 330.5,-81.2 185.5,-81.2"/>
<text text-anchor="start" x="205.5" y="-88.3" font-family="Helvetica,sans-Serif" font-size="11.00" fill="#000000">c_type</text>
<polygon fill="none" stroke="#000000" points="330.5,-81.2 330.5,-103.2 414.5,-103.2 414.5,-81.2 330.5,-81.2"/>
<text text-anchor="start" x="333.5" y="-88.9" font-family="Helvetica,sans-Serif" font-size="11.00" fill="#000000">varchar[255]</text>
<polygon fill="none" stroke="#000000" points="185.5,-59.2 185.5,-81.2 330.5,-81.2 330.5,-59.2 185.5,-59.2"/>
<text text-anchor="start" x="205.5" y="-66.3" font-family="Helvetica,sans-Serif" font-size="11.00" fill="#000000">c_width</text>
<polygon fill="none" stroke="#000000" points="330.5,-59.2 330.5,-81.2 414.5,-81.2 414.5,-59.2 330.5,-59.2"/>
<text text-anchor="start" x="333.5" y="-66.9" font-family="Helvetica,sans-Serif" font-size="11.00" fill="#000000">int4[10]</text>
<polygon fill="#ffffff" stroke="transparent" points="185.5,-40.2 185.5,-59.2 249.5,-59.2 249.5,-40.2 185.5,-40.2"/>
<polygon fill="none" stroke="#000000" points="185.5,-40.2 185.5,-59.2 249.5,-59.2 249.5,-40.2 185.5,-40.2"/>
<text text-anchor="start" x="188.5" y="-46.3" font-family="Helvetica,sans-Serif" font-size="11.00" fill="#000000">&lt; 0</text>
<polygon fill="#ffffff" stroke="transparent" points="249.5,-40.2 249.5,-59.2 330.5,-59.2 330.5,-40.2 249.5,-40.2"/>
<polygon fill="none" stroke="#000000" points="249.5,-40.2 249.5,-59.2 330.5,-59.2 330.5,-40.2 249.5,-40.2"/>
<text text-anchor="start" x="295.1105" y="-46.3" font-family="Helvetica,sans-Serif" font-size="11.00" fill="#000000">2 rows</text>
<polygon fill="#ffffff" stroke="transparent" points="330.5,-40.2 330.5,-59.2 414.5,-59.2 414.5,-40.2 330.5,-40.2"/>
<polygon fill="none" stroke="#000000" points="330.5,-40.2 330.5,-59.2 414.5,-59.2 414.5,-40.2 330.5,-40.2"/>
<text text-anchor="start" x="395.9053" y="-46.3" font-family="Helvetica,sans-Serif" font-size="11.00" fill="#000000">2 &gt;</text>
<polygon fill="none" stroke="#000000" stroke-width="2" points="184,-39.2 184,-347.2 415,-347.2 415,-39.2 184,-39.2"/>
</a>
</g>
</g>
<!-- com_location&#45;&gt;com_location_type -->
<g id="edge3" class="edge">
<title>com_location:w&#45;&gt;com_location_type:e</title>
<path fill="none" stroke="#000000" d="M454.8209,-417.5734C425.3199,-398.6602 462.7385,-312.2 414.5,-312.2"/>
<polygon fill="#000000" stroke="#000000" points="461.2495,-419.2176 468.1079,-424.6877 465.1247,-420.2088 469,-421.2 469,-421.2 469,-421.2 465.1247,-420.2088 469.8921,-417.7123 461.2495,-419.2176 461.2495,-419.2176"/>
<ellipse fill="none" stroke="#000000" cx="458.1493" cy="-418.4246" rx="3.2" ry="3.2"/>
</g>
<!-- com_location_group&#45;&gt;com_account -->
<g id="edge4" class="edge">
<title>com_location_group:w&#45;&gt;com_account:e</title>
<path fill="none" stroke="#000000" d="M199.0798,-426.8423C173.9562,-432.977 166.1748,-454.2 134,-454.2"/>
<polygon fill="#000000" stroke="#000000" points="205.5514,-426.1053 213.9074,-428.7769 209.5257,-425.6526 213.5,-425.2 213.5,-425.2 213.5,-425.2 209.5257,-425.6526 213.0926,-421.6231 205.5514,-426.1053 205.5514,-426.1053"/>
<ellipse fill="none" stroke="#000000" cx="202.3719" cy="-426.4674" rx="3.2" ry="3.2"/>
</g>
<!-- com_location_message -->
<g id="node5" class="node">
<title>com_location_message</title>
<g id="a_node5"><a xlink:href="../../tables/com_location_message.html" xlink:title="com_location_message" target="_top">
<polygon fill="#ffffff" stroke="transparent" points="720,-676.7 720,-737.7 912,-737.7 912,-676.7 720,-676.7"/>
<polygon fill="#f5f5f5" stroke="transparent" points="720,-714.2 720,-737.2 912,-737.2 912,-714.2 720,-714.2"/>
<polygon fill="none" stroke="#000000" points="720,-714.2 720,-737.2 912,-737.2 912,-714.2 720,-714.2"/>
<text text-anchor="start" x="725" y="-722.8" font-family="Helvetica,sans-Serif" font-weight="bold" font-size="11.00" fill="#000000">com_location_message</text>
<text text-anchor="start" x="877.5219" y="-722.3" font-family="Helvetica,sans-Serif" font-size="11.00" fill="#000000">[table]</text>
<polygon fill="none" stroke="#000000" points="720,-695.2 720,-714.2 912,-714.2 912,-695.2 720,-695.2"/>
<text text-anchor="start" x="723" y="-701.3" font-family="Helvetica,sans-Serif" font-size="11.00" fill="#000000">...</text>
<polygon fill="#ffffff" stroke="transparent" points="720,-676.2 720,-695.2 814,-695.2 814,-676.2 720,-676.2"/>
<polygon fill="none" stroke="#000000" points="720,-676.2 720,-695.2 814,-695.2 814,-676.2 720,-676.2"/>
<text text-anchor="start" x="723" y="-682.3" font-family="Helvetica,sans-Serif" font-size="11.00" fill="#000000">&lt; 2</text>
<polygon fill="#ffffff" stroke="transparent" points="814,-676.2 814,-695.2 863,-695.2 863,-676.2 814,-676.2"/>
<polygon fill="none" stroke="#000000" points="814,-676.2 814,-695.2 863,-695.2 863,-676.2 814,-676.2"/>
<text text-anchor="start" x="853.8862" y="-682.3" font-family="Helvetica,sans-Serif" font-size="11.00" fill="#000000"> &#160;</text>
<polygon fill="#ffffff" stroke="transparent" points="863,-676.2 863,-695.2 912,-695.2 912,-676.2 863,-676.2"/>
<polygon fill="none" stroke="#000000" points="863,-676.2 863,-695.2 912,-695.2 912,-676.2 863,-676.2"/>
<text text-anchor="start" x="902.8862" y="-682.3" font-family="Helvetica,sans-Serif" font-size="11.00" fill="#000000"> &#160;</text>
</a>
</g>
</g>
<!-- com_location_message&#45;&gt;com_location -->
<g id="edge5" class="edge">
<title>com_location_message:w&#45;&gt;com_location:e</title>
<path fill="none" stroke="#000000" d="M705.9495,-699.8123C691.8593,-689.2354 691.4527,-663.2 668,-663.2"/>
<polygon fill="#000000" stroke="#000000" points="712.3637,-701.8153 718.9269,-707.6363 716.1818,-703.0076 720,-704.2 720,-704.2 720,-704.2 716.1818,-703.0076 721.0731,-700.7637 712.3637,-701.8153 712.3637,-701.8153"/>
<ellipse fill="none" stroke="#000000" cx="709.3092" cy="-700.8614" rx="3.2" ry="3.2"/>
</g>
<!-- com_transport_unit -->
<g id="node6" class="node">
<title>com_transport_unit</title>
<g id="a_node6"><a xlink:href="../../tables/com_transport_unit.html" xlink:title="com_transport_unit" target="_top">
<polygon fill="#ffffff" stroke="transparent" points="731.5,-594.7 731.5,-655.7 900.5,-655.7 900.5,-594.7 731.5,-594.7"/>
<polygon fill="#f5f5f5" stroke="transparent" points="732,-632.2 732,-655.2 901,-655.2 901,-632.2 732,-632.2"/>
<polygon fill="none" stroke="#000000" points="732,-632.2 732,-655.2 901,-655.2 901,-632.2 732,-632.2"/>
<text text-anchor="start" x="737" y="-640.8" font-family="Helvetica,sans-Serif" font-weight="bold" font-size="11.00" fill="#000000">com_transport_unit</text>
<text text-anchor="start" x="866.5219" y="-640.3" font-family="Helvetica,sans-Serif" font-size="11.00" fill="#000000">[table]</text>
<polygon fill="none" stroke="#000000" points="732,-613.2 732,-632.2 901,-632.2 901,-613.2 732,-613.2"/>
<text text-anchor="start" x="735" y="-619.3" font-family="Helvetica,sans-Serif" font-size="11.00" fill="#000000">...</text>
<polygon fill="#ffffff" stroke="transparent" points="732,-594.2 732,-613.2 797,-613.2 797,-594.2 732,-594.2"/>
<polygon fill="none" stroke="#000000" points="732,-594.2 732,-613.2 797,-613.2 797,-594.2 732,-594.2"/>
<text text-anchor="start" x="735" y="-600.3" font-family="Helvetica,sans-Serif" font-size="11.00" fill="#000000">&lt; 4</text>
<polygon fill="#ffffff" stroke="transparent" points="797,-594.2 797,-613.2 857,-613.2 857,-594.2 797,-594.2"/>
<polygon fill="none" stroke="#000000" points="797,-594.2 797,-613.2 857,-613.2 857,-594.2 797,-594.2"/>
<text text-anchor="start" x="821.6105" y="-600.3" font-family="Helvetica,sans-Serif" font-size="11.00" fill="#000000">2 rows</text>
<polygon fill="#ffffff" stroke="transparent" points="857,-594.2 857,-613.2 901,-613.2 901,-594.2 857,-594.2"/>
<polygon fill="none" stroke="#000000" points="857,-594.2 857,-613.2 901,-613.2 901,-594.2 857,-594.2"/>
<text text-anchor="start" x="882.4053" y="-600.3" font-family="Helvetica,sans-Serif" font-size="11.00" fill="#000000">3 &gt;</text>
</a>
</g>
</g>
<!-- com_transport_unit&#45;&gt;com_location -->
<g id="edge6" class="edge">
<title>com_transport_unit:w&#45;&gt;com_location:e</title>
<path fill="none" stroke="#000000" d="M717.512,-622.8552C698.3404,-629.2598 695.9746,-658.2313 668,-663.2"/>
<polygon fill="#000000" stroke="#000000" points="724.0082,-622.5615 732.1627,-625.7963 728.0041,-622.3807 732,-622.2 732,-622.2 732,-622.2 728.0041,-622.3807 731.8373,-618.6037 724.0082,-622.5615 724.0082,-622.5615"/>
<ellipse fill="none" stroke="#000000" cx="720.8114" cy="-622.7061" rx="3.2" ry="3.2"/>
</g>
<!-- com_transport_unit&#45;&gt;com_location -->
<g id="edge7" class="edge">
<title>com_transport_unit:w&#45;&gt;com_location:e</title>
<path fill="none" stroke="#000000" d="M718.6154,-627.6587C698.4206,-640.8406 696.5025,-669.1063 668,-663.2"/>
<polygon fill="#000000" stroke="#000000" points="724.5924,-625.2211 733.3595,-625.5334 728.2962,-623.7106 732,-622.2 732,-622.2 732,-622.2 728.2962,-623.7106 730.6405,-618.8666 724.5924,-625.2211 724.5924,-625.2211"/>
<ellipse fill="none" stroke="#000000" cx="721.6293" cy="-626.4296" rx="3.2" ry="3.2"/>
</g>
<!-- com_transport_unit_type -->
<g id="node7" class="node">
<title>com_transport_unit_type</title>
<g id="a_node7"><a xlink:href="../../tables/com_transport_unit_type.html" xlink:title="com_transport_unit_type" target="_top">
<polygon fill="#ffffff" stroke="transparent" points="465,-290.7 465,-351.7 671,-351.7 671,-290.7 465,-290.7"/>
<polygon fill="#f5f5f5" stroke="transparent" points="465,-328.2 465,-351.2 671,-351.2 671,-328.2 465,-328.2"/>
<polygon fill="none" stroke="#000000" points="465,-328.2 465,-351.2 671,-351.2 671,-328.2 465,-328.2"/>
<text text-anchor="start" x="470" y="-336.8" font-family="Helvetica,sans-Serif" font-weight="bold" font-size="11.00" fill="#000000">com_transport_unit_type</text>
<text text-anchor="start" x="636.5219" y="-336.3" font-family="Helvetica,sans-Serif" font-size="11.00" fill="#000000">[table]</text>
<polygon fill="none" stroke="#000000" points="465,-309.2 465,-328.2 671,-328.2 671,-309.2 465,-309.2"/>
<text text-anchor="start" x="468" y="-315.3" font-family="Helvetica,sans-Serif" font-size="11.00" fill="#000000">...</text>
<polygon fill="#ffffff" stroke="transparent" points="465,-290.2 465,-309.2 544,-309.2 544,-290.2 465,-290.2"/>
<polygon fill="none" stroke="#000000" points="465,-290.2 465,-309.2 544,-309.2 544,-290.2 465,-290.2"/>
<text text-anchor="start" x="468" y="-296.3" font-family="Helvetica,sans-Serif" font-size="11.00" fill="#000000"> &#160;</text>
<polygon fill="#ffffff" stroke="transparent" points="544,-290.2 544,-309.2 616,-309.2 616,-290.2 544,-290.2"/>
<polygon fill="none" stroke="#000000" points="544,-290.2 544,-309.2 616,-309.2 616,-290.2 544,-290.2"/>
<text text-anchor="start" x="580.6105" y="-296.3" font-family="Helvetica,sans-Serif" font-size="11.00" fill="#000000">2 rows</text>
<polygon fill="#ffffff" stroke="transparent" points="616,-290.2 616,-309.2 671,-309.2 671,-290.2 616,-290.2"/>
<polygon fill="none" stroke="#000000" points="616,-290.2 616,-309.2 671,-309.2 671,-290.2 616,-290.2"/>
<text text-anchor="start" x="652.4053" y="-296.3" font-family="Helvetica,sans-Serif" font-size="11.00" fill="#000000">4 &gt;</text>
</a>
</g>
</g>
<!-- com_transport_unit&#45;&gt;com_transport_unit_type -->
<g id="edge8" class="edge">
<title>com_transport_unit:w&#45;&gt;com_transport_unit_type:e</title>
<path fill="none" stroke="#000000" d="M718.3801,-616.9235C674.2092,-576.5555 734.5192,-318.2 671,-318.2"/>
<polygon fill="#000000" stroke="#000000" points="724.5402,-619.31 730.6995,-625.5569 728.2701,-620.755 732,-622.2 732,-622.2 732,-622.2 728.2701,-620.755 733.3005,-618.8431 724.5402,-619.31 724.5402,-619.31"/>
<ellipse fill="none" stroke="#000000" cx="721.5563" cy="-618.154" rx="3.2" ry="3.2"/>
</g>
<!-- com_type_placing_rule -->
<g id="node8" class="node">
<title>com_type_placing_rule</title>
<g id="a_node8"><a xlink:href="../../tables/com_type_placing_rule.html" xlink:title="com_type_placing_rule" target="_top">
<polygon fill="#ffffff" stroke="transparent" points="720.5,-232.7 720.5,-381.7 911.5,-381.7 911.5,-232.7 720.5,-232.7"/>
<polygon fill="#f5f5f5" stroke="transparent" points="721,-358.2 721,-381.2 912,-381.2 912,-358.2 721,-358.2"/>
<polygon fill="none" stroke="#000000" points="721,-358.2 721,-381.2 912,-381.2 912,-358.2 721,-358.2"/>
<text text-anchor="start" x="726" y="-366.8" font-family="Helvetica,sans-Serif" font-weight="bold" font-size="11.00" fill="#000000">com_type_placing_rule</text>
<text text-anchor="start" x="877.5219" y="-366.3" font-family="Helvetica,sans-Serif" font-size="11.00" fill="#000000">[table]</text>
<polygon fill="none" stroke="#000000" points="721,-336.2 721,-358.2 912,-358.2 912,-336.2 721,-336.2"/>
<image xlink:href="../../images/primaryKeys.png" width="11px" height="12px" preserveAspectRatio="xMinYMin meet" x="726" y="-353.2"/>
<text text-anchor="start" x="746" y="-343.3" font-family="Helvetica,sans-Serif" font-size="11.00" fill="#000000">c_pk</text>
<polygon fill="#ffffff" stroke="transparent" points="721,-314.2 721,-336.2 912,-336.2 912,-314.2 721,-314.2"/>
<polygon fill="none" stroke="#000000" points="721,-314.2 721,-336.2 912,-336.2 912,-314.2 721,-314.2"/>
<text text-anchor="start" x="746" y="-321.3" font-family="Helvetica,sans-Serif" font-size="11.00" fill="#000000">c_privilege_level</text>
<polygon fill="#ffffff" stroke="transparent" points="721,-292.2 721,-314.2 912,-314.2 912,-292.2 721,-292.2"/>
<polygon fill="none" stroke="#000000" points="721,-292.2 721,-314.2 912,-314.2 912,-292.2 721,-292.2"/>
<image xlink:href="../../images/foreignKeys.png" width="11px" height="12px" preserveAspectRatio="xMinYMin meet" x="726" y="-309.2"/>
<text text-anchor="start" x="746" y="-299.3" font-family="Helvetica,sans-Serif" font-size="11.00" fill="#000000">c_allowed_location_type</text>
<polygon fill="#ffffff" stroke="transparent" points="721,-270.2 721,-292.2 912,-292.2 912,-270.2 721,-270.2"/>
<polygon fill="none" stroke="#000000" points="721,-270.2 721,-292.2 912,-292.2 912,-270.2 721,-270.2"/>
<image xlink:href="../../images/foreignKeys.png" width="11px" height="12px" preserveAspectRatio="xMinYMin meet" x="726" y="-287.2"/>
<text text-anchor="start" x="746" y="-277.3" font-family="Helvetica,sans-Serif" font-size="11.00" fill="#000000">c_tut_id</text>
<polygon fill="none" stroke="#000000" points="721,-251.2 721,-270.2 912,-270.2 912,-251.2 721,-251.2"/>
<text text-anchor="start" x="724" y="-257.3" font-family="Helvetica,sans-Serif" font-size="11.00" fill="#000000">...</text>
<polygon fill="#ffffff" stroke="transparent" points="721,-232.2 721,-251.2 802,-251.2 802,-232.2 721,-232.2"/>
<polygon fill="none" stroke="#000000" points="721,-232.2 721,-251.2 802,-251.2 802,-232.2 721,-232.2"/>
<text text-anchor="start" x="724" y="-238.3" font-family="Helvetica,sans-Serif" font-size="11.00" fill="#000000">&lt; 2</text>
<polygon fill="#ffffff" stroke="transparent" points="802,-232.2 802,-251.2 870,-251.2 870,-232.2 802,-232.2"/>
<polygon fill="none" stroke="#000000" points="802,-232.2 802,-251.2 870,-251.2 870,-232.2 802,-232.2"/>
<text text-anchor="start" x="834.6105" y="-238.3" font-family="Helvetica,sans-Serif" font-size="11.00" fill="#000000">3 rows</text>
<polygon fill="#ffffff" stroke="transparent" points="870,-232.2 870,-251.2 912,-251.2 912,-232.2 870,-232.2"/>
<polygon fill="none" stroke="#000000" points="870,-232.2 870,-251.2 912,-251.2 912,-232.2 870,-232.2"/>
<text text-anchor="start" x="902.8862" y="-238.3" font-family="Helvetica,sans-Serif" font-size="11.00" fill="#000000"> &#160;</text>
</a>
</g>
</g>
<!-- com_type_placing_rule&#45;&gt;com_location_type -->
<g id="edge9" class="edge">
<title>com_type_placing_rule:w&#45;&gt;com_location_type:e</title>
<path fill="none" stroke="#000000" d="M706.8469,-299.4858C697.9456,-293.9933 693.6582,-283.9508 679,-280.2 583.413,-255.741 550.5741,-248.9109 457,-280.2 434.5759,-287.6981 438.1445,-312.2 414.5,-312.2"/>
<polygon fill="#000000" stroke="#000000" points="713.262,-301.1693 720.0862,-306.6821 717.131,-302.1846 721,-303.2 721,-303.2 721,-303.2 717.131,-302.1846 721.9138,-299.7179 713.262,-301.1693 713.262,-301.1693"/>
<ellipse fill="none" stroke="#000000" cx="710.1668" cy="-300.357" rx="3.2" ry="3.2"/>
</g>
<!-- com_type_placing_rule&#45;&gt;com_transport_unit_type -->
<g id="edge10" class="edge">
<title>com_type_placing_rule:w&#45;&gt;com_transport_unit_type:e</title>
<path fill="none" stroke="#000000" d="M706.8964,-285.7369C694.0934,-295.617 692.5977,-318.2 671,-318.2"/>
<polygon fill="#000000" stroke="#000000" points="713.3843,-283.6499 722.1025,-284.627 717.1922,-282.4249 721,-281.2 721,-281.2 721,-281.2 717.1922,-282.4249 719.8975,-277.773 713.3843,-283.6499 713.3843,-283.6499"/>
<ellipse fill="none" stroke="#000000" cx="710.3381" cy="-284.6298" rx="3.2" ry="3.2"/>
</g>
</g>
</svg>
