<?xml version="1.0" encoding="UTF-8" standalone="no"?>
<!DOCTYPE svg PUBLIC "-//W3C//DTD SVG 1.1//EN"
 "http://www.w3.org/Graphics/SVG/1.1/DTD/svg11.dtd">
<!-- Generated by graphviz version 2.40.1 (20161225.0304)
 -->
<!-- Title: twoDegreesRelationshipsDiagram Pages: 1 -->
<svg width="492pt" height="641pt"
 viewBox="0.00 0.00 492.00 640.70" xmlns="http://www.w3.org/2000/svg" xmlns:xlink="http://www.w3.org/1999/xlink">
<g id="graph0" class="graph" transform="scale(1 1) rotate(0) translate(4 636.7)">
<title>twoDegreesRelationshipsDiagram</title>
<polygon fill="#ffffff" stroke="transparent" points="-4,4 -4,-636.7 488,-636.7 488,4 -4,4"/>
<text text-anchor="middle" x="72.4936" y="-7.3" font-family="Helvetica,sans-Serif" font-size="11.00" fill="#000000">Generated by SchemaSpy</text>
<!-- com_transport_unit_log -->
<g id="node1" class="node">
<title>com_transport_unit_log</title>
<g id="a_node1"><a xlink:href="../../tables/com_transport_unit_log.html" xlink:title="com_transport_unit_log" target="_top">
<polygon fill="#ffffff" stroke="transparent" points="210,-120.7 210,-628.7 476,-628.7 476,-120.7 210,-120.7"/>
<polygon fill="#f5f5f5" stroke="transparent" points="212,-603.7 212,-626.7 474,-626.7 474,-603.7 212,-603.7"/>
<polygon fill="none" stroke="#000000" points="212,-603.7 212,-626.7 474,-626.7 474,-603.7 212,-603.7"/>
<text text-anchor="start" x="217" y="-612.3" font-family="Helvetica,sans-Serif" font-weight="bold" font-size="11.00" fill="#000000">com_transport_unit_log</text>
<text text-anchor="start" x="439.0437" y="-611.8" font-family="Helvetica,sans-Serif" font-size="11.00" fill="#000000">[table]</text>
<polygon fill="none" stroke="#000000" points="212,-581.7 212,-603.7 390,-603.7 390,-581.7 212,-581.7"/>
<image xlink:href="../../images/primaryKeys.png" width="11px" height="12px" preserveAspectRatio="xMinYMin meet" x="217" y="-598.7"/>
<text text-anchor="start" x="232" y="-588.8" font-family="Helvetica,sans-Serif" font-size="11.00" fill="#000000">c_pk</text>
<polygon fill="none" stroke="#000000" points="390,-581.7 390,-603.7 474,-603.7 474,-581.7 390,-581.7"/>
<text text-anchor="start" x="393" y="-589.4" font-family="Helvetica,sans-Serif" font-size="11.00" fill="#000000">int8[19]</text>
<polygon fill="none" stroke="#000000" points="212,-559.7 212,-581.7 390,-581.7 390,-559.7 212,-559.7"/>
<image xlink:href="../../images/primaryKeys.png" width="11px" height="12px" preserveAspectRatio="xMinYMin meet" x="217" y="-576.7"/>
<text text-anchor="start" x="232" y="-566.8" font-family="Helvetica,sans-Serif" font-size="11.00" fill="#000000">c_rev</text>
<polygon fill="none" stroke="#000000" points="390,-559.7 390,-581.7 474,-581.7 474,-559.7 390,-559.7"/>
<text text-anchor="start" x="393" y="-567.4" font-family="Helvetica,sans-Serif" font-size="11.00" fill="#000000">int8[19]</text>
<polygon fill="none" stroke="#000000" points="212,-537.7 212,-559.7 390,-559.7 390,-537.7 212,-537.7"/>
<text text-anchor="start" x="232" y="-544.8" font-family="Helvetica,sans-Serif" font-size="11.00" fill="#000000">c_rev_type</text>
<polygon fill="none" stroke="#000000" points="390,-537.7 390,-559.7 474,-559.7 474,-537.7 390,-537.7"/>
<text text-anchor="start" x="393" y="-545.4" font-family="Helvetica,sans-Serif" font-size="11.00" fill="#000000">int2[5]</text>
<polygon fill="none" stroke="#000000" points="212,-515.7 212,-537.7 390,-537.7 390,-515.7 212,-515.7"/>
<text text-anchor="start" x="232" y="-522.8" font-family="Helvetica,sans-Serif" font-size="11.00" fill="#000000">c_created</text>
<polygon fill="none" stroke="#000000" points="390,-515.7 390,-537.7 474,-537.7 474,-515.7 390,-515.7"/>
<text text-anchor="start" x="392.8807" y="-523.4" font-family="Helvetica,sans-Serif" font-size="11.00" fill="#000000">timestamp[29,6]</text>
<polygon fill="none" stroke="#000000" points="212,-493.7 212,-515.7 390,-515.7 390,-493.7 212,-493.7"/>
<text text-anchor="start" x="232" y="-500.8" font-family="Helvetica,sans-Serif" font-size="11.00" fill="#000000">c_created_by</text>
<polygon fill="none" stroke="#000000" points="390,-493.7 390,-515.7 474,-515.7 474,-493.7 390,-493.7"/>
<text text-anchor="start" x="393" y="-501.4" font-family="Helvetica,sans-Serif" font-size="11.00" fill="#000000">varchar[255]</text>
<polygon fill="none" stroke="#000000" points="212,-471.7 212,-493.7 390,-493.7 390,-471.7 212,-471.7"/>
<text text-anchor="start" x="232" y="-478.8" font-family="Helvetica,sans-Serif" font-size="11.00" fill="#000000">c_updated_by</text>
<polygon fill="none" stroke="#000000" points="390,-471.7 390,-493.7 474,-493.7 474,-471.7 390,-471.7"/>
<text text-anchor="start" x="393" y="-479.4" font-family="Helvetica,sans-Serif" font-size="11.00" fill="#000000">varchar[255]</text>
<polygon fill="none" stroke="#000000" points="212,-449.7 212,-471.7 390,-471.7 390,-449.7 212,-449.7"/>
<text text-anchor="start" x="232" y="-456.8" font-family="Helvetica,sans-Serif" font-size="11.00" fill="#000000">c_updated</text>
<polygon fill="none" stroke="#000000" points="390,-449.7 390,-471.7 474,-471.7 474,-449.7 390,-449.7"/>
<text text-anchor="start" x="392.8807" y="-457.4" font-family="Helvetica,sans-Serif" font-size="11.00" fill="#000000">timestamp[29,6]</text>
<polygon fill="none" stroke="#000000" points="212,-427.7 212,-449.7 390,-449.7 390,-427.7 212,-427.7"/>
<text text-anchor="start" x="232" y="-434.8" font-family="Helvetica,sans-Serif" font-size="11.00" fill="#000000">c_pid</text>
<polygon fill="none" stroke="#000000" points="390,-427.7 390,-449.7 474,-449.7 474,-427.7 390,-427.7"/>
<text text-anchor="start" x="393" y="-435.4" font-family="Helvetica,sans-Serif" font-size="11.00" fill="#000000">varchar[255]</text>
<polygon fill="none" stroke="#000000" points="212,-405.7 212,-427.7 390,-427.7 390,-405.7 212,-405.7"/>
<text text-anchor="start" x="232" y="-412.8" font-family="Helvetica,sans-Serif" font-size="11.00" fill="#000000">c_actual_location_date</text>
<polygon fill="none" stroke="#000000" points="390,-405.7 390,-427.7 474,-427.7 474,-405.7 390,-405.7"/>
<text text-anchor="start" x="392.8807" y="-413.4" font-family="Helvetica,sans-Serif" font-size="11.00" fill="#000000">timestamp[29,6]</text>
<polygon fill="none" stroke="#000000" points="212,-383.7 212,-405.7 390,-405.7 390,-383.7 212,-383.7"/>
<text text-anchor="start" x="232" y="-390.8" font-family="Helvetica,sans-Serif" font-size="11.00" fill="#000000">c_barcode</text>
<polygon fill="none" stroke="#000000" points="390,-383.7 390,-405.7 474,-405.7 474,-383.7 390,-383.7"/>
<text text-anchor="start" x="393" y="-391.4" font-family="Helvetica,sans-Serif" font-size="11.00" fill="#000000">varchar[20]</text>
<polygon fill="none" stroke="#000000" points="212,-361.7 212,-383.7 390,-383.7 390,-361.7 212,-361.7"/>
<text text-anchor="start" x="232" y="-368.8" font-family="Helvetica,sans-Serif" font-size="11.00" fill="#000000">c_empty</text>
<polygon fill="none" stroke="#000000" points="390,-361.7 390,-383.7 474,-383.7 474,-361.7 390,-361.7"/>
<text text-anchor="start" x="393" y="-369.4" font-family="Helvetica,sans-Serif" font-size="11.00" fill="#000000">bool[1]</text>
<polygon fill="none" stroke="#000000" points="212,-339.7 212,-361.7 390,-361.7 390,-339.7 212,-339.7"/>
<text text-anchor="start" x="232" y="-346.8" font-family="Helvetica,sans-Serif" font-size="11.00" fill="#000000">c_group_name</text>
<polygon fill="none" stroke="#000000" points="390,-339.7 390,-361.7 474,-361.7 474,-339.7 390,-339.7"/>
<text text-anchor="start" x="393" y="-347.4" font-family="Helvetica,sans-Serif" font-size="11.00" fill="#000000">varchar[255]</text>
<polygon fill="none" stroke="#000000" points="212,-317.7 212,-339.7 390,-339.7 390,-317.7 212,-317.7"/>
<text text-anchor="start" x="232" y="-324.8" font-family="Helvetica,sans-Serif" font-size="11.00" fill="#000000">c_inventory_date</text>
<polygon fill="none" stroke="#000000" points="390,-317.7 390,-339.7 474,-339.7 474,-317.7 390,-317.7"/>
<text text-anchor="start" x="392.8807" y="-325.4" font-family="Helvetica,sans-Serif" font-size="11.00" fill="#000000">timestamp[29,6]</text>
<polygon fill="none" stroke="#000000" points="212,-295.7 212,-317.7 390,-317.7 390,-295.7 212,-295.7"/>
<text text-anchor="start" x="232" y="-302.8" font-family="Helvetica,sans-Serif" font-size="11.00" fill="#000000">c_inventory_user</text>
<polygon fill="none" stroke="#000000" points="390,-295.7 390,-317.7 474,-317.7 474,-295.7 390,-295.7"/>
<text text-anchor="start" x="393" y="-303.4" font-family="Helvetica,sans-Serif" font-size="11.00" fill="#000000">varchar[255]</text>
<polygon fill="none" stroke="#000000" points="212,-273.7 212,-295.7 390,-295.7 390,-273.7 212,-273.7"/>
<text text-anchor="start" x="232" y="-280.8" font-family="Helvetica,sans-Serif" font-size="11.00" fill="#000000">c_state</text>
<polygon fill="none" stroke="#000000" points="390,-273.7 390,-295.7 474,-295.7 474,-273.7 390,-273.7"/>
<text text-anchor="start" x="393" y="-281.4" font-family="Helvetica,sans-Serif" font-size="11.00" fill="#000000">varchar[255]</text>
<polygon fill="none" stroke="#000000" points="212,-251.7 212,-273.7 390,-273.7 390,-251.7 212,-251.7"/>
<text text-anchor="start" x="232" y="-258.8" font-family="Helvetica,sans-Serif" font-size="11.00" fill="#000000">c_weight</text>
<polygon fill="none" stroke="#000000" points="390,-251.7 390,-273.7 474,-273.7 474,-251.7 390,-251.7"/>
<text text-anchor="start" x="393" y="-259.4" font-family="Helvetica,sans-Serif" font-size="11.00" fill="#000000">numeric[38,2]</text>
<polygon fill="none" stroke="#000000" points="212,-229.7 212,-251.7 390,-251.7 390,-229.7 212,-229.7"/>
<text text-anchor="start" x="232" y="-236.8" font-family="Helvetica,sans-Serif" font-size="11.00" fill="#000000">c_weight_uom</text>
<polygon fill="none" stroke="#000000" points="390,-229.7 390,-251.7 474,-251.7 474,-229.7 390,-229.7"/>
<text text-anchor="start" x="393" y="-237.4" font-family="Helvetica,sans-Serif" font-size="11.00" fill="#000000">int2[5]</text>
<polygon fill="none" stroke="#000000" points="212,-207.7 212,-229.7 390,-229.7 390,-207.7 212,-207.7"/>
<text text-anchor="start" x="232" y="-214.8" font-family="Helvetica,sans-Serif" font-size="11.00" fill="#000000">c_actual_location</text>
<polygon fill="none" stroke="#000000" points="390,-207.7 390,-229.7 474,-229.7 474,-207.7 390,-207.7"/>
<text text-anchor="start" x="393" y="-215.4" font-family="Helvetica,sans-Serif" font-size="11.00" fill="#000000">int8[19]</text>
<polygon fill="none" stroke="#000000" points="212,-185.7 212,-207.7 390,-207.7 390,-185.7 212,-185.7"/>
<text text-anchor="start" x="232" y="-192.8" font-family="Helvetica,sans-Serif" font-size="11.00" fill="#000000">c_parent</text>
<polygon fill="none" stroke="#000000" points="390,-185.7 390,-207.7 474,-207.7 474,-185.7 390,-185.7"/>
<text text-anchor="start" x="393" y="-193.4" font-family="Helvetica,sans-Serif" font-size="11.00" fill="#000000">int8[19]</text>
<polygon fill="none" stroke="#000000" points="212,-163.7 212,-185.7 390,-185.7 390,-163.7 212,-163.7"/>
<text text-anchor="start" x="232" y="-170.8" font-family="Helvetica,sans-Serif" font-size="11.00" fill="#000000">c_target_location</text>
<polygon fill="none" stroke="#000000" points="390,-163.7 390,-185.7 474,-185.7 474,-163.7 390,-163.7"/>
<text text-anchor="start" x="393" y="-171.4" font-family="Helvetica,sans-Serif" font-size="11.00" fill="#000000">int8[19]</text>
<polygon fill="none" stroke="#000000" points="212,-141.7 212,-163.7 390,-163.7 390,-141.7 212,-141.7"/>
<text text-anchor="start" x="232" y="-148.8" font-family="Helvetica,sans-Serif" font-size="11.00" fill="#000000">c_transport_unit_type</text>
<polygon fill="none" stroke="#000000" points="390,-141.7 390,-163.7 474,-163.7 474,-141.7 390,-141.7"/>
<text text-anchor="start" x="393" y="-149.4" font-family="Helvetica,sans-Serif" font-size="11.00" fill="#000000">int8[19]</text>
<polygon fill="#ffffff" stroke="transparent" points="212,-122.7 212,-141.7 305,-141.7 305,-122.7 212,-122.7"/>
<polygon fill="none" stroke="#000000" points="212,-122.7 212,-141.7 305,-141.7 305,-122.7 212,-122.7"/>
<text text-anchor="start" x="215" y="-128.8" font-family="Helvetica,sans-Serif" font-size="11.00" fill="#000000">&lt; 1</text>
<polygon fill="#ffffff" stroke="transparent" points="305,-122.7 305,-141.7 390,-141.7 390,-122.7 305,-122.7"/>
<polygon fill="none" stroke="#000000" points="305,-122.7 305,-141.7 390,-141.7 390,-122.7 305,-122.7"/>
<text text-anchor="start" x="380.8862" y="-128.8" font-family="Helvetica,sans-Serif" font-size="11.00" fill="#000000"> &#160;</text>
<polygon fill="#ffffff" stroke="transparent" points="390,-122.7 390,-141.7 474,-141.7 474,-122.7 390,-122.7"/>
<polygon fill="none" stroke="#000000" points="390,-122.7 390,-141.7 474,-141.7 474,-122.7 390,-122.7"/>
<text text-anchor="start" x="455.4053" y="-128.8" font-family="Helvetica,sans-Serif" font-size="11.00" fill="#000000">0 &gt;</text>
<polygon fill="none" stroke="#000000" stroke-width="2" points="211,-121.7 211,-627.7 475,-627.7 475,-121.7 211,-121.7"/>
</a>
</g>
</g>
<!-- com_srv_revision -->
<g id="node2" class="node">
<title>com_srv_revision</title>
<g id="a_node2"><a xlink:href="../../tables/com_srv_revision.html" xlink:title="com_srv_revision" target="_top">
<polygon fill="#ffffff" stroke="transparent" points="8,-269.2 8,-352.2 161,-352.2 161,-269.2 8,-269.2"/>
<polygon fill="#f5f5f5" stroke="transparent" points="8.5,-328.7 8.5,-351.7 161.5,-351.7 161.5,-328.7 8.5,-328.7"/>
<polygon fill="none" stroke="#000000" points="8.5,-328.7 8.5,-351.7 161.5,-351.7 161.5,-328.7 8.5,-328.7"/>
<text text-anchor="start" x="13.5" y="-337.3" font-family="Helvetica,sans-Serif" font-weight="bold" font-size="11.00" fill="#000000">com_srv_revision</text>
<text text-anchor="start" x="127.0219" y="-336.8" font-family="Helvetica,sans-Serif" font-size="11.00" fill="#000000">[table]</text>
<polygon fill="none" stroke="#000000" points="8.5,-306.7 8.5,-328.7 161.5,-328.7 161.5,-306.7 8.5,-306.7"/>
<image xlink:href="../../images/primaryKeys.png" width="11px" height="12px" preserveAspectRatio="xMinYMin meet" x="13.5" y="-323.7"/>
<text text-anchor="start" x="37.5" y="-313.8" font-family="Helvetica,sans-Serif" font-size="11.00" fill="#000000">c_pk</text>
<polygon fill="none" stroke="#000000" points="8.5,-287.7 8.5,-306.7 161.5,-306.7 161.5,-287.7 8.5,-287.7"/>
<text text-anchor="start" x="11.5" y="-293.8" font-family="Helvetica,sans-Serif" font-size="11.00" fill="#000000">...</text>
<polygon fill="#ffffff" stroke="transparent" points="8.5,-268.7 8.5,-287.7 74.5,-287.7 74.5,-268.7 8.5,-268.7"/>
<polygon fill="none" stroke="#000000" points="8.5,-268.7 8.5,-287.7 74.5,-287.7 74.5,-268.7 8.5,-268.7"/>
<text text-anchor="start" x="11.5" y="-274.8" font-family="Helvetica,sans-Serif" font-size="11.00" fill="#000000"> &#160;</text>
<polygon fill="#ffffff" stroke="transparent" points="74.5,-268.7 74.5,-287.7 113.5,-287.7 113.5,-268.7 74.5,-268.7"/>
<polygon fill="none" stroke="#000000" points="74.5,-268.7 74.5,-287.7 113.5,-287.7 113.5,-268.7 74.5,-268.7"/>
<text text-anchor="start" x="104.3862" y="-274.8" font-family="Helvetica,sans-Serif" font-size="11.00" fill="#000000"> &#160;</text>
<polygon fill="#ffffff" stroke="transparent" points="113.5,-268.7 113.5,-287.7 161.5,-287.7 161.5,-268.7 113.5,-268.7"/>
<polygon fill="none" stroke="#000000" points="113.5,-268.7 113.5,-287.7 161.5,-287.7 161.5,-268.7 113.5,-268.7"/>
<text text-anchor="start" x="142.9053" y="-274.8" font-family="Helvetica,sans-Serif" font-size="11.00" fill="#000000">2 &gt;</text>
</a>
</g>
</g>
<!-- com_transport_unit_log&#45;&gt;com_srv_revision -->
<g id="edge1" class="edge">
<title>com_transport_unit_log:w&#45;&gt;com_srv_revision:e</title>
<path fill="none" stroke="#000000" d="M197.4914,-569.0175C113.7795,-547.0664 270.6758,-317.7 161.5,-317.7"/>
<polygon fill="#000000" stroke="#000000" points="204.0533,-569.7784 211.5853,-574.276 208.0266,-570.2392 212,-570.7 212,-570.7 212,-570.7 208.0266,-570.2392 212.4147,-567.124 204.0533,-569.7784 204.0533,-569.7784"/>
<ellipse fill="none" stroke="#000000" cx="200.8746" cy="-569.4098" rx="3.2" ry="3.2"/>
</g>
<!-- com_tu_reservation_log -->
<g id="node3" class="node">
<title>com_tu_reservation_log</title>
<g id="a_node3"><a xlink:href="../../tables/com_tu_reservation_log.html" xlink:title="com_tu_reservation_log" target="_top">
<polygon fill="#ffffff" stroke="transparent" points="244.5,-38.2 244.5,-99.2 441.5,-99.2 441.5,-38.2 244.5,-38.2"/>
<polygon fill="#f5f5f5" stroke="transparent" points="245,-75.7 245,-98.7 442,-98.7 442,-75.7 245,-75.7"/>
<polygon fill="none" stroke="#000000" points="245,-75.7 245,-98.7 442,-98.7 442,-75.7 245,-75.7"/>
<text text-anchor="start" x="250" y="-84.3" font-family="Helvetica,sans-Serif" font-weight="bold" font-size="11.00" fill="#000000">com_tu_reservation_log</text>
<text text-anchor="start" x="407.5219" y="-83.8" font-family="Helvetica,sans-Serif" font-size="11.00" fill="#000000">[table]</text>
<polygon fill="none" stroke="#000000" points="245,-56.7 245,-75.7 442,-75.7 442,-56.7 245,-56.7"/>
<text text-anchor="start" x="248" y="-62.8" font-family="Helvetica,sans-Serif" font-size="11.00" fill="#000000">...</text>
<polygon fill="#ffffff" stroke="transparent" points="245,-37.7 245,-56.7 342,-56.7 342,-37.7 245,-37.7"/>
<polygon fill="none" stroke="#000000" points="245,-37.7 245,-56.7 342,-56.7 342,-37.7 245,-37.7"/>
<text text-anchor="start" x="248" y="-43.8" font-family="Helvetica,sans-Serif" font-size="11.00" fill="#000000">&lt; 1</text>
<polygon fill="#ffffff" stroke="transparent" points="342,-37.7 342,-56.7 392,-56.7 392,-37.7 342,-37.7"/>
<polygon fill="none" stroke="#000000" points="342,-37.7 342,-56.7 392,-56.7 392,-37.7 342,-37.7"/>
<text text-anchor="start" x="382.8862" y="-43.8" font-family="Helvetica,sans-Serif" font-size="11.00" fill="#000000"> &#160;</text>
<polygon fill="#ffffff" stroke="transparent" points="392,-37.7 392,-56.7 442,-56.7 442,-37.7 392,-37.7"/>
<polygon fill="none" stroke="#000000" points="392,-37.7 392,-56.7 442,-56.7 442,-37.7 392,-37.7"/>
<text text-anchor="start" x="432.8862" y="-43.8" font-family="Helvetica,sans-Serif" font-size="11.00" fill="#000000"> &#160;</text>
</a>
</g>
</g>
<!-- com_tu_reservation_log&#45;&gt;com_srv_revision -->
<g id="edge2" class="edge">
<title>com_tu_reservation_log:w&#45;&gt;com_srv_revision:e</title>
<path fill="none" stroke="#000000" d="M230.5083,-68.2749C215.7847,-74.5054 212.0397,-91.3182 202,-110.7 180.441,-152.3198 208.3722,-317.7 161.5,-317.7"/>
<polygon fill="#000000" stroke="#000000" points="237.1234,-67.0996 245.6298,-69.2445 241.0617,-66.3998 245,-65.7 245,-65.7 245,-65.7 241.0617,-66.3998 244.3702,-62.1555 237.1234,-67.0996 237.1234,-67.0996"/>
<ellipse fill="none" stroke="#000000" cx="233.9727" cy="-67.6594" rx="3.2" ry="3.2"/>
</g>
</g>
</svg>
