<?xml version="1.0" encoding="UTF-8" standalone="no"?>
<!DOCTYPE svg PUBLIC "-//W3C//DTD SVG 1.1//EN"
 "http://www.w3.org/Graphics/SVG/1.1/DTD/svg11.dtd">
<!-- Generated by graphviz version 2.40.1 (20161225.0304)
 -->
<!-- Title: oneDegreeRelationshipsDiagram Pages: 1 -->
<svg width="721pt" height="823pt"
 viewBox="0.00 0.00 721.00 822.70" xmlns="http://www.w3.org/2000/svg" xmlns:xlink="http://www.w3.org/1999/xlink">
<g id="graph0" class="graph" transform="scale(1 1) rotate(0) translate(4 818.7)">
<title>oneDegreeRelationshipsDiagram</title>
<polygon fill="#ffffff" stroke="transparent" points="-4,4 -4,-818.7 717,-818.7 717,4 -4,4"/>
<text text-anchor="middle" x="72.4936" y="-7.3" font-family="Helvetica,sans-Serif" font-size="11.00" fill="#000000">Generated by SchemaSpy</text>
<!-- com_location -->
<g id="node1" class="node">
<title>com_location</title>
<g id="a_node1"><a xlink:href="../../tables/com_location.html" xlink:title="com_location" target="_top">
<polygon fill="#ffffff" stroke="transparent" points="506,-485.7 506,-810.7 705,-810.7 705,-485.7 506,-485.7"/>
<polygon fill="#f5f5f5" stroke="transparent" points="506.5,-787.2 506.5,-810.2 705.5,-810.2 705.5,-787.2 506.5,-787.2"/>
<polygon fill="none" stroke="#000000" points="506.5,-787.2 506.5,-810.2 705.5,-810.2 705.5,-787.2 506.5,-787.2"/>
<text text-anchor="start" x="511.5" y="-795.8" font-family="Helvetica,sans-Serif" font-weight="bold" font-size="11.00" fill="#000000">com_location</text>
<text text-anchor="start" x="670.5437" y="-795.3" font-family="Helvetica,sans-Serif" font-size="11.00" fill="#000000">[table]</text>
<polygon fill="none" stroke="#000000" points="506.5,-765.2 506.5,-787.2 705.5,-787.2 705.5,-765.2 506.5,-765.2"/>
<image xlink:href="../../images/primaryKeys.png" width="11px" height="12px" preserveAspectRatio="xMinYMin meet" x="511.5" y="-782.2"/>
<text text-anchor="start" x="526.5" y="-772.3" font-family="Helvetica,sans-Serif" font-size="11.00" fill="#000000">c_pk</text>
<polygon fill="#ffffff" stroke="transparent" points="506.5,-743.2 506.5,-765.2 705.5,-765.2 705.5,-743.2 506.5,-743.2"/>
<polygon fill="none" stroke="#000000" points="506.5,-743.2 506.5,-765.2 705.5,-765.2 705.5,-743.2 506.5,-743.2"/>
<text text-anchor="start" x="526.5" y="-750.3" font-family="Helvetica,sans-Serif" font-size="11.00" fill="#000000">c_pid</text>
<polygon fill="#ffffff" stroke="transparent" points="506.5,-721.2 506.5,-743.2 705.5,-743.2 705.5,-721.2 506.5,-721.2"/>
<polygon fill="none" stroke="#000000" points="506.5,-721.2 506.5,-743.2 705.5,-743.2 705.5,-721.2 506.5,-721.2"/>
<text text-anchor="start" x="526.5" y="-728.3" font-family="Helvetica,sans-Serif" font-size="11.00" fill="#000000">c_erp_code</text>
<polygon fill="#ffffff" stroke="transparent" points="506.5,-699.2 506.5,-721.2 705.5,-721.2 705.5,-699.2 506.5,-699.2"/>
<polygon fill="none" stroke="#000000" points="506.5,-699.2 506.5,-721.2 705.5,-721.2 705.5,-699.2 506.5,-699.2"/>
<text text-anchor="start" x="526.5" y="-706.3" font-family="Helvetica,sans-Serif" font-size="11.00" fill="#000000">c_aisle</text>
<polygon fill="#ffffff" stroke="transparent" points="506.5,-677.2 506.5,-699.2 705.5,-699.2 705.5,-677.2 506.5,-677.2"/>
<polygon fill="none" stroke="#000000" points="506.5,-677.2 506.5,-699.2 705.5,-699.2 705.5,-677.2 506.5,-677.2"/>
<text text-anchor="start" x="526.5" y="-684.3" font-family="Helvetica,sans-Serif" font-size="11.00" fill="#000000">c_area</text>
<polygon fill="#ffffff" stroke="transparent" points="506.5,-655.2 506.5,-677.2 705.5,-677.2 705.5,-655.2 506.5,-655.2"/>
<polygon fill="none" stroke="#000000" points="506.5,-655.2 506.5,-677.2 705.5,-677.2 705.5,-655.2 506.5,-655.2"/>
<text text-anchor="start" x="526.5" y="-662.3" font-family="Helvetica,sans-Serif" font-size="11.00" fill="#000000">c_x</text>
<polygon fill="#ffffff" stroke="transparent" points="506.5,-633.2 506.5,-655.2 705.5,-655.2 705.5,-633.2 506.5,-633.2"/>
<polygon fill="none" stroke="#000000" points="506.5,-633.2 506.5,-655.2 705.5,-655.2 705.5,-633.2 506.5,-633.2"/>
<text text-anchor="start" x="526.5" y="-640.3" font-family="Helvetica,sans-Serif" font-size="11.00" fill="#000000">c_y</text>
<polygon fill="#ffffff" stroke="transparent" points="506.5,-611.2 506.5,-633.2 705.5,-633.2 705.5,-611.2 506.5,-611.2"/>
<polygon fill="none" stroke="#000000" points="506.5,-611.2 506.5,-633.2 705.5,-633.2 705.5,-611.2 506.5,-611.2"/>
<text text-anchor="start" x="526.5" y="-618.3" font-family="Helvetica,sans-Serif" font-size="11.00" fill="#000000">c_z</text>
<polygon fill="#ffffff" stroke="transparent" points="506.5,-589.2 506.5,-611.2 705.5,-611.2 705.5,-589.2 506.5,-589.2"/>
<polygon fill="none" stroke="#000000" points="506.5,-589.2 506.5,-611.2 705.5,-611.2 705.5,-589.2 506.5,-589.2"/>
<text text-anchor="start" x="526.5" y="-596.3" font-family="Helvetica,sans-Serif" font-size="11.00" fill="#000000">c_plc_code</text>
<polygon fill="none" stroke="#000000" points="506.5,-567.2 506.5,-589.2 705.5,-589.2 705.5,-567.2 506.5,-567.2"/>
<image xlink:href="../../images/foreignKeys.png" width="11px" height="12px" preserveAspectRatio="xMinYMin meet" x="511.5" y="-584.2"/>
<text text-anchor="start" x="526.5" y="-574.3" font-family="Helvetica,sans-Serif" font-size="11.00" fill="#000000">c_account</text>
<polygon fill="none" stroke="#000000" points="506.5,-545.2 506.5,-567.2 705.5,-567.2 705.5,-545.2 506.5,-545.2"/>
<image xlink:href="../../images/foreignKeys.png" width="11px" height="12px" preserveAspectRatio="xMinYMin meet" x="511.5" y="-562.2"/>
<text text-anchor="start" x="526.5" y="-552.3" font-family="Helvetica,sans-Serif" font-size="11.00" fill="#000000">c_location_group</text>
<polygon fill="none" stroke="#000000" points="506.5,-523.2 506.5,-545.2 705.5,-545.2 705.5,-523.2 506.5,-523.2"/>
<image xlink:href="../../images/foreignKeys.png" width="11px" height="12px" preserveAspectRatio="xMinYMin meet" x="511.5" y="-540.2"/>
<text text-anchor="start" x="526.5" y="-530.3" font-family="Helvetica,sans-Serif" font-size="11.00" fill="#000000">c_location_type</text>
<polygon fill="none" stroke="#000000" points="506.5,-504.2 506.5,-523.2 705.5,-523.2 705.5,-504.2 506.5,-504.2"/>
<text text-anchor="start" x="509.5" y="-510.3" font-family="Helvetica,sans-Serif" font-size="11.00" fill="#000000">...</text>
<polygon fill="#ffffff" stroke="transparent" points="506.5,-485.2 506.5,-504.2 583.5,-504.2 583.5,-485.2 506.5,-485.2"/>
<polygon fill="none" stroke="#000000" points="506.5,-485.2 506.5,-504.2 583.5,-504.2 583.5,-485.2 506.5,-485.2"/>
<text text-anchor="start" x="509.5" y="-491.3" font-family="Helvetica,sans-Serif" font-size="11.00" fill="#000000">&lt; 3</text>
<polygon fill="#ffffff" stroke="transparent" points="583.5,-485.2 583.5,-504.2 655.5,-504.2 655.5,-485.2 583.5,-485.2"/>
<polygon fill="none" stroke="#000000" points="583.5,-485.2 583.5,-504.2 655.5,-504.2 655.5,-485.2 583.5,-485.2"/>
<text text-anchor="start" x="613.9956" y="-491.3" font-family="Helvetica,sans-Serif" font-size="11.00" fill="#000000">32 rows</text>
<polygon fill="#ffffff" stroke="transparent" points="655.5,-485.2 655.5,-504.2 705.5,-504.2 705.5,-485.2 655.5,-485.2"/>
<polygon fill="none" stroke="#000000" points="655.5,-485.2 655.5,-504.2 705.5,-504.2 705.5,-485.2 655.5,-485.2"/>
<text text-anchor="start" x="686.9053" y="-491.3" font-family="Helvetica,sans-Serif" font-size="11.00" fill="#000000">3 &gt;</text>
</a>
</g>
</g>
<!-- com_account -->
<g id="node2" class="node">
<title>com_account</title>
<g id="a_node2"><a xlink:href="../../tables/com_account.html" xlink:title="com_account" target="_top">
<polygon fill="#ffffff" stroke="transparent" points="8,-309.7 8,-458.7 134,-458.7 134,-309.7 8,-309.7"/>
<polygon fill="#f5f5f5" stroke="transparent" points="8,-435.2 8,-458.2 134,-458.2 134,-435.2 8,-435.2"/>
<polygon fill="none" stroke="#000000" points="8,-435.2 8,-458.2 134,-458.2 134,-435.2 8,-435.2"/>
<text text-anchor="start" x="13" y="-443.8" font-family="Helvetica,sans-Serif" font-weight="bold" font-size="11.00" fill="#000000">com_account</text>
<text text-anchor="start" x="99.5219" y="-443.3" font-family="Helvetica,sans-Serif" font-size="11.00" fill="#000000">[table]</text>
<polygon fill="none" stroke="#000000" points="8,-413.2 8,-435.2 134,-435.2 134,-413.2 8,-413.2"/>
<image xlink:href="../../images/primaryKeys.png" width="11px" height="12px" preserveAspectRatio="xMinYMin meet" x="13" y="-430.2"/>
<text text-anchor="start" x="35" y="-420.3" font-family="Helvetica,sans-Serif" font-size="11.00" fill="#000000">c_pk</text>
<polygon fill="#ffffff" stroke="transparent" points="8,-391.2 8,-413.2 134,-413.2 134,-391.2 8,-391.2"/>
<polygon fill="none" stroke="#000000" points="8,-391.2 8,-413.2 134,-413.2 134,-391.2 8,-391.2"/>
<text text-anchor="start" x="35" y="-398.3" font-family="Helvetica,sans-Serif" font-size="11.00" fill="#000000">c_pid</text>
<polygon fill="#ffffff" stroke="transparent" points="8,-369.2 8,-391.2 134,-391.2 134,-369.2 8,-369.2"/>
<polygon fill="none" stroke="#000000" points="8,-369.2 8,-391.2 134,-391.2 134,-369.2 8,-369.2"/>
<text text-anchor="start" x="35" y="-376.3" font-family="Helvetica,sans-Serif" font-size="11.00" fill="#000000">c_identifier</text>
<polygon fill="#ffffff" stroke="transparent" points="8,-347.2 8,-369.2 134,-369.2 134,-347.2 8,-347.2"/>
<polygon fill="none" stroke="#000000" points="8,-347.2 8,-369.2 134,-369.2 134,-347.2 8,-347.2"/>
<text text-anchor="start" x="35" y="-354.3" font-family="Helvetica,sans-Serif" font-size="11.00" fill="#000000">c_name</text>
<polygon fill="none" stroke="#000000" points="8,-328.2 8,-347.2 134,-347.2 134,-328.2 8,-328.2"/>
<text text-anchor="start" x="11" y="-334.3" font-family="Helvetica,sans-Serif" font-size="11.00" fill="#000000">...</text>
<polygon fill="#ffffff" stroke="transparent" points="8,-309.2 8,-328.2 47,-328.2 47,-309.2 8,-309.2"/>
<polygon fill="none" stroke="#000000" points="8,-309.2 8,-328.2 47,-328.2 47,-309.2 8,-309.2"/>
<text text-anchor="start" x="11" y="-315.3" font-family="Helvetica,sans-Serif" font-size="11.00" fill="#000000"> &#160;</text>
<polygon fill="#ffffff" stroke="transparent" points="47,-309.2 47,-328.2 99,-328.2 99,-309.2 47,-309.2"/>
<polygon fill="none" stroke="#000000" points="47,-309.2 47,-328.2 99,-328.2 99,-309.2 47,-309.2"/>
<text text-anchor="start" x="63.6105" y="-315.3" font-family="Helvetica,sans-Serif" font-size="11.00" fill="#000000">2 rows</text>
<polygon fill="#ffffff" stroke="transparent" points="99,-309.2 99,-328.2 134,-328.2 134,-309.2 99,-309.2"/>
<polygon fill="none" stroke="#000000" points="99,-309.2 99,-328.2 134,-328.2 134,-309.2 99,-309.2"/>
<text text-anchor="start" x="115.4053" y="-315.3" font-family="Helvetica,sans-Serif" font-size="11.00" fill="#000000">2 &gt;</text>
</a>
</g>
</g>
<!-- com_location&#45;&gt;com_account -->
<g id="edge1" class="edge">
<title>com_location:w&#45;&gt;com_account:e</title>
<path fill="none" stroke="#000000" d="M492.6023,-582.7408C483.3523,-590.3725 481.3384,-605.4958 465,-611.2 343.3141,-653.684 273.7813,-693.9925 175,-611.2 95.0858,-544.2207 238.2713,-380.2 134,-380.2"/>
<polygon fill="#000000" stroke="#000000" points="498.8956,-580.6846 507.6181,-581.622 502.6978,-579.4423 506.5,-578.2 506.5,-578.2 506.5,-578.2 502.6978,-579.4423 505.3819,-574.778 498.8956,-580.6846 498.8956,-580.6846"/>
<ellipse fill="none" stroke="#000000" cx="495.8538" cy="-581.6784" rx="3.2" ry="3.2"/>
</g>
<!-- com_location_group -->
<g id="node3" class="node">
<title>com_location_group</title>
<g id="a_node3"><a xlink:href="../../tables/com_location_group.html" xlink:title="com_location_group" target="_top">
<polygon fill="#ffffff" stroke="transparent" points="183,-38.2 183,-546.2 457,-546.2 457,-38.2 183,-38.2"/>
<polygon fill="#f5f5f5" stroke="transparent" points="185,-521.2 185,-544.2 455,-544.2 455,-521.2 185,-521.2"/>
<polygon fill="none" stroke="#000000" points="185,-521.2 185,-544.2 455,-544.2 455,-521.2 185,-521.2"/>
<text text-anchor="start" x="190" y="-529.8" font-family="Helvetica,sans-Serif" font-weight="bold" font-size="11.00" fill="#000000">com_location_group</text>
<text text-anchor="start" x="420.0437" y="-529.3" font-family="Helvetica,sans-Serif" font-size="11.00" fill="#000000">[table]</text>
<polygon fill="none" stroke="#000000" points="185,-499.2 185,-521.2 371,-521.2 371,-499.2 185,-499.2"/>
<image xlink:href="../../images/primaryKeys.png" width="11px" height="12px" preserveAspectRatio="xMinYMin meet" x="190" y="-516.2"/>
<text text-anchor="start" x="205" y="-506.3" font-family="Helvetica,sans-Serif" font-size="11.00" fill="#000000">c_pk</text>
<polygon fill="none" stroke="#000000" points="371,-499.2 371,-521.2 455,-521.2 455,-499.2 371,-499.2"/>
<text text-anchor="start" x="374" y="-506.9" font-family="Helvetica,sans-Serif" font-size="11.00" fill="#000000">int8[19]</text>
<polygon fill="none" stroke="#000000" points="185,-477.2 185,-499.2 371,-499.2 371,-477.2 185,-477.2"/>
<text text-anchor="start" x="205" y="-484.3" font-family="Helvetica,sans-Serif" font-size="11.00" fill="#000000">c_created</text>
<polygon fill="none" stroke="#000000" points="371,-477.2 371,-499.2 455,-499.2 455,-477.2 371,-477.2"/>
<text text-anchor="start" x="373.8807" y="-484.9" font-family="Helvetica,sans-Serif" font-size="11.00" fill="#000000">timestamp[29,6]</text>
<polygon fill="none" stroke="#000000" points="185,-455.2 185,-477.2 371,-477.2 371,-455.2 185,-455.2"/>
<text text-anchor="start" x="205" y="-462.3" font-family="Helvetica,sans-Serif" font-size="11.00" fill="#000000">c_created_by</text>
<polygon fill="none" stroke="#000000" points="371,-455.2 371,-477.2 455,-477.2 455,-455.2 371,-455.2"/>
<text text-anchor="start" x="374" y="-462.9" font-family="Helvetica,sans-Serif" font-size="11.00" fill="#000000">varchar[255]</text>
<polygon fill="none" stroke="#000000" points="185,-433.2 185,-455.2 371,-455.2 371,-433.2 185,-433.2"/>
<text text-anchor="start" x="205" y="-440.3" font-family="Helvetica,sans-Serif" font-size="11.00" fill="#000000">c_updated_by</text>
<polygon fill="none" stroke="#000000" points="371,-433.2 371,-455.2 455,-455.2 455,-433.2 371,-433.2"/>
<text text-anchor="start" x="374" y="-440.9" font-family="Helvetica,sans-Serif" font-size="11.00" fill="#000000">varchar[255]</text>
<polygon fill="none" stroke="#000000" points="185,-411.2 185,-433.2 371,-433.2 371,-411.2 185,-411.2"/>
<text text-anchor="start" x="205" y="-418.3" font-family="Helvetica,sans-Serif" font-size="11.00" fill="#000000">c_updated</text>
<polygon fill="none" stroke="#000000" points="371,-411.2 371,-433.2 455,-433.2 455,-411.2 371,-411.2"/>
<text text-anchor="start" x="373.8807" y="-418.9" font-family="Helvetica,sans-Serif" font-size="11.00" fill="#000000">timestamp[29,6]</text>
<polygon fill="none" stroke="#000000" points="185,-389.2 185,-411.2 371,-411.2 371,-389.2 185,-389.2"/>
<text text-anchor="start" x="205" y="-396.3" font-family="Helvetica,sans-Serif" font-size="11.00" fill="#000000">c_ol</text>
<polygon fill="none" stroke="#000000" points="371,-389.2 371,-411.2 455,-411.2 455,-389.2 371,-389.2"/>
<text text-anchor="start" x="374" y="-396.9" font-family="Helvetica,sans-Serif" font-size="11.00" fill="#000000">int8[19]</text>
<polygon fill="#ffffff" stroke="transparent" points="185,-367.2 185,-389.2 371,-389.2 371,-367.2 185,-367.2"/>
<polygon fill="none" stroke="#000000" points="185,-367.2 185,-389.2 371,-389.2 371,-367.2 185,-367.2"/>
<text text-anchor="start" x="205" y="-374.3" font-family="Helvetica,sans-Serif" font-size="11.00" fill="#000000">c_pid</text>
<polygon fill="none" stroke="#000000" points="371,-367.2 371,-389.2 455,-389.2 455,-367.2 371,-367.2"/>
<text text-anchor="start" x="374" y="-374.9" font-family="Helvetica,sans-Serif" font-size="11.00" fill="#000000">varchar[255]</text>
<polygon fill="none" stroke="#000000" points="185,-345.2 185,-367.2 371,-367.2 371,-345.2 185,-345.2"/>
<text text-anchor="start" x="205" y="-352.3" font-family="Helvetica,sans-Serif" font-size="11.00" fill="#000000">c_description</text>
<polygon fill="none" stroke="#000000" points="371,-345.2 371,-367.2 455,-367.2 455,-345.2 371,-345.2"/>
<text text-anchor="start" x="374" y="-352.9" font-family="Helvetica,sans-Serif" font-size="11.00" fill="#000000">varchar[255]</text>
<polygon fill="none" stroke="#000000" points="185,-323.2 185,-345.2 371,-345.2 371,-323.2 185,-323.2"/>
<text text-anchor="start" x="205" y="-330.3" font-family="Helvetica,sans-Serif" font-size="11.00" fill="#000000">c_group_state_in</text>
<polygon fill="none" stroke="#000000" points="371,-323.2 371,-345.2 455,-345.2 455,-323.2 371,-323.2"/>
<text text-anchor="start" x="374" y="-330.9" font-family="Helvetica,sans-Serif" font-size="11.00" fill="#000000">varchar[255]</text>
<polygon fill="none" stroke="#000000" points="185,-301.2 185,-323.2 371,-323.2 371,-301.2 185,-301.2"/>
<text text-anchor="start" x="205" y="-308.3" font-family="Helvetica,sans-Serif" font-size="11.00" fill="#000000">c_group_state_out</text>
<polygon fill="none" stroke="#000000" points="371,-301.2 371,-323.2 455,-323.2 455,-301.2 371,-301.2"/>
<text text-anchor="start" x="374" y="-308.9" font-family="Helvetica,sans-Serif" font-size="11.00" fill="#000000">varchar[255]</text>
<polygon fill="none" stroke="#000000" points="185,-279.2 185,-301.2 371,-301.2 371,-279.2 185,-279.2"/>
<text text-anchor="start" x="205" y="-286.3" font-family="Helvetica,sans-Serif" font-size="11.00" fill="#000000">c_group_type</text>
<polygon fill="none" stroke="#000000" points="371,-279.2 371,-301.2 455,-301.2 455,-279.2 371,-279.2"/>
<text text-anchor="start" x="374" y="-286.9" font-family="Helvetica,sans-Serif" font-size="11.00" fill="#000000">varchar[255]</text>
<polygon fill="none" stroke="#000000" points="185,-257.2 185,-279.2 371,-279.2 371,-257.2 185,-257.2"/>
<text text-anchor="start" x="205" y="-264.3" font-family="Helvetica,sans-Serif" font-size="11.00" fill="#000000">c_group_counting_active</text>
<polygon fill="none" stroke="#000000" points="371,-257.2 371,-279.2 455,-279.2 455,-257.2 371,-257.2"/>
<text text-anchor="start" x="374" y="-264.9" font-family="Helvetica,sans-Serif" font-size="11.00" fill="#000000">bool[1]</text>
<polygon fill="none" stroke="#000000" points="185,-235.2 185,-257.2 371,-257.2 371,-235.2 185,-235.2"/>
<text text-anchor="start" x="205" y="-242.3" font-family="Helvetica,sans-Serif" font-size="11.00" fill="#000000">c_max_fill_level</text>
<polygon fill="none" stroke="#000000" points="371,-235.2 371,-257.2 455,-257.2 455,-235.2 371,-235.2"/>
<text text-anchor="start" x="374" y="-242.9" font-family="Helvetica,sans-Serif" font-size="11.00" fill="#000000">float4[8,8]</text>
<polygon fill="#ffffff" stroke="transparent" points="185,-213.2 185,-235.2 371,-235.2 371,-213.2 185,-213.2"/>
<polygon fill="none" stroke="#000000" points="185,-213.2 185,-235.2 371,-235.2 371,-213.2 185,-213.2"/>
<text text-anchor="start" x="205" y="-220.3" font-family="Helvetica,sans-Serif" font-size="11.00" fill="#000000">c_name</text>
<polygon fill="none" stroke="#000000" points="371,-213.2 371,-235.2 455,-235.2 455,-213.2 371,-213.2"/>
<text text-anchor="start" x="374" y="-220.9" font-family="Helvetica,sans-Serif" font-size="11.00" fill="#000000">varchar[255]</text>
<polygon fill="none" stroke="#000000" points="185,-191.2 185,-213.2 371,-213.2 371,-191.2 185,-191.2"/>
<text text-anchor="start" x="205" y="-198.3" font-family="Helvetica,sans-Serif" font-size="11.00" fill="#000000">c_op_mode</text>
<polygon fill="none" stroke="#000000" points="371,-191.2 371,-213.2 455,-213.2 455,-191.2 371,-191.2"/>
<text text-anchor="start" x="374" y="-198.9" font-family="Helvetica,sans-Serif" font-size="11.00" fill="#000000">varchar[255]</text>
<polygon fill="none" stroke="#000000" points="185,-169.2 185,-191.2 371,-191.2 371,-169.2 185,-169.2"/>
<text text-anchor="start" x="205" y="-176.3" font-family="Helvetica,sans-Serif" font-size="11.00" fill="#000000">c_system_code</text>
<polygon fill="none" stroke="#000000" points="371,-169.2 371,-191.2 455,-191.2 455,-169.2 371,-169.2"/>
<text text-anchor="start" x="374" y="-176.9" font-family="Helvetica,sans-Serif" font-size="11.00" fill="#000000">varchar[255]</text>
<polygon fill="none" stroke="#000000" points="185,-147.2 185,-169.2 371,-169.2 371,-147.2 185,-147.2"/>
<text text-anchor="start" x="205" y="-154.3" font-family="Helvetica,sans-Serif" font-size="11.00" fill="#000000">c_system_name</text>
<polygon fill="none" stroke="#000000" points="371,-147.2 371,-169.2 455,-169.2 455,-147.2 371,-147.2"/>
<text text-anchor="start" x="374" y="-154.9" font-family="Helvetica,sans-Serif" font-size="11.00" fill="#000000">varchar[255]</text>
<polygon fill="none" stroke="#000000" points="185,-125.2 185,-147.2 371,-147.2 371,-125.2 185,-125.2"/>
<image xlink:href="../../images/foreignKeys.png" width="11px" height="12px" preserveAspectRatio="xMinYMin meet" x="190" y="-142.2"/>
<text text-anchor="start" x="205" y="-132.3" font-family="Helvetica,sans-Serif" font-size="11.00" fill="#000000">c_account</text>
<polygon fill="none" stroke="#000000" points="371,-125.2 371,-147.2 455,-147.2 455,-125.2 371,-125.2"/>
<text text-anchor="start" x="374" y="-132.9" font-family="Helvetica,sans-Serif" font-size="11.00" fill="#000000">varchar[255]</text>
<polygon fill="none" stroke="#000000" points="185,-103.2 185,-125.2 371,-125.2 371,-103.2 185,-103.2"/>
<image xlink:href="../../images/foreignKeys.png" width="11px" height="12px" preserveAspectRatio="xMinYMin meet" x="190" y="-120.2"/>
<text text-anchor="start" x="205" y="-110.3" font-family="Helvetica,sans-Serif" font-size="11.00" fill="#000000">c_parent</text>
<polygon fill="none" stroke="#000000" points="371,-103.2 371,-125.2 455,-125.2 455,-103.2 371,-103.2"/>
<text text-anchor="start" x="374" y="-110.9" font-family="Helvetica,sans-Serif" font-size="11.00" fill="#000000">int8[19]</text>
<polygon fill="none" stroke="#000000" points="185,-81.2 185,-103.2 371,-103.2 371,-81.2 185,-81.2"/>
<image xlink:href="../../images/foreignKeys.png" width="11px" height="12px" preserveAspectRatio="xMinYMin meet" x="190" y="-98.2"/>
<text text-anchor="start" x="205" y="-88.3" font-family="Helvetica,sans-Serif" font-size="11.00" fill="#000000">c_in_locker</text>
<polygon fill="none" stroke="#000000" points="371,-81.2 371,-103.2 455,-103.2 455,-81.2 371,-81.2"/>
<text text-anchor="start" x="374" y="-88.9" font-family="Helvetica,sans-Serif" font-size="11.00" fill="#000000">int8[19]</text>
<polygon fill="none" stroke="#000000" points="185,-59.2 185,-81.2 371,-81.2 371,-59.2 185,-59.2"/>
<image xlink:href="../../images/foreignKeys.png" width="11px" height="12px" preserveAspectRatio="xMinYMin meet" x="190" y="-76.2"/>
<text text-anchor="start" x="205" y="-66.3" font-family="Helvetica,sans-Serif" font-size="11.00" fill="#000000">c_out_locker</text>
<polygon fill="none" stroke="#000000" points="371,-59.2 371,-81.2 455,-81.2 455,-59.2 371,-59.2"/>
<text text-anchor="start" x="374" y="-66.9" font-family="Helvetica,sans-Serif" font-size="11.00" fill="#000000">int8[19]</text>
<polygon fill="#ffffff" stroke="transparent" points="185,-40.2 185,-59.2 266,-59.2 266,-40.2 185,-40.2"/>
<polygon fill="none" stroke="#000000" points="185,-40.2 185,-59.2 266,-59.2 266,-40.2 185,-40.2"/>
<text text-anchor="start" x="188" y="-46.3" font-family="Helvetica,sans-Serif" font-size="11.00" fill="#000000">&lt; 4</text>
<polygon fill="#ffffff" stroke="transparent" points="266,-40.2 266,-59.2 371,-59.2 371,-40.2 266,-40.2"/>
<polygon fill="none" stroke="#000000" points="266,-40.2 266,-59.2 371,-59.2 371,-40.2 266,-40.2"/>
<text text-anchor="start" x="329.4956" y="-46.3" font-family="Helvetica,sans-Serif" font-size="11.00" fill="#000000">42 rows</text>
<polygon fill="#ffffff" stroke="transparent" points="371,-40.2 371,-59.2 455,-59.2 455,-40.2 371,-40.2"/>
<polygon fill="none" stroke="#000000" points="371,-40.2 371,-59.2 455,-59.2 455,-40.2 371,-40.2"/>
<text text-anchor="start" x="436.4053" y="-46.3" font-family="Helvetica,sans-Serif" font-size="11.00" fill="#000000">4 &gt;</text>
<polygon fill="none" stroke="#000000" stroke-width="2" points="184,-39.2 184,-545.2 456,-545.2 456,-39.2 184,-39.2"/>
</a>
</g>
</g>
<!-- com_location&#45;&gt;com_location_group -->
<g id="edge2" class="edge">
<title>com_location:w&#45;&gt;com_location_group:e</title>
<path fill="none" stroke="#000000" d="M492.5559,-551.6212C478.1217,-539.986 479.6959,-510.2 455,-510.2"/>
<polygon fill="#000000" stroke="#000000" points="498.8993,-553.7041 505.3769,-559.6203 502.6996,-554.9521 506.5,-556.2 506.5,-556.2 506.5,-556.2 502.6996,-554.9521 507.6231,-552.7797 498.8993,-553.7041 498.8993,-553.7041"/>
<ellipse fill="none" stroke="#000000" cx="495.859" cy="-552.7058" rx="3.2" ry="3.2"/>
</g>
<!-- com_location_group&#45;&gt;com_account -->
<g id="edge3" class="edge">
<title>com_location_group:w&#45;&gt;com_account:e</title>
<path fill="none" stroke="#000000" d="M170.2251,-138.0237C90.8106,-160.352 239.162,-380.2 134,-380.2"/>
<polygon fill="#000000" stroke="#000000" points="177.0603,-137.1801 185.441,-139.7729 181.0301,-136.69 185,-136.2 185,-136.2 185,-136.2 181.0301,-136.69 184.559,-132.6271 177.0603,-137.1801 177.0603,-137.1801"/>
<ellipse fill="none" stroke="#000000" cx="173.8844" cy="-137.5721" rx="3.2" ry="3.2"/>
</g>
<!-- com_location_group&#45;&gt;com_location_group -->
<g id="edge4" class="edge">
<title>com_location_group:w&#45;&gt;com_location_group:e</title>
<path fill="none" stroke="#000000" d="M177.6933,-104.7342C123.3314,-213.1195 131.0801,-563.2 320,-563.2 517,-563.2 517,-554.5333 455,-510.2"/>
<polygon fill="#000000" stroke="#000000" points="180.971,-99.1114 188.1101,-94.013 182.9855,-95.6557 185,-92.2 185,-92.2 185,-92.2 182.9855,-95.6557 181.8899,-90.387 180.971,-99.1114 180.971,-99.1114"/>
<ellipse fill="none" stroke="#000000" cx="179.3594" cy="-101.876" rx="3.2" ry="3.2"/>
</g>
<!-- com_location_group&#45;&gt;com_location_group -->
<g id="edge5" class="edge">
<title>com_location_group:w&#45;&gt;com_location_group:e</title>
<path fill="none" stroke="#000000" d="M177.6933,-82.8422C123.3314,-192.8872 131.0801,-563.2 320,-563.2 517,-563.2 517,-554.5333 455,-510.2"/>
<polygon fill="#000000" stroke="#000000" points="180.9968,-77.1264 188.1169,-72.0014 182.9984,-73.6632 185,-70.2 185,-70.2 185,-70.2 182.9984,-73.6632 181.8831,-68.3986 180.9968,-77.1264 180.9968,-77.1264"/>
<ellipse fill="none" stroke="#000000" cx="179.3955" cy="-79.8969" rx="3.2" ry="3.2"/>
</g>
<!-- com_location_group&#45;&gt;com_location_group -->
<g id="edge6" class="edge">
<title>com_location_group:w&#45;&gt;com_location_group:e</title>
<path fill="none" stroke="#000000" d="M177.6933,-126.6262C123.3314,-233.3518 131.0801,-563.2 320,-563.2 517,-563.2 517,-554.5333 455,-510.2"/>
<polygon fill="#000000" stroke="#000000" points="180.945,-121.0962 188.1033,-116.0248 182.9725,-117.6481 185,-114.2 185,-114.2 185,-114.2 182.9725,-117.6481 181.8967,-112.3752 180.945,-121.0962 180.945,-121.0962"/>
<ellipse fill="none" stroke="#000000" cx="179.323" cy="-123.8546" rx="3.2" ry="3.2"/>
</g>
</g>
</svg>
