<?xml version="1.0" encoding="UTF-8" standalone="no"?>
<!DOCTYPE svg PUBLIC "-//W3C//DTD SVG 1.1//EN"
 "http://www.w3.org/Graphics/SVG/1.1/DTD/svg11.dtd">
<!-- Generated by graphviz version 2.40.1 (20161225.0304)
 -->
<!-- Title: oneDegreeRelationshipsDiagram Pages: 1 -->
<svg width="574pt" height="823pt"
 viewBox="0.00 0.00 574.00 822.70" xmlns="http://www.w3.org/2000/svg" xmlns:xlink="http://www.w3.org/1999/xlink">
<g id="graph0" class="graph" transform="scale(1 1) rotate(0) translate(4 818.7)">
<title>oneDegreeRelationshipsDiagram</title>
<polygon fill="#ffffff" stroke="transparent" points="-4,4 -4,-818.7 570,-818.7 570,4 -4,4"/>
<text text-anchor="middle" x="72.4936" y="-7.3" font-family="Helvetica,sans-Serif" font-size="11.00" fill="#000000">Generated by SchemaSpy</text>
<!-- com_transport_unit -->
<g id="node1" class="node">
<title>com_transport_unit</title>
<g id="a_node1"><a xlink:href="../../tables/com_transport_unit.html" xlink:title="com_transport_unit" target="_top">
<polygon fill="#ffffff" stroke="transparent" points="359.5,-595.7 359.5,-810.7 531.5,-810.7 531.5,-595.7 359.5,-595.7"/>
<polygon fill="#f5f5f5" stroke="transparent" points="359.5,-787.2 359.5,-810.2 531.5,-810.2 531.5,-787.2 359.5,-787.2"/>
<polygon fill="none" stroke="#000000" points="359.5,-787.2 359.5,-810.2 531.5,-810.2 531.5,-787.2 359.5,-787.2"/>
<text text-anchor="start" x="364.5" y="-795.8" font-family="Helvetica,sans-Serif" font-weight="bold" font-size="11.00" fill="#000000">com_transport_unit</text>
<text text-anchor="start" x="496.5437" y="-795.3" font-family="Helvetica,sans-Serif" font-size="11.00" fill="#000000">[table]</text>
<polygon fill="none" stroke="#000000" points="359.5,-765.2 359.5,-787.2 531.5,-787.2 531.5,-765.2 359.5,-765.2"/>
<image xlink:href="../../images/primaryKeys.png" width="11px" height="12px" preserveAspectRatio="xMinYMin meet" x="364.5" y="-782.2"/>
<text text-anchor="start" x="379.5" y="-772.3" font-family="Helvetica,sans-Serif" font-size="11.00" fill="#000000">c_pk</text>
<polygon fill="#ffffff" stroke="transparent" points="359.5,-743.2 359.5,-765.2 531.5,-765.2 531.5,-743.2 359.5,-743.2"/>
<polygon fill="none" stroke="#000000" points="359.5,-743.2 359.5,-765.2 531.5,-765.2 531.5,-743.2 359.5,-743.2"/>
<text text-anchor="start" x="379.5" y="-750.3" font-family="Helvetica,sans-Serif" font-size="11.00" fill="#000000">c_pid</text>
<polygon fill="#ffffff" stroke="transparent" points="359.5,-721.2 359.5,-743.2 531.5,-743.2 531.5,-721.2 359.5,-721.2"/>
<polygon fill="none" stroke="#000000" points="359.5,-721.2 359.5,-743.2 531.5,-743.2 531.5,-721.2 359.5,-721.2"/>
<text text-anchor="start" x="379.5" y="-728.3" font-family="Helvetica,sans-Serif" font-size="11.00" fill="#000000">c_barcode</text>
<polygon fill="none" stroke="#000000" points="359.5,-699.2 359.5,-721.2 531.5,-721.2 531.5,-699.2 359.5,-699.2"/>
<image xlink:href="../../images/foreignKeys.png" width="11px" height="12px" preserveAspectRatio="xMinYMin meet" x="364.5" y="-716.2"/>
<text text-anchor="start" x="379.5" y="-706.3" font-family="Helvetica,sans-Serif" font-size="11.00" fill="#000000">c_actual_location</text>
<polygon fill="none" stroke="#000000" points="359.5,-677.2 359.5,-699.2 531.5,-699.2 531.5,-677.2 359.5,-677.2"/>
<image xlink:href="../../images/foreignKeys.png" width="11px" height="12px" preserveAspectRatio="xMinYMin meet" x="364.5" y="-694.2"/>
<text text-anchor="start" x="379.5" y="-684.3" font-family="Helvetica,sans-Serif" font-size="11.00" fill="#000000">c_parent</text>
<polygon fill="none" stroke="#000000" points="359.5,-655.2 359.5,-677.2 531.5,-677.2 531.5,-655.2 359.5,-655.2"/>
<image xlink:href="../../images/foreignKeys.png" width="11px" height="12px" preserveAspectRatio="xMinYMin meet" x="364.5" y="-672.2"/>
<text text-anchor="start" x="379.5" y="-662.3" font-family="Helvetica,sans-Serif" font-size="11.00" fill="#000000">c_target_location</text>
<polygon fill="none" stroke="#000000" points="359.5,-633.2 359.5,-655.2 531.5,-655.2 531.5,-633.2 359.5,-633.2"/>
<image xlink:href="../../images/foreignKeys.png" width="11px" height="12px" preserveAspectRatio="xMinYMin meet" x="364.5" y="-650.2"/>
<text text-anchor="start" x="379.5" y="-640.3" font-family="Helvetica,sans-Serif" font-size="11.00" fill="#000000">c_transport_unit_type</text>
<polygon fill="none" stroke="#000000" points="359.5,-614.2 359.5,-633.2 531.5,-633.2 531.5,-614.2 359.5,-614.2"/>
<text text-anchor="start" x="362.5" y="-620.3" font-family="Helvetica,sans-Serif" font-size="11.00" fill="#000000">...</text>
<polygon fill="#ffffff" stroke="transparent" points="359.5,-595.2 359.5,-614.2 426.5,-614.2 426.5,-595.2 359.5,-595.2"/>
<polygon fill="none" stroke="#000000" points="359.5,-595.2 359.5,-614.2 426.5,-614.2 426.5,-595.2 359.5,-595.2"/>
<text text-anchor="start" x="362.5" y="-601.3" font-family="Helvetica,sans-Serif" font-size="11.00" fill="#000000">&lt; 4</text>
<polygon fill="#ffffff" stroke="transparent" points="426.5,-595.2 426.5,-614.2 487.5,-614.2 487.5,-595.2 426.5,-595.2"/>
<polygon fill="none" stroke="#000000" points="426.5,-595.2 426.5,-614.2 487.5,-614.2 487.5,-595.2 426.5,-595.2"/>
<text text-anchor="start" x="452.1105" y="-601.3" font-family="Helvetica,sans-Serif" font-size="11.00" fill="#000000">2 rows</text>
<polygon fill="#ffffff" stroke="transparent" points="487.5,-595.2 487.5,-614.2 531.5,-614.2 531.5,-595.2 487.5,-595.2"/>
<polygon fill="none" stroke="#000000" points="487.5,-595.2 487.5,-614.2 531.5,-614.2 531.5,-595.2 487.5,-595.2"/>
<text text-anchor="start" x="512.9053" y="-601.3" font-family="Helvetica,sans-Serif" font-size="11.00" fill="#000000">3 &gt;</text>
</a>
</g>
</g>
<!-- com_transport_unit_type -->
<g id="node2" class="node">
<title>com_transport_unit_type</title>
<g id="a_node2"><a xlink:href="../../tables/com_transport_unit_type.html" xlink:title="com_transport_unit_type" target="_top">
<polygon fill="#ffffff" stroke="transparent" points="8,-38.2 8,-436.2 284,-436.2 284,-38.2 8,-38.2"/>
<polygon fill="#f5f5f5" stroke="transparent" points="10,-411.2 10,-434.2 282,-434.2 282,-411.2 10,-411.2"/>
<polygon fill="none" stroke="#000000" points="10,-411.2 10,-434.2 282,-434.2 282,-411.2 10,-411.2"/>
<text text-anchor="start" x="15" y="-419.8" font-family="Helvetica,sans-Serif" font-weight="bold" font-size="11.00" fill="#000000">com_transport_unit_type</text>
<text text-anchor="start" x="247.0437" y="-419.3" font-family="Helvetica,sans-Serif" font-size="11.00" fill="#000000">[table]</text>
<polygon fill="none" stroke="#000000" points="10,-389.2 10,-411.2 198,-411.2 198,-389.2 10,-389.2"/>
<image xlink:href="../../images/primaryKeys.png" width="11px" height="12px" preserveAspectRatio="xMinYMin meet" x="15" y="-406.2"/>
<text text-anchor="start" x="30" y="-396.3" font-family="Helvetica,sans-Serif" font-size="11.00" fill="#000000">c_pk</text>
<polygon fill="none" stroke="#000000" points="198,-389.2 198,-411.2 282,-411.2 282,-389.2 198,-389.2"/>
<text text-anchor="start" x="201" y="-396.9" font-family="Helvetica,sans-Serif" font-size="11.00" fill="#000000">int8[19]</text>
<polygon fill="none" stroke="#000000" points="10,-367.2 10,-389.2 198,-389.2 198,-367.2 10,-367.2"/>
<text text-anchor="start" x="30" y="-374.3" font-family="Helvetica,sans-Serif" font-size="11.00" fill="#000000">c_created</text>
<polygon fill="none" stroke="#000000" points="198,-367.2 198,-389.2 282,-389.2 282,-367.2 198,-367.2"/>
<text text-anchor="start" x="200.8807" y="-374.9" font-family="Helvetica,sans-Serif" font-size="11.00" fill="#000000">timestamp[29,6]</text>
<polygon fill="none" stroke="#000000" points="10,-345.2 10,-367.2 198,-367.2 198,-345.2 10,-345.2"/>
<text text-anchor="start" x="30" y="-352.3" font-family="Helvetica,sans-Serif" font-size="11.00" fill="#000000">c_created_by</text>
<polygon fill="none" stroke="#000000" points="198,-345.2 198,-367.2 282,-367.2 282,-345.2 198,-345.2"/>
<text text-anchor="start" x="201" y="-352.9" font-family="Helvetica,sans-Serif" font-size="11.00" fill="#000000">varchar[255]</text>
<polygon fill="none" stroke="#000000" points="10,-323.2 10,-345.2 198,-345.2 198,-323.2 10,-323.2"/>
<text text-anchor="start" x="30" y="-330.3" font-family="Helvetica,sans-Serif" font-size="11.00" fill="#000000">c_updated_by</text>
<polygon fill="none" stroke="#000000" points="198,-323.2 198,-345.2 282,-345.2 282,-323.2 198,-323.2"/>
<text text-anchor="start" x="201" y="-330.9" font-family="Helvetica,sans-Serif" font-size="11.00" fill="#000000">varchar[255]</text>
<polygon fill="none" stroke="#000000" points="10,-301.2 10,-323.2 198,-323.2 198,-301.2 10,-301.2"/>
<text text-anchor="start" x="30" y="-308.3" font-family="Helvetica,sans-Serif" font-size="11.00" fill="#000000">c_updated</text>
<polygon fill="none" stroke="#000000" points="198,-301.2 198,-323.2 282,-323.2 282,-301.2 198,-301.2"/>
<text text-anchor="start" x="200.8807" y="-308.9" font-family="Helvetica,sans-Serif" font-size="11.00" fill="#000000">timestamp[29,6]</text>
<polygon fill="none" stroke="#000000" points="10,-279.2 10,-301.2 198,-301.2 198,-279.2 10,-279.2"/>
<text text-anchor="start" x="30" y="-286.3" font-family="Helvetica,sans-Serif" font-size="11.00" fill="#000000">c_ol</text>
<polygon fill="none" stroke="#000000" points="198,-279.2 198,-301.2 282,-301.2 282,-279.2 198,-279.2"/>
<text text-anchor="start" x="201" y="-286.9" font-family="Helvetica,sans-Serif" font-size="11.00" fill="#000000">int8[19]</text>
<polygon fill="#ffffff" stroke="transparent" points="10,-257.2 10,-279.2 198,-279.2 198,-257.2 10,-257.2"/>
<polygon fill="none" stroke="#000000" points="10,-257.2 10,-279.2 198,-279.2 198,-257.2 10,-257.2"/>
<text text-anchor="start" x="30" y="-264.3" font-family="Helvetica,sans-Serif" font-size="11.00" fill="#000000">c_pid</text>
<polygon fill="none" stroke="#000000" points="198,-257.2 198,-279.2 282,-279.2 282,-257.2 198,-257.2"/>
<text text-anchor="start" x="201" y="-264.9" font-family="Helvetica,sans-Serif" font-size="11.00" fill="#000000">varchar[255]</text>
<polygon fill="none" stroke="#000000" points="10,-235.2 10,-257.2 198,-257.2 198,-235.2 10,-235.2"/>
<text text-anchor="start" x="30" y="-242.3" font-family="Helvetica,sans-Serif" font-size="11.00" fill="#000000">c_compatibility</text>
<polygon fill="none" stroke="#000000" points="198,-235.2 198,-257.2 282,-257.2 282,-235.2 198,-235.2"/>
<text text-anchor="start" x="201" y="-242.9" font-family="Helvetica,sans-Serif" font-size="11.00" fill="#000000">varchar[255]</text>
<polygon fill="none" stroke="#000000" points="10,-213.2 10,-235.2 198,-235.2 198,-213.2 10,-213.2"/>
<text text-anchor="start" x="30" y="-220.3" font-family="Helvetica,sans-Serif" font-size="11.00" fill="#000000">c_description</text>
<polygon fill="none" stroke="#000000" points="198,-213.2 198,-235.2 282,-235.2 282,-213.2 198,-213.2"/>
<text text-anchor="start" x="201" y="-220.9" font-family="Helvetica,sans-Serif" font-size="11.00" fill="#000000">varchar[255]</text>
<polygon fill="none" stroke="#000000" points="10,-191.2 10,-213.2 198,-213.2 198,-191.2 10,-191.2"/>
<text text-anchor="start" x="30" y="-198.3" font-family="Helvetica,sans-Serif" font-size="11.00" fill="#000000">c_height</text>
<polygon fill="none" stroke="#000000" points="198,-191.2 198,-213.2 282,-213.2 282,-191.2 198,-191.2"/>
<text text-anchor="start" x="201" y="-198.9" font-family="Helvetica,sans-Serif" font-size="11.00" fill="#000000">int4[10]</text>
<polygon fill="none" stroke="#000000" points="10,-169.2 10,-191.2 198,-191.2 198,-169.2 10,-169.2"/>
<text text-anchor="start" x="30" y="-176.3" font-family="Helvetica,sans-Serif" font-size="11.00" fill="#000000">c_length</text>
<polygon fill="none" stroke="#000000" points="198,-169.2 198,-191.2 282,-191.2 282,-169.2 198,-169.2"/>
<text text-anchor="start" x="201" y="-176.9" font-family="Helvetica,sans-Serif" font-size="11.00" fill="#000000">int4[10]</text>
<polygon fill="none" stroke="#000000" points="10,-147.2 10,-169.2 198,-169.2 198,-147.2 10,-147.2"/>
<text text-anchor="start" x="30" y="-154.3" font-family="Helvetica,sans-Serif" font-size="11.00" fill="#000000">c_payload</text>
<polygon fill="none" stroke="#000000" points="198,-147.2 198,-169.2 282,-169.2 282,-147.2 198,-147.2"/>
<text text-anchor="start" x="201" y="-154.9" font-family="Helvetica,sans-Serif" font-size="11.00" fill="#000000">numeric[38,2]</text>
<polygon fill="#ffffff" stroke="transparent" points="10,-125.2 10,-147.2 198,-147.2 198,-125.2 10,-125.2"/>
<polygon fill="none" stroke="#000000" points="10,-125.2 10,-147.2 198,-147.2 198,-125.2 10,-125.2"/>
<text text-anchor="start" x="30" y="-132.3" font-family="Helvetica,sans-Serif" font-size="11.00" fill="#000000">c_type</text>
<polygon fill="none" stroke="#000000" points="198,-125.2 198,-147.2 282,-147.2 282,-125.2 198,-125.2"/>
<text text-anchor="start" x="201" y="-132.9" font-family="Helvetica,sans-Serif" font-size="11.00" fill="#000000">varchar[255]</text>
<polygon fill="none" stroke="#000000" points="10,-103.2 10,-125.2 198,-125.2 198,-103.2 10,-103.2"/>
<text text-anchor="start" x="30" y="-110.3" font-family="Helvetica,sans-Serif" font-size="11.00" fill="#000000">c_weight_max</text>
<polygon fill="none" stroke="#000000" points="198,-103.2 198,-125.2 282,-125.2 282,-103.2 198,-103.2"/>
<text text-anchor="start" x="201" y="-110.9" font-family="Helvetica,sans-Serif" font-size="11.00" fill="#000000">numeric[38,2]</text>
<polygon fill="none" stroke="#000000" points="10,-81.2 10,-103.2 198,-103.2 198,-81.2 10,-81.2"/>
<text text-anchor="start" x="30" y="-88.3" font-family="Helvetica,sans-Serif" font-size="11.00" fill="#000000">c_weight_tare</text>
<polygon fill="none" stroke="#000000" points="198,-81.2 198,-103.2 282,-103.2 282,-81.2 198,-81.2"/>
<text text-anchor="start" x="201" y="-88.9" font-family="Helvetica,sans-Serif" font-size="11.00" fill="#000000">numeric[38,2]</text>
<polygon fill="none" stroke="#000000" points="10,-59.2 10,-81.2 198,-81.2 198,-59.2 10,-59.2"/>
<text text-anchor="start" x="30" y="-66.3" font-family="Helvetica,sans-Serif" font-size="11.00" fill="#000000">c_width</text>
<polygon fill="none" stroke="#000000" points="198,-59.2 198,-81.2 282,-81.2 282,-59.2 198,-59.2"/>
<text text-anchor="start" x="201" y="-66.9" font-family="Helvetica,sans-Serif" font-size="11.00" fill="#000000">int4[10]</text>
<polygon fill="#ffffff" stroke="transparent" points="10,-40.2 10,-59.2 95,-59.2 95,-40.2 10,-40.2"/>
<polygon fill="none" stroke="#000000" points="10,-40.2 10,-59.2 95,-59.2 95,-40.2 10,-40.2"/>
<text text-anchor="start" x="13" y="-46.3" font-family="Helvetica,sans-Serif" font-size="11.00" fill="#000000">&lt; 0</text>
<polygon fill="#ffffff" stroke="transparent" points="95,-40.2 95,-59.2 198,-59.2 198,-40.2 95,-40.2"/>
<polygon fill="none" stroke="#000000" points="95,-40.2 95,-59.2 198,-59.2 198,-40.2 95,-40.2"/>
<text text-anchor="start" x="162.6105" y="-46.3" font-family="Helvetica,sans-Serif" font-size="11.00" fill="#000000">2 rows</text>
<polygon fill="#ffffff" stroke="transparent" points="198,-40.2 198,-59.2 282,-59.2 282,-40.2 198,-40.2"/>
<polygon fill="none" stroke="#000000" points="198,-40.2 198,-59.2 282,-59.2 282,-40.2 198,-40.2"/>
<text text-anchor="start" x="263.4053" y="-46.3" font-family="Helvetica,sans-Serif" font-size="11.00" fill="#000000">4 &gt;</text>
<polygon fill="none" stroke="#000000" stroke-width="2" points="9,-39.2 9,-435.2 283,-435.2 283,-39.2 9,-39.2"/>
</a>
</g>
</g>
<!-- com_transport_unit&#45;&gt;com_transport_unit_type -->
<g id="edge1" class="edge">
<title>com_transport_unit:w&#45;&gt;com_transport_unit_type:e</title>
<path fill="none" stroke="#000000" d="M345.1614,-640.6698C331.2548,-631.8023 333.9505,-607.6905 325,-585.2 293.7869,-506.7687 366.414,-400.2 282,-400.2"/>
<polygon fill="#000000" stroke="#000000" points="351.732,-642.2875 358.6394,-647.6956 355.616,-643.2437 359.5,-644.2 359.5,-644.2 359.5,-644.2 355.616,-643.2437 360.3606,-640.7044 351.732,-642.2875 351.732,-642.2875"/>
<ellipse fill="none" stroke="#000000" cx="348.6248" cy="-641.5224" rx="3.2" ry="3.2"/>
</g>
<!-- com_type_placing_rule -->
<g id="node3" class="node">
<title>com_type_placing_rule</title>
<g id="a_node3"><a xlink:href="../../tables/com_type_placing_rule.html" xlink:title="com_type_placing_rule" target="_top">
<polygon fill="#ffffff" stroke="transparent" points="350,-425.7 350,-574.7 541,-574.7 541,-425.7 350,-425.7"/>
<polygon fill="#f5f5f5" stroke="transparent" points="350.5,-551.2 350.5,-574.2 541.5,-574.2 541.5,-551.2 350.5,-551.2"/>
<polygon fill="none" stroke="#000000" points="350.5,-551.2 350.5,-574.2 541.5,-574.2 541.5,-551.2 350.5,-551.2"/>
<text text-anchor="start" x="355.5" y="-559.8" font-family="Helvetica,sans-Serif" font-weight="bold" font-size="11.00" fill="#000000">com_type_placing_rule</text>
<text text-anchor="start" x="507.0219" y="-559.3" font-family="Helvetica,sans-Serif" font-size="11.00" fill="#000000">[table]</text>
<polygon fill="none" stroke="#000000" points="350.5,-529.2 350.5,-551.2 541.5,-551.2 541.5,-529.2 350.5,-529.2"/>
<image xlink:href="../../images/primaryKeys.png" width="11px" height="12px" preserveAspectRatio="xMinYMin meet" x="355.5" y="-546.2"/>
<text text-anchor="start" x="375.5" y="-536.3" font-family="Helvetica,sans-Serif" font-size="11.00" fill="#000000">c_pk</text>
<polygon fill="#ffffff" stroke="transparent" points="350.5,-507.2 350.5,-529.2 541.5,-529.2 541.5,-507.2 350.5,-507.2"/>
<polygon fill="none" stroke="#000000" points="350.5,-507.2 350.5,-529.2 541.5,-529.2 541.5,-507.2 350.5,-507.2"/>
<text text-anchor="start" x="375.5" y="-514.3" font-family="Helvetica,sans-Serif" font-size="11.00" fill="#000000">c_privilege_level</text>
<polygon fill="#ffffff" stroke="transparent" points="350.5,-485.2 350.5,-507.2 541.5,-507.2 541.5,-485.2 350.5,-485.2"/>
<polygon fill="none" stroke="#000000" points="350.5,-485.2 350.5,-507.2 541.5,-507.2 541.5,-485.2 350.5,-485.2"/>
<image xlink:href="../../images/foreignKeys.png" width="11px" height="12px" preserveAspectRatio="xMinYMin meet" x="355.5" y="-502.2"/>
<text text-anchor="start" x="375.5" y="-492.3" font-family="Helvetica,sans-Serif" font-size="11.00" fill="#000000">c_allowed_location_type</text>
<polygon fill="#ffffff" stroke="transparent" points="350.5,-463.2 350.5,-485.2 541.5,-485.2 541.5,-463.2 350.5,-463.2"/>
<polygon fill="none" stroke="#000000" points="350.5,-463.2 350.5,-485.2 541.5,-485.2 541.5,-463.2 350.5,-463.2"/>
<image xlink:href="../../images/foreignKeys.png" width="11px" height="12px" preserveAspectRatio="xMinYMin meet" x="355.5" y="-480.2"/>
<text text-anchor="start" x="375.5" y="-470.3" font-family="Helvetica,sans-Serif" font-size="11.00" fill="#000000">c_tut_id</text>
<polygon fill="none" stroke="#000000" points="350.5,-444.2 350.5,-463.2 541.5,-463.2 541.5,-444.2 350.5,-444.2"/>
<text text-anchor="start" x="353.5" y="-450.3" font-family="Helvetica,sans-Serif" font-size="11.00" fill="#000000">...</text>
<polygon fill="#ffffff" stroke="transparent" points="350.5,-425.2 350.5,-444.2 431.5,-444.2 431.5,-425.2 350.5,-425.2"/>
<polygon fill="none" stroke="#000000" points="350.5,-425.2 350.5,-444.2 431.5,-444.2 431.5,-425.2 350.5,-425.2"/>
<text text-anchor="start" x="353.5" y="-431.3" font-family="Helvetica,sans-Serif" font-size="11.00" fill="#000000">&lt; 2</text>
<polygon fill="#ffffff" stroke="transparent" points="431.5,-425.2 431.5,-444.2 499.5,-444.2 499.5,-425.2 431.5,-425.2"/>
<polygon fill="none" stroke="#000000" points="431.5,-425.2 431.5,-444.2 499.5,-444.2 499.5,-425.2 431.5,-425.2"/>
<text text-anchor="start" x="464.1105" y="-431.3" font-family="Helvetica,sans-Serif" font-size="11.00" fill="#000000">3 rows</text>
<polygon fill="#ffffff" stroke="transparent" points="499.5,-425.2 499.5,-444.2 541.5,-444.2 541.5,-425.2 499.5,-425.2"/>
<polygon fill="none" stroke="#000000" points="499.5,-425.2 499.5,-444.2 541.5,-444.2 541.5,-425.2 499.5,-425.2"/>
<text text-anchor="start" x="532.3862" y="-431.3" font-family="Helvetica,sans-Serif" font-size="11.00" fill="#000000"> &#160;</text>
</a>
</g>
</g>
<!-- com_type_placing_rule&#45;&gt;com_transport_unit_type -->
<g id="edge2" class="edge">
<title>com_type_placing_rule:w&#45;&gt;com_transport_unit_type:e</title>
<path fill="none" stroke="#000000" d="M336.1736,-470.8281C310.0358,-456.3515 321.0396,-400.2 282,-400.2"/>
<polygon fill="#000000" stroke="#000000" points="342.7128,-472.3671 349.6752,-477.7042 346.6064,-473.2836 350.5,-474.2 350.5,-474.2 350.5,-474.2 346.6064,-473.2836 351.3248,-470.6958 342.7128,-472.3671 342.7128,-472.3671"/>
<ellipse fill="none" stroke="#000000" cx="339.5979" cy="-471.634" rx="3.2" ry="3.2"/>
</g>
<!-- com_type_stacking_rule -->
<g id="node4" class="node">
<title>com_type_stacking_rule</title>
<g id="a_node4"><a xlink:href="../../tables/com_type_stacking_rule.html" xlink:title="com_type_stacking_rule" target="_top">
<polygon fill="#ffffff" stroke="transparent" points="333,-255.7 333,-404.7 558,-404.7 558,-255.7 333,-255.7"/>
<polygon fill="#f5f5f5" stroke="transparent" points="333.5,-381.2 333.5,-404.2 558.5,-404.2 558.5,-381.2 333.5,-381.2"/>
<polygon fill="none" stroke="#000000" points="333.5,-381.2 333.5,-404.2 558.5,-404.2 558.5,-381.2 333.5,-381.2"/>
<text text-anchor="start" x="338.5" y="-389.8" font-family="Helvetica,sans-Serif" font-weight="bold" font-size="11.00" fill="#000000">com_type_stacking_rule</text>
<text text-anchor="start" x="523.5437" y="-389.3" font-family="Helvetica,sans-Serif" font-size="11.00" fill="#000000">[table]</text>
<polygon fill="none" stroke="#000000" points="333.5,-359.2 333.5,-381.2 558.5,-381.2 558.5,-359.2 333.5,-359.2"/>
<image xlink:href="../../images/primaryKeys.png" width="11px" height="12px" preserveAspectRatio="xMinYMin meet" x="338.5" y="-376.2"/>
<text text-anchor="start" x="353.5" y="-366.3" font-family="Helvetica,sans-Serif" font-size="11.00" fill="#000000">c_pk</text>
<polygon fill="#ffffff" stroke="transparent" points="333.5,-337.2 333.5,-359.2 558.5,-359.2 558.5,-337.2 333.5,-337.2"/>
<polygon fill="none" stroke="#000000" points="333.5,-337.2 333.5,-359.2 558.5,-359.2 558.5,-337.2 333.5,-337.2"/>
<text text-anchor="start" x="353.5" y="-344.3" font-family="Helvetica,sans-Serif" font-size="11.00" fill="#000000">c_no_transport_units</text>
<polygon fill="#ffffff" stroke="transparent" points="333.5,-315.2 333.5,-337.2 558.5,-337.2 558.5,-315.2 333.5,-315.2"/>
<polygon fill="none" stroke="#000000" points="333.5,-315.2 333.5,-337.2 558.5,-337.2 558.5,-315.2 333.5,-315.2"/>
<image xlink:href="../../images/foreignKeys.png" width="11px" height="12px" preserveAspectRatio="xMinYMin meet" x="338.5" y="-332.2"/>
<text text-anchor="start" x="353.5" y="-322.3" font-family="Helvetica,sans-Serif" font-size="11.00" fill="#000000">c_allowed_transport_unit_type</text>
<polygon fill="#ffffff" stroke="transparent" points="333.5,-293.2 333.5,-315.2 558.5,-315.2 558.5,-293.2 333.5,-293.2"/>
<polygon fill="none" stroke="#000000" points="333.5,-293.2 333.5,-315.2 558.5,-315.2 558.5,-293.2 333.5,-293.2"/>
<image xlink:href="../../images/foreignKeys.png" width="11px" height="12px" preserveAspectRatio="xMinYMin meet" x="338.5" y="-310.2"/>
<text text-anchor="start" x="353.5" y="-300.3" font-family="Helvetica,sans-Serif" font-size="11.00" fill="#000000">c_transport_unit_type</text>
<polygon fill="none" stroke="#000000" points="333.5,-274.2 333.5,-293.2 558.5,-293.2 558.5,-274.2 333.5,-274.2"/>
<text text-anchor="start" x="336.5" y="-280.3" font-family="Helvetica,sans-Serif" font-size="11.00" fill="#000000">...</text>
<polygon fill="#ffffff" stroke="transparent" points="333.5,-255.2 333.5,-274.2 434.5,-274.2 434.5,-255.2 333.5,-255.2"/>
<polygon fill="none" stroke="#000000" points="333.5,-255.2 333.5,-274.2 434.5,-274.2 434.5,-255.2 333.5,-255.2"/>
<text text-anchor="start" x="336.5" y="-261.3" font-family="Helvetica,sans-Serif" font-size="11.00" fill="#000000">&lt; 2</text>
<polygon fill="#ffffff" stroke="transparent" points="434.5,-255.2 434.5,-274.2 506.5,-274.2 506.5,-255.2 434.5,-255.2"/>
<polygon fill="none" stroke="#000000" points="434.5,-255.2 434.5,-274.2 506.5,-274.2 506.5,-255.2 434.5,-255.2"/>
<text text-anchor="start" x="476.6105" y="-261.3" font-family="Helvetica,sans-Serif" font-size="11.00" fill="#000000">1 row</text>
<polygon fill="#ffffff" stroke="transparent" points="506.5,-255.2 506.5,-274.2 558.5,-274.2 558.5,-255.2 506.5,-255.2"/>
<polygon fill="none" stroke="#000000" points="506.5,-255.2 506.5,-274.2 558.5,-274.2 558.5,-255.2 506.5,-255.2"/>
<text text-anchor="start" x="549.3862" y="-261.3" font-family="Helvetica,sans-Serif" font-size="11.00" fill="#000000"> &#160;</text>
</a>
</g>
</g>
<!-- com_type_stacking_rule&#45;&gt;com_transport_unit_type -->
<g id="edge3" class="edge">
<title>com_type_stacking_rule:w&#45;&gt;com_transport_unit_type:e</title>
<path fill="none" stroke="#000000" d="M319.7488,-330.6074C300.4187,-346.5383 316.1218,-400.2 282,-400.2"/>
<polygon fill="#000000" stroke="#000000" points="325.8817,-328.6418 334.5988,-329.6282 329.6909,-327.4209 333.5,-326.2 333.5,-326.2 333.5,-326.2 329.6909,-327.4209 332.4012,-322.7718 325.8817,-328.6418 325.8817,-328.6418"/>
<ellipse fill="none" stroke="#000000" cx="322.8344" cy="-329.6185" rx="3.2" ry="3.2"/>
</g>
<!-- com_type_stacking_rule&#45;&gt;com_transport_unit_type -->
<g id="edge4" class="edge">
<title>com_type_stacking_rule:w&#45;&gt;com_transport_unit_type:e</title>
<path fill="none" stroke="#000000" d="M319.3716,-308.325C294.9509,-326.7 324.3661,-400.2 282,-400.2"/>
<polygon fill="#000000" stroke="#000000" points="325.8206,-306.4422 334.509,-307.6557 329.6603,-305.3211 333.5,-304.2 333.5,-304.2 333.5,-304.2 329.6603,-305.3211 332.491,-300.7443 325.8206,-306.4422 325.8206,-306.4422"/>
<ellipse fill="none" stroke="#000000" cx="322.7489" cy="-307.339" rx="3.2" ry="3.2"/>
</g>
</g>
</svg>
