<?xml version="1.0" encoding="UTF-8" standalone="no"?>
<!DOCTYPE svg PUBLIC "-//W3C//DTD SVG 1.1//EN"
 "http://www.w3.org/Graphics/SVG/1.1/DTD/svg11.dtd">
<!-- Generated by graphviz version 2.40.1 (20161225.0304)
 -->
<!-- Title: oneDegreeRelationshipsDiagram Pages: 1 -->
<svg width="454pt" height="465pt"
 viewBox="0.00 0.00 454.00 464.70" xmlns="http://www.w3.org/2000/svg" xmlns:xlink="http://www.w3.org/1999/xlink">
<g id="graph0" class="graph" transform="scale(1 1) rotate(0) translate(4 460.7)">
<title>oneDegreeRelationshipsDiagram</title>
<polygon fill="#ffffff" stroke="transparent" points="-4,4 -4,-460.7 450,-460.7 450,4 -4,4"/>
<text text-anchor="middle" x="72.4936" y="-7.3" font-family="Helvetica,sans-Serif" font-size="11.00" fill="#000000">Generated by SchemaSpy</text>
<!-- com_unit_error -->
<g id="node1" class="node">
<title>com_unit_error</title>
<g id="a_node1"><a xlink:href="../../tables/com_unit_error.html" xlink:title="com_unit_error" target="_top">
<polygon fill="#ffffff" stroke="transparent" points="229,-186.7 229,-452.7 438,-452.7 438,-186.7 229,-186.7"/>
<polygon fill="#f5f5f5" stroke="transparent" points="231.5,-427.7 231.5,-450.7 436.5,-450.7 436.5,-427.7 231.5,-427.7"/>
<polygon fill="none" stroke="#000000" points="231.5,-427.7 231.5,-450.7 436.5,-450.7 436.5,-427.7 231.5,-427.7"/>
<text text-anchor="start" x="236.5" y="-436.3" font-family="Helvetica,sans-Serif" font-weight="bold" font-size="11.00" fill="#000000">com_unit_error</text>
<text text-anchor="start" x="401.5437" y="-435.8" font-family="Helvetica,sans-Serif" font-size="11.00" fill="#000000">[table]</text>
<polygon fill="none" stroke="#000000" points="231.5,-405.7 231.5,-427.7 352.5,-427.7 352.5,-405.7 231.5,-405.7"/>
<image xlink:href="../../images/primaryKeys.png" width="11px" height="12px" preserveAspectRatio="xMinYMin meet" x="236.5" y="-422.7"/>
<text text-anchor="start" x="251.5" y="-412.8" font-family="Helvetica,sans-Serif" font-size="11.00" fill="#000000">c_pk</text>
<polygon fill="none" stroke="#000000" points="352.5,-405.7 352.5,-427.7 436.5,-427.7 436.5,-405.7 352.5,-405.7"/>
<text text-anchor="start" x="355.5" y="-413.4" font-family="Helvetica,sans-Serif" font-size="11.00" fill="#000000">int8[19]</text>
<polygon fill="none" stroke="#000000" points="231.5,-383.7 231.5,-405.7 352.5,-405.7 352.5,-383.7 231.5,-383.7"/>
<text text-anchor="start" x="251.5" y="-390.8" font-family="Helvetica,sans-Serif" font-size="11.00" fill="#000000">c_created</text>
<polygon fill="none" stroke="#000000" points="352.5,-383.7 352.5,-405.7 436.5,-405.7 436.5,-383.7 352.5,-383.7"/>
<text text-anchor="start" x="355.3807" y="-391.4" font-family="Helvetica,sans-Serif" font-size="11.00" fill="#000000">timestamp[29,6]</text>
<polygon fill="none" stroke="#000000" points="231.5,-361.7 231.5,-383.7 352.5,-383.7 352.5,-361.7 231.5,-361.7"/>
<text text-anchor="start" x="251.5" y="-368.8" font-family="Helvetica,sans-Serif" font-size="11.00" fill="#000000">c_created_by</text>
<polygon fill="none" stroke="#000000" points="352.5,-361.7 352.5,-383.7 436.5,-383.7 436.5,-361.7 352.5,-361.7"/>
<text text-anchor="start" x="355.5" y="-369.4" font-family="Helvetica,sans-Serif" font-size="11.00" fill="#000000">varchar[255]</text>
<polygon fill="none" stroke="#000000" points="231.5,-339.7 231.5,-361.7 352.5,-361.7 352.5,-339.7 231.5,-339.7"/>
<text text-anchor="start" x="251.5" y="-346.8" font-family="Helvetica,sans-Serif" font-size="11.00" fill="#000000">c_updated_by</text>
<polygon fill="none" stroke="#000000" points="352.5,-339.7 352.5,-361.7 436.5,-361.7 436.5,-339.7 352.5,-339.7"/>
<text text-anchor="start" x="355.5" y="-347.4" font-family="Helvetica,sans-Serif" font-size="11.00" fill="#000000">varchar[255]</text>
<polygon fill="none" stroke="#000000" points="231.5,-317.7 231.5,-339.7 352.5,-339.7 352.5,-317.7 231.5,-317.7"/>
<text text-anchor="start" x="251.5" y="-324.8" font-family="Helvetica,sans-Serif" font-size="11.00" fill="#000000">c_updated</text>
<polygon fill="none" stroke="#000000" points="352.5,-317.7 352.5,-339.7 436.5,-339.7 436.5,-317.7 352.5,-317.7"/>
<text text-anchor="start" x="355.3807" y="-325.4" font-family="Helvetica,sans-Serif" font-size="11.00" fill="#000000">timestamp[29,6]</text>
<polygon fill="none" stroke="#000000" points="231.5,-295.7 231.5,-317.7 352.5,-317.7 352.5,-295.7 231.5,-295.7"/>
<text text-anchor="start" x="251.5" y="-302.8" font-family="Helvetica,sans-Serif" font-size="11.00" fill="#000000">c_ol</text>
<polygon fill="none" stroke="#000000" points="352.5,-295.7 352.5,-317.7 436.5,-317.7 436.5,-295.7 352.5,-295.7"/>
<text text-anchor="start" x="355.5" y="-303.4" font-family="Helvetica,sans-Serif" font-size="11.00" fill="#000000">int8[19]</text>
<polygon fill="#ffffff" stroke="transparent" points="231.5,-273.7 231.5,-295.7 352.5,-295.7 352.5,-273.7 231.5,-273.7"/>
<polygon fill="none" stroke="#000000" points="231.5,-273.7 231.5,-295.7 352.5,-295.7 352.5,-273.7 231.5,-273.7"/>
<text text-anchor="start" x="251.5" y="-280.8" font-family="Helvetica,sans-Serif" font-size="11.00" fill="#000000">c_pid</text>
<polygon fill="none" stroke="#000000" points="352.5,-273.7 352.5,-295.7 436.5,-295.7 436.5,-273.7 352.5,-273.7"/>
<text text-anchor="start" x="355.5" y="-281.4" font-family="Helvetica,sans-Serif" font-size="11.00" fill="#000000">varchar[255]</text>
<polygon fill="none" stroke="#000000" points="231.5,-251.7 231.5,-273.7 352.5,-273.7 352.5,-251.7 231.5,-251.7"/>
<text text-anchor="start" x="251.5" y="-258.8" font-family="Helvetica,sans-Serif" font-size="11.00" fill="#000000">c_error_no</text>
<polygon fill="none" stroke="#000000" points="352.5,-251.7 352.5,-273.7 436.5,-273.7 436.5,-251.7 352.5,-251.7"/>
<text text-anchor="start" x="355.5" y="-259.4" font-family="Helvetica,sans-Serif" font-size="11.00" fill="#000000">varchar[255]</text>
<polygon fill="none" stroke="#000000" points="231.5,-229.7 231.5,-251.7 352.5,-251.7 352.5,-229.7 231.5,-229.7"/>
<text text-anchor="start" x="251.5" y="-236.8" font-family="Helvetica,sans-Serif" font-size="11.00" fill="#000000">c_error_text</text>
<polygon fill="none" stroke="#000000" points="352.5,-229.7 352.5,-251.7 436.5,-251.7 436.5,-229.7 352.5,-229.7"/>
<text text-anchor="start" x="355.5" y="-237.4" font-family="Helvetica,sans-Serif" font-size="11.00" fill="#000000">varchar[255]</text>
<polygon fill="none" stroke="#000000" points="231.5,-207.7 231.5,-229.7 352.5,-229.7 352.5,-207.7 231.5,-207.7"/>
<image xlink:href="../../images/foreignKeys.png" width="11px" height="12px" preserveAspectRatio="xMinYMin meet" x="236.5" y="-224.7"/>
<text text-anchor="start" x="251.5" y="-214.8" font-family="Helvetica,sans-Serif" font-size="11.00" fill="#000000">c_tu_id</text>
<polygon fill="none" stroke="#000000" points="352.5,-207.7 352.5,-229.7 436.5,-229.7 436.5,-207.7 352.5,-207.7"/>
<text text-anchor="start" x="355.5" y="-215.4" font-family="Helvetica,sans-Serif" font-size="11.00" fill="#000000">int8[19]</text>
<polygon fill="#ffffff" stroke="transparent" points="231.5,-188.7 231.5,-207.7 296.5,-207.7 296.5,-188.7 231.5,-188.7"/>
<polygon fill="none" stroke="#000000" points="231.5,-188.7 231.5,-207.7 296.5,-207.7 296.5,-188.7 231.5,-188.7"/>
<text text-anchor="start" x="234.5" y="-194.8" font-family="Helvetica,sans-Serif" font-size="11.00" fill="#000000">&lt; 1</text>
<polygon fill="#ffffff" stroke="transparent" points="296.5,-188.7 296.5,-207.7 352.5,-207.7 352.5,-188.7 296.5,-188.7"/>
<polygon fill="none" stroke="#000000" points="296.5,-188.7 296.5,-207.7 352.5,-207.7 352.5,-188.7 296.5,-188.7"/>
<text text-anchor="start" x="343.3862" y="-194.8" font-family="Helvetica,sans-Serif" font-size="11.00" fill="#000000"> &#160;</text>
<polygon fill="#ffffff" stroke="transparent" points="352.5,-188.7 352.5,-207.7 436.5,-207.7 436.5,-188.7 352.5,-188.7"/>
<polygon fill="none" stroke="#000000" points="352.5,-188.7 352.5,-207.7 436.5,-207.7 436.5,-188.7 352.5,-188.7"/>
<text text-anchor="start" x="417.9053" y="-194.8" font-family="Helvetica,sans-Serif" font-size="11.00" fill="#000000">0 &gt;</text>
<polygon fill="none" stroke="#000000" stroke-width="2" points="230,-187.7 230,-451.7 437,-451.7 437,-187.7 230,-187.7"/>
</a>
</g>
</g>
<!-- com_transport_unit -->
<g id="node2" class="node">
<title>com_transport_unit</title>
<g id="a_node2"><a xlink:href="../../tables/com_transport_unit.html" xlink:title="com_transport_unit" target="_top">
<polygon fill="#ffffff" stroke="transparent" points="8,-38.2 8,-253.2 180,-253.2 180,-38.2 8,-38.2"/>
<polygon fill="#f5f5f5" stroke="transparent" points="8,-229.7 8,-252.7 180,-252.7 180,-229.7 8,-229.7"/>
<polygon fill="none" stroke="#000000" points="8,-229.7 8,-252.7 180,-252.7 180,-229.7 8,-229.7"/>
<text text-anchor="start" x="13" y="-238.3" font-family="Helvetica,sans-Serif" font-weight="bold" font-size="11.00" fill="#000000">com_transport_unit</text>
<text text-anchor="start" x="145.0437" y="-237.8" font-family="Helvetica,sans-Serif" font-size="11.00" fill="#000000">[table]</text>
<polygon fill="none" stroke="#000000" points="8,-207.7 8,-229.7 180,-229.7 180,-207.7 8,-207.7"/>
<image xlink:href="../../images/primaryKeys.png" width="11px" height="12px" preserveAspectRatio="xMinYMin meet" x="13" y="-224.7"/>
<text text-anchor="start" x="28" y="-214.8" font-family="Helvetica,sans-Serif" font-size="11.00" fill="#000000">c_pk</text>
<polygon fill="#ffffff" stroke="transparent" points="8,-185.7 8,-207.7 180,-207.7 180,-185.7 8,-185.7"/>
<polygon fill="none" stroke="#000000" points="8,-185.7 8,-207.7 180,-207.7 180,-185.7 8,-185.7"/>
<text text-anchor="start" x="28" y="-192.8" font-family="Helvetica,sans-Serif" font-size="11.00" fill="#000000">c_pid</text>
<polygon fill="#ffffff" stroke="transparent" points="8,-163.7 8,-185.7 180,-185.7 180,-163.7 8,-163.7"/>
<polygon fill="none" stroke="#000000" points="8,-163.7 8,-185.7 180,-185.7 180,-163.7 8,-163.7"/>
<text text-anchor="start" x="28" y="-170.8" font-family="Helvetica,sans-Serif" font-size="11.00" fill="#000000">c_barcode</text>
<polygon fill="none" stroke="#000000" points="8,-141.7 8,-163.7 180,-163.7 180,-141.7 8,-141.7"/>
<image xlink:href="../../images/foreignKeys.png" width="11px" height="12px" preserveAspectRatio="xMinYMin meet" x="13" y="-158.7"/>
<text text-anchor="start" x="28" y="-148.8" font-family="Helvetica,sans-Serif" font-size="11.00" fill="#000000">c_actual_location</text>
<polygon fill="none" stroke="#000000" points="8,-119.7 8,-141.7 180,-141.7 180,-119.7 8,-119.7"/>
<image xlink:href="../../images/foreignKeys.png" width="11px" height="12px" preserveAspectRatio="xMinYMin meet" x="13" y="-136.7"/>
<text text-anchor="start" x="28" y="-126.8" font-family="Helvetica,sans-Serif" font-size="11.00" fill="#000000">c_parent</text>
<polygon fill="none" stroke="#000000" points="8,-97.7 8,-119.7 180,-119.7 180,-97.7 8,-97.7"/>
<image xlink:href="../../images/foreignKeys.png" width="11px" height="12px" preserveAspectRatio="xMinYMin meet" x="13" y="-114.7"/>
<text text-anchor="start" x="28" y="-104.8" font-family="Helvetica,sans-Serif" font-size="11.00" fill="#000000">c_target_location</text>
<polygon fill="none" stroke="#000000" points="8,-75.7 8,-97.7 180,-97.7 180,-75.7 8,-75.7"/>
<image xlink:href="../../images/foreignKeys.png" width="11px" height="12px" preserveAspectRatio="xMinYMin meet" x="13" y="-92.7"/>
<text text-anchor="start" x="28" y="-82.8" font-family="Helvetica,sans-Serif" font-size="11.00" fill="#000000">c_transport_unit_type</text>
<polygon fill="none" stroke="#000000" points="8,-56.7 8,-75.7 180,-75.7 180,-56.7 8,-56.7"/>
<text text-anchor="start" x="11" y="-62.8" font-family="Helvetica,sans-Serif" font-size="11.00" fill="#000000">...</text>
<polygon fill="#ffffff" stroke="transparent" points="8,-37.7 8,-56.7 75,-56.7 75,-37.7 8,-37.7"/>
<polygon fill="none" stroke="#000000" points="8,-37.7 8,-56.7 75,-56.7 75,-37.7 8,-37.7"/>
<text text-anchor="start" x="11" y="-43.8" font-family="Helvetica,sans-Serif" font-size="11.00" fill="#000000">&lt; 4</text>
<polygon fill="#ffffff" stroke="transparent" points="75,-37.7 75,-56.7 136,-56.7 136,-37.7 75,-37.7"/>
<polygon fill="none" stroke="#000000" points="75,-37.7 75,-56.7 136,-56.7 136,-37.7 75,-37.7"/>
<text text-anchor="start" x="100.6105" y="-43.8" font-family="Helvetica,sans-Serif" font-size="11.00" fill="#000000">2 rows</text>
<polygon fill="#ffffff" stroke="transparent" points="136,-37.7 136,-56.7 180,-56.7 180,-37.7 136,-37.7"/>
<polygon fill="none" stroke="#000000" points="136,-37.7 136,-56.7 180,-56.7 180,-37.7 136,-37.7"/>
<text text-anchor="start" x="161.4053" y="-43.8" font-family="Helvetica,sans-Serif" font-size="11.00" fill="#000000">3 &gt;</text>
</a>
</g>
</g>
<!-- com_unit_error&#45;&gt;com_transport_unit -->
<g id="edge1" class="edge">
<title>com_unit_error:w&#45;&gt;com_transport_unit:e</title>
<path fill="none" stroke="#000000" d="M217.0156,-218.7C204.6771,-218.7 197.1667,-218.7 180,-218.7"/>
<polygon fill="#000000" stroke="#000000" points="223.5,-218.7001 231.5,-222.3 227.5,-218.7 231.5,-218.7 231.5,-218.7 231.5,-218.7 227.5,-218.7 231.5,-215.1 223.5,-218.7001 223.5,-218.7001"/>
<ellipse fill="none" stroke="#000000" cx="220.3" cy="-218.7001" rx="3.2" ry="3.2"/>
</g>
</g>
</svg>
