<?xml version="1.0" encoding="UTF-8" standalone="no"?>
<!DOCTYPE svg PUBLIC "-//W3C//DTD SVG 1.1//EN"
 "http://www.w3.org/Graphics/SVG/1.1/DTD/svg11.dtd">
<!-- Generated by graphviz version 2.40.1 (20161225.0304)
 -->
<!-- Title: oneDegreeRelationshipsDiagram Pages: 1 -->
<svg width="758pt" height="993pt"
 viewBox="0.00 0.00 758.00 993.20" xmlns="http://www.w3.org/2000/svg" xmlns:xlink="http://www.w3.org/1999/xlink">
<g id="graph0" class="graph" transform="scale(1 1) rotate(0) translate(4 989.2)">
<title>oneDegreeRelationshipsDiagram</title>
<polygon fill="#ffffff" stroke="transparent" points="-4,4 -4,-989.2 754,-989.2 754,4 -4,4"/>
<text text-anchor="middle" x="72.4936" y="-7.3" font-family="Helvetica,sans-Serif" font-size="11.00" fill="#000000">Generated by SchemaSpy</text>
<!-- com_transport_unit -->
<g id="node1" class="node">
<title>com_transport_unit</title>
<g id="a_node1"><a xlink:href="../../tables/com_transport_unit.html" xlink:title="com_transport_unit" target="_top">
<polygon fill="#ffffff" stroke="transparent" points="263,-378.7 263,-864.7 523,-864.7 523,-378.7 263,-378.7"/>
<polygon fill="#f5f5f5" stroke="transparent" points="265,-839.7 265,-862.7 521,-862.7 521,-839.7 265,-839.7"/>
<polygon fill="none" stroke="#000000" points="265,-839.7 265,-862.7 521,-862.7 521,-839.7 265,-839.7"/>
<text text-anchor="start" x="270" y="-848.3" font-family="Helvetica,sans-Serif" font-weight="bold" font-size="11.00" fill="#000000">com_transport_unit</text>
<text text-anchor="start" x="486.0437" y="-847.8" font-family="Helvetica,sans-Serif" font-size="11.00" fill="#000000">[table]</text>
<polygon fill="none" stroke="#000000" points="265,-817.7 265,-839.7 437,-839.7 437,-817.7 265,-817.7"/>
<image xlink:href="../../images/primaryKeys.png" width="11px" height="12px" preserveAspectRatio="xMinYMin meet" x="270" y="-834.7"/>
<text text-anchor="start" x="285" y="-824.8" font-family="Helvetica,sans-Serif" font-size="11.00" fill="#000000">c_pk</text>
<polygon fill="none" stroke="#000000" points="437,-817.7 437,-839.7 521,-839.7 521,-817.7 437,-817.7"/>
<text text-anchor="start" x="440" y="-825.4" font-family="Helvetica,sans-Serif" font-size="11.00" fill="#000000">int8[19]</text>
<polygon fill="none" stroke="#000000" points="265,-795.7 265,-817.7 437,-817.7 437,-795.7 265,-795.7"/>
<text text-anchor="start" x="285" y="-802.8" font-family="Helvetica,sans-Serif" font-size="11.00" fill="#000000">c_created</text>
<polygon fill="none" stroke="#000000" points="437,-795.7 437,-817.7 521,-817.7 521,-795.7 437,-795.7"/>
<text text-anchor="start" x="439.8807" y="-803.4" font-family="Helvetica,sans-Serif" font-size="11.00" fill="#000000">timestamp[29,6]</text>
<polygon fill="none" stroke="#000000" points="265,-773.7 265,-795.7 437,-795.7 437,-773.7 265,-773.7"/>
<text text-anchor="start" x="285" y="-780.8" font-family="Helvetica,sans-Serif" font-size="11.00" fill="#000000">c_created_by</text>
<polygon fill="none" stroke="#000000" points="437,-773.7 437,-795.7 521,-795.7 521,-773.7 437,-773.7"/>
<text text-anchor="start" x="440" y="-781.4" font-family="Helvetica,sans-Serif" font-size="11.00" fill="#000000">varchar[255]</text>
<polygon fill="none" stroke="#000000" points="265,-751.7 265,-773.7 437,-773.7 437,-751.7 265,-751.7"/>
<text text-anchor="start" x="285" y="-758.8" font-family="Helvetica,sans-Serif" font-size="11.00" fill="#000000">c_updated_by</text>
<polygon fill="none" stroke="#000000" points="437,-751.7 437,-773.7 521,-773.7 521,-751.7 437,-751.7"/>
<text text-anchor="start" x="440" y="-759.4" font-family="Helvetica,sans-Serif" font-size="11.00" fill="#000000">varchar[255]</text>
<polygon fill="none" stroke="#000000" points="265,-729.7 265,-751.7 437,-751.7 437,-729.7 265,-729.7"/>
<text text-anchor="start" x="285" y="-736.8" font-family="Helvetica,sans-Serif" font-size="11.00" fill="#000000">c_updated</text>
<polygon fill="none" stroke="#000000" points="437,-729.7 437,-751.7 521,-751.7 521,-729.7 437,-729.7"/>
<text text-anchor="start" x="439.8807" y="-737.4" font-family="Helvetica,sans-Serif" font-size="11.00" fill="#000000">timestamp[29,6]</text>
<polygon fill="none" stroke="#000000" points="265,-707.7 265,-729.7 437,-729.7 437,-707.7 265,-707.7"/>
<text text-anchor="start" x="285" y="-714.8" font-family="Helvetica,sans-Serif" font-size="11.00" fill="#000000">c_ol</text>
<polygon fill="none" stroke="#000000" points="437,-707.7 437,-729.7 521,-729.7 521,-707.7 437,-707.7"/>
<text text-anchor="start" x="440" y="-715.4" font-family="Helvetica,sans-Serif" font-size="11.00" fill="#000000">int8[19]</text>
<polygon fill="#ffffff" stroke="transparent" points="265,-685.7 265,-707.7 437,-707.7 437,-685.7 265,-685.7"/>
<polygon fill="none" stroke="#000000" points="265,-685.7 265,-707.7 437,-707.7 437,-685.7 265,-685.7"/>
<text text-anchor="start" x="285" y="-692.8" font-family="Helvetica,sans-Serif" font-size="11.00" fill="#000000">c_pid</text>
<polygon fill="none" stroke="#000000" points="437,-685.7 437,-707.7 521,-707.7 521,-685.7 437,-685.7"/>
<text text-anchor="start" x="440" y="-693.4" font-family="Helvetica,sans-Serif" font-size="11.00" fill="#000000">varchar[255]</text>
<polygon fill="none" stroke="#000000" points="265,-663.7 265,-685.7 437,-685.7 437,-663.7 265,-663.7"/>
<text text-anchor="start" x="285" y="-670.8" font-family="Helvetica,sans-Serif" font-size="11.00" fill="#000000">c_actual_location_date</text>
<polygon fill="none" stroke="#000000" points="437,-663.7 437,-685.7 521,-685.7 521,-663.7 437,-663.7"/>
<text text-anchor="start" x="439.8807" y="-671.4" font-family="Helvetica,sans-Serif" font-size="11.00" fill="#000000">timestamp[29,6]</text>
<polygon fill="#ffffff" stroke="transparent" points="265,-641.7 265,-663.7 437,-663.7 437,-641.7 265,-641.7"/>
<polygon fill="none" stroke="#000000" points="265,-641.7 265,-663.7 437,-663.7 437,-641.7 265,-641.7"/>
<text text-anchor="start" x="285" y="-648.8" font-family="Helvetica,sans-Serif" font-size="11.00" fill="#000000">c_barcode</text>
<polygon fill="none" stroke="#000000" points="437,-641.7 437,-663.7 521,-663.7 521,-641.7 437,-641.7"/>
<text text-anchor="start" x="440" y="-649.4" font-family="Helvetica,sans-Serif" font-size="11.00" fill="#000000">varchar[20]</text>
<polygon fill="none" stroke="#000000" points="265,-619.7 265,-641.7 437,-641.7 437,-619.7 265,-619.7"/>
<text text-anchor="start" x="285" y="-626.8" font-family="Helvetica,sans-Serif" font-size="11.00" fill="#000000">c_empty</text>
<polygon fill="none" stroke="#000000" points="437,-619.7 437,-641.7 521,-641.7 521,-619.7 437,-619.7"/>
<text text-anchor="start" x="440" y="-627.4" font-family="Helvetica,sans-Serif" font-size="11.00" fill="#000000">bool[1]</text>
<polygon fill="none" stroke="#000000" points="265,-597.7 265,-619.7 437,-619.7 437,-597.7 265,-597.7"/>
<text text-anchor="start" x="285" y="-604.8" font-family="Helvetica,sans-Serif" font-size="11.00" fill="#000000">c_group_name</text>
<polygon fill="none" stroke="#000000" points="437,-597.7 437,-619.7 521,-619.7 521,-597.7 437,-597.7"/>
<text text-anchor="start" x="440" y="-605.4" font-family="Helvetica,sans-Serif" font-size="11.00" fill="#000000">varchar[255]</text>
<polygon fill="none" stroke="#000000" points="265,-575.7 265,-597.7 437,-597.7 437,-575.7 265,-575.7"/>
<text text-anchor="start" x="285" y="-582.8" font-family="Helvetica,sans-Serif" font-size="11.00" fill="#000000">c_inventory_date</text>
<polygon fill="none" stroke="#000000" points="437,-575.7 437,-597.7 521,-597.7 521,-575.7 437,-575.7"/>
<text text-anchor="start" x="439.8807" y="-583.4" font-family="Helvetica,sans-Serif" font-size="11.00" fill="#000000">timestamp[29,6]</text>
<polygon fill="none" stroke="#000000" points="265,-553.7 265,-575.7 437,-575.7 437,-553.7 265,-553.7"/>
<text text-anchor="start" x="285" y="-560.8" font-family="Helvetica,sans-Serif" font-size="11.00" fill="#000000">c_inventory_user</text>
<polygon fill="none" stroke="#000000" points="437,-553.7 437,-575.7 521,-575.7 521,-553.7 437,-553.7"/>
<text text-anchor="start" x="440" y="-561.4" font-family="Helvetica,sans-Serif" font-size="11.00" fill="#000000">varchar[255]</text>
<polygon fill="none" stroke="#000000" points="265,-531.7 265,-553.7 437,-553.7 437,-531.7 265,-531.7"/>
<text text-anchor="start" x="285" y="-538.8" font-family="Helvetica,sans-Serif" font-size="11.00" fill="#000000">c_state</text>
<polygon fill="none" stroke="#000000" points="437,-531.7 437,-553.7 521,-553.7 521,-531.7 437,-531.7"/>
<text text-anchor="start" x="440" y="-539.4" font-family="Helvetica,sans-Serif" font-size="11.00" fill="#000000">varchar[255]</text>
<polygon fill="none" stroke="#000000" points="265,-509.7 265,-531.7 437,-531.7 437,-509.7 265,-509.7"/>
<text text-anchor="start" x="285" y="-516.8" font-family="Helvetica,sans-Serif" font-size="11.00" fill="#000000">c_weight</text>
<polygon fill="none" stroke="#000000" points="437,-509.7 437,-531.7 521,-531.7 521,-509.7 437,-509.7"/>
<text text-anchor="start" x="440" y="-517.4" font-family="Helvetica,sans-Serif" font-size="11.00" fill="#000000">numeric[38,2]</text>
<polygon fill="none" stroke="#000000" points="265,-487.7 265,-509.7 437,-509.7 437,-487.7 265,-487.7"/>
<text text-anchor="start" x="285" y="-494.8" font-family="Helvetica,sans-Serif" font-size="11.00" fill="#000000">c_weight_uom</text>
<polygon fill="none" stroke="#000000" points="437,-487.7 437,-509.7 521,-509.7 521,-487.7 437,-487.7"/>
<text text-anchor="start" x="440" y="-495.4" font-family="Helvetica,sans-Serif" font-size="11.00" fill="#000000">int2[5]</text>
<polygon fill="none" stroke="#000000" points="265,-465.7 265,-487.7 437,-487.7 437,-465.7 265,-465.7"/>
<image xlink:href="../../images/foreignKeys.png" width="11px" height="12px" preserveAspectRatio="xMinYMin meet" x="270" y="-482.7"/>
<text text-anchor="start" x="285" y="-472.8" font-family="Helvetica,sans-Serif" font-size="11.00" fill="#000000">c_actual_location</text>
<polygon fill="none" stroke="#000000" points="437,-465.7 437,-487.7 521,-487.7 521,-465.7 437,-465.7"/>
<text text-anchor="start" x="440" y="-473.4" font-family="Helvetica,sans-Serif" font-size="11.00" fill="#000000">int8[19]</text>
<polygon fill="none" stroke="#000000" points="265,-443.7 265,-465.7 437,-465.7 437,-443.7 265,-443.7"/>
<image xlink:href="../../images/foreignKeys.png" width="11px" height="12px" preserveAspectRatio="xMinYMin meet" x="270" y="-460.7"/>
<text text-anchor="start" x="285" y="-450.8" font-family="Helvetica,sans-Serif" font-size="11.00" fill="#000000">c_parent</text>
<polygon fill="none" stroke="#000000" points="437,-443.7 437,-465.7 521,-465.7 521,-443.7 437,-443.7"/>
<text text-anchor="start" x="440" y="-451.4" font-family="Helvetica,sans-Serif" font-size="11.00" fill="#000000">int8[19]</text>
<polygon fill="none" stroke="#000000" points="265,-421.7 265,-443.7 437,-443.7 437,-421.7 265,-421.7"/>
<image xlink:href="../../images/foreignKeys.png" width="11px" height="12px" preserveAspectRatio="xMinYMin meet" x="270" y="-438.7"/>
<text text-anchor="start" x="285" y="-428.8" font-family="Helvetica,sans-Serif" font-size="11.00" fill="#000000">c_target_location</text>
<polygon fill="none" stroke="#000000" points="437,-421.7 437,-443.7 521,-443.7 521,-421.7 437,-421.7"/>
<text text-anchor="start" x="440" y="-429.4" font-family="Helvetica,sans-Serif" font-size="11.00" fill="#000000">int8[19]</text>
<polygon fill="none" stroke="#000000" points="265,-399.7 265,-421.7 437,-421.7 437,-399.7 265,-399.7"/>
<image xlink:href="../../images/foreignKeys.png" width="11px" height="12px" preserveAspectRatio="xMinYMin meet" x="270" y="-416.7"/>
<text text-anchor="start" x="285" y="-406.8" font-family="Helvetica,sans-Serif" font-size="11.00" fill="#000000">c_transport_unit_type</text>
<polygon fill="none" stroke="#000000" points="437,-399.7 437,-421.7 521,-421.7 521,-399.7 437,-399.7"/>
<text text-anchor="start" x="440" y="-407.4" font-family="Helvetica,sans-Serif" font-size="11.00" fill="#000000">int8[19]</text>
<polygon fill="#ffffff" stroke="transparent" points="265,-380.7 265,-399.7 342,-399.7 342,-380.7 265,-380.7"/>
<polygon fill="none" stroke="#000000" points="265,-380.7 265,-399.7 342,-399.7 342,-380.7 265,-380.7"/>
<text text-anchor="start" x="268" y="-386.8" font-family="Helvetica,sans-Serif" font-size="11.00" fill="#000000">&lt; 4</text>
<polygon fill="#ffffff" stroke="transparent" points="342,-380.7 342,-399.7 437,-399.7 437,-380.7 342,-380.7"/>
<polygon fill="none" stroke="#000000" points="342,-380.7 342,-399.7 437,-399.7 437,-380.7 342,-380.7"/>
<text text-anchor="start" x="401.6105" y="-386.8" font-family="Helvetica,sans-Serif" font-size="11.00" fill="#000000">2 rows</text>
<polygon fill="#ffffff" stroke="transparent" points="437,-380.7 437,-399.7 521,-399.7 521,-380.7 437,-380.7"/>
<polygon fill="none" stroke="#000000" points="437,-380.7 437,-399.7 521,-399.7 521,-380.7 437,-380.7"/>
<text text-anchor="start" x="502.4053" y="-386.8" font-family="Helvetica,sans-Serif" font-size="11.00" fill="#000000">3 &gt;</text>
<polygon fill="none" stroke="#000000" stroke-width="2" points="264,-379.7 264,-863.7 522,-863.7 522,-379.7 264,-379.7"/>
</a>
</g>
</g>
<!-- com_transport_unit&#45;&gt;com_transport_unit -->
<g id="edge2" class="edge">
<title>com_transport_unit:w&#45;&gt;com_transport_unit:e</title>
<path fill="none" stroke="#000000" d="M257.0442,-466.9159C199.3421,-569.3492 207.1465,-881.7 393,-881.7 587,-881.7 587,-873.0333 521,-828.7"/>
<polygon fill="#000000" stroke="#000000" points="260.6341,-461.4037 268.0167,-456.6647 262.817,-458.0518 265,-454.7 265,-454.7 265,-454.7 262.817,-458.0518 261.9833,-452.7353 260.6341,-461.4037 260.6341,-461.4037"/>
<ellipse fill="none" stroke="#000000" cx="258.8877" cy="-464.0851" rx="3.2" ry="3.2"/>
</g>
<!-- com_location -->
<g id="node2" class="node">
<title>com_location</title>
<g id="a_node2"><a xlink:href="../../tables/com_location.html" xlink:title="com_location" target="_top">
<polygon fill="#ffffff" stroke="transparent" points="11.5,-186.2 11.5,-511.2 210.5,-511.2 210.5,-186.2 11.5,-186.2"/>
<polygon fill="#f5f5f5" stroke="transparent" points="12,-487.7 12,-510.7 211,-510.7 211,-487.7 12,-487.7"/>
<polygon fill="none" stroke="#000000" points="12,-487.7 12,-510.7 211,-510.7 211,-487.7 12,-487.7"/>
<text text-anchor="start" x="17" y="-496.3" font-family="Helvetica,sans-Serif" font-weight="bold" font-size="11.00" fill="#000000">com_location</text>
<text text-anchor="start" x="176.0437" y="-495.8" font-family="Helvetica,sans-Serif" font-size="11.00" fill="#000000">[table]</text>
<polygon fill="none" stroke="#000000" points="12,-465.7 12,-487.7 211,-487.7 211,-465.7 12,-465.7"/>
<image xlink:href="../../images/primaryKeys.png" width="11px" height="12px" preserveAspectRatio="xMinYMin meet" x="17" y="-482.7"/>
<text text-anchor="start" x="32" y="-472.8" font-family="Helvetica,sans-Serif" font-size="11.00" fill="#000000">c_pk</text>
<polygon fill="#ffffff" stroke="transparent" points="12,-443.7 12,-465.7 211,-465.7 211,-443.7 12,-443.7"/>
<polygon fill="none" stroke="#000000" points="12,-443.7 12,-465.7 211,-465.7 211,-443.7 12,-443.7"/>
<text text-anchor="start" x="32" y="-450.8" font-family="Helvetica,sans-Serif" font-size="11.00" fill="#000000">c_pid</text>
<polygon fill="#ffffff" stroke="transparent" points="12,-421.7 12,-443.7 211,-443.7 211,-421.7 12,-421.7"/>
<polygon fill="none" stroke="#000000" points="12,-421.7 12,-443.7 211,-443.7 211,-421.7 12,-421.7"/>
<text text-anchor="start" x="32" y="-428.8" font-family="Helvetica,sans-Serif" font-size="11.00" fill="#000000">c_erp_code</text>
<polygon fill="#ffffff" stroke="transparent" points="12,-399.7 12,-421.7 211,-421.7 211,-399.7 12,-399.7"/>
<polygon fill="none" stroke="#000000" points="12,-399.7 12,-421.7 211,-421.7 211,-399.7 12,-399.7"/>
<text text-anchor="start" x="32" y="-406.8" font-family="Helvetica,sans-Serif" font-size="11.00" fill="#000000">c_aisle</text>
<polygon fill="#ffffff" stroke="transparent" points="12,-377.7 12,-399.7 211,-399.7 211,-377.7 12,-377.7"/>
<polygon fill="none" stroke="#000000" points="12,-377.7 12,-399.7 211,-399.7 211,-377.7 12,-377.7"/>
<text text-anchor="start" x="32" y="-384.8" font-family="Helvetica,sans-Serif" font-size="11.00" fill="#000000">c_area</text>
<polygon fill="#ffffff" stroke="transparent" points="12,-355.7 12,-377.7 211,-377.7 211,-355.7 12,-355.7"/>
<polygon fill="none" stroke="#000000" points="12,-355.7 12,-377.7 211,-377.7 211,-355.7 12,-355.7"/>
<text text-anchor="start" x="32" y="-362.8" font-family="Helvetica,sans-Serif" font-size="11.00" fill="#000000">c_x</text>
<polygon fill="#ffffff" stroke="transparent" points="12,-333.7 12,-355.7 211,-355.7 211,-333.7 12,-333.7"/>
<polygon fill="none" stroke="#000000" points="12,-333.7 12,-355.7 211,-355.7 211,-333.7 12,-333.7"/>
<text text-anchor="start" x="32" y="-340.8" font-family="Helvetica,sans-Serif" font-size="11.00" fill="#000000">c_y</text>
<polygon fill="#ffffff" stroke="transparent" points="12,-311.7 12,-333.7 211,-333.7 211,-311.7 12,-311.7"/>
<polygon fill="none" stroke="#000000" points="12,-311.7 12,-333.7 211,-333.7 211,-311.7 12,-311.7"/>
<text text-anchor="start" x="32" y="-318.8" font-family="Helvetica,sans-Serif" font-size="11.00" fill="#000000">c_z</text>
<polygon fill="#ffffff" stroke="transparent" points="12,-289.7 12,-311.7 211,-311.7 211,-289.7 12,-289.7"/>
<polygon fill="none" stroke="#000000" points="12,-289.7 12,-311.7 211,-311.7 211,-289.7 12,-289.7"/>
<text text-anchor="start" x="32" y="-296.8" font-family="Helvetica,sans-Serif" font-size="11.00" fill="#000000">c_plc_code</text>
<polygon fill="none" stroke="#000000" points="12,-267.7 12,-289.7 211,-289.7 211,-267.7 12,-267.7"/>
<image xlink:href="../../images/foreignKeys.png" width="11px" height="12px" preserveAspectRatio="xMinYMin meet" x="17" y="-284.7"/>
<text text-anchor="start" x="32" y="-274.8" font-family="Helvetica,sans-Serif" font-size="11.00" fill="#000000">c_account</text>
<polygon fill="none" stroke="#000000" points="12,-245.7 12,-267.7 211,-267.7 211,-245.7 12,-245.7"/>
<image xlink:href="../../images/foreignKeys.png" width="11px" height="12px" preserveAspectRatio="xMinYMin meet" x="17" y="-262.7"/>
<text text-anchor="start" x="32" y="-252.8" font-family="Helvetica,sans-Serif" font-size="11.00" fill="#000000">c_location_group</text>
<polygon fill="none" stroke="#000000" points="12,-223.7 12,-245.7 211,-245.7 211,-223.7 12,-223.7"/>
<image xlink:href="../../images/foreignKeys.png" width="11px" height="12px" preserveAspectRatio="xMinYMin meet" x="17" y="-240.7"/>
<text text-anchor="start" x="32" y="-230.8" font-family="Helvetica,sans-Serif" font-size="11.00" fill="#000000">c_location_type</text>
<polygon fill="none" stroke="#000000" points="12,-204.7 12,-223.7 211,-223.7 211,-204.7 12,-204.7"/>
<text text-anchor="start" x="15" y="-210.8" font-family="Helvetica,sans-Serif" font-size="11.00" fill="#000000">...</text>
<polygon fill="#ffffff" stroke="transparent" points="12,-185.7 12,-204.7 89,-204.7 89,-185.7 12,-185.7"/>
<polygon fill="none" stroke="#000000" points="12,-185.7 12,-204.7 89,-204.7 89,-185.7 12,-185.7"/>
<text text-anchor="start" x="15" y="-191.8" font-family="Helvetica,sans-Serif" font-size="11.00" fill="#000000">&lt; 3</text>
<polygon fill="#ffffff" stroke="transparent" points="89,-185.7 89,-204.7 161,-204.7 161,-185.7 89,-185.7"/>
<polygon fill="none" stroke="#000000" points="89,-185.7 89,-204.7 161,-204.7 161,-185.7 89,-185.7"/>
<text text-anchor="start" x="119.4956" y="-191.8" font-family="Helvetica,sans-Serif" font-size="11.00" fill="#000000">32 rows</text>
<polygon fill="#ffffff" stroke="transparent" points="161,-185.7 161,-204.7 211,-204.7 211,-185.7 161,-185.7"/>
<polygon fill="none" stroke="#000000" points="161,-185.7 161,-204.7 211,-204.7 211,-185.7 161,-185.7"/>
<text text-anchor="start" x="192.4053" y="-191.8" font-family="Helvetica,sans-Serif" font-size="11.00" fill="#000000">3 &gt;</text>
</a>
</g>
</g>
<!-- com_transport_unit&#45;&gt;com_location -->
<g id="edge1" class="edge">
<title>com_transport_unit:w&#45;&gt;com_location:e</title>
<path fill="none" stroke="#000000" d="M250.2185,-476.7C237.038,-476.7 229.1875,-476.7 211,-476.7"/>
<polygon fill="#000000" stroke="#000000" points="257,-476.7001 265,-480.3 261,-476.7 265,-476.7 265,-476.7 265,-476.7 261,-476.7 265,-473.1 257,-476.7001 257,-476.7001"/>
<ellipse fill="none" stroke="#000000" cx="253.8" cy="-476.7001" rx="3.2" ry="3.2"/>
</g>
<!-- com_transport_unit&#45;&gt;com_location -->
<g id="edge3" class="edge">
<title>com_transport_unit:w&#45;&gt;com_location:e</title>
<path fill="none" stroke="#000000" d="M251.1735,-436.7605C235.6437,-447.6531 236.1537,-476.7 211,-476.7"/>
<polygon fill="#000000" stroke="#000000" points="257.3242,-434.9543 266.0144,-436.1541 261.1621,-433.8271 265,-432.7 265,-432.7 265,-432.7 261.1621,-433.8271 263.9856,-429.2459 257.3242,-434.9543 257.3242,-434.9543"/>
<ellipse fill="none" stroke="#000000" cx="254.2538" cy="-435.856" rx="3.2" ry="3.2"/>
</g>
<!-- com_transport_unit_type -->
<g id="node3" class="node">
<title>com_transport_unit_type</title>
<g id="a_node3"><a xlink:href="../../tables/com_transport_unit_type.html" xlink:title="com_transport_unit_type" target="_top">
<polygon fill="#ffffff" stroke="transparent" points="8,-38.2 8,-165.2 214,-165.2 214,-38.2 8,-38.2"/>
<polygon fill="#f5f5f5" stroke="transparent" points="8,-141.7 8,-164.7 214,-164.7 214,-141.7 8,-141.7"/>
<polygon fill="none" stroke="#000000" points="8,-141.7 8,-164.7 214,-164.7 214,-141.7 8,-141.7"/>
<text text-anchor="start" x="13" y="-150.3" font-family="Helvetica,sans-Serif" font-weight="bold" font-size="11.00" fill="#000000">com_transport_unit_type</text>
<text text-anchor="start" x="179.5219" y="-149.8" font-family="Helvetica,sans-Serif" font-size="11.00" fill="#000000">[table]</text>
<polygon fill="none" stroke="#000000" points="8,-119.7 8,-141.7 214,-141.7 214,-119.7 8,-119.7"/>
<image xlink:href="../../images/primaryKeys.png" width="11px" height="12px" preserveAspectRatio="xMinYMin meet" x="13" y="-136.7"/>
<text text-anchor="start" x="37" y="-126.8" font-family="Helvetica,sans-Serif" font-size="11.00" fill="#000000">c_pk</text>
<polygon fill="#ffffff" stroke="transparent" points="8,-97.7 8,-119.7 214,-119.7 214,-97.7 8,-97.7"/>
<polygon fill="none" stroke="#000000" points="8,-97.7 8,-119.7 214,-119.7 214,-97.7 8,-97.7"/>
<text text-anchor="start" x="37" y="-104.8" font-family="Helvetica,sans-Serif" font-size="11.00" fill="#000000">c_pid</text>
<polygon fill="#ffffff" stroke="transparent" points="8,-75.7 8,-97.7 214,-97.7 214,-75.7 8,-75.7"/>
<polygon fill="none" stroke="#000000" points="8,-75.7 8,-97.7 214,-97.7 214,-75.7 8,-75.7"/>
<text text-anchor="start" x="37" y="-82.8" font-family="Helvetica,sans-Serif" font-size="11.00" fill="#000000">c_type</text>
<polygon fill="none" stroke="#000000" points="8,-56.7 8,-75.7 214,-75.7 214,-56.7 8,-56.7"/>
<text text-anchor="start" x="11" y="-62.8" font-family="Helvetica,sans-Serif" font-size="11.00" fill="#000000">...</text>
<polygon fill="#ffffff" stroke="transparent" points="8,-37.7 8,-56.7 87,-56.7 87,-37.7 8,-37.7"/>
<polygon fill="none" stroke="#000000" points="8,-37.7 8,-56.7 87,-56.7 87,-37.7 8,-37.7"/>
<text text-anchor="start" x="11" y="-43.8" font-family="Helvetica,sans-Serif" font-size="11.00" fill="#000000"> &#160;</text>
<polygon fill="#ffffff" stroke="transparent" points="87,-37.7 87,-56.7 159,-56.7 159,-37.7 87,-37.7"/>
<polygon fill="none" stroke="#000000" points="87,-37.7 87,-56.7 159,-56.7 159,-37.7 87,-37.7"/>
<text text-anchor="start" x="123.6105" y="-43.8" font-family="Helvetica,sans-Serif" font-size="11.00" fill="#000000">2 rows</text>
<polygon fill="#ffffff" stroke="transparent" points="159,-37.7 159,-56.7 214,-56.7 214,-37.7 159,-37.7"/>
<polygon fill="none" stroke="#000000" points="159,-37.7 159,-56.7 214,-56.7 214,-37.7 159,-37.7"/>
<text text-anchor="start" x="195.4053" y="-43.8" font-family="Helvetica,sans-Serif" font-size="11.00" fill="#000000">4 &gt;</text>
</a>
</g>
</g>
<!-- com_transport_unit&#45;&gt;com_transport_unit_type -->
<g id="edge4" class="edge">
<title>com_transport_unit:w&#45;&gt;com_transport_unit_type:e</title>
<path fill="none" stroke="#000000" d="M251.5921,-404.8518C213.7046,-364.6429 271.8107,-130.7 214,-130.7"/>
<polygon fill="#000000" stroke="#000000" points="257.6672,-407.5016 263.5607,-413.9998 261.3336,-409.1008 265,-410.7 265,-410.7 265,-410.7 261.3336,-409.1008 266.4393,-407.4002 257.6672,-407.5016 257.6672,-407.5016"/>
<ellipse fill="none" stroke="#000000" cx="254.734" cy="-406.2222" rx="3.2" ry="3.2"/>
</g>
<!-- com_tu_reservation -->
<g id="node4" class="node">
<title>com_tu_reservation</title>
<g id="a_node4"><a xlink:href="../../tables/com_tu_reservation.html" xlink:title="com_tu_reservation" target="_top">
<polygon fill="#ffffff" stroke="transparent" points="572,-854.2 572,-981.2 742,-981.2 742,-854.2 572,-854.2"/>
<polygon fill="#f5f5f5" stroke="transparent" points="572,-957.7 572,-980.7 742,-980.7 742,-957.7 572,-957.7"/>
<polygon fill="none" stroke="#000000" points="572,-957.7 572,-980.7 742,-980.7 742,-957.7 572,-957.7"/>
<text text-anchor="start" x="577" y="-966.3" font-family="Helvetica,sans-Serif" font-weight="bold" font-size="11.00" fill="#000000">com_tu_reservation</text>
<text text-anchor="start" x="707.5219" y="-965.8" font-family="Helvetica,sans-Serif" font-size="11.00" fill="#000000">[table]</text>
<polygon fill="none" stroke="#000000" points="572,-935.7 572,-957.7 742,-957.7 742,-935.7 572,-935.7"/>
<image xlink:href="../../images/primaryKeys.png" width="11px" height="12px" preserveAspectRatio="xMinYMin meet" x="577" y="-952.7"/>
<text text-anchor="start" x="601" y="-942.8" font-family="Helvetica,sans-Serif" font-size="11.00" fill="#000000">c_pk</text>
<polygon fill="#ffffff" stroke="transparent" points="572,-913.7 572,-935.7 742,-935.7 742,-913.7 572,-913.7"/>
<polygon fill="none" stroke="#000000" points="572,-913.7 572,-935.7 742,-935.7 742,-913.7 572,-913.7"/>
<text text-anchor="start" x="601" y="-920.8" font-family="Helvetica,sans-Serif" font-size="11.00" fill="#000000">c_pid</text>
<polygon fill="none" stroke="#000000" points="572,-891.7 572,-913.7 742,-913.7 742,-891.7 572,-891.7"/>
<image xlink:href="../../images/foreignKeys.png" width="11px" height="12px" preserveAspectRatio="xMinYMin meet" x="577" y="-908.7"/>
<text text-anchor="start" x="601" y="-898.8" font-family="Helvetica,sans-Serif" font-size="11.00" fill="#000000">c_transport_unit_pk</text>
<polygon fill="none" stroke="#000000" points="572,-872.7 572,-891.7 742,-891.7 742,-872.7 572,-872.7"/>
<text text-anchor="start" x="575" y="-878.8" font-family="Helvetica,sans-Serif" font-size="11.00" fill="#000000">...</text>
<polygon fill="#ffffff" stroke="transparent" points="572,-853.7 572,-872.7 655,-872.7 655,-853.7 572,-853.7"/>
<polygon fill="none" stroke="#000000" points="572,-853.7 572,-872.7 655,-872.7 655,-853.7 572,-853.7"/>
<text text-anchor="start" x="575" y="-859.8" font-family="Helvetica,sans-Serif" font-size="11.00" fill="#000000">&lt; 1</text>
<polygon fill="#ffffff" stroke="transparent" points="655,-853.7 655,-872.7 698,-872.7 698,-853.7 655,-853.7"/>
<polygon fill="none" stroke="#000000" points="655,-853.7 655,-872.7 698,-872.7 698,-853.7 655,-853.7"/>
<text text-anchor="start" x="688.8862" y="-859.8" font-family="Helvetica,sans-Serif" font-size="11.00" fill="#000000"> &#160;</text>
<polygon fill="#ffffff" stroke="transparent" points="698,-853.7 698,-872.7 742,-872.7 742,-853.7 698,-853.7"/>
<polygon fill="none" stroke="#000000" points="698,-853.7 698,-872.7 742,-872.7 742,-853.7 698,-853.7"/>
<text text-anchor="start" x="732.8862" y="-859.8" font-family="Helvetica,sans-Serif" font-size="11.00" fill="#000000"> &#160;</text>
</a>
</g>
</g>
<!-- com_tu_reservation&#45;&gt;com_transport_unit -->
<g id="edge5" class="edge">
<title>com_tu_reservation:w&#45;&gt;com_transport_unit:e</title>
<path fill="none" stroke="#000000" d="M558.0503,-898.071C539.2607,-881.8706 554.8581,-828.7 521,-828.7"/>
<polygon fill="#000000" stroke="#000000" points="564.4071,-900.1804 570.8662,-906.1168 568.2036,-901.4402 572,-902.7 572,-902.7 572,-902.7 568.2036,-901.4402 573.1338,-899.2832 564.4071,-900.1804 564.4071,-900.1804"/>
<ellipse fill="none" stroke="#000000" cx="561.37" cy="-899.1725" rx="3.2" ry="3.2"/>
</g>
<!-- com_unit_error -->
<g id="node5" class="node">
<title>com_unit_error</title>
<g id="a_node5"><a xlink:href="../../tables/com_unit_error.html" xlink:title="com_unit_error" target="_top">
<polygon fill="#ffffff" stroke="transparent" points="587.5,-706.2 587.5,-833.2 726.5,-833.2 726.5,-706.2 587.5,-706.2"/>
<polygon fill="#f5f5f5" stroke="transparent" points="588,-809.7 588,-832.7 727,-832.7 727,-809.7 588,-809.7"/>
<polygon fill="none" stroke="#000000" points="588,-809.7 588,-832.7 727,-832.7 727,-809.7 588,-809.7"/>
<text text-anchor="start" x="593" y="-818.3" font-family="Helvetica,sans-Serif" font-weight="bold" font-size="11.00" fill="#000000">com_unit_error</text>
<text text-anchor="start" x="692.5219" y="-817.8" font-family="Helvetica,sans-Serif" font-size="11.00" fill="#000000">[table]</text>
<polygon fill="none" stroke="#000000" points="588,-787.7 588,-809.7 727,-809.7 727,-787.7 588,-787.7"/>
<image xlink:href="../../images/primaryKeys.png" width="11px" height="12px" preserveAspectRatio="xMinYMin meet" x="593" y="-804.7"/>
<text text-anchor="start" x="617" y="-794.8" font-family="Helvetica,sans-Serif" font-size="11.00" fill="#000000">c_pk</text>
<polygon fill="#ffffff" stroke="transparent" points="588,-765.7 588,-787.7 727,-787.7 727,-765.7 588,-765.7"/>
<polygon fill="none" stroke="#000000" points="588,-765.7 588,-787.7 727,-787.7 727,-765.7 588,-765.7"/>
<text text-anchor="start" x="617" y="-772.8" font-family="Helvetica,sans-Serif" font-size="11.00" fill="#000000">c_pid</text>
<polygon fill="none" stroke="#000000" points="588,-743.7 588,-765.7 727,-765.7 727,-743.7 588,-743.7"/>
<image xlink:href="../../images/foreignKeys.png" width="11px" height="12px" preserveAspectRatio="xMinYMin meet" x="593" y="-760.7"/>
<text text-anchor="start" x="617" y="-750.8" font-family="Helvetica,sans-Serif" font-size="11.00" fill="#000000">c_tu_id</text>
<polygon fill="none" stroke="#000000" points="588,-724.7 588,-743.7 727,-743.7 727,-724.7 588,-724.7"/>
<text text-anchor="start" x="591" y="-730.8" font-family="Helvetica,sans-Serif" font-size="11.00" fill="#000000">...</text>
<polygon fill="#ffffff" stroke="transparent" points="588,-705.7 588,-724.7 656,-724.7 656,-705.7 588,-705.7"/>
<polygon fill="none" stroke="#000000" points="588,-705.7 588,-724.7 656,-724.7 656,-705.7 588,-705.7"/>
<text text-anchor="start" x="591" y="-711.8" font-family="Helvetica,sans-Serif" font-size="11.00" fill="#000000">&lt; 1</text>
<polygon fill="#ffffff" stroke="transparent" points="656,-705.7 656,-724.7 691,-724.7 691,-705.7 656,-705.7"/>
<polygon fill="none" stroke="#000000" points="656,-705.7 656,-724.7 691,-724.7 691,-705.7 656,-705.7"/>
<text text-anchor="start" x="681.8862" y="-711.8" font-family="Helvetica,sans-Serif" font-size="11.00" fill="#000000"> &#160;</text>
<polygon fill="#ffffff" stroke="transparent" points="691,-705.7 691,-724.7 727,-724.7 727,-705.7 691,-705.7"/>
<polygon fill="none" stroke="#000000" points="691,-705.7 691,-724.7 727,-724.7 727,-705.7 691,-705.7"/>
<text text-anchor="start" x="717.8862" y="-711.8" font-family="Helvetica,sans-Serif" font-size="11.00" fill="#000000"> &#160;</text>
</a>
</g>
</g>
<!-- com_unit_error&#45;&gt;com_transport_unit -->
<g id="edge6" class="edge">
<title>com_unit_error:w&#45;&gt;com_transport_unit:e</title>
<path fill="none" stroke="#000000" d="M573.8545,-758.0719C548.1381,-772.5485 559.6475,-828.7 521,-828.7"/>
<polygon fill="#000000" stroke="#000000" points="580.218,-756.5551 588.8348,-758.2019 584.109,-755.6275 588,-754.7 588,-754.7 588,-754.7 584.109,-755.6275 587.1652,-751.1981 580.218,-756.5551 580.218,-756.5551"/>
<ellipse fill="none" stroke="#000000" cx="577.1053" cy="-757.2971" rx="3.2" ry="3.2"/>
</g>
</g>
</svg>
