<?xml version="1.0" encoding="UTF-8" standalone="no"?>
<!DOCTYPE svg PUBLIC "-//W3C//DTD SVG 1.1//EN"
 "http://www.w3.org/Graphics/SVG/1.1/DTD/svg11.dtd">
<!-- Generated by graphviz version 2.40.1 (20161225.0304)
 -->
<!-- Title: twoDegreesRelationshipsDiagram Pages: 1 -->
<svg width="592pt" height="459pt"
 viewBox="0.00 0.00 592.00 458.70" xmlns="http://www.w3.org/2000/svg" xmlns:xlink="http://www.w3.org/1999/xlink">
<g id="graph0" class="graph" transform="scale(1 1) rotate(0) translate(4 454.7)">
<title>twoDegreesRelationshipsDiagram</title>
<polygon fill="#ffffff" stroke="transparent" points="-4,4 -4,-454.7 588,-454.7 588,4 -4,4"/>
<text text-anchor="middle" x="72.4936" y="-7.3" font-family="Helvetica,sans-Serif" font-size="11.00" fill="#000000">Generated by SchemaSpy</text>
<!-- com_transport_unit -->
<g id="node1" class="node">
<title>com_transport_unit</title>
<g id="a_node1"><a xlink:href="../../tables/com_transport_unit.html" xlink:title="com_transport_unit" target="_top">
<polygon fill="#ffffff" stroke="transparent" points="335,-385.7 335,-446.7 504,-446.7 504,-385.7 335,-385.7"/>
<polygon fill="#f5f5f5" stroke="transparent" points="335.5,-423.2 335.5,-446.2 504.5,-446.2 504.5,-423.2 335.5,-423.2"/>
<polygon fill="none" stroke="#000000" points="335.5,-423.2 335.5,-446.2 504.5,-446.2 504.5,-423.2 335.5,-423.2"/>
<text text-anchor="start" x="340.5" y="-431.8" font-family="Helvetica,sans-Serif" font-weight="bold" font-size="11.00" fill="#000000">com_transport_unit</text>
<text text-anchor="start" x="470.0219" y="-431.3" font-family="Helvetica,sans-Serif" font-size="11.00" fill="#000000">[table]</text>
<polygon fill="none" stroke="#000000" points="335.5,-404.2 335.5,-423.2 504.5,-423.2 504.5,-404.2 335.5,-404.2"/>
<text text-anchor="start" x="338.5" y="-410.3" font-family="Helvetica,sans-Serif" font-size="11.00" fill="#000000">...</text>
<polygon fill="#ffffff" stroke="transparent" points="335.5,-385.2 335.5,-404.2 400.5,-404.2 400.5,-385.2 335.5,-385.2"/>
<polygon fill="none" stroke="#000000" points="335.5,-385.2 335.5,-404.2 400.5,-404.2 400.5,-385.2 335.5,-385.2"/>
<text text-anchor="start" x="338.5" y="-391.3" font-family="Helvetica,sans-Serif" font-size="11.00" fill="#000000">&lt; 4</text>
<polygon fill="#ffffff" stroke="transparent" points="400.5,-385.2 400.5,-404.2 460.5,-404.2 460.5,-385.2 400.5,-385.2"/>
<polygon fill="none" stroke="#000000" points="400.5,-385.2 400.5,-404.2 460.5,-404.2 460.5,-385.2 400.5,-385.2"/>
<text text-anchor="start" x="425.1105" y="-391.3" font-family="Helvetica,sans-Serif" font-size="11.00" fill="#000000">2 rows</text>
<polygon fill="#ffffff" stroke="transparent" points="460.5,-385.2 460.5,-404.2 504.5,-404.2 504.5,-385.2 460.5,-385.2"/>
<polygon fill="none" stroke="#000000" points="460.5,-385.2 460.5,-404.2 504.5,-404.2 504.5,-385.2 460.5,-385.2"/>
<text text-anchor="start" x="485.9053" y="-391.3" font-family="Helvetica,sans-Serif" font-size="11.00" fill="#000000">3 &gt;</text>
</a>
</g>
</g>
<!-- com_transport_unit_type -->
<g id="node2" class="node">
<title>com_transport_unit_type</title>
<g id="a_node2"><a xlink:href="../../tables/com_transport_unit_type.html" xlink:title="com_transport_unit_type" target="_top">
<polygon fill="#ffffff" stroke="transparent" points="8,-118.7 8,-245.7 214,-245.7 214,-118.7 8,-118.7"/>
<polygon fill="#f5f5f5" stroke="transparent" points="8,-222.2 8,-245.2 214,-245.2 214,-222.2 8,-222.2"/>
<polygon fill="none" stroke="#000000" points="8,-222.2 8,-245.2 214,-245.2 214,-222.2 8,-222.2"/>
<text text-anchor="start" x="13" y="-230.8" font-family="Helvetica,sans-Serif" font-weight="bold" font-size="11.00" fill="#000000">com_transport_unit_type</text>
<text text-anchor="start" x="179.5219" y="-230.3" font-family="Helvetica,sans-Serif" font-size="11.00" fill="#000000">[table]</text>
<polygon fill="none" stroke="#000000" points="8,-200.2 8,-222.2 214,-222.2 214,-200.2 8,-200.2"/>
<image xlink:href="../../images/primaryKeys.png" width="11px" height="12px" preserveAspectRatio="xMinYMin meet" x="13" y="-217.2"/>
<text text-anchor="start" x="37" y="-207.3" font-family="Helvetica,sans-Serif" font-size="11.00" fill="#000000">c_pk</text>
<polygon fill="#ffffff" stroke="transparent" points="8,-178.2 8,-200.2 214,-200.2 214,-178.2 8,-178.2"/>
<polygon fill="none" stroke="#000000" points="8,-178.2 8,-200.2 214,-200.2 214,-178.2 8,-178.2"/>
<text text-anchor="start" x="37" y="-185.3" font-family="Helvetica,sans-Serif" font-size="11.00" fill="#000000">c_pid</text>
<polygon fill="#ffffff" stroke="transparent" points="8,-156.2 8,-178.2 214,-178.2 214,-156.2 8,-156.2"/>
<polygon fill="none" stroke="#000000" points="8,-156.2 8,-178.2 214,-178.2 214,-156.2 8,-156.2"/>
<text text-anchor="start" x="37" y="-163.3" font-family="Helvetica,sans-Serif" font-size="11.00" fill="#000000">c_type</text>
<polygon fill="none" stroke="#000000" points="8,-137.2 8,-156.2 214,-156.2 214,-137.2 8,-137.2"/>
<text text-anchor="start" x="11" y="-143.3" font-family="Helvetica,sans-Serif" font-size="11.00" fill="#000000">...</text>
<polygon fill="#ffffff" stroke="transparent" points="8,-118.2 8,-137.2 87,-137.2 87,-118.2 8,-118.2"/>
<polygon fill="none" stroke="#000000" points="8,-118.2 8,-137.2 87,-137.2 87,-118.2 8,-118.2"/>
<text text-anchor="start" x="11" y="-124.3" font-family="Helvetica,sans-Serif" font-size="11.00" fill="#000000"> &#160;</text>
<polygon fill="#ffffff" stroke="transparent" points="87,-118.2 87,-137.2 159,-137.2 159,-118.2 87,-118.2"/>
<polygon fill="none" stroke="#000000" points="87,-118.2 87,-137.2 159,-137.2 159,-118.2 87,-118.2"/>
<text text-anchor="start" x="123.6105" y="-124.3" font-family="Helvetica,sans-Serif" font-size="11.00" fill="#000000">2 rows</text>
<polygon fill="#ffffff" stroke="transparent" points="159,-118.2 159,-137.2 214,-137.2 214,-118.2 159,-118.2"/>
<polygon fill="none" stroke="#000000" points="159,-118.2 159,-137.2 214,-137.2 214,-118.2 159,-118.2"/>
<text text-anchor="start" x="195.4053" y="-124.3" font-family="Helvetica,sans-Serif" font-size="11.00" fill="#000000">4 &gt;</text>
</a>
</g>
</g>
<!-- com_transport_unit&#45;&gt;com_transport_unit_type -->
<g id="edge1" class="edge">
<title>com_transport_unit:w&#45;&gt;com_transport_unit_type:e</title>
<path fill="none" stroke="#000000" d="M320.9148,-412.7705C291.5672,-410.8204 276.7693,-401.7182 255,-375.2 207.3283,-317.129 289.1321,-211.2 214,-211.2"/>
<polygon fill="#000000" stroke="#000000" points="327.5035,-412.9644 335.394,-416.7984 331.5017,-413.0822 335.5,-413.2 335.5,-413.2 335.5,-413.2 331.5017,-413.0822 335.606,-409.6016 327.5035,-412.9644 327.5035,-412.9644"/>
<ellipse fill="none" stroke="#000000" cx="324.3049" cy="-412.8702" rx="3.2" ry="3.2"/>
</g>
<!-- com_type_placing_rule -->
<g id="node3" class="node">
<title>com_type_placing_rule</title>
<g id="a_node3"><a xlink:href="../../tables/com_type_placing_rule.html" xlink:title="com_type_placing_rule" target="_top">
<polygon fill="#ffffff" stroke="transparent" points="324,-303.7 324,-364.7 515,-364.7 515,-303.7 324,-303.7"/>
<polygon fill="#f5f5f5" stroke="transparent" points="324.5,-341.2 324.5,-364.2 515.5,-364.2 515.5,-341.2 324.5,-341.2"/>
<polygon fill="none" stroke="#000000" points="324.5,-341.2 324.5,-364.2 515.5,-364.2 515.5,-341.2 324.5,-341.2"/>
<text text-anchor="start" x="329.5" y="-349.8" font-family="Helvetica,sans-Serif" font-weight="bold" font-size="11.00" fill="#000000">com_type_placing_rule</text>
<text text-anchor="start" x="481.0219" y="-349.3" font-family="Helvetica,sans-Serif" font-size="11.00" fill="#000000">[table]</text>
<polygon fill="none" stroke="#000000" points="324.5,-322.2 324.5,-341.2 515.5,-341.2 515.5,-322.2 324.5,-322.2"/>
<text text-anchor="start" x="327.5" y="-328.3" font-family="Helvetica,sans-Serif" font-size="11.00" fill="#000000">...</text>
<polygon fill="#ffffff" stroke="transparent" points="324.5,-303.2 324.5,-322.2 405.5,-322.2 405.5,-303.2 324.5,-303.2"/>
<polygon fill="none" stroke="#000000" points="324.5,-303.2 324.5,-322.2 405.5,-322.2 405.5,-303.2 324.5,-303.2"/>
<text text-anchor="start" x="327.5" y="-309.3" font-family="Helvetica,sans-Serif" font-size="11.00" fill="#000000">&lt; 2</text>
<polygon fill="#ffffff" stroke="transparent" points="405.5,-303.2 405.5,-322.2 473.5,-322.2 473.5,-303.2 405.5,-303.2"/>
<polygon fill="none" stroke="#000000" points="405.5,-303.2 405.5,-322.2 473.5,-322.2 473.5,-303.2 405.5,-303.2"/>
<text text-anchor="start" x="438.1105" y="-309.3" font-family="Helvetica,sans-Serif" font-size="11.00" fill="#000000">3 rows</text>
<polygon fill="#ffffff" stroke="transparent" points="473.5,-303.2 473.5,-322.2 515.5,-322.2 515.5,-303.2 473.5,-303.2"/>
<polygon fill="none" stroke="#000000" points="473.5,-303.2 473.5,-322.2 515.5,-322.2 515.5,-303.2 473.5,-303.2"/>
<text text-anchor="start" x="506.3862" y="-309.3" font-family="Helvetica,sans-Serif" font-size="11.00" fill="#000000"> &#160;</text>
</a>
</g>
</g>
<!-- com_type_placing_rule&#45;&gt;com_transport_unit_type -->
<g id="edge2" class="edge">
<title>com_type_placing_rule:w&#45;&gt;com_transport_unit_type:e</title>
<path fill="none" stroke="#000000" d="M310.0337,-330.3188C285.9522,-327.0499 275.7102,-314.6847 255,-293.2 226.7218,-263.8642 254.7461,-211.2 214,-211.2"/>
<polygon fill="#000000" stroke="#000000" points="316.5148,-330.7135 324.2811,-334.7933 320.5074,-330.9568 324.5,-331.2 324.5,-331.2 324.5,-331.2 320.5074,-330.9568 324.7189,-327.6067 316.5148,-330.7135 316.5148,-330.7135"/>
<ellipse fill="none" stroke="#000000" cx="313.3207" cy="-330.519" rx="3.2" ry="3.2"/>
</g>
<!-- com_type_stacking_rule -->
<g id="node4" class="node">
<title>com_type_stacking_rule</title>
<g id="a_node4"><a xlink:href="../../tables/com_type_stacking_rule.html" xlink:title="com_type_stacking_rule" target="_top">
<polygon fill="#ffffff" stroke="transparent" points="263,-38.2 263,-282.2 576,-282.2 576,-38.2 263,-38.2"/>
<polygon fill="#f5f5f5" stroke="transparent" points="265.5,-257.2 265.5,-280.2 574.5,-280.2 574.5,-257.2 265.5,-257.2"/>
<polygon fill="none" stroke="#000000" points="265.5,-257.2 265.5,-280.2 574.5,-280.2 574.5,-257.2 265.5,-257.2"/>
<text text-anchor="start" x="270.5" y="-265.8" font-family="Helvetica,sans-Serif" font-weight="bold" font-size="11.00" fill="#000000">com_type_stacking_rule</text>
<text text-anchor="start" x="539.5437" y="-265.3" font-family="Helvetica,sans-Serif" font-size="11.00" fill="#000000">[table]</text>
<polygon fill="none" stroke="#000000" points="265.5,-235.2 265.5,-257.2 490.5,-257.2 490.5,-235.2 265.5,-235.2"/>
<image xlink:href="../../images/primaryKeys.png" width="11px" height="12px" preserveAspectRatio="xMinYMin meet" x="270.5" y="-252.2"/>
<text text-anchor="start" x="285.5" y="-242.3" font-family="Helvetica,sans-Serif" font-size="11.00" fill="#000000">c_pk</text>
<polygon fill="none" stroke="#000000" points="490.5,-235.2 490.5,-257.2 574.5,-257.2 574.5,-235.2 490.5,-235.2"/>
<text text-anchor="start" x="493.5" y="-242.9" font-family="Helvetica,sans-Serif" font-size="11.00" fill="#000000">int8[19]</text>
<polygon fill="none" stroke="#000000" points="265.5,-213.2 265.5,-235.2 490.5,-235.2 490.5,-213.2 265.5,-213.2"/>
<text text-anchor="start" x="285.5" y="-220.3" font-family="Helvetica,sans-Serif" font-size="11.00" fill="#000000">c_created</text>
<polygon fill="none" stroke="#000000" points="490.5,-213.2 490.5,-235.2 574.5,-235.2 574.5,-213.2 490.5,-213.2"/>
<text text-anchor="start" x="493.3807" y="-220.9" font-family="Helvetica,sans-Serif" font-size="11.00" fill="#000000">timestamp[29,6]</text>
<polygon fill="none" stroke="#000000" points="265.5,-191.2 265.5,-213.2 490.5,-213.2 490.5,-191.2 265.5,-191.2"/>
<text text-anchor="start" x="285.5" y="-198.3" font-family="Helvetica,sans-Serif" font-size="11.00" fill="#000000">c_created_by</text>
<polygon fill="none" stroke="#000000" points="490.5,-191.2 490.5,-213.2 574.5,-213.2 574.5,-191.2 490.5,-191.2"/>
<text text-anchor="start" x="493.5" y="-198.9" font-family="Helvetica,sans-Serif" font-size="11.00" fill="#000000">varchar[255]</text>
<polygon fill="none" stroke="#000000" points="265.5,-169.2 265.5,-191.2 490.5,-191.2 490.5,-169.2 265.5,-169.2"/>
<text text-anchor="start" x="285.5" y="-176.3" font-family="Helvetica,sans-Serif" font-size="11.00" fill="#000000">c_updated_by</text>
<polygon fill="none" stroke="#000000" points="490.5,-169.2 490.5,-191.2 574.5,-191.2 574.5,-169.2 490.5,-169.2"/>
<text text-anchor="start" x="493.5" y="-176.9" font-family="Helvetica,sans-Serif" font-size="11.00" fill="#000000">varchar[255]</text>
<polygon fill="none" stroke="#000000" points="265.5,-147.2 265.5,-169.2 490.5,-169.2 490.5,-147.2 265.5,-147.2"/>
<text text-anchor="start" x="285.5" y="-154.3" font-family="Helvetica,sans-Serif" font-size="11.00" fill="#000000">c_updated</text>
<polygon fill="none" stroke="#000000" points="490.5,-147.2 490.5,-169.2 574.5,-169.2 574.5,-147.2 490.5,-147.2"/>
<text text-anchor="start" x="493.3807" y="-154.9" font-family="Helvetica,sans-Serif" font-size="11.00" fill="#000000">timestamp[29,6]</text>
<polygon fill="none" stroke="#000000" points="265.5,-125.2 265.5,-147.2 490.5,-147.2 490.5,-125.2 265.5,-125.2"/>
<text text-anchor="start" x="285.5" y="-132.3" font-family="Helvetica,sans-Serif" font-size="11.00" fill="#000000">c_ol</text>
<polygon fill="none" stroke="#000000" points="490.5,-125.2 490.5,-147.2 574.5,-147.2 574.5,-125.2 490.5,-125.2"/>
<text text-anchor="start" x="493.5" y="-132.9" font-family="Helvetica,sans-Serif" font-size="11.00" fill="#000000">int8[19]</text>
<polygon fill="#ffffff" stroke="transparent" points="265.5,-103.2 265.5,-125.2 490.5,-125.2 490.5,-103.2 265.5,-103.2"/>
<polygon fill="none" stroke="#000000" points="265.5,-103.2 265.5,-125.2 490.5,-125.2 490.5,-103.2 265.5,-103.2"/>
<text text-anchor="start" x="285.5" y="-110.3" font-family="Helvetica,sans-Serif" font-size="11.00" fill="#000000">c_no_transport_units</text>
<polygon fill="none" stroke="#000000" points="490.5,-103.2 490.5,-125.2 574.5,-125.2 574.5,-103.2 490.5,-103.2"/>
<text text-anchor="start" x="493.5" y="-110.9" font-family="Helvetica,sans-Serif" font-size="11.00" fill="#000000">int4[10]</text>
<polygon fill="#ffffff" stroke="transparent" points="265.5,-81.2 265.5,-103.2 490.5,-103.2 490.5,-81.2 265.5,-81.2"/>
<polygon fill="none" stroke="#000000" points="265.5,-81.2 265.5,-103.2 490.5,-103.2 490.5,-81.2 265.5,-81.2"/>
<image xlink:href="../../images/foreignKeys.png" width="11px" height="12px" preserveAspectRatio="xMinYMin meet" x="270.5" y="-98.2"/>
<text text-anchor="start" x="285.5" y="-88.3" font-family="Helvetica,sans-Serif" font-size="11.00" fill="#000000">c_allowed_transport_unit_type</text>
<polygon fill="none" stroke="#000000" points="490.5,-81.2 490.5,-103.2 574.5,-103.2 574.5,-81.2 490.5,-81.2"/>
<text text-anchor="start" x="493.5" y="-88.9" font-family="Helvetica,sans-Serif" font-size="11.00" fill="#000000">int8[19]</text>
<polygon fill="#ffffff" stroke="transparent" points="265.5,-59.2 265.5,-81.2 490.5,-81.2 490.5,-59.2 265.5,-59.2"/>
<polygon fill="none" stroke="#000000" points="265.5,-59.2 265.5,-81.2 490.5,-81.2 490.5,-59.2 265.5,-59.2"/>
<image xlink:href="../../images/foreignKeys.png" width="11px" height="12px" preserveAspectRatio="xMinYMin meet" x="270.5" y="-76.2"/>
<text text-anchor="start" x="285.5" y="-66.3" font-family="Helvetica,sans-Serif" font-size="11.00" fill="#000000">c_transport_unit_type</text>
<polygon fill="none" stroke="#000000" points="490.5,-59.2 490.5,-81.2 574.5,-81.2 574.5,-59.2 490.5,-59.2"/>
<text text-anchor="start" x="493.5" y="-66.9" font-family="Helvetica,sans-Serif" font-size="11.00" fill="#000000">int8[19]</text>
<polygon fill="#ffffff" stroke="transparent" points="265.5,-40.2 265.5,-59.2 372.5,-59.2 372.5,-40.2 265.5,-40.2"/>
<polygon fill="none" stroke="#000000" points="265.5,-40.2 265.5,-59.2 372.5,-59.2 372.5,-40.2 265.5,-40.2"/>
<text text-anchor="start" x="268.5" y="-46.3" font-family="Helvetica,sans-Serif" font-size="11.00" fill="#000000">&lt; 2</text>
<polygon fill="#ffffff" stroke="transparent" points="372.5,-40.2 372.5,-59.2 490.5,-59.2 490.5,-40.2 372.5,-40.2"/>
<polygon fill="none" stroke="#000000" points="372.5,-40.2 372.5,-59.2 490.5,-59.2 490.5,-40.2 372.5,-40.2"/>
<text text-anchor="start" x="460.6105" y="-46.3" font-family="Helvetica,sans-Serif" font-size="11.00" fill="#000000">1 row</text>
<polygon fill="#ffffff" stroke="transparent" points="490.5,-40.2 490.5,-59.2 574.5,-59.2 574.5,-40.2 490.5,-40.2"/>
<polygon fill="none" stroke="#000000" points="490.5,-40.2 490.5,-59.2 574.5,-59.2 574.5,-40.2 490.5,-40.2"/>
<text text-anchor="start" x="555.9053" y="-46.3" font-family="Helvetica,sans-Serif" font-size="11.00" fill="#000000">0 &gt;</text>
<polygon fill="none" stroke="#000000" stroke-width="2" points="264,-39.2 264,-281.2 575,-281.2 575,-39.2 264,-39.2"/>
</a>
</g>
</g>
<!-- com_type_stacking_rule&#45;&gt;com_transport_unit_type -->
<g id="edge3" class="edge">
<title>com_type_stacking_rule:w&#45;&gt;com_transport_unit_type:e</title>
<path fill="none" stroke="#000000" d="M251.4431,-95.6331C219.5696,-115.1444 265.7763,-211.2 214,-211.2"/>
<polygon fill="#000000" stroke="#000000" points="257.7284,-94.0981 266.3541,-95.6972 261.6142,-93.149 265.5,-92.2 265.5,-92.2 265.5,-92.2 261.6142,-93.149 264.6459,-88.7028 257.7284,-94.0981 257.7284,-94.0981"/>
<ellipse fill="none" stroke="#000000" cx="254.6198" cy="-94.8573" rx="3.2" ry="3.2"/>
</g>
<!-- com_type_stacking_rule&#45;&gt;com_transport_unit_type -->
<g id="edge4" class="edge">
<title>com_type_stacking_rule:w&#45;&gt;com_transport_unit_type:e</title>
<path fill="none" stroke="#000000" d="M251.1519,-73.2761C212.0379,-93.896 274.8522,-211.2 214,-211.2"/>
<polygon fill="#000000" stroke="#000000" points="257.6777,-71.8771 266.2547,-73.72 261.5889,-71.0385 265.5,-70.2 265.5,-70.2 265.5,-70.2 261.5889,-71.0385 264.7453,-66.68 257.6777,-71.8771 257.6777,-71.8771"/>
<ellipse fill="none" stroke="#000000" cx="254.5488" cy="-72.5479" rx="3.2" ry="3.2"/>
</g>
</g>
</svg>
