<?xml version="1.0" encoding="UTF-8" standalone="no"?>
<!DOCTYPE svg PUBLIC "-//W3C//DTD SVG 1.1//EN"
 "http://www.w3.org/Graphics/SVG/1.1/DTD/svg11.dtd">
<!-- Generated by graphviz version 2.40.1 (20161225.0304)
 -->
<!-- Title: oneDegreeRelationshipsDiagram Pages: 1 -->
<svg width="592pt" height="344pt"
 viewBox="0.00 0.00 592.00 343.70" xmlns="http://www.w3.org/2000/svg" xmlns:xlink="http://www.w3.org/1999/xlink">
<g id="graph0" class="graph" transform="scale(1 1) rotate(0) translate(4 339.7)">
<title>oneDegreeRelationshipsDiagram</title>
<polygon fill="#ffffff" stroke="transparent" points="-4,4 -4,-339.7 588,-339.7 588,4 -4,4"/>
<text text-anchor="middle" x="72.4936" y="-7.3" font-family="Helvetica,sans-Serif" font-size="11.00" fill="#000000">Generated by SchemaSpy</text>
<!-- com_type_stacking_rule -->
<g id="node1" class="node">
<title>com_type_stacking_rule</title>
<g id="a_node1"><a xlink:href="../../tables/com_type_stacking_rule.html" xlink:title="com_type_stacking_rule" target="_top">
<polygon fill="#ffffff" stroke="transparent" points="263,-87.7 263,-331.7 576,-331.7 576,-87.7 263,-87.7"/>
<polygon fill="#f5f5f5" stroke="transparent" points="265.5,-306.7 265.5,-329.7 574.5,-329.7 574.5,-306.7 265.5,-306.7"/>
<polygon fill="none" stroke="#000000" points="265.5,-306.7 265.5,-329.7 574.5,-329.7 574.5,-306.7 265.5,-306.7"/>
<text text-anchor="start" x="270.5" y="-315.3" font-family="Helvetica,sans-Serif" font-weight="bold" font-size="11.00" fill="#000000">com_type_stacking_rule</text>
<text text-anchor="start" x="539.5437" y="-314.8" font-family="Helvetica,sans-Serif" font-size="11.00" fill="#000000">[table]</text>
<polygon fill="none" stroke="#000000" points="265.5,-284.7 265.5,-306.7 490.5,-306.7 490.5,-284.7 265.5,-284.7"/>
<image xlink:href="../../images/primaryKeys.png" width="11px" height="12px" preserveAspectRatio="xMinYMin meet" x="270.5" y="-301.7"/>
<text text-anchor="start" x="285.5" y="-291.8" font-family="Helvetica,sans-Serif" font-size="11.00" fill="#000000">c_pk</text>
<polygon fill="none" stroke="#000000" points="490.5,-284.7 490.5,-306.7 574.5,-306.7 574.5,-284.7 490.5,-284.7"/>
<text text-anchor="start" x="493.5" y="-292.4" font-family="Helvetica,sans-Serif" font-size="11.00" fill="#000000">int8[19]</text>
<polygon fill="none" stroke="#000000" points="265.5,-262.7 265.5,-284.7 490.5,-284.7 490.5,-262.7 265.5,-262.7"/>
<text text-anchor="start" x="285.5" y="-269.8" font-family="Helvetica,sans-Serif" font-size="11.00" fill="#000000">c_created</text>
<polygon fill="none" stroke="#000000" points="490.5,-262.7 490.5,-284.7 574.5,-284.7 574.5,-262.7 490.5,-262.7"/>
<text text-anchor="start" x="493.3807" y="-270.4" font-family="Helvetica,sans-Serif" font-size="11.00" fill="#000000">timestamp[29,6]</text>
<polygon fill="none" stroke="#000000" points="265.5,-240.7 265.5,-262.7 490.5,-262.7 490.5,-240.7 265.5,-240.7"/>
<text text-anchor="start" x="285.5" y="-247.8" font-family="Helvetica,sans-Serif" font-size="11.00" fill="#000000">c_created_by</text>
<polygon fill="none" stroke="#000000" points="490.5,-240.7 490.5,-262.7 574.5,-262.7 574.5,-240.7 490.5,-240.7"/>
<text text-anchor="start" x="493.5" y="-248.4" font-family="Helvetica,sans-Serif" font-size="11.00" fill="#000000">varchar[255]</text>
<polygon fill="none" stroke="#000000" points="265.5,-218.7 265.5,-240.7 490.5,-240.7 490.5,-218.7 265.5,-218.7"/>
<text text-anchor="start" x="285.5" y="-225.8" font-family="Helvetica,sans-Serif" font-size="11.00" fill="#000000">c_updated_by</text>
<polygon fill="none" stroke="#000000" points="490.5,-218.7 490.5,-240.7 574.5,-240.7 574.5,-218.7 490.5,-218.7"/>
<text text-anchor="start" x="493.5" y="-226.4" font-family="Helvetica,sans-Serif" font-size="11.00" fill="#000000">varchar[255]</text>
<polygon fill="none" stroke="#000000" points="265.5,-196.7 265.5,-218.7 490.5,-218.7 490.5,-196.7 265.5,-196.7"/>
<text text-anchor="start" x="285.5" y="-203.8" font-family="Helvetica,sans-Serif" font-size="11.00" fill="#000000">c_updated</text>
<polygon fill="none" stroke="#000000" points="490.5,-196.7 490.5,-218.7 574.5,-218.7 574.5,-196.7 490.5,-196.7"/>
<text text-anchor="start" x="493.3807" y="-204.4" font-family="Helvetica,sans-Serif" font-size="11.00" fill="#000000">timestamp[29,6]</text>
<polygon fill="none" stroke="#000000" points="265.5,-174.7 265.5,-196.7 490.5,-196.7 490.5,-174.7 265.5,-174.7"/>
<text text-anchor="start" x="285.5" y="-181.8" font-family="Helvetica,sans-Serif" font-size="11.00" fill="#000000">c_ol</text>
<polygon fill="none" stroke="#000000" points="490.5,-174.7 490.5,-196.7 574.5,-196.7 574.5,-174.7 490.5,-174.7"/>
<text text-anchor="start" x="493.5" y="-182.4" font-family="Helvetica,sans-Serif" font-size="11.00" fill="#000000">int8[19]</text>
<polygon fill="#ffffff" stroke="transparent" points="265.5,-152.7 265.5,-174.7 490.5,-174.7 490.5,-152.7 265.5,-152.7"/>
<polygon fill="none" stroke="#000000" points="265.5,-152.7 265.5,-174.7 490.5,-174.7 490.5,-152.7 265.5,-152.7"/>
<text text-anchor="start" x="285.5" y="-159.8" font-family="Helvetica,sans-Serif" font-size="11.00" fill="#000000">c_no_transport_units</text>
<polygon fill="none" stroke="#000000" points="490.5,-152.7 490.5,-174.7 574.5,-174.7 574.5,-152.7 490.5,-152.7"/>
<text text-anchor="start" x="493.5" y="-160.4" font-family="Helvetica,sans-Serif" font-size="11.00" fill="#000000">int4[10]</text>
<polygon fill="#ffffff" stroke="transparent" points="265.5,-130.7 265.5,-152.7 490.5,-152.7 490.5,-130.7 265.5,-130.7"/>
<polygon fill="none" stroke="#000000" points="265.5,-130.7 265.5,-152.7 490.5,-152.7 490.5,-130.7 265.5,-130.7"/>
<image xlink:href="../../images/foreignKeys.png" width="11px" height="12px" preserveAspectRatio="xMinYMin meet" x="270.5" y="-147.7"/>
<text text-anchor="start" x="285.5" y="-137.8" font-family="Helvetica,sans-Serif" font-size="11.00" fill="#000000">c_allowed_transport_unit_type</text>
<polygon fill="none" stroke="#000000" points="490.5,-130.7 490.5,-152.7 574.5,-152.7 574.5,-130.7 490.5,-130.7"/>
<text text-anchor="start" x="493.5" y="-138.4" font-family="Helvetica,sans-Serif" font-size="11.00" fill="#000000">int8[19]</text>
<polygon fill="#ffffff" stroke="transparent" points="265.5,-108.7 265.5,-130.7 490.5,-130.7 490.5,-108.7 265.5,-108.7"/>
<polygon fill="none" stroke="#000000" points="265.5,-108.7 265.5,-130.7 490.5,-130.7 490.5,-108.7 265.5,-108.7"/>
<image xlink:href="../../images/foreignKeys.png" width="11px" height="12px" preserveAspectRatio="xMinYMin meet" x="270.5" y="-125.7"/>
<text text-anchor="start" x="285.5" y="-115.8" font-family="Helvetica,sans-Serif" font-size="11.00" fill="#000000">c_transport_unit_type</text>
<polygon fill="none" stroke="#000000" points="490.5,-108.7 490.5,-130.7 574.5,-130.7 574.5,-108.7 490.5,-108.7"/>
<text text-anchor="start" x="493.5" y="-116.4" font-family="Helvetica,sans-Serif" font-size="11.00" fill="#000000">int8[19]</text>
<polygon fill="#ffffff" stroke="transparent" points="265.5,-89.7 265.5,-108.7 372.5,-108.7 372.5,-89.7 265.5,-89.7"/>
<polygon fill="none" stroke="#000000" points="265.5,-89.7 265.5,-108.7 372.5,-108.7 372.5,-89.7 265.5,-89.7"/>
<text text-anchor="start" x="268.5" y="-95.8" font-family="Helvetica,sans-Serif" font-size="11.00" fill="#000000">&lt; 2</text>
<polygon fill="#ffffff" stroke="transparent" points="372.5,-89.7 372.5,-108.7 490.5,-108.7 490.5,-89.7 372.5,-89.7"/>
<polygon fill="none" stroke="#000000" points="372.5,-89.7 372.5,-108.7 490.5,-108.7 490.5,-89.7 372.5,-89.7"/>
<text text-anchor="start" x="460.6105" y="-95.8" font-family="Helvetica,sans-Serif" font-size="11.00" fill="#000000">1 row</text>
<polygon fill="#ffffff" stroke="transparent" points="490.5,-89.7 490.5,-108.7 574.5,-108.7 574.5,-89.7 490.5,-89.7"/>
<polygon fill="none" stroke="#000000" points="490.5,-89.7 490.5,-108.7 574.5,-108.7 574.5,-89.7 490.5,-89.7"/>
<text text-anchor="start" x="555.9053" y="-95.8" font-family="Helvetica,sans-Serif" font-size="11.00" fill="#000000">0 &gt;</text>
<polygon fill="none" stroke="#000000" stroke-width="2" points="264,-88.7 264,-330.7 575,-330.7 575,-88.7 264,-88.7"/>
</a>
</g>
</g>
<!-- com_transport_unit_type -->
<g id="node2" class="node">
<title>com_transport_unit_type</title>
<g id="a_node2"><a xlink:href="../../tables/com_transport_unit_type.html" xlink:title="com_transport_unit_type" target="_top">
<polygon fill="#ffffff" stroke="transparent" points="8,-38.2 8,-165.2 214,-165.2 214,-38.2 8,-38.2"/>
<polygon fill="#f5f5f5" stroke="transparent" points="8,-141.7 8,-164.7 214,-164.7 214,-141.7 8,-141.7"/>
<polygon fill="none" stroke="#000000" points="8,-141.7 8,-164.7 214,-164.7 214,-141.7 8,-141.7"/>
<text text-anchor="start" x="13" y="-150.3" font-family="Helvetica,sans-Serif" font-weight="bold" font-size="11.00" fill="#000000">com_transport_unit_type</text>
<text text-anchor="start" x="179.5219" y="-149.8" font-family="Helvetica,sans-Serif" font-size="11.00" fill="#000000">[table]</text>
<polygon fill="none" stroke="#000000" points="8,-119.7 8,-141.7 214,-141.7 214,-119.7 8,-119.7"/>
<image xlink:href="../../images/primaryKeys.png" width="11px" height="12px" preserveAspectRatio="xMinYMin meet" x="13" y="-136.7"/>
<text text-anchor="start" x="37" y="-126.8" font-family="Helvetica,sans-Serif" font-size="11.00" fill="#000000">c_pk</text>
<polygon fill="#ffffff" stroke="transparent" points="8,-97.7 8,-119.7 214,-119.7 214,-97.7 8,-97.7"/>
<polygon fill="none" stroke="#000000" points="8,-97.7 8,-119.7 214,-119.7 214,-97.7 8,-97.7"/>
<text text-anchor="start" x="37" y="-104.8" font-family="Helvetica,sans-Serif" font-size="11.00" fill="#000000">c_pid</text>
<polygon fill="#ffffff" stroke="transparent" points="8,-75.7 8,-97.7 214,-97.7 214,-75.7 8,-75.7"/>
<polygon fill="none" stroke="#000000" points="8,-75.7 8,-97.7 214,-97.7 214,-75.7 8,-75.7"/>
<text text-anchor="start" x="37" y="-82.8" font-family="Helvetica,sans-Serif" font-size="11.00" fill="#000000">c_type</text>
<polygon fill="none" stroke="#000000" points="8,-56.7 8,-75.7 214,-75.7 214,-56.7 8,-56.7"/>
<text text-anchor="start" x="11" y="-62.8" font-family="Helvetica,sans-Serif" font-size="11.00" fill="#000000">...</text>
<polygon fill="#ffffff" stroke="transparent" points="8,-37.7 8,-56.7 87,-56.7 87,-37.7 8,-37.7"/>
<polygon fill="none" stroke="#000000" points="8,-37.7 8,-56.7 87,-56.7 87,-37.7 8,-37.7"/>
<text text-anchor="start" x="11" y="-43.8" font-family="Helvetica,sans-Serif" font-size="11.00" fill="#000000"> &#160;</text>
<polygon fill="#ffffff" stroke="transparent" points="87,-37.7 87,-56.7 159,-56.7 159,-37.7 87,-37.7"/>
<polygon fill="none" stroke="#000000" points="87,-37.7 87,-56.7 159,-56.7 159,-37.7 87,-37.7"/>
<text text-anchor="start" x="123.6105" y="-43.8" font-family="Helvetica,sans-Serif" font-size="11.00" fill="#000000">2 rows</text>
<polygon fill="#ffffff" stroke="transparent" points="159,-37.7 159,-56.7 214,-56.7 214,-37.7 159,-37.7"/>
<polygon fill="none" stroke="#000000" points="159,-37.7 159,-56.7 214,-56.7 214,-37.7 159,-37.7"/>
<text text-anchor="start" x="195.4053" y="-43.8" font-family="Helvetica,sans-Serif" font-size="11.00" fill="#000000">4 &gt;</text>
</a>
</g>
</g>
<!-- com_type_stacking_rule&#45;&gt;com_transport_unit_type -->
<g id="edge1" class="edge">
<title>com_type_stacking_rule:w&#45;&gt;com_transport_unit_type:e</title>
<path fill="none" stroke="#000000" d="M250.8704,-139.9813C238.5803,-136.8875 231.5539,-130.7 214,-130.7"/>
<polygon fill="#000000" stroke="#000000" points="257.5546,-140.7665 265.0799,-145.2754 261.5273,-141.2332 265.5,-141.7 265.5,-141.7 265.5,-141.7 261.5273,-141.2332 265.9201,-138.1246 257.5546,-140.7665 257.5546,-140.7665"/>
<ellipse fill="none" stroke="#000000" cx="254.3765" cy="-140.3931" rx="3.2" ry="3.2"/>
</g>
<!-- com_type_stacking_rule&#45;&gt;com_transport_unit_type -->
<g id="edge2" class="edge">
<title>com_type_stacking_rule:w&#45;&gt;com_transport_unit_type:e</title>
<path fill="none" stroke="#000000" d="M250.8704,-121.4188C238.5803,-124.5125 231.5539,-130.7 214,-130.7"/>
<polygon fill="#000000" stroke="#000000" points="257.5546,-120.6335 265.9201,-123.2754 261.5273,-120.1668 265.5,-119.7 265.5,-119.7 265.5,-119.7 261.5273,-120.1668 265.0799,-116.1246 257.5546,-120.6335 257.5546,-120.6335"/>
<ellipse fill="none" stroke="#000000" cx="254.3765" cy="-121.0069" rx="3.2" ry="3.2"/>
</g>
</g>
</svg>
