<?xml version="1.0" encoding="UTF-8" standalone="no"?>
<!DOCTYPE svg PUBLIC "-//W3C//DTD SVG 1.1//EN"
 "http://www.w3.org/Graphics/SVG/1.1/DTD/svg11.dtd">
<!-- Generated by graphviz version 2.40.1 (20161225.0304)
 -->
<!-- Title: twoDegreesRelationshipsDiagram Pages: 1 -->
<svg width="709pt" height="406pt"
 viewBox="0.00 0.00 709.00 406.20" xmlns="http://www.w3.org/2000/svg" xmlns:xlink="http://www.w3.org/1999/xlink">
<g id="graph0" class="graph" transform="scale(1 1) rotate(0) translate(4 402.2)">
<title>twoDegreesRelationshipsDiagram</title>
<polygon fill="#ffffff" stroke="transparent" points="-4,4 -4,-402.2 705,-402.2 705,4 -4,4"/>
<text text-anchor="middle" x="72.4936" y="-7.3" font-family="Helvetica,sans-Serif" font-size="11.00" fill="#000000">Generated by SchemaSpy</text>
<!-- com_transport_unit -->
<g id="node1" class="node">
<title>com_transport_unit</title>
<g id="a_node1"><a xlink:href="../../tables/com_transport_unit.html" xlink:title="com_transport_unit" target="_top">
<polygon fill="#ffffff" stroke="transparent" points="263,-38.2 263,-253.2 435,-253.2 435,-38.2 263,-38.2"/>
<polygon fill="#f5f5f5" stroke="transparent" points="263,-229.7 263,-252.7 435,-252.7 435,-229.7 263,-229.7"/>
<polygon fill="none" stroke="#000000" points="263,-229.7 263,-252.7 435,-252.7 435,-229.7 263,-229.7"/>
<text text-anchor="start" x="268" y="-238.3" font-family="Helvetica,sans-Serif" font-weight="bold" font-size="11.00" fill="#000000">com_transport_unit</text>
<text text-anchor="start" x="400.0437" y="-237.8" font-family="Helvetica,sans-Serif" font-size="11.00" fill="#000000">[table]</text>
<polygon fill="none" stroke="#000000" points="263,-207.7 263,-229.7 435,-229.7 435,-207.7 263,-207.7"/>
<image xlink:href="../../images/primaryKeys.png" width="11px" height="12px" preserveAspectRatio="xMinYMin meet" x="268" y="-224.7"/>
<text text-anchor="start" x="283" y="-214.8" font-family="Helvetica,sans-Serif" font-size="11.00" fill="#000000">c_pk</text>
<polygon fill="#ffffff" stroke="transparent" points="263,-185.7 263,-207.7 435,-207.7 435,-185.7 263,-185.7"/>
<polygon fill="none" stroke="#000000" points="263,-185.7 263,-207.7 435,-207.7 435,-185.7 263,-185.7"/>
<text text-anchor="start" x="283" y="-192.8" font-family="Helvetica,sans-Serif" font-size="11.00" fill="#000000">c_pid</text>
<polygon fill="#ffffff" stroke="transparent" points="263,-163.7 263,-185.7 435,-185.7 435,-163.7 263,-163.7"/>
<polygon fill="none" stroke="#000000" points="263,-163.7 263,-185.7 435,-185.7 435,-163.7 263,-163.7"/>
<text text-anchor="start" x="283" y="-170.8" font-family="Helvetica,sans-Serif" font-size="11.00" fill="#000000">c_barcode</text>
<polygon fill="none" stroke="#000000" points="263,-141.7 263,-163.7 435,-163.7 435,-141.7 263,-141.7"/>
<image xlink:href="../../images/foreignKeys.png" width="11px" height="12px" preserveAspectRatio="xMinYMin meet" x="268" y="-158.7"/>
<text text-anchor="start" x="283" y="-148.8" font-family="Helvetica,sans-Serif" font-size="11.00" fill="#000000">c_actual_location</text>
<polygon fill="none" stroke="#000000" points="263,-119.7 263,-141.7 435,-141.7 435,-119.7 263,-119.7"/>
<image xlink:href="../../images/foreignKeys.png" width="11px" height="12px" preserveAspectRatio="xMinYMin meet" x="268" y="-136.7"/>
<text text-anchor="start" x="283" y="-126.8" font-family="Helvetica,sans-Serif" font-size="11.00" fill="#000000">c_parent</text>
<polygon fill="none" stroke="#000000" points="263,-97.7 263,-119.7 435,-119.7 435,-97.7 263,-97.7"/>
<image xlink:href="../../images/foreignKeys.png" width="11px" height="12px" preserveAspectRatio="xMinYMin meet" x="268" y="-114.7"/>
<text text-anchor="start" x="283" y="-104.8" font-family="Helvetica,sans-Serif" font-size="11.00" fill="#000000">c_target_location</text>
<polygon fill="none" stroke="#000000" points="263,-75.7 263,-97.7 435,-97.7 435,-75.7 263,-75.7"/>
<image xlink:href="../../images/foreignKeys.png" width="11px" height="12px" preserveAspectRatio="xMinYMin meet" x="268" y="-92.7"/>
<text text-anchor="start" x="283" y="-82.8" font-family="Helvetica,sans-Serif" font-size="11.00" fill="#000000">c_transport_unit_type</text>
<polygon fill="none" stroke="#000000" points="263,-56.7 263,-75.7 435,-75.7 435,-56.7 263,-56.7"/>
<text text-anchor="start" x="266" y="-62.8" font-family="Helvetica,sans-Serif" font-size="11.00" fill="#000000">...</text>
<polygon fill="#ffffff" stroke="transparent" points="263,-37.7 263,-56.7 330,-56.7 330,-37.7 263,-37.7"/>
<polygon fill="none" stroke="#000000" points="263,-37.7 263,-56.7 330,-56.7 330,-37.7 263,-37.7"/>
<text text-anchor="start" x="266" y="-43.8" font-family="Helvetica,sans-Serif" font-size="11.00" fill="#000000">&lt; 4</text>
<polygon fill="#ffffff" stroke="transparent" points="330,-37.7 330,-56.7 391,-56.7 391,-37.7 330,-37.7"/>
<polygon fill="none" stroke="#000000" points="330,-37.7 330,-56.7 391,-56.7 391,-37.7 330,-37.7"/>
<text text-anchor="start" x="355.6105" y="-43.8" font-family="Helvetica,sans-Serif" font-size="11.00" fill="#000000">2 rows</text>
<polygon fill="#ffffff" stroke="transparent" points="391,-37.7 391,-56.7 435,-56.7 435,-37.7 391,-37.7"/>
<polygon fill="none" stroke="#000000" points="391,-37.7 391,-56.7 435,-56.7 435,-37.7 391,-37.7"/>
<text text-anchor="start" x="416.4053" y="-43.8" font-family="Helvetica,sans-Serif" font-size="11.00" fill="#000000">3 &gt;</text>
</a>
</g>
</g>
<!-- com_location -->
<g id="node2" class="node">
<title>com_location</title>
<g id="a_node2"><a xlink:href="../../tables/com_location.html" xlink:title="com_location" target="_top">
<polygon fill="#ffffff" stroke="transparent" points="47.5,-125.2 47.5,-186.2 174.5,-186.2 174.5,-125.2 47.5,-125.2"/>
<polygon fill="#f5f5f5" stroke="transparent" points="48,-162.7 48,-185.7 175,-185.7 175,-162.7 48,-162.7"/>
<polygon fill="none" stroke="#000000" points="48,-162.7 48,-185.7 175,-185.7 175,-162.7 48,-162.7"/>
<text text-anchor="start" x="53" y="-171.3" font-family="Helvetica,sans-Serif" font-weight="bold" font-size="11.00" fill="#000000">com_location</text>
<text text-anchor="start" x="140.5219" y="-170.8" font-family="Helvetica,sans-Serif" font-size="11.00" fill="#000000">[table]</text>
<polygon fill="none" stroke="#000000" points="48,-143.7 48,-162.7 175,-162.7 175,-143.7 48,-143.7"/>
<text text-anchor="start" x="51" y="-149.8" font-family="Helvetica,sans-Serif" font-size="11.00" fill="#000000">...</text>
<polygon fill="#ffffff" stroke="transparent" points="48,-124.7 48,-143.7 89,-143.7 89,-124.7 48,-124.7"/>
<polygon fill="none" stroke="#000000" points="48,-124.7 48,-143.7 89,-143.7 89,-124.7 48,-124.7"/>
<text text-anchor="start" x="51" y="-130.8" font-family="Helvetica,sans-Serif" font-size="11.00" fill="#000000">&lt; 3</text>
<polygon fill="#ffffff" stroke="transparent" points="89,-124.7 89,-143.7 143,-143.7 143,-124.7 89,-124.7"/>
<polygon fill="none" stroke="#000000" points="89,-124.7 89,-143.7 143,-143.7 143,-124.7 89,-124.7"/>
<text text-anchor="start" x="101.4956" y="-130.8" font-family="Helvetica,sans-Serif" font-size="11.00" fill="#000000">32 rows</text>
<polygon fill="#ffffff" stroke="transparent" points="143,-124.7 143,-143.7 175,-143.7 175,-124.7 143,-124.7"/>
<polygon fill="none" stroke="#000000" points="143,-124.7 143,-143.7 175,-143.7 175,-124.7 143,-124.7"/>
<text text-anchor="start" x="156.4053" y="-130.8" font-family="Helvetica,sans-Serif" font-size="11.00" fill="#000000">3 &gt;</text>
</a>
</g>
</g>
<!-- com_transport_unit&#45;&gt;com_location -->
<g id="edge1" class="edge">
<title>com_transport_unit:w&#45;&gt;com_location:e</title>
<path fill="none" stroke="#000000" d="M248.4533,-152.7C220.667,-152.7 208.7639,-152.7 175,-152.7"/>
<polygon fill="#000000" stroke="#000000" points="255,-152.7001 263,-156.3 259,-152.7 263,-152.7 263,-152.7 263,-152.7 259,-152.7 263,-149.1 255,-152.7001 255,-152.7001"/>
<ellipse fill="none" stroke="#000000" cx="251.8" cy="-152.7001" rx="3.2" ry="3.2"/>
</g>
<!-- com_transport_unit&#45;&gt;com_location -->
<g id="edge2" class="edge">
<title>com_transport_unit:w&#45;&gt;com_location:e</title>
<path fill="none" stroke="#000000" d="M248.4577,-110.5906C218.4615,-119.0125 213.2616,-152.7 175,-152.7"/>
<polygon fill="#000000" stroke="#000000" points="255.0668,-109.7314 263.4641,-112.27 259.0334,-109.2157 263,-108.7 263,-108.7 263,-108.7 259.0334,-109.2157 262.5359,-105.13 255.0668,-109.7314 255.0668,-109.7314"/>
<ellipse fill="none" stroke="#000000" cx="251.8935" cy="-110.144" rx="3.2" ry="3.2"/>
</g>
<!-- com_transport_unit_type -->
<g id="node3" class="node">
<title>com_transport_unit_type</title>
<g id="a_node3"><a xlink:href="../../tables/com_transport_unit_type.html" xlink:title="com_transport_unit_type" target="_top">
<polygon fill="#ffffff" stroke="transparent" points="8,-43.2 8,-104.2 214,-104.2 214,-43.2 8,-43.2"/>
<polygon fill="#f5f5f5" stroke="transparent" points="8,-80.7 8,-103.7 214,-103.7 214,-80.7 8,-80.7"/>
<polygon fill="none" stroke="#000000" points="8,-80.7 8,-103.7 214,-103.7 214,-80.7 8,-80.7"/>
<text text-anchor="start" x="13" y="-89.3" font-family="Helvetica,sans-Serif" font-weight="bold" font-size="11.00" fill="#000000">com_transport_unit_type</text>
<text text-anchor="start" x="179.5219" y="-88.8" font-family="Helvetica,sans-Serif" font-size="11.00" fill="#000000">[table]</text>
<polygon fill="none" stroke="#000000" points="8,-61.7 8,-80.7 214,-80.7 214,-61.7 8,-61.7"/>
<text text-anchor="start" x="11" y="-67.8" font-family="Helvetica,sans-Serif" font-size="11.00" fill="#000000">...</text>
<polygon fill="#ffffff" stroke="transparent" points="8,-42.7 8,-61.7 87,-61.7 87,-42.7 8,-42.7"/>
<polygon fill="none" stroke="#000000" points="8,-42.7 8,-61.7 87,-61.7 87,-42.7 8,-42.7"/>
<text text-anchor="start" x="11" y="-48.8" font-family="Helvetica,sans-Serif" font-size="11.00" fill="#000000"> &#160;</text>
<polygon fill="#ffffff" stroke="transparent" points="87,-42.7 87,-61.7 159,-61.7 159,-42.7 87,-42.7"/>
<polygon fill="none" stroke="#000000" points="87,-42.7 87,-61.7 159,-61.7 159,-42.7 87,-42.7"/>
<text text-anchor="start" x="123.6105" y="-48.8" font-family="Helvetica,sans-Serif" font-size="11.00" fill="#000000">2 rows</text>
<polygon fill="#ffffff" stroke="transparent" points="159,-42.7 159,-61.7 214,-61.7 214,-42.7 159,-42.7"/>
<polygon fill="none" stroke="#000000" points="159,-42.7 159,-61.7 214,-61.7 214,-42.7 159,-42.7"/>
<text text-anchor="start" x="195.4053" y="-48.8" font-family="Helvetica,sans-Serif" font-size="11.00" fill="#000000">4 &gt;</text>
</a>
</g>
</g>
<!-- com_transport_unit&#45;&gt;com_transport_unit_type -->
<g id="edge3" class="edge">
<title>com_transport_unit:w&#45;&gt;com_transport_unit_type:e</title>
<path fill="none" stroke="#000000" d="M248.5387,-84.0579C237.139,-79.5135 231.0031,-70.7 214,-70.7"/>
<polygon fill="#000000" stroke="#000000" points="255.1303,-85.2622 262.353,-90.2414 259.0651,-85.9811 263,-86.7 263,-86.7 263,-86.7 259.0651,-85.9811 263.647,-83.1586 255.1303,-85.2622 255.1303,-85.2622"/>
<ellipse fill="none" stroke="#000000" cx="251.9824" cy="-84.687" rx="3.2" ry="3.2"/>
</g>
<!-- com_tu_reservation -->
<g id="node4" class="node">
<title>com_tu_reservation</title>
<g id="a_node4"><a xlink:href="../../tables/com_tu_reservation.html" xlink:title="com_tu_reservation" target="_top">
<polygon fill="#ffffff" stroke="transparent" points="503.5,-333.2 503.5,-394.2 673.5,-394.2 673.5,-333.2 503.5,-333.2"/>
<polygon fill="#f5f5f5" stroke="transparent" points="503.5,-370.7 503.5,-393.7 673.5,-393.7 673.5,-370.7 503.5,-370.7"/>
<polygon fill="none" stroke="#000000" points="503.5,-370.7 503.5,-393.7 673.5,-393.7 673.5,-370.7 503.5,-370.7"/>
<text text-anchor="start" x="508.5" y="-379.3" font-family="Helvetica,sans-Serif" font-weight="bold" font-size="11.00" fill="#000000">com_tu_reservation</text>
<text text-anchor="start" x="639.0219" y="-378.8" font-family="Helvetica,sans-Serif" font-size="11.00" fill="#000000">[table]</text>
<polygon fill="none" stroke="#000000" points="503.5,-351.7 503.5,-370.7 673.5,-370.7 673.5,-351.7 503.5,-351.7"/>
<text text-anchor="start" x="506.5" y="-357.8" font-family="Helvetica,sans-Serif" font-size="11.00" fill="#000000">...</text>
<polygon fill="#ffffff" stroke="transparent" points="503.5,-332.7 503.5,-351.7 586.5,-351.7 586.5,-332.7 503.5,-332.7"/>
<polygon fill="none" stroke="#000000" points="503.5,-332.7 503.5,-351.7 586.5,-351.7 586.5,-332.7 503.5,-332.7"/>
<text text-anchor="start" x="506.5" y="-338.8" font-family="Helvetica,sans-Serif" font-size="11.00" fill="#000000">&lt; 1</text>
<polygon fill="#ffffff" stroke="transparent" points="586.5,-332.7 586.5,-351.7 629.5,-351.7 629.5,-332.7 586.5,-332.7"/>
<polygon fill="none" stroke="#000000" points="586.5,-332.7 586.5,-351.7 629.5,-351.7 629.5,-332.7 586.5,-332.7"/>
<text text-anchor="start" x="620.3862" y="-338.8" font-family="Helvetica,sans-Serif" font-size="11.00" fill="#000000"> &#160;</text>
<polygon fill="#ffffff" stroke="transparent" points="629.5,-332.7 629.5,-351.7 673.5,-351.7 673.5,-332.7 629.5,-332.7"/>
<polygon fill="none" stroke="#000000" points="629.5,-332.7 629.5,-351.7 673.5,-351.7 673.5,-332.7 629.5,-332.7"/>
<text text-anchor="start" x="664.3862" y="-338.8" font-family="Helvetica,sans-Serif" font-size="11.00" fill="#000000"> &#160;</text>
</a>
</g>
</g>
<!-- com_tu_reservation&#45;&gt;com_transport_unit -->
<g id="edge4" class="edge">
<title>com_tu_reservation:w&#45;&gt;com_transport_unit:e</title>
<path fill="none" stroke="#000000" d="M489.2473,-358.1141C443.9945,-338.8684 499.4594,-218.7 435,-218.7"/>
<polygon fill="#000000" stroke="#000000" points="495.6285,-359.2718 502.8573,-364.2422 499.5643,-359.9859 503.5,-360.7 503.5,-360.7 503.5,-360.7 499.5643,-359.9859 504.1427,-357.1578 495.6285,-359.2718 495.6285,-359.2718"/>
<ellipse fill="none" stroke="#000000" cx="492.4799" cy="-358.7005" rx="3.2" ry="3.2"/>
</g>
<!-- com_unit_error -->
<g id="node5" class="node">
<title>com_unit_error</title>
<g id="a_node5"><a xlink:href="../../tables/com_unit_error.html" xlink:title="com_unit_error" target="_top">
<polygon fill="#ffffff" stroke="transparent" points="484,-45.7 484,-311.7 693,-311.7 693,-45.7 484,-45.7"/>
<polygon fill="#f5f5f5" stroke="transparent" points="486.5,-286.7 486.5,-309.7 691.5,-309.7 691.5,-286.7 486.5,-286.7"/>
<polygon fill="none" stroke="#000000" points="486.5,-286.7 486.5,-309.7 691.5,-309.7 691.5,-286.7 486.5,-286.7"/>
<text text-anchor="start" x="491.5" y="-295.3" font-family="Helvetica,sans-Serif" font-weight="bold" font-size="11.00" fill="#000000">com_unit_error</text>
<text text-anchor="start" x="656.5437" y="-294.8" font-family="Helvetica,sans-Serif" font-size="11.00" fill="#000000">[table]</text>
<polygon fill="none" stroke="#000000" points="486.5,-264.7 486.5,-286.7 607.5,-286.7 607.5,-264.7 486.5,-264.7"/>
<image xlink:href="../../images/primaryKeys.png" width="11px" height="12px" preserveAspectRatio="xMinYMin meet" x="491.5" y="-281.7"/>
<text text-anchor="start" x="506.5" y="-271.8" font-family="Helvetica,sans-Serif" font-size="11.00" fill="#000000">c_pk</text>
<polygon fill="none" stroke="#000000" points="607.5,-264.7 607.5,-286.7 691.5,-286.7 691.5,-264.7 607.5,-264.7"/>
<text text-anchor="start" x="610.5" y="-272.4" font-family="Helvetica,sans-Serif" font-size="11.00" fill="#000000">int8[19]</text>
<polygon fill="none" stroke="#000000" points="486.5,-242.7 486.5,-264.7 607.5,-264.7 607.5,-242.7 486.5,-242.7"/>
<text text-anchor="start" x="506.5" y="-249.8" font-family="Helvetica,sans-Serif" font-size="11.00" fill="#000000">c_created</text>
<polygon fill="none" stroke="#000000" points="607.5,-242.7 607.5,-264.7 691.5,-264.7 691.5,-242.7 607.5,-242.7"/>
<text text-anchor="start" x="610.3807" y="-250.4" font-family="Helvetica,sans-Serif" font-size="11.00" fill="#000000">timestamp[29,6]</text>
<polygon fill="none" stroke="#000000" points="486.5,-220.7 486.5,-242.7 607.5,-242.7 607.5,-220.7 486.5,-220.7"/>
<text text-anchor="start" x="506.5" y="-227.8" font-family="Helvetica,sans-Serif" font-size="11.00" fill="#000000">c_created_by</text>
<polygon fill="none" stroke="#000000" points="607.5,-220.7 607.5,-242.7 691.5,-242.7 691.5,-220.7 607.5,-220.7"/>
<text text-anchor="start" x="610.5" y="-228.4" font-family="Helvetica,sans-Serif" font-size="11.00" fill="#000000">varchar[255]</text>
<polygon fill="none" stroke="#000000" points="486.5,-198.7 486.5,-220.7 607.5,-220.7 607.5,-198.7 486.5,-198.7"/>
<text text-anchor="start" x="506.5" y="-205.8" font-family="Helvetica,sans-Serif" font-size="11.00" fill="#000000">c_updated_by</text>
<polygon fill="none" stroke="#000000" points="607.5,-198.7 607.5,-220.7 691.5,-220.7 691.5,-198.7 607.5,-198.7"/>
<text text-anchor="start" x="610.5" y="-206.4" font-family="Helvetica,sans-Serif" font-size="11.00" fill="#000000">varchar[255]</text>
<polygon fill="none" stroke="#000000" points="486.5,-176.7 486.5,-198.7 607.5,-198.7 607.5,-176.7 486.5,-176.7"/>
<text text-anchor="start" x="506.5" y="-183.8" font-family="Helvetica,sans-Serif" font-size="11.00" fill="#000000">c_updated</text>
<polygon fill="none" stroke="#000000" points="607.5,-176.7 607.5,-198.7 691.5,-198.7 691.5,-176.7 607.5,-176.7"/>
<text text-anchor="start" x="610.3807" y="-184.4" font-family="Helvetica,sans-Serif" font-size="11.00" fill="#000000">timestamp[29,6]</text>
<polygon fill="none" stroke="#000000" points="486.5,-154.7 486.5,-176.7 607.5,-176.7 607.5,-154.7 486.5,-154.7"/>
<text text-anchor="start" x="506.5" y="-161.8" font-family="Helvetica,sans-Serif" font-size="11.00" fill="#000000">c_ol</text>
<polygon fill="none" stroke="#000000" points="607.5,-154.7 607.5,-176.7 691.5,-176.7 691.5,-154.7 607.5,-154.7"/>
<text text-anchor="start" x="610.5" y="-162.4" font-family="Helvetica,sans-Serif" font-size="11.00" fill="#000000">int8[19]</text>
<polygon fill="#ffffff" stroke="transparent" points="486.5,-132.7 486.5,-154.7 607.5,-154.7 607.5,-132.7 486.5,-132.7"/>
<polygon fill="none" stroke="#000000" points="486.5,-132.7 486.5,-154.7 607.5,-154.7 607.5,-132.7 486.5,-132.7"/>
<text text-anchor="start" x="506.5" y="-139.8" font-family="Helvetica,sans-Serif" font-size="11.00" fill="#000000">c_pid</text>
<polygon fill="none" stroke="#000000" points="607.5,-132.7 607.5,-154.7 691.5,-154.7 691.5,-132.7 607.5,-132.7"/>
<text text-anchor="start" x="610.5" y="-140.4" font-family="Helvetica,sans-Serif" font-size="11.00" fill="#000000">varchar[255]</text>
<polygon fill="none" stroke="#000000" points="486.5,-110.7 486.5,-132.7 607.5,-132.7 607.5,-110.7 486.5,-110.7"/>
<text text-anchor="start" x="506.5" y="-117.8" font-family="Helvetica,sans-Serif" font-size="11.00" fill="#000000">c_error_no</text>
<polygon fill="none" stroke="#000000" points="607.5,-110.7 607.5,-132.7 691.5,-132.7 691.5,-110.7 607.5,-110.7"/>
<text text-anchor="start" x="610.5" y="-118.4" font-family="Helvetica,sans-Serif" font-size="11.00" fill="#000000">varchar[255]</text>
<polygon fill="none" stroke="#000000" points="486.5,-88.7 486.5,-110.7 607.5,-110.7 607.5,-88.7 486.5,-88.7"/>
<text text-anchor="start" x="506.5" y="-95.8" font-family="Helvetica,sans-Serif" font-size="11.00" fill="#000000">c_error_text</text>
<polygon fill="none" stroke="#000000" points="607.5,-88.7 607.5,-110.7 691.5,-110.7 691.5,-88.7 607.5,-88.7"/>
<text text-anchor="start" x="610.5" y="-96.4" font-family="Helvetica,sans-Serif" font-size="11.00" fill="#000000">varchar[255]</text>
<polygon fill="none" stroke="#000000" points="486.5,-66.7 486.5,-88.7 607.5,-88.7 607.5,-66.7 486.5,-66.7"/>
<image xlink:href="../../images/foreignKeys.png" width="11px" height="12px" preserveAspectRatio="xMinYMin meet" x="491.5" y="-83.7"/>
<text text-anchor="start" x="506.5" y="-73.8" font-family="Helvetica,sans-Serif" font-size="11.00" fill="#000000">c_tu_id</text>
<polygon fill="none" stroke="#000000" points="607.5,-66.7 607.5,-88.7 691.5,-88.7 691.5,-66.7 607.5,-66.7"/>
<text text-anchor="start" x="610.5" y="-74.4" font-family="Helvetica,sans-Serif" font-size="11.00" fill="#000000">int8[19]</text>
<polygon fill="#ffffff" stroke="transparent" points="486.5,-47.7 486.5,-66.7 551.5,-66.7 551.5,-47.7 486.5,-47.7"/>
<polygon fill="none" stroke="#000000" points="486.5,-47.7 486.5,-66.7 551.5,-66.7 551.5,-47.7 486.5,-47.7"/>
<text text-anchor="start" x="489.5" y="-53.8" font-family="Helvetica,sans-Serif" font-size="11.00" fill="#000000">&lt; 1</text>
<polygon fill="#ffffff" stroke="transparent" points="551.5,-47.7 551.5,-66.7 607.5,-66.7 607.5,-47.7 551.5,-47.7"/>
<polygon fill="none" stroke="#000000" points="551.5,-47.7 551.5,-66.7 607.5,-66.7 607.5,-47.7 551.5,-47.7"/>
<text text-anchor="start" x="598.3862" y="-53.8" font-family="Helvetica,sans-Serif" font-size="11.00" fill="#000000"> &#160;</text>
<polygon fill="#ffffff" stroke="transparent" points="607.5,-47.7 607.5,-66.7 691.5,-66.7 691.5,-47.7 607.5,-47.7"/>
<polygon fill="none" stroke="#000000" points="607.5,-47.7 607.5,-66.7 691.5,-66.7 691.5,-47.7 607.5,-47.7"/>
<text text-anchor="start" x="672.9053" y="-53.8" font-family="Helvetica,sans-Serif" font-size="11.00" fill="#000000">0 &gt;</text>
<polygon fill="none" stroke="#000000" stroke-width="2" points="485,-46.7 485,-310.7 692,-310.7 692,-46.7 485,-46.7"/>
</a>
</g>
</g>
<!-- com_unit_error&#45;&gt;com_transport_unit -->
<g id="edge5" class="edge">
<title>com_unit_error:w&#45;&gt;com_transport_unit:e</title>
<path fill="none" stroke="#000000" d="M472.1519,-80.7761C433.0379,-101.396 495.8522,-218.7 435,-218.7"/>
<polygon fill="#000000" stroke="#000000" points="478.6777,-79.3771 487.2547,-81.22 482.5889,-78.5385 486.5,-77.7 486.5,-77.7 486.5,-77.7 482.5889,-78.5385 485.7453,-74.18 478.6777,-79.3771 478.6777,-79.3771"/>
<ellipse fill="none" stroke="#000000" cx="475.5488" cy="-80.0479" rx="3.2" ry="3.2"/>
</g>
</g>
</svg>
