<?xml version="1.0" encoding="UTF-8" standalone="no"?>
<!DOCTYPE svg PUBLIC "-//W3C//DTD SVG 1.1//EN"
 "http://www.w3.org/Graphics/SVG/1.1/DTD/svg11.dtd">
<!-- Generated by graphviz version 2.40.1 (20161225.0304)
 -->
<!-- Title: oneDegreeRelationshipsDiagram Pages: 1 -->
<svg width="493pt" height="316pt"
 viewBox="0.00 0.00 493.00 316.20" xmlns="http://www.w3.org/2000/svg" xmlns:xlink="http://www.w3.org/1999/xlink">
<g id="graph0" class="graph" transform="scale(1 1) rotate(0) translate(4 312.2)">
<title>oneDegreeRelationshipsDiagram</title>
<polygon fill="#ffffff" stroke="transparent" points="-4,4 -4,-312.2 489,-312.2 489,4 -4,4"/>
<text text-anchor="middle" x="72.4936" y="-7.3" font-family="Helvetica,sans-Serif" font-size="11.00" fill="#000000">Generated by SchemaSpy</text>
<!-- com_tu_reservation_log -->
<g id="node1" class="node">
<title>com_tu_reservation_log</title>
<g id="a_node1"><a xlink:href="../../tables/com_tu_reservation_log.html" xlink:title="com_tu_reservation_log" target="_top">
<polygon fill="#ffffff" stroke="transparent" points="210,-38.2 210,-304.2 477,-304.2 477,-38.2 210,-38.2"/>
<polygon fill="#f5f5f5" stroke="transparent" points="212.5,-279.2 212.5,-302.2 475.5,-302.2 475.5,-279.2 212.5,-279.2"/>
<polygon fill="none" stroke="#000000" points="212.5,-279.2 212.5,-302.2 475.5,-302.2 475.5,-279.2 212.5,-279.2"/>
<text text-anchor="start" x="217.5" y="-287.8" font-family="Helvetica,sans-Serif" font-weight="bold" font-size="11.00" fill="#000000">com_tu_reservation_log</text>
<text text-anchor="start" x="440.5437" y="-287.3" font-family="Helvetica,sans-Serif" font-size="11.00" fill="#000000">[table]</text>
<polygon fill="none" stroke="#000000" points="212.5,-257.2 212.5,-279.2 391.5,-279.2 391.5,-257.2 212.5,-257.2"/>
<image xlink:href="../../images/primaryKeys.png" width="11px" height="12px" preserveAspectRatio="xMinYMin meet" x="217.5" y="-274.2"/>
<text text-anchor="start" x="232.5" y="-264.3" font-family="Helvetica,sans-Serif" font-size="11.00" fill="#000000">c_pk</text>
<polygon fill="none" stroke="#000000" points="391.5,-257.2 391.5,-279.2 475.5,-279.2 475.5,-257.2 391.5,-257.2"/>
<text text-anchor="start" x="394.5" y="-264.9" font-family="Helvetica,sans-Serif" font-size="11.00" fill="#000000">int8[19]</text>
<polygon fill="none" stroke="#000000" points="212.5,-235.2 212.5,-257.2 391.5,-257.2 391.5,-235.2 212.5,-235.2"/>
<image xlink:href="../../images/primaryKeys.png" width="11px" height="12px" preserveAspectRatio="xMinYMin meet" x="217.5" y="-252.2"/>
<text text-anchor="start" x="232.5" y="-242.3" font-family="Helvetica,sans-Serif" font-size="11.00" fill="#000000">c_rev</text>
<polygon fill="none" stroke="#000000" points="391.5,-235.2 391.5,-257.2 475.5,-257.2 475.5,-235.2 391.5,-235.2"/>
<text text-anchor="start" x="394.5" y="-242.9" font-family="Helvetica,sans-Serif" font-size="11.00" fill="#000000">int8[19]</text>
<polygon fill="none" stroke="#000000" points="212.5,-213.2 212.5,-235.2 391.5,-235.2 391.5,-213.2 212.5,-213.2"/>
<text text-anchor="start" x="232.5" y="-220.3" font-family="Helvetica,sans-Serif" font-size="11.00" fill="#000000">c_rev_type</text>
<polygon fill="none" stroke="#000000" points="391.5,-213.2 391.5,-235.2 475.5,-235.2 475.5,-213.2 391.5,-213.2"/>
<text text-anchor="start" x="394.5" y="-220.9" font-family="Helvetica,sans-Serif" font-size="11.00" fill="#000000">int2[5]</text>
<polygon fill="none" stroke="#000000" points="212.5,-191.2 212.5,-213.2 391.5,-213.2 391.5,-191.2 212.5,-191.2"/>
<text text-anchor="start" x="232.5" y="-198.3" font-family="Helvetica,sans-Serif" font-size="11.00" fill="#000000">c_created</text>
<polygon fill="none" stroke="#000000" points="391.5,-191.2 391.5,-213.2 475.5,-213.2 475.5,-191.2 391.5,-191.2"/>
<text text-anchor="start" x="394.3807" y="-198.9" font-family="Helvetica,sans-Serif" font-size="11.00" fill="#000000">timestamp[29,6]</text>
<polygon fill="none" stroke="#000000" points="212.5,-169.2 212.5,-191.2 391.5,-191.2 391.5,-169.2 212.5,-169.2"/>
<text text-anchor="start" x="232.5" y="-176.3" font-family="Helvetica,sans-Serif" font-size="11.00" fill="#000000">c_created_by</text>
<polygon fill="none" stroke="#000000" points="391.5,-169.2 391.5,-191.2 475.5,-191.2 475.5,-169.2 391.5,-169.2"/>
<text text-anchor="start" x="394.5" y="-176.9" font-family="Helvetica,sans-Serif" font-size="11.00" fill="#000000">varchar[255]</text>
<polygon fill="none" stroke="#000000" points="212.5,-147.2 212.5,-169.2 391.5,-169.2 391.5,-147.2 212.5,-147.2"/>
<text text-anchor="start" x="232.5" y="-154.3" font-family="Helvetica,sans-Serif" font-size="11.00" fill="#000000">c_updated_by</text>
<polygon fill="none" stroke="#000000" points="391.5,-147.2 391.5,-169.2 475.5,-169.2 475.5,-147.2 391.5,-147.2"/>
<text text-anchor="start" x="394.5" y="-154.9" font-family="Helvetica,sans-Serif" font-size="11.00" fill="#000000">varchar[255]</text>
<polygon fill="none" stroke="#000000" points="212.5,-125.2 212.5,-147.2 391.5,-147.2 391.5,-125.2 212.5,-125.2"/>
<text text-anchor="start" x="232.5" y="-132.3" font-family="Helvetica,sans-Serif" font-size="11.00" fill="#000000">c_updated</text>
<polygon fill="none" stroke="#000000" points="391.5,-125.2 391.5,-147.2 475.5,-147.2 475.5,-125.2 391.5,-125.2"/>
<text text-anchor="start" x="394.3807" y="-132.9" font-family="Helvetica,sans-Serif" font-size="11.00" fill="#000000">timestamp[29,6]</text>
<polygon fill="none" stroke="#000000" points="212.5,-103.2 212.5,-125.2 391.5,-125.2 391.5,-103.2 212.5,-103.2"/>
<text text-anchor="start" x="232.5" y="-110.3" font-family="Helvetica,sans-Serif" font-size="11.00" fill="#000000">c_pid</text>
<polygon fill="none" stroke="#000000" points="391.5,-103.2 391.5,-125.2 475.5,-125.2 475.5,-103.2 391.5,-103.2"/>
<text text-anchor="start" x="394.5" y="-110.9" font-family="Helvetica,sans-Serif" font-size="11.00" fill="#000000">varchar[255]</text>
<polygon fill="none" stroke="#000000" points="212.5,-81.2 212.5,-103.2 391.5,-103.2 391.5,-81.2 212.5,-81.2"/>
<text text-anchor="start" x="232.5" y="-88.3" font-family="Helvetica,sans-Serif" font-size="11.00" fill="#000000">c_reserved_at</text>
<polygon fill="none" stroke="#000000" points="391.5,-81.2 391.5,-103.2 475.5,-103.2 475.5,-81.2 391.5,-81.2"/>
<text text-anchor="start" x="394.5" y="-88.9" font-family="Helvetica,sans-Serif" font-size="11.00" fill="#000000">timestamp[22]</text>
<polygon fill="none" stroke="#000000" points="212.5,-59.2 212.5,-81.2 391.5,-81.2 391.5,-59.2 212.5,-59.2"/>
<text text-anchor="start" x="232.5" y="-66.3" font-family="Helvetica,sans-Serif" font-size="11.00" fill="#000000">c_reserved_by</text>
<polygon fill="none" stroke="#000000" points="391.5,-59.2 391.5,-81.2 475.5,-81.2 475.5,-59.2 391.5,-59.2"/>
<text text-anchor="start" x="394.5" y="-66.9" font-family="Helvetica,sans-Serif" font-size="11.00" fill="#000000">varchar[255]</text>
<polygon fill="#ffffff" stroke="transparent" points="212.5,-40.2 212.5,-59.2 306.5,-59.2 306.5,-40.2 212.5,-40.2"/>
<polygon fill="none" stroke="#000000" points="212.5,-40.2 212.5,-59.2 306.5,-59.2 306.5,-40.2 212.5,-40.2"/>
<text text-anchor="start" x="215.5" y="-46.3" font-family="Helvetica,sans-Serif" font-size="11.00" fill="#000000">&lt; 1</text>
<polygon fill="#ffffff" stroke="transparent" points="306.5,-40.2 306.5,-59.2 391.5,-59.2 391.5,-40.2 306.5,-40.2"/>
<polygon fill="none" stroke="#000000" points="306.5,-40.2 306.5,-59.2 391.5,-59.2 391.5,-40.2 306.5,-40.2"/>
<text text-anchor="start" x="382.3862" y="-46.3" font-family="Helvetica,sans-Serif" font-size="11.00" fill="#000000"> &#160;</text>
<polygon fill="#ffffff" stroke="transparent" points="391.5,-40.2 391.5,-59.2 475.5,-59.2 475.5,-40.2 391.5,-40.2"/>
<polygon fill="none" stroke="#000000" points="391.5,-40.2 391.5,-59.2 475.5,-59.2 475.5,-40.2 391.5,-40.2"/>
<text text-anchor="start" x="456.9053" y="-46.3" font-family="Helvetica,sans-Serif" font-size="11.00" fill="#000000">0 &gt;</text>
<polygon fill="none" stroke="#000000" stroke-width="2" points="211,-39.2 211,-303.2 476,-303.2 476,-39.2 211,-39.2"/>
</a>
</g>
</g>
<!-- com_srv_revision -->
<g id="node2" class="node">
<title>com_srv_revision</title>
<g id="a_node2"><a xlink:href="../../tables/com_srv_revision.html" xlink:title="com_srv_revision" target="_top">
<polygon fill="#ffffff" stroke="transparent" points="8,-197.7 8,-280.7 161,-280.7 161,-197.7 8,-197.7"/>
<polygon fill="#f5f5f5" stroke="transparent" points="8.5,-257.2 8.5,-280.2 161.5,-280.2 161.5,-257.2 8.5,-257.2"/>
<polygon fill="none" stroke="#000000" points="8.5,-257.2 8.5,-280.2 161.5,-280.2 161.5,-257.2 8.5,-257.2"/>
<text text-anchor="start" x="13.5" y="-265.8" font-family="Helvetica,sans-Serif" font-weight="bold" font-size="11.00" fill="#000000">com_srv_revision</text>
<text text-anchor="start" x="127.0219" y="-265.3" font-family="Helvetica,sans-Serif" font-size="11.00" fill="#000000">[table]</text>
<polygon fill="none" stroke="#000000" points="8.5,-235.2 8.5,-257.2 161.5,-257.2 161.5,-235.2 8.5,-235.2"/>
<image xlink:href="../../images/primaryKeys.png" width="11px" height="12px" preserveAspectRatio="xMinYMin meet" x="13.5" y="-252.2"/>
<text text-anchor="start" x="37.5" y="-242.3" font-family="Helvetica,sans-Serif" font-size="11.00" fill="#000000">c_pk</text>
<polygon fill="none" stroke="#000000" points="8.5,-216.2 8.5,-235.2 161.5,-235.2 161.5,-216.2 8.5,-216.2"/>
<text text-anchor="start" x="11.5" y="-222.3" font-family="Helvetica,sans-Serif" font-size="11.00" fill="#000000">...</text>
<polygon fill="#ffffff" stroke="transparent" points="8.5,-197.2 8.5,-216.2 74.5,-216.2 74.5,-197.2 8.5,-197.2"/>
<polygon fill="none" stroke="#000000" points="8.5,-197.2 8.5,-216.2 74.5,-216.2 74.5,-197.2 8.5,-197.2"/>
<text text-anchor="start" x="11.5" y="-203.3" font-family="Helvetica,sans-Serif" font-size="11.00" fill="#000000"> &#160;</text>
<polygon fill="#ffffff" stroke="transparent" points="74.5,-197.2 74.5,-216.2 113.5,-216.2 113.5,-197.2 74.5,-197.2"/>
<polygon fill="none" stroke="#000000" points="74.5,-197.2 74.5,-216.2 113.5,-216.2 113.5,-197.2 74.5,-197.2"/>
<text text-anchor="start" x="104.3862" y="-203.3" font-family="Helvetica,sans-Serif" font-size="11.00" fill="#000000"> &#160;</text>
<polygon fill="#ffffff" stroke="transparent" points="113.5,-197.2 113.5,-216.2 161.5,-216.2 161.5,-197.2 113.5,-197.2"/>
<polygon fill="none" stroke="#000000" points="113.5,-197.2 113.5,-216.2 161.5,-216.2 161.5,-197.2 113.5,-197.2"/>
<text text-anchor="start" x="142.9053" y="-203.3" font-family="Helvetica,sans-Serif" font-size="11.00" fill="#000000">2 &gt;</text>
</a>
</g>
</g>
<!-- com_tu_reservation_log&#45;&gt;com_srv_revision -->
<g id="edge1" class="edge">
<title>com_tu_reservation_log:w&#45;&gt;com_srv_revision:e</title>
<path fill="none" stroke="#000000" d="M197.776,-246.2C185.7815,-246.2 178.3229,-246.2 161.5,-246.2"/>
<polygon fill="#000000" stroke="#000000" points="204.5,-246.2001 212.5,-249.8 208.5,-246.2 212.5,-246.2 212.5,-246.2 212.5,-246.2 208.5,-246.2 212.5,-242.6 204.5,-246.2001 204.5,-246.2001"/>
<ellipse fill="none" stroke="#000000" cx="201.3" cy="-246.2001" rx="3.2" ry="3.2"/>
</g>
</g>
</svg>
