<?xml version="1.0" encoding="UTF-8" standalone="no"?>
<!DOCTYPE svg PUBLIC "-//W3C//DTD SVG 1.1//EN"
 "http://www.w3.org/Graphics/SVG/1.1/DTD/svg11.dtd">
<!-- Generated by graphviz version 2.40.1 (20161225.0304)
 -->
<!-- Title: oneDegreeRelationshipsDiagram Pages: 1 -->
<svg width="480pt" height="292pt"
 viewBox="0.00 0.00 480.00 292.20" xmlns="http://www.w3.org/2000/svg" xmlns:xlink="http://www.w3.org/1999/xlink">
<g id="graph0" class="graph" transform="scale(1 1) rotate(0) translate(4 288.2)">
<title>oneDegreeRelationshipsDiagram</title>
<polygon fill="#ffffff" stroke="transparent" points="-4,4 -4,-288.2 476,-288.2 476,4 -4,4"/>
<text text-anchor="middle" x="72.4936" y="-7.3" font-family="Helvetica,sans-Serif" font-size="11.00" fill="#000000">Generated by SchemaSpy</text>
<!-- com_location_message -->
<g id="node1" class="node">
<title>com_location_message</title>
<g id="a_node1"><a xlink:href="../../tables/com_location_message.html" xlink:title="com_location_message" target="_top">
<polygon fill="#ffffff" stroke="transparent" points="272,-194.2 272,-280.2 464,-280.2 464,-194.2 272,-194.2"/>
<polygon fill="#f5f5f5" stroke="transparent" points="272,-257.2 272,-280.2 464,-280.2 464,-257.2 272,-257.2"/>
<polygon fill="none" stroke="#000000" points="272,-257.2 272,-280.2 464,-280.2 464,-257.2 272,-257.2"/>
<text text-anchor="start" x="277" y="-265.8" font-family="Helvetica,sans-Serif" font-weight="bold" font-size="11.00" fill="#000000">com_location_message</text>
<text text-anchor="start" x="429.5219" y="-265.3" font-family="Helvetica,sans-Serif" font-size="11.00" fill="#000000">[table]</text>
<polygon fill="none" stroke="#000000" points="272,-235.2 272,-257.2 464,-257.2 464,-235.2 272,-235.2"/>
<image xlink:href="../../images/primaryKeys.png" width="11px" height="12px" preserveAspectRatio="xMinYMin meet" x="277" y="-252.2"/>
<text text-anchor="start" x="301" y="-242.3" font-family="Helvetica,sans-Serif" font-size="11.00" fill="#000000">c_location_id</text>
<polygon fill="none" stroke="#000000" points="272,-213.2 272,-235.2 464,-235.2 464,-213.2 272,-213.2"/>
<image xlink:href="../../images/primaryKeys.png" width="11px" height="12px" preserveAspectRatio="xMinYMin meet" x="277" y="-230.2"/>
<text text-anchor="start" x="301" y="-220.3" font-family="Helvetica,sans-Serif" font-size="11.00" fill="#000000">c_message_id</text>
<polygon fill="#ffffff" stroke="transparent" points="272,-194.2 272,-213.2 366,-213.2 366,-194.2 272,-194.2"/>
<polygon fill="none" stroke="#000000" points="272,-194.2 272,-213.2 366,-213.2 366,-194.2 272,-194.2"/>
<text text-anchor="start" x="275" y="-200.3" font-family="Helvetica,sans-Serif" font-size="11.00" fill="#000000">&lt; 2</text>
<polygon fill="#ffffff" stroke="transparent" points="366,-194.2 366,-213.2 415,-213.2 415,-194.2 366,-194.2"/>
<polygon fill="none" stroke="#000000" points="366,-194.2 366,-213.2 415,-213.2 415,-194.2 366,-194.2"/>
<text text-anchor="start" x="405.8862" y="-200.3" font-family="Helvetica,sans-Serif" font-size="11.00" fill="#000000"> &#160;</text>
<polygon fill="#ffffff" stroke="transparent" points="415,-194.2 415,-213.2 464,-213.2 464,-194.2 415,-194.2"/>
<polygon fill="none" stroke="#000000" points="415,-194.2 415,-213.2 464,-213.2 464,-194.2 415,-194.2"/>
<text text-anchor="start" x="454.8862" y="-200.3" font-family="Helvetica,sans-Serif" font-size="11.00" fill="#000000"> &#160;</text>
</a>
</g>
</g>
<!-- com_message -->
<g id="node2" class="node">
<title>com_message</title>
<g id="a_node2"><a xlink:href="../../tables/com_message.html" xlink:title="com_message" target="_top">
<polygon fill="#ffffff" stroke="transparent" points="8,-38.2 8,-260.2 223,-260.2 223,-38.2 8,-38.2"/>
<polygon fill="#f5f5f5" stroke="transparent" points="10.5,-235.2 10.5,-258.2 221.5,-258.2 221.5,-235.2 10.5,-235.2"/>
<polygon fill="none" stroke="#000000" points="10.5,-235.2 10.5,-258.2 221.5,-258.2 221.5,-235.2 10.5,-235.2"/>
<text text-anchor="start" x="15.5" y="-243.8" font-family="Helvetica,sans-Serif" font-weight="bold" font-size="11.00" fill="#000000">com_message</text>
<text text-anchor="start" x="186.5437" y="-243.3" font-family="Helvetica,sans-Serif" font-size="11.00" fill="#000000">[table]</text>
<polygon fill="none" stroke="#000000" points="10.5,-213.2 10.5,-235.2 137.5,-235.2 137.5,-213.2 10.5,-213.2"/>
<image xlink:href="../../images/primaryKeys.png" width="11px" height="12px" preserveAspectRatio="xMinYMin meet" x="15.5" y="-230.2"/>
<text text-anchor="start" x="30.5" y="-220.3" font-family="Helvetica,sans-Serif" font-size="11.00" fill="#000000">c_pk</text>
<polygon fill="none" stroke="#000000" points="137.5,-213.2 137.5,-235.2 221.5,-235.2 221.5,-213.2 137.5,-213.2"/>
<text text-anchor="start" x="140.5" y="-220.9" font-family="Helvetica,sans-Serif" font-size="11.00" fill="#000000">int8[19]</text>
<polygon fill="none" stroke="#000000" points="10.5,-191.2 10.5,-213.2 137.5,-213.2 137.5,-191.2 10.5,-191.2"/>
<text text-anchor="start" x="30.5" y="-198.3" font-family="Helvetica,sans-Serif" font-size="11.00" fill="#000000">c_created</text>
<polygon fill="none" stroke="#000000" points="137.5,-191.2 137.5,-213.2 221.5,-213.2 221.5,-191.2 137.5,-191.2"/>
<text text-anchor="start" x="140.3807" y="-198.9" font-family="Helvetica,sans-Serif" font-size="11.00" fill="#000000">timestamp[29,6]</text>
<polygon fill="none" stroke="#000000" points="10.5,-169.2 10.5,-191.2 137.5,-191.2 137.5,-169.2 10.5,-169.2"/>
<text text-anchor="start" x="30.5" y="-176.3" font-family="Helvetica,sans-Serif" font-size="11.00" fill="#000000">c_created_by</text>
<polygon fill="none" stroke="#000000" points="137.5,-169.2 137.5,-191.2 221.5,-191.2 221.5,-169.2 137.5,-169.2"/>
<text text-anchor="start" x="140.5" y="-176.9" font-family="Helvetica,sans-Serif" font-size="11.00" fill="#000000">varchar[255]</text>
<polygon fill="none" stroke="#000000" points="10.5,-147.2 10.5,-169.2 137.5,-169.2 137.5,-147.2 10.5,-147.2"/>
<text text-anchor="start" x="30.5" y="-154.3" font-family="Helvetica,sans-Serif" font-size="11.00" fill="#000000">c_updated_by</text>
<polygon fill="none" stroke="#000000" points="137.5,-147.2 137.5,-169.2 221.5,-169.2 221.5,-147.2 137.5,-147.2"/>
<text text-anchor="start" x="140.5" y="-154.9" font-family="Helvetica,sans-Serif" font-size="11.00" fill="#000000">varchar[255]</text>
<polygon fill="none" stroke="#000000" points="10.5,-125.2 10.5,-147.2 137.5,-147.2 137.5,-125.2 10.5,-125.2"/>
<text text-anchor="start" x="30.5" y="-132.3" font-family="Helvetica,sans-Serif" font-size="11.00" fill="#000000">c_updated</text>
<polygon fill="none" stroke="#000000" points="137.5,-125.2 137.5,-147.2 221.5,-147.2 221.5,-125.2 137.5,-125.2"/>
<text text-anchor="start" x="140.3807" y="-132.9" font-family="Helvetica,sans-Serif" font-size="11.00" fill="#000000">timestamp[29,6]</text>
<polygon fill="none" stroke="#000000" points="10.5,-103.2 10.5,-125.2 137.5,-125.2 137.5,-103.2 10.5,-103.2"/>
<text text-anchor="start" x="30.5" y="-110.3" font-family="Helvetica,sans-Serif" font-size="11.00" fill="#000000">c_ol</text>
<polygon fill="none" stroke="#000000" points="137.5,-103.2 137.5,-125.2 221.5,-125.2 221.5,-103.2 137.5,-103.2"/>
<text text-anchor="start" x="140.5" y="-110.9" font-family="Helvetica,sans-Serif" font-size="11.00" fill="#000000">int8[19]</text>
<polygon fill="none" stroke="#000000" points="10.5,-81.2 10.5,-103.2 137.5,-103.2 137.5,-81.2 10.5,-81.2"/>
<text text-anchor="start" x="30.5" y="-88.3" font-family="Helvetica,sans-Serif" font-size="11.00" fill="#000000">c_message_no</text>
<polygon fill="none" stroke="#000000" points="137.5,-81.2 137.5,-103.2 221.5,-103.2 221.5,-81.2 137.5,-81.2"/>
<text text-anchor="start" x="140.5" y="-88.9" font-family="Helvetica,sans-Serif" font-size="11.00" fill="#000000">int4[10]</text>
<polygon fill="none" stroke="#000000" points="10.5,-59.2 10.5,-81.2 137.5,-81.2 137.5,-59.2 10.5,-59.2"/>
<text text-anchor="start" x="30.5" y="-66.3" font-family="Helvetica,sans-Serif" font-size="11.00" fill="#000000">c_message_text</text>
<polygon fill="none" stroke="#000000" points="137.5,-59.2 137.5,-81.2 221.5,-81.2 221.5,-59.2 137.5,-59.2"/>
<text text-anchor="start" x="140.5" y="-66.9" font-family="Helvetica,sans-Serif" font-size="11.00" fill="#000000">varchar[255]</text>
<polygon fill="#ffffff" stroke="transparent" points="10.5,-40.2 10.5,-59.2 78.5,-59.2 78.5,-40.2 10.5,-40.2"/>
<polygon fill="none" stroke="#000000" points="10.5,-40.2 10.5,-59.2 78.5,-59.2 78.5,-40.2 10.5,-40.2"/>
<text text-anchor="start" x="13.5" y="-46.3" font-family="Helvetica,sans-Serif" font-size="11.00" fill="#000000">&lt; 0</text>
<polygon fill="#ffffff" stroke="transparent" points="78.5,-40.2 78.5,-59.2 137.5,-59.2 137.5,-40.2 78.5,-40.2"/>
<polygon fill="none" stroke="#000000" points="78.5,-40.2 78.5,-59.2 137.5,-59.2 137.5,-40.2 78.5,-40.2"/>
<text text-anchor="start" x="128.3862" y="-46.3" font-family="Helvetica,sans-Serif" font-size="11.00" fill="#000000"> &#160;</text>
<polygon fill="#ffffff" stroke="transparent" points="137.5,-40.2 137.5,-59.2 221.5,-59.2 221.5,-40.2 137.5,-40.2"/>
<polygon fill="none" stroke="#000000" points="137.5,-40.2 137.5,-59.2 221.5,-59.2 221.5,-40.2 137.5,-40.2"/>
<text text-anchor="start" x="202.9053" y="-46.3" font-family="Helvetica,sans-Serif" font-size="11.00" fill="#000000">1 &gt;</text>
<polygon fill="none" stroke="#000000" stroke-width="2" points="9,-39.2 9,-259.2 222,-259.2 222,-39.2 9,-39.2"/>
</a>
</g>
</g>
<!-- com_location_message&#45;&gt;com_message -->
<g id="edge1" class="edge">
<title>com_location_message:w&#45;&gt;com_message:e</title>
<path fill="none" stroke="#000000" d="M261.3362,-224.2C246.9956,-224.2 239.9115,-224.2 221.5,-224.2"/>
<polygon fill="#000000" stroke="#000000" points="271.2,-220.2 271.2,-228.2 269.6,-228.2 269.6,-220.2 271.2,-220.2"/>
<polyline fill="none" stroke="#000000" points="272,-224.2 268,-224.2 "/>
<ellipse fill="none" stroke="#000000" cx="264.8" cy="-224.2001" rx="3.2" ry="3.2"/>
</g>
</g>
</svg>
