<?xml version="1.0" encoding="UTF-8" standalone="no"?>
<!DOCTYPE svg PUBLIC "-//W3C//DTD SVG 1.1//EN"
 "http://www.w3.org/Graphics/SVG/1.1/DTD/svg11.dtd">
<!-- Generated by graphviz version 2.40.1 (20161225.0304)
 -->
<!-- Title: oneDegreeRelationshipsDiagram Pages: 1 -->
<svg width="492pt" height="558pt"
 viewBox="0.00 0.00 492.00 558.20" xmlns="http://www.w3.org/2000/svg" xmlns:xlink="http://www.w3.org/1999/xlink">
<g id="graph0" class="graph" transform="scale(1 1) rotate(0) translate(4 554.2)">
<title>oneDegreeRelationshipsDiagram</title>
<polygon fill="#ffffff" stroke="transparent" points="-4,4 -4,-554.2 488,-554.2 488,4 -4,4"/>
<text text-anchor="middle" x="72.4936" y="-7.3" font-family="Helvetica,sans-Serif" font-size="11.00" fill="#000000">Generated by SchemaSpy</text>
<!-- com_transport_unit_log -->
<g id="node1" class="node">
<title>com_transport_unit_log</title>
<g id="a_node1"><a xlink:href="../../tables/com_transport_unit_log.html" xlink:title="com_transport_unit_log" target="_top">
<polygon fill="#ffffff" stroke="transparent" points="210,-38.2 210,-546.2 476,-546.2 476,-38.2 210,-38.2"/>
<polygon fill="#f5f5f5" stroke="transparent" points="212,-521.2 212,-544.2 474,-544.2 474,-521.2 212,-521.2"/>
<polygon fill="none" stroke="#000000" points="212,-521.2 212,-544.2 474,-544.2 474,-521.2 212,-521.2"/>
<text text-anchor="start" x="217" y="-529.8" font-family="Helvetica,sans-Serif" font-weight="bold" font-size="11.00" fill="#000000">com_transport_unit_log</text>
<text text-anchor="start" x="439.0437" y="-529.3" font-family="Helvetica,sans-Serif" font-size="11.00" fill="#000000">[table]</text>
<polygon fill="none" stroke="#000000" points="212,-499.2 212,-521.2 390,-521.2 390,-499.2 212,-499.2"/>
<image xlink:href="../../images/primaryKeys.png" width="11px" height="12px" preserveAspectRatio="xMinYMin meet" x="217" y="-516.2"/>
<text text-anchor="start" x="232" y="-506.3" font-family="Helvetica,sans-Serif" font-size="11.00" fill="#000000">c_pk</text>
<polygon fill="none" stroke="#000000" points="390,-499.2 390,-521.2 474,-521.2 474,-499.2 390,-499.2"/>
<text text-anchor="start" x="393" y="-506.9" font-family="Helvetica,sans-Serif" font-size="11.00" fill="#000000">int8[19]</text>
<polygon fill="none" stroke="#000000" points="212,-477.2 212,-499.2 390,-499.2 390,-477.2 212,-477.2"/>
<image xlink:href="../../images/primaryKeys.png" width="11px" height="12px" preserveAspectRatio="xMinYMin meet" x="217" y="-494.2"/>
<text text-anchor="start" x="232" y="-484.3" font-family="Helvetica,sans-Serif" font-size="11.00" fill="#000000">c_rev</text>
<polygon fill="none" stroke="#000000" points="390,-477.2 390,-499.2 474,-499.2 474,-477.2 390,-477.2"/>
<text text-anchor="start" x="393" y="-484.9" font-family="Helvetica,sans-Serif" font-size="11.00" fill="#000000">int8[19]</text>
<polygon fill="none" stroke="#000000" points="212,-455.2 212,-477.2 390,-477.2 390,-455.2 212,-455.2"/>
<text text-anchor="start" x="232" y="-462.3" font-family="Helvetica,sans-Serif" font-size="11.00" fill="#000000">c_rev_type</text>
<polygon fill="none" stroke="#000000" points="390,-455.2 390,-477.2 474,-477.2 474,-455.2 390,-455.2"/>
<text text-anchor="start" x="393" y="-462.9" font-family="Helvetica,sans-Serif" font-size="11.00" fill="#000000">int2[5]</text>
<polygon fill="none" stroke="#000000" points="212,-433.2 212,-455.2 390,-455.2 390,-433.2 212,-433.2"/>
<text text-anchor="start" x="232" y="-440.3" font-family="Helvetica,sans-Serif" font-size="11.00" fill="#000000">c_created</text>
<polygon fill="none" stroke="#000000" points="390,-433.2 390,-455.2 474,-455.2 474,-433.2 390,-433.2"/>
<text text-anchor="start" x="392.8807" y="-440.9" font-family="Helvetica,sans-Serif" font-size="11.00" fill="#000000">timestamp[29,6]</text>
<polygon fill="none" stroke="#000000" points="212,-411.2 212,-433.2 390,-433.2 390,-411.2 212,-411.2"/>
<text text-anchor="start" x="232" y="-418.3" font-family="Helvetica,sans-Serif" font-size="11.00" fill="#000000">c_created_by</text>
<polygon fill="none" stroke="#000000" points="390,-411.2 390,-433.2 474,-433.2 474,-411.2 390,-411.2"/>
<text text-anchor="start" x="393" y="-418.9" font-family="Helvetica,sans-Serif" font-size="11.00" fill="#000000">varchar[255]</text>
<polygon fill="none" stroke="#000000" points="212,-389.2 212,-411.2 390,-411.2 390,-389.2 212,-389.2"/>
<text text-anchor="start" x="232" y="-396.3" font-family="Helvetica,sans-Serif" font-size="11.00" fill="#000000">c_updated_by</text>
<polygon fill="none" stroke="#000000" points="390,-389.2 390,-411.2 474,-411.2 474,-389.2 390,-389.2"/>
<text text-anchor="start" x="393" y="-396.9" font-family="Helvetica,sans-Serif" font-size="11.00" fill="#000000">varchar[255]</text>
<polygon fill="none" stroke="#000000" points="212,-367.2 212,-389.2 390,-389.2 390,-367.2 212,-367.2"/>
<text text-anchor="start" x="232" y="-374.3" font-family="Helvetica,sans-Serif" font-size="11.00" fill="#000000">c_updated</text>
<polygon fill="none" stroke="#000000" points="390,-367.2 390,-389.2 474,-389.2 474,-367.2 390,-367.2"/>
<text text-anchor="start" x="392.8807" y="-374.9" font-family="Helvetica,sans-Serif" font-size="11.00" fill="#000000">timestamp[29,6]</text>
<polygon fill="none" stroke="#000000" points="212,-345.2 212,-367.2 390,-367.2 390,-345.2 212,-345.2"/>
<text text-anchor="start" x="232" y="-352.3" font-family="Helvetica,sans-Serif" font-size="11.00" fill="#000000">c_pid</text>
<polygon fill="none" stroke="#000000" points="390,-345.2 390,-367.2 474,-367.2 474,-345.2 390,-345.2"/>
<text text-anchor="start" x="393" y="-352.9" font-family="Helvetica,sans-Serif" font-size="11.00" fill="#000000">varchar[255]</text>
<polygon fill="none" stroke="#000000" points="212,-323.2 212,-345.2 390,-345.2 390,-323.2 212,-323.2"/>
<text text-anchor="start" x="232" y="-330.3" font-family="Helvetica,sans-Serif" font-size="11.00" fill="#000000">c_actual_location_date</text>
<polygon fill="none" stroke="#000000" points="390,-323.2 390,-345.2 474,-345.2 474,-323.2 390,-323.2"/>
<text text-anchor="start" x="392.8807" y="-330.9" font-family="Helvetica,sans-Serif" font-size="11.00" fill="#000000">timestamp[29,6]</text>
<polygon fill="none" stroke="#000000" points="212,-301.2 212,-323.2 390,-323.2 390,-301.2 212,-301.2"/>
<text text-anchor="start" x="232" y="-308.3" font-family="Helvetica,sans-Serif" font-size="11.00" fill="#000000">c_barcode</text>
<polygon fill="none" stroke="#000000" points="390,-301.2 390,-323.2 474,-323.2 474,-301.2 390,-301.2"/>
<text text-anchor="start" x="393" y="-308.9" font-family="Helvetica,sans-Serif" font-size="11.00" fill="#000000">varchar[20]</text>
<polygon fill="none" stroke="#000000" points="212,-279.2 212,-301.2 390,-301.2 390,-279.2 212,-279.2"/>
<text text-anchor="start" x="232" y="-286.3" font-family="Helvetica,sans-Serif" font-size="11.00" fill="#000000">c_empty</text>
<polygon fill="none" stroke="#000000" points="390,-279.2 390,-301.2 474,-301.2 474,-279.2 390,-279.2"/>
<text text-anchor="start" x="393" y="-286.9" font-family="Helvetica,sans-Serif" font-size="11.00" fill="#000000">bool[1]</text>
<polygon fill="none" stroke="#000000" points="212,-257.2 212,-279.2 390,-279.2 390,-257.2 212,-257.2"/>
<text text-anchor="start" x="232" y="-264.3" font-family="Helvetica,sans-Serif" font-size="11.00" fill="#000000">c_group_name</text>
<polygon fill="none" stroke="#000000" points="390,-257.2 390,-279.2 474,-279.2 474,-257.2 390,-257.2"/>
<text text-anchor="start" x="393" y="-264.9" font-family="Helvetica,sans-Serif" font-size="11.00" fill="#000000">varchar[255]</text>
<polygon fill="none" stroke="#000000" points="212,-235.2 212,-257.2 390,-257.2 390,-235.2 212,-235.2"/>
<text text-anchor="start" x="232" y="-242.3" font-family="Helvetica,sans-Serif" font-size="11.00" fill="#000000">c_inventory_date</text>
<polygon fill="none" stroke="#000000" points="390,-235.2 390,-257.2 474,-257.2 474,-235.2 390,-235.2"/>
<text text-anchor="start" x="392.8807" y="-242.9" font-family="Helvetica,sans-Serif" font-size="11.00" fill="#000000">timestamp[29,6]</text>
<polygon fill="none" stroke="#000000" points="212,-213.2 212,-235.2 390,-235.2 390,-213.2 212,-213.2"/>
<text text-anchor="start" x="232" y="-220.3" font-family="Helvetica,sans-Serif" font-size="11.00" fill="#000000">c_inventory_user</text>
<polygon fill="none" stroke="#000000" points="390,-213.2 390,-235.2 474,-235.2 474,-213.2 390,-213.2"/>
<text text-anchor="start" x="393" y="-220.9" font-family="Helvetica,sans-Serif" font-size="11.00" fill="#000000">varchar[255]</text>
<polygon fill="none" stroke="#000000" points="212,-191.2 212,-213.2 390,-213.2 390,-191.2 212,-191.2"/>
<text text-anchor="start" x="232" y="-198.3" font-family="Helvetica,sans-Serif" font-size="11.00" fill="#000000">c_state</text>
<polygon fill="none" stroke="#000000" points="390,-191.2 390,-213.2 474,-213.2 474,-191.2 390,-191.2"/>
<text text-anchor="start" x="393" y="-198.9" font-family="Helvetica,sans-Serif" font-size="11.00" fill="#000000">varchar[255]</text>
<polygon fill="none" stroke="#000000" points="212,-169.2 212,-191.2 390,-191.2 390,-169.2 212,-169.2"/>
<text text-anchor="start" x="232" y="-176.3" font-family="Helvetica,sans-Serif" font-size="11.00" fill="#000000">c_weight</text>
<polygon fill="none" stroke="#000000" points="390,-169.2 390,-191.2 474,-191.2 474,-169.2 390,-169.2"/>
<text text-anchor="start" x="393" y="-176.9" font-family="Helvetica,sans-Serif" font-size="11.00" fill="#000000">numeric[38,2]</text>
<polygon fill="none" stroke="#000000" points="212,-147.2 212,-169.2 390,-169.2 390,-147.2 212,-147.2"/>
<text text-anchor="start" x="232" y="-154.3" font-family="Helvetica,sans-Serif" font-size="11.00" fill="#000000">c_weight_uom</text>
<polygon fill="none" stroke="#000000" points="390,-147.2 390,-169.2 474,-169.2 474,-147.2 390,-147.2"/>
<text text-anchor="start" x="393" y="-154.9" font-family="Helvetica,sans-Serif" font-size="11.00" fill="#000000">int2[5]</text>
<polygon fill="none" stroke="#000000" points="212,-125.2 212,-147.2 390,-147.2 390,-125.2 212,-125.2"/>
<text text-anchor="start" x="232" y="-132.3" font-family="Helvetica,sans-Serif" font-size="11.00" fill="#000000">c_actual_location</text>
<polygon fill="none" stroke="#000000" points="390,-125.2 390,-147.2 474,-147.2 474,-125.2 390,-125.2"/>
<text text-anchor="start" x="393" y="-132.9" font-family="Helvetica,sans-Serif" font-size="11.00" fill="#000000">int8[19]</text>
<polygon fill="none" stroke="#000000" points="212,-103.2 212,-125.2 390,-125.2 390,-103.2 212,-103.2"/>
<text text-anchor="start" x="232" y="-110.3" font-family="Helvetica,sans-Serif" font-size="11.00" fill="#000000">c_parent</text>
<polygon fill="none" stroke="#000000" points="390,-103.2 390,-125.2 474,-125.2 474,-103.2 390,-103.2"/>
<text text-anchor="start" x="393" y="-110.9" font-family="Helvetica,sans-Serif" font-size="11.00" fill="#000000">int8[19]</text>
<polygon fill="none" stroke="#000000" points="212,-81.2 212,-103.2 390,-103.2 390,-81.2 212,-81.2"/>
<text text-anchor="start" x="232" y="-88.3" font-family="Helvetica,sans-Serif" font-size="11.00" fill="#000000">c_target_location</text>
<polygon fill="none" stroke="#000000" points="390,-81.2 390,-103.2 474,-103.2 474,-81.2 390,-81.2"/>
<text text-anchor="start" x="393" y="-88.9" font-family="Helvetica,sans-Serif" font-size="11.00" fill="#000000">int8[19]</text>
<polygon fill="none" stroke="#000000" points="212,-59.2 212,-81.2 390,-81.2 390,-59.2 212,-59.2"/>
<text text-anchor="start" x="232" y="-66.3" font-family="Helvetica,sans-Serif" font-size="11.00" fill="#000000">c_transport_unit_type</text>
<polygon fill="none" stroke="#000000" points="390,-59.2 390,-81.2 474,-81.2 474,-59.2 390,-59.2"/>
<text text-anchor="start" x="393" y="-66.9" font-family="Helvetica,sans-Serif" font-size="11.00" fill="#000000">int8[19]</text>
<polygon fill="#ffffff" stroke="transparent" points="212,-40.2 212,-59.2 305,-59.2 305,-40.2 212,-40.2"/>
<polygon fill="none" stroke="#000000" points="212,-40.2 212,-59.2 305,-59.2 305,-40.2 212,-40.2"/>
<text text-anchor="start" x="215" y="-46.3" font-family="Helvetica,sans-Serif" font-size="11.00" fill="#000000">&lt; 1</text>
<polygon fill="#ffffff" stroke="transparent" points="305,-40.2 305,-59.2 390,-59.2 390,-40.2 305,-40.2"/>
<polygon fill="none" stroke="#000000" points="305,-40.2 305,-59.2 390,-59.2 390,-40.2 305,-40.2"/>
<text text-anchor="start" x="380.8862" y="-46.3" font-family="Helvetica,sans-Serif" font-size="11.00" fill="#000000"> &#160;</text>
<polygon fill="#ffffff" stroke="transparent" points="390,-40.2 390,-59.2 474,-59.2 474,-40.2 390,-40.2"/>
<polygon fill="none" stroke="#000000" points="390,-40.2 390,-59.2 474,-59.2 474,-40.2 390,-40.2"/>
<text text-anchor="start" x="455.4053" y="-46.3" font-family="Helvetica,sans-Serif" font-size="11.00" fill="#000000">0 &gt;</text>
<polygon fill="none" stroke="#000000" stroke-width="2" points="211,-39.2 211,-545.2 475,-545.2 475,-39.2 211,-39.2"/>
</a>
</g>
</g>
<!-- com_srv_revision -->
<g id="node2" class="node">
<title>com_srv_revision</title>
<g id="a_node2"><a xlink:href="../../tables/com_srv_revision.html" xlink:title="com_srv_revision" target="_top">
<polygon fill="#ffffff" stroke="transparent" points="8,-439.7 8,-522.7 161,-522.7 161,-439.7 8,-439.7"/>
<polygon fill="#f5f5f5" stroke="transparent" points="8.5,-499.2 8.5,-522.2 161.5,-522.2 161.5,-499.2 8.5,-499.2"/>
<polygon fill="none" stroke="#000000" points="8.5,-499.2 8.5,-522.2 161.5,-522.2 161.5,-499.2 8.5,-499.2"/>
<text text-anchor="start" x="13.5" y="-507.8" font-family="Helvetica,sans-Serif" font-weight="bold" font-size="11.00" fill="#000000">com_srv_revision</text>
<text text-anchor="start" x="127.0219" y="-507.3" font-family="Helvetica,sans-Serif" font-size="11.00" fill="#000000">[table]</text>
<polygon fill="none" stroke="#000000" points="8.5,-477.2 8.5,-499.2 161.5,-499.2 161.5,-477.2 8.5,-477.2"/>
<image xlink:href="../../images/primaryKeys.png" width="11px" height="12px" preserveAspectRatio="xMinYMin meet" x="13.5" y="-494.2"/>
<text text-anchor="start" x="37.5" y="-484.3" font-family="Helvetica,sans-Serif" font-size="11.00" fill="#000000">c_pk</text>
<polygon fill="none" stroke="#000000" points="8.5,-458.2 8.5,-477.2 161.5,-477.2 161.5,-458.2 8.5,-458.2"/>
<text text-anchor="start" x="11.5" y="-464.3" font-family="Helvetica,sans-Serif" font-size="11.00" fill="#000000">...</text>
<polygon fill="#ffffff" stroke="transparent" points="8.5,-439.2 8.5,-458.2 74.5,-458.2 74.5,-439.2 8.5,-439.2"/>
<polygon fill="none" stroke="#000000" points="8.5,-439.2 8.5,-458.2 74.5,-458.2 74.5,-439.2 8.5,-439.2"/>
<text text-anchor="start" x="11.5" y="-445.3" font-family="Helvetica,sans-Serif" font-size="11.00" fill="#000000"> &#160;</text>
<polygon fill="#ffffff" stroke="transparent" points="74.5,-439.2 74.5,-458.2 113.5,-458.2 113.5,-439.2 74.5,-439.2"/>
<polygon fill="none" stroke="#000000" points="74.5,-439.2 74.5,-458.2 113.5,-458.2 113.5,-439.2 74.5,-439.2"/>
<text text-anchor="start" x="104.3862" y="-445.3" font-family="Helvetica,sans-Serif" font-size="11.00" fill="#000000"> &#160;</text>
<polygon fill="#ffffff" stroke="transparent" points="113.5,-439.2 113.5,-458.2 161.5,-458.2 161.5,-439.2 113.5,-439.2"/>
<polygon fill="none" stroke="#000000" points="113.5,-439.2 113.5,-458.2 161.5,-458.2 161.5,-439.2 113.5,-439.2"/>
<text text-anchor="start" x="142.9053" y="-445.3" font-family="Helvetica,sans-Serif" font-size="11.00" fill="#000000">2 &gt;</text>
</a>
</g>
</g>
<!-- com_transport_unit_log&#45;&gt;com_srv_revision -->
<g id="edge1" class="edge">
<title>com_transport_unit_log:w&#45;&gt;com_srv_revision:e</title>
<path fill="none" stroke="#000000" d="M197.4203,-488.2C185.5435,-488.2 178.158,-488.2 161.5,-488.2"/>
<polygon fill="#000000" stroke="#000000" points="204,-488.2001 212,-491.8 208,-488.2 212,-488.2 212,-488.2 212,-488.2 208,-488.2 212,-484.6 204,-488.2001 204,-488.2001"/>
<ellipse fill="none" stroke="#000000" cx="200.8" cy="-488.2001" rx="3.2" ry="3.2"/>
</g>
</g>
</svg>
