<?xml version="1.0" encoding="UTF-8" standalone="no"?>
<!DOCTYPE svg PUBLIC "-//W3C//DTD SVG 1.1//EN"
 "http://www.w3.org/Graphics/SVG/1.1/DTD/svg11.dtd">
<!-- Generated by graphviz version 2.40.1 (20161225.0304)
 -->
<!-- Title: oneDegreeRelationshipsDiagram Pages: 1 -->
<svg width="492pt" height="479pt"
 viewBox="0.00 0.00 492.00 479.20" xmlns="http://www.w3.org/2000/svg" xmlns:xlink="http://www.w3.org/1999/xlink">
<g id="graph0" class="graph" transform="scale(1 1) rotate(0) translate(4 475.2)">
<title>oneDegreeRelationshipsDiagram</title>
<polygon fill="#ffffff" stroke="transparent" points="-4,4 -4,-475.2 488,-475.2 488,4 -4,4"/>
<text text-anchor="middle" x="72.4936" y="-7.3" font-family="Helvetica,sans-Serif" font-size="11.00" fill="#000000">Generated by SchemaSpy</text>
<!-- com_location_message -->
<g id="node1" class="node">
<title>com_location_message</title>
<g id="a_node1"><a xlink:href="../../tables/com_location_message.html" xlink:title="com_location_message" target="_top">
<polygon fill="#ffffff" stroke="transparent" points="256,-216.7 256,-306.7 476,-306.7 476,-216.7 256,-216.7"/>
<polygon fill="#f5f5f5" stroke="transparent" points="258,-281.7 258,-304.7 474,-304.7 474,-281.7 258,-281.7"/>
<polygon fill="none" stroke="#000000" points="258,-281.7 258,-304.7 474,-304.7 474,-281.7 258,-281.7"/>
<text text-anchor="start" x="263" y="-290.3" font-family="Helvetica,sans-Serif" font-weight="bold" font-size="11.00" fill="#000000">com_location_message</text>
<text text-anchor="start" x="439.0437" y="-289.8" font-family="Helvetica,sans-Serif" font-size="11.00" fill="#000000">[table]</text>
<polygon fill="none" stroke="#000000" points="258,-259.7 258,-281.7 432,-281.7 432,-259.7 258,-259.7"/>
<image xlink:href="../../images/primaryKeys.png" width="11px" height="12px" preserveAspectRatio="xMinYMin meet" x="263" y="-276.7"/>
<text text-anchor="start" x="278" y="-266.8" font-family="Helvetica,sans-Serif" font-size="11.00" fill="#000000">c_location_id</text>
<polygon fill="none" stroke="#000000" points="432,-259.7 432,-281.7 474,-281.7 474,-259.7 432,-259.7"/>
<text text-anchor="start" x="434.9644" y="-267.4" font-family="Helvetica,sans-Serif" font-size="11.00" fill="#000000">int8[19]</text>
<polygon fill="none" stroke="#000000" points="258,-237.7 258,-259.7 432,-259.7 432,-237.7 258,-237.7"/>
<image xlink:href="../../images/primaryKeys.png" width="11px" height="12px" preserveAspectRatio="xMinYMin meet" x="263" y="-254.7"/>
<text text-anchor="start" x="278" y="-244.8" font-family="Helvetica,sans-Serif" font-size="11.00" fill="#000000">c_message_id</text>
<polygon fill="none" stroke="#000000" points="432,-237.7 432,-259.7 474,-259.7 474,-237.7 432,-237.7"/>
<text text-anchor="start" x="434.9644" y="-245.4" font-family="Helvetica,sans-Serif" font-size="11.00" fill="#000000">int8[19]</text>
<polygon fill="#ffffff" stroke="transparent" points="258,-218.7 258,-237.7 349,-237.7 349,-218.7 258,-218.7"/>
<polygon fill="none" stroke="#000000" points="258,-218.7 258,-237.7 349,-237.7 349,-218.7 258,-218.7"/>
<text text-anchor="start" x="261" y="-224.8" font-family="Helvetica,sans-Serif" font-size="11.00" fill="#000000">&lt; 2</text>
<polygon fill="#ffffff" stroke="transparent" points="349,-218.7 349,-237.7 432,-237.7 432,-218.7 349,-218.7"/>
<polygon fill="none" stroke="#000000" points="349,-218.7 349,-237.7 432,-237.7 432,-218.7 349,-218.7"/>
<text text-anchor="start" x="422.8862" y="-224.8" font-family="Helvetica,sans-Serif" font-size="11.00" fill="#000000"> &#160;</text>
<polygon fill="#ffffff" stroke="transparent" points="432,-218.7 432,-237.7 474,-237.7 474,-218.7 432,-218.7"/>
<polygon fill="none" stroke="#000000" points="432,-218.7 432,-237.7 474,-237.7 474,-218.7 432,-218.7"/>
<text text-anchor="start" x="455.4053" y="-224.8" font-family="Helvetica,sans-Serif" font-size="11.00" fill="#000000">0 &gt;</text>
<polygon fill="none" stroke="#000000" stroke-width="2" points="257,-217.7 257,-305.7 475,-305.7 475,-217.7 257,-217.7"/>
</a>
</g>
</g>
<!-- com_location -->
<g id="node2" class="node">
<title>com_location</title>
<g id="a_node2"><a xlink:href="../../tables/com_location.html" xlink:title="com_location" target="_top">
<polygon fill="#ffffff" stroke="transparent" points="8,-142.2 8,-467.2 207,-467.2 207,-142.2 8,-142.2"/>
<polygon fill="#f5f5f5" stroke="transparent" points="8.5,-443.7 8.5,-466.7 207.5,-466.7 207.5,-443.7 8.5,-443.7"/>
<polygon fill="none" stroke="#000000" points="8.5,-443.7 8.5,-466.7 207.5,-466.7 207.5,-443.7 8.5,-443.7"/>
<text text-anchor="start" x="13.5" y="-452.3" font-family="Helvetica,sans-Serif" font-weight="bold" font-size="11.00" fill="#000000">com_location</text>
<text text-anchor="start" x="172.5437" y="-451.8" font-family="Helvetica,sans-Serif" font-size="11.00" fill="#000000">[table]</text>
<polygon fill="none" stroke="#000000" points="8.5,-421.7 8.5,-443.7 207.5,-443.7 207.5,-421.7 8.5,-421.7"/>
<image xlink:href="../../images/primaryKeys.png" width="11px" height="12px" preserveAspectRatio="xMinYMin meet" x="13.5" y="-438.7"/>
<text text-anchor="start" x="28.5" y="-428.8" font-family="Helvetica,sans-Serif" font-size="11.00" fill="#000000">c_pk</text>
<polygon fill="#ffffff" stroke="transparent" points="8.5,-399.7 8.5,-421.7 207.5,-421.7 207.5,-399.7 8.5,-399.7"/>
<polygon fill="none" stroke="#000000" points="8.5,-399.7 8.5,-421.7 207.5,-421.7 207.5,-399.7 8.5,-399.7"/>
<text text-anchor="start" x="28.5" y="-406.8" font-family="Helvetica,sans-Serif" font-size="11.00" fill="#000000">c_pid</text>
<polygon fill="#ffffff" stroke="transparent" points="8.5,-377.7 8.5,-399.7 207.5,-399.7 207.5,-377.7 8.5,-377.7"/>
<polygon fill="none" stroke="#000000" points="8.5,-377.7 8.5,-399.7 207.5,-399.7 207.5,-377.7 8.5,-377.7"/>
<text text-anchor="start" x="28.5" y="-384.8" font-family="Helvetica,sans-Serif" font-size="11.00" fill="#000000">c_erp_code</text>
<polygon fill="#ffffff" stroke="transparent" points="8.5,-355.7 8.5,-377.7 207.5,-377.7 207.5,-355.7 8.5,-355.7"/>
<polygon fill="none" stroke="#000000" points="8.5,-355.7 8.5,-377.7 207.5,-377.7 207.5,-355.7 8.5,-355.7"/>
<text text-anchor="start" x="28.5" y="-362.8" font-family="Helvetica,sans-Serif" font-size="11.00" fill="#000000">c_aisle</text>
<polygon fill="#ffffff" stroke="transparent" points="8.5,-333.7 8.5,-355.7 207.5,-355.7 207.5,-333.7 8.5,-333.7"/>
<polygon fill="none" stroke="#000000" points="8.5,-333.7 8.5,-355.7 207.5,-355.7 207.5,-333.7 8.5,-333.7"/>
<text text-anchor="start" x="28.5" y="-340.8" font-family="Helvetica,sans-Serif" font-size="11.00" fill="#000000">c_area</text>
<polygon fill="#ffffff" stroke="transparent" points="8.5,-311.7 8.5,-333.7 207.5,-333.7 207.5,-311.7 8.5,-311.7"/>
<polygon fill="none" stroke="#000000" points="8.5,-311.7 8.5,-333.7 207.5,-333.7 207.5,-311.7 8.5,-311.7"/>
<text text-anchor="start" x="28.5" y="-318.8" font-family="Helvetica,sans-Serif" font-size="11.00" fill="#000000">c_x</text>
<polygon fill="#ffffff" stroke="transparent" points="8.5,-289.7 8.5,-311.7 207.5,-311.7 207.5,-289.7 8.5,-289.7"/>
<polygon fill="none" stroke="#000000" points="8.5,-289.7 8.5,-311.7 207.5,-311.7 207.5,-289.7 8.5,-289.7"/>
<text text-anchor="start" x="28.5" y="-296.8" font-family="Helvetica,sans-Serif" font-size="11.00" fill="#000000">c_y</text>
<polygon fill="#ffffff" stroke="transparent" points="8.5,-267.7 8.5,-289.7 207.5,-289.7 207.5,-267.7 8.5,-267.7"/>
<polygon fill="none" stroke="#000000" points="8.5,-267.7 8.5,-289.7 207.5,-289.7 207.5,-267.7 8.5,-267.7"/>
<text text-anchor="start" x="28.5" y="-274.8" font-family="Helvetica,sans-Serif" font-size="11.00" fill="#000000">c_z</text>
<polygon fill="#ffffff" stroke="transparent" points="8.5,-245.7 8.5,-267.7 207.5,-267.7 207.5,-245.7 8.5,-245.7"/>
<polygon fill="none" stroke="#000000" points="8.5,-245.7 8.5,-267.7 207.5,-267.7 207.5,-245.7 8.5,-245.7"/>
<text text-anchor="start" x="28.5" y="-252.8" font-family="Helvetica,sans-Serif" font-size="11.00" fill="#000000">c_plc_code</text>
<polygon fill="none" stroke="#000000" points="8.5,-223.7 8.5,-245.7 207.5,-245.7 207.5,-223.7 8.5,-223.7"/>
<image xlink:href="../../images/foreignKeys.png" width="11px" height="12px" preserveAspectRatio="xMinYMin meet" x="13.5" y="-240.7"/>
<text text-anchor="start" x="28.5" y="-230.8" font-family="Helvetica,sans-Serif" font-size="11.00" fill="#000000">c_account</text>
<polygon fill="none" stroke="#000000" points="8.5,-201.7 8.5,-223.7 207.5,-223.7 207.5,-201.7 8.5,-201.7"/>
<image xlink:href="../../images/foreignKeys.png" width="11px" height="12px" preserveAspectRatio="xMinYMin meet" x="13.5" y="-218.7"/>
<text text-anchor="start" x="28.5" y="-208.8" font-family="Helvetica,sans-Serif" font-size="11.00" fill="#000000">c_location_group</text>
<polygon fill="none" stroke="#000000" points="8.5,-179.7 8.5,-201.7 207.5,-201.7 207.5,-179.7 8.5,-179.7"/>
<image xlink:href="../../images/foreignKeys.png" width="11px" height="12px" preserveAspectRatio="xMinYMin meet" x="13.5" y="-196.7"/>
<text text-anchor="start" x="28.5" y="-186.8" font-family="Helvetica,sans-Serif" font-size="11.00" fill="#000000">c_location_type</text>
<polygon fill="none" stroke="#000000" points="8.5,-160.7 8.5,-179.7 207.5,-179.7 207.5,-160.7 8.5,-160.7"/>
<text text-anchor="start" x="11.5" y="-166.8" font-family="Helvetica,sans-Serif" font-size="11.00" fill="#000000">...</text>
<polygon fill="#ffffff" stroke="transparent" points="8.5,-141.7 8.5,-160.7 85.5,-160.7 85.5,-141.7 8.5,-141.7"/>
<polygon fill="none" stroke="#000000" points="8.5,-141.7 8.5,-160.7 85.5,-160.7 85.5,-141.7 8.5,-141.7"/>
<text text-anchor="start" x="11.5" y="-147.8" font-family="Helvetica,sans-Serif" font-size="11.00" fill="#000000">&lt; 3</text>
<polygon fill="#ffffff" stroke="transparent" points="85.5,-141.7 85.5,-160.7 157.5,-160.7 157.5,-141.7 85.5,-141.7"/>
<polygon fill="none" stroke="#000000" points="85.5,-141.7 85.5,-160.7 157.5,-160.7 157.5,-141.7 85.5,-141.7"/>
<text text-anchor="start" x="115.9956" y="-147.8" font-family="Helvetica,sans-Serif" font-size="11.00" fill="#000000">32 rows</text>
<polygon fill="#ffffff" stroke="transparent" points="157.5,-141.7 157.5,-160.7 207.5,-160.7 207.5,-141.7 157.5,-141.7"/>
<polygon fill="none" stroke="#000000" points="157.5,-141.7 157.5,-160.7 207.5,-160.7 207.5,-141.7 157.5,-141.7"/>
<text text-anchor="start" x="188.9053" y="-147.8" font-family="Helvetica,sans-Serif" font-size="11.00" fill="#000000">3 &gt;</text>
</a>
</g>
</g>
<!-- com_location_message&#45;&gt;com_location -->
<g id="edge1" class="edge">
<title>com_location_message:w&#45;&gt;com_location:e</title>
<path fill="none" stroke="#000000" d="M243.6699,-273.3767C196.8484,-294.4397 277.1725,-432.7 207.5,-432.7"/>
<polygon fill="#000000" stroke="#000000" points="250.136,-272.1689 258.661,-274.2388 254.068,-271.4345 258,-270.7 258,-270.7 258,-270.7 254.068,-271.4345 257.339,-267.1612 250.136,-272.1689 250.136,-272.1689"/>
<ellipse fill="none" stroke="#000000" cx="246.9904" cy="-272.7565" rx="3.2" ry="3.2"/>
</g>
<!-- com_message -->
<g id="node3" class="node">
<title>com_message</title>
<g id="a_node3"><a xlink:href="../../tables/com_message.html" xlink:title="com_message" target="_top">
<polygon fill="#ffffff" stroke="transparent" points="41.5,-38.2 41.5,-121.2 173.5,-121.2 173.5,-38.2 41.5,-38.2"/>
<polygon fill="#f5f5f5" stroke="transparent" points="41.5,-97.7 41.5,-120.7 173.5,-120.7 173.5,-97.7 41.5,-97.7"/>
<polygon fill="none" stroke="#000000" points="41.5,-97.7 41.5,-120.7 173.5,-120.7 173.5,-97.7 41.5,-97.7"/>
<text text-anchor="start" x="46.5" y="-106.3" font-family="Helvetica,sans-Serif" font-weight="bold" font-size="11.00" fill="#000000">com_message</text>
<text text-anchor="start" x="139.0219" y="-105.8" font-family="Helvetica,sans-Serif" font-size="11.00" fill="#000000">[table]</text>
<polygon fill="none" stroke="#000000" points="41.5,-75.7 41.5,-97.7 173.5,-97.7 173.5,-75.7 41.5,-75.7"/>
<image xlink:href="../../images/primaryKeys.png" width="11px" height="12px" preserveAspectRatio="xMinYMin meet" x="46.5" y="-92.7"/>
<text text-anchor="start" x="64.5" y="-82.8" font-family="Helvetica,sans-Serif" font-size="11.00" fill="#000000">c_pk</text>
<polygon fill="none" stroke="#000000" points="41.5,-56.7 41.5,-75.7 173.5,-75.7 173.5,-56.7 41.5,-56.7"/>
<text text-anchor="start" x="44.5" y="-62.8" font-family="Helvetica,sans-Serif" font-size="11.00" fill="#000000">...</text>
<polygon fill="#ffffff" stroke="transparent" points="41.5,-37.7 41.5,-56.7 96.5,-56.7 96.5,-37.7 41.5,-37.7"/>
<polygon fill="none" stroke="#000000" points="41.5,-37.7 41.5,-56.7 96.5,-56.7 96.5,-37.7 41.5,-37.7"/>
<text text-anchor="start" x="44.5" y="-43.8" font-family="Helvetica,sans-Serif" font-size="11.00" fill="#000000"> &#160;</text>
<polygon fill="#ffffff" stroke="transparent" points="96.5,-37.7 96.5,-56.7 130.5,-56.7 130.5,-37.7 96.5,-37.7"/>
<polygon fill="none" stroke="#000000" points="96.5,-37.7 96.5,-56.7 130.5,-56.7 130.5,-37.7 96.5,-37.7"/>
<text text-anchor="start" x="121.3862" y="-43.8" font-family="Helvetica,sans-Serif" font-size="11.00" fill="#000000"> &#160;</text>
<polygon fill="#ffffff" stroke="transparent" points="130.5,-37.7 130.5,-56.7 173.5,-56.7 173.5,-37.7 130.5,-37.7"/>
<polygon fill="none" stroke="#000000" points="130.5,-37.7 130.5,-56.7 173.5,-56.7 173.5,-37.7 130.5,-37.7"/>
<text text-anchor="start" x="154.9053" y="-43.8" font-family="Helvetica,sans-Serif" font-size="11.00" fill="#000000">1 &gt;</text>
</a>
</g>
</g>
<!-- com_location_message&#45;&gt;com_message -->
<g id="edge2" class="edge">
<title>com_location_message:w&#45;&gt;com_message:e</title>
<path fill="none" stroke="#000000" d="M247.1943,-247.5854C208.3418,-238.4734 241.7458,-175.4631 215,-131.7 200.8125,-108.4855 200.7066,-86.7 173.5,-86.7"/>
<polygon fill="#000000" stroke="#000000" points="257.6147,-244.639 256.7938,-252.5968 255.2022,-252.4326 256.0231,-244.4748 257.6147,-244.639"/>
<polyline fill="none" stroke="#000000" points="258,-248.7 254.0211,-248.2895 "/>
<ellipse fill="none" stroke="#000000" cx="250.838" cy="-247.9612" rx="3.2" ry="3.2"/>
</g>
</g>
</svg>
