<?xml version="1.0" encoding="UTF-8" standalone="no"?>
<!DOCTYPE svg PUBLIC "-//W3C//DTD SVG 1.1//EN"
 "http://www.w3.org/Graphics/SVG/1.1/DTD/svg11.dtd">
<!-- Generated by graphviz version 2.40.1 (20161225.0304)
 -->
<!-- Title: twoDegreesRelationshipsDiagram Pages: 1 -->
<svg width="480pt" height="355pt"
 viewBox="0.00 0.00 480.00 354.70" xmlns="http://www.w3.org/2000/svg" xmlns:xlink="http://www.w3.org/1999/xlink">
<g id="graph0" class="graph" transform="scale(1 1) rotate(0) translate(4 350.7)">
<title>twoDegreesRelationshipsDiagram</title>
<polygon fill="#ffffff" stroke="transparent" points="-4,4 -4,-350.7 476,-350.7 476,4 -4,4"/>
<text text-anchor="middle" x="72.4936" y="-7.3" font-family="Helvetica,sans-Serif" font-size="11.00" fill="#000000">Generated by SchemaSpy</text>
<!-- com_location_message -->
<g id="node1" class="node">
<title>com_location_message</title>
<g id="a_node1"><a xlink:href="../../tables/com_location_message.html" xlink:title="com_location_message" target="_top">
<polygon fill="#ffffff" stroke="transparent" points="272,-225.2 272,-311.2 464,-311.2 464,-225.2 272,-225.2"/>
<polygon fill="#f5f5f5" stroke="transparent" points="272,-288.2 272,-311.2 464,-311.2 464,-288.2 272,-288.2"/>
<polygon fill="none" stroke="#000000" points="272,-288.2 272,-311.2 464,-311.2 464,-288.2 272,-288.2"/>
<text text-anchor="start" x="277" y="-296.8" font-family="Helvetica,sans-Serif" font-weight="bold" font-size="11.00" fill="#000000">com_location_message</text>
<text text-anchor="start" x="429.5219" y="-296.3" font-family="Helvetica,sans-Serif" font-size="11.00" fill="#000000">[table]</text>
<polygon fill="none" stroke="#000000" points="272,-266.2 272,-288.2 464,-288.2 464,-266.2 272,-266.2"/>
<image xlink:href="../../images/primaryKeys.png" width="11px" height="12px" preserveAspectRatio="xMinYMin meet" x="277" y="-283.2"/>
<text text-anchor="start" x="301" y="-273.3" font-family="Helvetica,sans-Serif" font-size="11.00" fill="#000000">c_location_id</text>
<polygon fill="none" stroke="#000000" points="272,-244.2 272,-266.2 464,-266.2 464,-244.2 272,-244.2"/>
<image xlink:href="../../images/primaryKeys.png" width="11px" height="12px" preserveAspectRatio="xMinYMin meet" x="277" y="-261.2"/>
<text text-anchor="start" x="301" y="-251.3" font-family="Helvetica,sans-Serif" font-size="11.00" fill="#000000">c_message_id</text>
<polygon fill="#ffffff" stroke="transparent" points="272,-225.2 272,-244.2 366,-244.2 366,-225.2 272,-225.2"/>
<polygon fill="none" stroke="#000000" points="272,-225.2 272,-244.2 366,-244.2 366,-225.2 272,-225.2"/>
<text text-anchor="start" x="275" y="-231.3" font-family="Helvetica,sans-Serif" font-size="11.00" fill="#000000">&lt; 2</text>
<polygon fill="#ffffff" stroke="transparent" points="366,-225.2 366,-244.2 415,-244.2 415,-225.2 366,-225.2"/>
<polygon fill="none" stroke="#000000" points="366,-225.2 366,-244.2 415,-244.2 415,-225.2 366,-225.2"/>
<text text-anchor="start" x="405.8862" y="-231.3" font-family="Helvetica,sans-Serif" font-size="11.00" fill="#000000"> &#160;</text>
<polygon fill="#ffffff" stroke="transparent" points="415,-225.2 415,-244.2 464,-244.2 464,-225.2 415,-225.2"/>
<polygon fill="none" stroke="#000000" points="415,-225.2 415,-244.2 464,-244.2 464,-225.2 415,-225.2"/>
<text text-anchor="start" x="454.8862" y="-231.3" font-family="Helvetica,sans-Serif" font-size="11.00" fill="#000000"> &#160;</text>
</a>
</g>
</g>
<!-- com_location -->
<g id="node2" class="node">
<title>com_location</title>
<g id="a_node2"><a xlink:href="../../tables/com_location.html" xlink:title="com_location" target="_top">
<polygon fill="#ffffff" stroke="transparent" points="52,-281.7 52,-342.7 179,-342.7 179,-281.7 52,-281.7"/>
<polygon fill="#f5f5f5" stroke="transparent" points="52.5,-319.2 52.5,-342.2 179.5,-342.2 179.5,-319.2 52.5,-319.2"/>
<polygon fill="none" stroke="#000000" points="52.5,-319.2 52.5,-342.2 179.5,-342.2 179.5,-319.2 52.5,-319.2"/>
<text text-anchor="start" x="57.5" y="-327.8" font-family="Helvetica,sans-Serif" font-weight="bold" font-size="11.00" fill="#000000">com_location</text>
<text text-anchor="start" x="145.0219" y="-327.3" font-family="Helvetica,sans-Serif" font-size="11.00" fill="#000000">[table]</text>
<polygon fill="none" stroke="#000000" points="52.5,-300.2 52.5,-319.2 179.5,-319.2 179.5,-300.2 52.5,-300.2"/>
<text text-anchor="start" x="55.5" y="-306.3" font-family="Helvetica,sans-Serif" font-size="11.00" fill="#000000">...</text>
<polygon fill="#ffffff" stroke="transparent" points="52.5,-281.2 52.5,-300.2 93.5,-300.2 93.5,-281.2 52.5,-281.2"/>
<polygon fill="none" stroke="#000000" points="52.5,-281.2 52.5,-300.2 93.5,-300.2 93.5,-281.2 52.5,-281.2"/>
<text text-anchor="start" x="55.5" y="-287.3" font-family="Helvetica,sans-Serif" font-size="11.00" fill="#000000">&lt; 3</text>
<polygon fill="#ffffff" stroke="transparent" points="93.5,-281.2 93.5,-300.2 147.5,-300.2 147.5,-281.2 93.5,-281.2"/>
<polygon fill="none" stroke="#000000" points="93.5,-281.2 93.5,-300.2 147.5,-300.2 147.5,-281.2 93.5,-281.2"/>
<text text-anchor="start" x="105.9956" y="-287.3" font-family="Helvetica,sans-Serif" font-size="11.00" fill="#000000">32 rows</text>
<polygon fill="#ffffff" stroke="transparent" points="147.5,-281.2 147.5,-300.2 179.5,-300.2 179.5,-281.2 147.5,-281.2"/>
<polygon fill="none" stroke="#000000" points="147.5,-281.2 147.5,-300.2 179.5,-300.2 179.5,-281.2 147.5,-281.2"/>
<text text-anchor="start" x="160.9053" y="-287.3" font-family="Helvetica,sans-Serif" font-size="11.00" fill="#000000">3 &gt;</text>
</a>
</g>
</g>
<!-- com_location_message&#45;&gt;com_location -->
<g id="edge1" class="edge">
<title>com_location_message:w&#45;&gt;com_location:e</title>
<path fill="none" stroke="#000000" d="M257.3199,-278.575C226.5303,-284.7 217.564,-309.2 179.5,-309.2"/>
<polygon fill="#000000" stroke="#000000" points="264.0349,-277.9461 272.3357,-280.7843 268.0174,-277.573 272,-277.2 272,-277.2 272,-277.2 268.0174,-277.573 271.6643,-273.6157 264.0349,-277.9461 264.0349,-277.9461"/>
<ellipse fill="none" stroke="#000000" cx="260.8488" cy="-278.2445" rx="3.2" ry="3.2"/>
</g>
<!-- com_message -->
<g id="node3" class="node">
<title>com_message</title>
<g id="a_node3"><a xlink:href="../../tables/com_message.html" xlink:title="com_message" target="_top">
<polygon fill="#ffffff" stroke="transparent" points="8,-38.2 8,-260.2 223,-260.2 223,-38.2 8,-38.2"/>
<polygon fill="#f5f5f5" stroke="transparent" points="10.5,-235.2 10.5,-258.2 221.5,-258.2 221.5,-235.2 10.5,-235.2"/>
<polygon fill="none" stroke="#000000" points="10.5,-235.2 10.5,-258.2 221.5,-258.2 221.5,-235.2 10.5,-235.2"/>
<text text-anchor="start" x="15.5" y="-243.8" font-family="Helvetica,sans-Serif" font-weight="bold" font-size="11.00" fill="#000000">com_message</text>
<text text-anchor="start" x="186.5437" y="-243.3" font-family="Helvetica,sans-Serif" font-size="11.00" fill="#000000">[table]</text>
<polygon fill="none" stroke="#000000" points="10.5,-213.2 10.5,-235.2 137.5,-235.2 137.5,-213.2 10.5,-213.2"/>
<image xlink:href="../../images/primaryKeys.png" width="11px" height="12px" preserveAspectRatio="xMinYMin meet" x="15.5" y="-230.2"/>
<text text-anchor="start" x="30.5" y="-220.3" font-family="Helvetica,sans-Serif" font-size="11.00" fill="#000000">c_pk</text>
<polygon fill="none" stroke="#000000" points="137.5,-213.2 137.5,-235.2 221.5,-235.2 221.5,-213.2 137.5,-213.2"/>
<text text-anchor="start" x="140.5" y="-220.9" font-family="Helvetica,sans-Serif" font-size="11.00" fill="#000000">int8[19]</text>
<polygon fill="none" stroke="#000000" points="10.5,-191.2 10.5,-213.2 137.5,-213.2 137.5,-191.2 10.5,-191.2"/>
<text text-anchor="start" x="30.5" y="-198.3" font-family="Helvetica,sans-Serif" font-size="11.00" fill="#000000">c_created</text>
<polygon fill="none" stroke="#000000" points="137.5,-191.2 137.5,-213.2 221.5,-213.2 221.5,-191.2 137.5,-191.2"/>
<text text-anchor="start" x="140.3807" y="-198.9" font-family="Helvetica,sans-Serif" font-size="11.00" fill="#000000">timestamp[29,6]</text>
<polygon fill="none" stroke="#000000" points="10.5,-169.2 10.5,-191.2 137.5,-191.2 137.5,-169.2 10.5,-169.2"/>
<text text-anchor="start" x="30.5" y="-176.3" font-family="Helvetica,sans-Serif" font-size="11.00" fill="#000000">c_created_by</text>
<polygon fill="none" stroke="#000000" points="137.5,-169.2 137.5,-191.2 221.5,-191.2 221.5,-169.2 137.5,-169.2"/>
<text text-anchor="start" x="140.5" y="-176.9" font-family="Helvetica,sans-Serif" font-size="11.00" fill="#000000">varchar[255]</text>
<polygon fill="none" stroke="#000000" points="10.5,-147.2 10.5,-169.2 137.5,-169.2 137.5,-147.2 10.5,-147.2"/>
<text text-anchor="start" x="30.5" y="-154.3" font-family="Helvetica,sans-Serif" font-size="11.00" fill="#000000">c_updated_by</text>
<polygon fill="none" stroke="#000000" points="137.5,-147.2 137.5,-169.2 221.5,-169.2 221.5,-147.2 137.5,-147.2"/>
<text text-anchor="start" x="140.5" y="-154.9" font-family="Helvetica,sans-Serif" font-size="11.00" fill="#000000">varchar[255]</text>
<polygon fill="none" stroke="#000000" points="10.5,-125.2 10.5,-147.2 137.5,-147.2 137.5,-125.2 10.5,-125.2"/>
<text text-anchor="start" x="30.5" y="-132.3" font-family="Helvetica,sans-Serif" font-size="11.00" fill="#000000">c_updated</text>
<polygon fill="none" stroke="#000000" points="137.5,-125.2 137.5,-147.2 221.5,-147.2 221.5,-125.2 137.5,-125.2"/>
<text text-anchor="start" x="140.3807" y="-132.9" font-family="Helvetica,sans-Serif" font-size="11.00" fill="#000000">timestamp[29,6]</text>
<polygon fill="none" stroke="#000000" points="10.5,-103.2 10.5,-125.2 137.5,-125.2 137.5,-103.2 10.5,-103.2"/>
<text text-anchor="start" x="30.5" y="-110.3" font-family="Helvetica,sans-Serif" font-size="11.00" fill="#000000">c_ol</text>
<polygon fill="none" stroke="#000000" points="137.5,-103.2 137.5,-125.2 221.5,-125.2 221.5,-103.2 137.5,-103.2"/>
<text text-anchor="start" x="140.5" y="-110.9" font-family="Helvetica,sans-Serif" font-size="11.00" fill="#000000">int8[19]</text>
<polygon fill="none" stroke="#000000" points="10.5,-81.2 10.5,-103.2 137.5,-103.2 137.5,-81.2 10.5,-81.2"/>
<text text-anchor="start" x="30.5" y="-88.3" font-family="Helvetica,sans-Serif" font-size="11.00" fill="#000000">c_message_no</text>
<polygon fill="none" stroke="#000000" points="137.5,-81.2 137.5,-103.2 221.5,-103.2 221.5,-81.2 137.5,-81.2"/>
<text text-anchor="start" x="140.5" y="-88.9" font-family="Helvetica,sans-Serif" font-size="11.00" fill="#000000">int4[10]</text>
<polygon fill="none" stroke="#000000" points="10.5,-59.2 10.5,-81.2 137.5,-81.2 137.5,-59.2 10.5,-59.2"/>
<text text-anchor="start" x="30.5" y="-66.3" font-family="Helvetica,sans-Serif" font-size="11.00" fill="#000000">c_message_text</text>
<polygon fill="none" stroke="#000000" points="137.5,-59.2 137.5,-81.2 221.5,-81.2 221.5,-59.2 137.5,-59.2"/>
<text text-anchor="start" x="140.5" y="-66.9" font-family="Helvetica,sans-Serif" font-size="11.00" fill="#000000">varchar[255]</text>
<polygon fill="#ffffff" stroke="transparent" points="10.5,-40.2 10.5,-59.2 78.5,-59.2 78.5,-40.2 10.5,-40.2"/>
<polygon fill="none" stroke="#000000" points="10.5,-40.2 10.5,-59.2 78.5,-59.2 78.5,-40.2 10.5,-40.2"/>
<text text-anchor="start" x="13.5" y="-46.3" font-family="Helvetica,sans-Serif" font-size="11.00" fill="#000000">&lt; 0</text>
<polygon fill="#ffffff" stroke="transparent" points="78.5,-40.2 78.5,-59.2 137.5,-59.2 137.5,-40.2 78.5,-40.2"/>
<polygon fill="none" stroke="#000000" points="78.5,-40.2 78.5,-59.2 137.5,-59.2 137.5,-40.2 78.5,-40.2"/>
<text text-anchor="start" x="128.3862" y="-46.3" font-family="Helvetica,sans-Serif" font-size="11.00" fill="#000000"> &#160;</text>
<polygon fill="#ffffff" stroke="transparent" points="137.5,-40.2 137.5,-59.2 221.5,-59.2 221.5,-40.2 137.5,-40.2"/>
<polygon fill="none" stroke="#000000" points="137.5,-40.2 137.5,-59.2 221.5,-59.2 221.5,-40.2 137.5,-40.2"/>
<text text-anchor="start" x="202.9053" y="-46.3" font-family="Helvetica,sans-Serif" font-size="11.00" fill="#000000">1 &gt;</text>
<polygon fill="none" stroke="#000000" stroke-width="2" points="9,-39.2 9,-259.2 222,-259.2 222,-39.2 9,-39.2"/>
</a>
</g>
</g>
<!-- com_location_message&#45;&gt;com_message -->
<g id="edge2" class="edge">
<title>com_location_message:w&#45;&gt;com_message:e</title>
<path fill="none" stroke="#000000" d="M261.5255,-253.166C245.6468,-246.2693 243.7209,-224.2 221.5,-224.2"/>
<polygon fill="#000000" stroke="#000000" points="271.9772,-251.1208 270.4521,-258.9741 268.8815,-258.6691 270.4065,-250.8158 271.9772,-251.1208"/>
<polyline fill="none" stroke="#000000" points="272,-255.2 268.0733,-254.4375 "/>
<ellipse fill="none" stroke="#000000" cx="264.932" cy="-253.8274" rx="3.2" ry="3.2"/>
</g>
</g>
</svg>
