<?xml version="1.0" encoding="UTF-8" standalone="no"?>
<!DOCTYPE svg PUBLIC "-//W3C//DTD SVG 1.1//EN"
 "http://www.w3.org/Graphics/SVG/1.1/DTD/svg11.dtd">
<!-- Generated by graphviz version 2.40.1 (20161225.0304)
 -->
<!-- Title: oneDegreeRelationshipsDiagram Pages: 1 -->
<svg width="476pt" height="281pt"
 viewBox="0.00 0.00 476.00 281.20" xmlns="http://www.w3.org/2000/svg" xmlns:xlink="http://www.w3.org/1999/xlink">
<g id="graph0" class="graph" transform="scale(1 1) rotate(0) translate(4 277.2)">
<title>oneDegreeRelationshipsDiagram</title>
<polygon fill="#ffffff" stroke="transparent" points="-4,4 -4,-277.2 472,-277.2 472,4 -4,4"/>
<text text-anchor="middle" x="72.4936" y="-7.3" font-family="Helvetica,sans-Serif" font-size="11.00" fill="#000000">Generated by SchemaSpy</text>
<!-- com_transport_unit_log -->
<g id="node1" class="node">
<title>com_transport_unit_log</title>
<g id="a_node1"><a xlink:href="../../tables/com_transport_unit_log.html" xlink:title="com_transport_unit_log" target="_top">
<polygon fill="#ffffff" stroke="transparent" points="263.5,-164.2 263.5,-269.2 459.5,-269.2 459.5,-164.2 263.5,-164.2"/>
<polygon fill="#f5f5f5" stroke="transparent" points="263.5,-245.7 263.5,-268.7 459.5,-268.7 459.5,-245.7 263.5,-245.7"/>
<polygon fill="none" stroke="#000000" points="263.5,-245.7 263.5,-268.7 459.5,-268.7 459.5,-245.7 263.5,-245.7"/>
<text text-anchor="start" x="268.5" y="-254.3" font-family="Helvetica,sans-Serif" font-weight="bold" font-size="11.00" fill="#000000">com_transport_unit_log</text>
<text text-anchor="start" x="425.0219" y="-253.8" font-family="Helvetica,sans-Serif" font-size="11.00" fill="#000000">[table]</text>
<polygon fill="none" stroke="#000000" points="263.5,-223.7 263.5,-245.7 459.5,-245.7 459.5,-223.7 263.5,-223.7"/>
<image xlink:href="../../images/primaryKeys.png" width="11px" height="12px" preserveAspectRatio="xMinYMin meet" x="268.5" y="-240.7"/>
<text text-anchor="start" x="292.5" y="-230.8" font-family="Helvetica,sans-Serif" font-size="11.00" fill="#000000">c_pk</text>
<polygon fill="none" stroke="#000000" points="263.5,-201.7 263.5,-223.7 459.5,-223.7 459.5,-201.7 263.5,-201.7"/>
<image xlink:href="../../images/primaryKeys.png" width="11px" height="12px" preserveAspectRatio="xMinYMin meet" x="268.5" y="-218.7"/>
<text text-anchor="start" x="292.5" y="-208.8" font-family="Helvetica,sans-Serif" font-size="11.00" fill="#000000">c_rev</text>
<polygon fill="none" stroke="#000000" points="263.5,-182.7 263.5,-201.7 459.5,-201.7 459.5,-182.7 263.5,-182.7"/>
<text text-anchor="start" x="266.5" y="-188.8" font-family="Helvetica,sans-Serif" font-size="11.00" fill="#000000">...</text>
<polygon fill="#ffffff" stroke="transparent" points="263.5,-163.7 263.5,-182.7 359.5,-182.7 359.5,-163.7 263.5,-163.7"/>
<polygon fill="none" stroke="#000000" points="263.5,-163.7 263.5,-182.7 359.5,-182.7 359.5,-163.7 263.5,-163.7"/>
<text text-anchor="start" x="266.5" y="-169.8" font-family="Helvetica,sans-Serif" font-size="11.00" fill="#000000">&lt; 1</text>
<polygon fill="#ffffff" stroke="transparent" points="359.5,-163.7 359.5,-182.7 409.5,-182.7 409.5,-163.7 359.5,-163.7"/>
<polygon fill="none" stroke="#000000" points="359.5,-163.7 359.5,-182.7 409.5,-182.7 409.5,-163.7 359.5,-163.7"/>
<text text-anchor="start" x="400.3862" y="-169.8" font-family="Helvetica,sans-Serif" font-size="11.00" fill="#000000"> &#160;</text>
<polygon fill="#ffffff" stroke="transparent" points="409.5,-163.7 409.5,-182.7 459.5,-182.7 459.5,-163.7 409.5,-163.7"/>
<polygon fill="none" stroke="#000000" points="409.5,-163.7 409.5,-182.7 459.5,-182.7 459.5,-163.7 409.5,-163.7"/>
<text text-anchor="start" x="450.3862" y="-169.8" font-family="Helvetica,sans-Serif" font-size="11.00" fill="#000000"> &#160;</text>
</a>
</g>
</g>
<!-- com_srv_revision -->
<g id="node2" class="node">
<title>com_srv_revision</title>
<g id="a_node2"><a xlink:href="../../tables/com_srv_revision.html" xlink:title="com_srv_revision" target="_top">
<polygon fill="#ffffff" stroke="transparent" points="8,-51.7 8,-185.7 214,-185.7 214,-51.7 8,-51.7"/>
<polygon fill="#f5f5f5" stroke="transparent" points="10,-160.7 10,-183.7 212,-183.7 212,-160.7 10,-160.7"/>
<polygon fill="none" stroke="#000000" points="10,-160.7 10,-183.7 212,-183.7 212,-160.7 10,-160.7"/>
<text text-anchor="start" x="15" y="-169.3" font-family="Helvetica,sans-Serif" font-weight="bold" font-size="11.00" fill="#000000">com_srv_revision</text>
<text text-anchor="start" x="177.0437" y="-168.8" font-family="Helvetica,sans-Serif" font-size="11.00" fill="#000000">[table]</text>
<polygon fill="none" stroke="#000000" points="10,-138.7 10,-160.7 145,-160.7 145,-138.7 10,-138.7"/>
<image xlink:href="../../images/primaryKeys.png" width="11px" height="12px" preserveAspectRatio="xMinYMin meet" x="15" y="-155.7"/>
<text text-anchor="start" x="30" y="-145.8" font-family="Helvetica,sans-Serif" font-size="11.00" fill="#000000">c_pk</text>
<polygon fill="none" stroke="#000000" points="145,-138.7 145,-160.7 212,-160.7 212,-138.7 145,-138.7"/>
<text text-anchor="start" x="148" y="-146.4" font-family="Helvetica,sans-Serif" font-size="11.00" fill="#000000">int8[19]</text>
<polygon fill="none" stroke="#000000" points="10,-116.7 10,-138.7 145,-138.7 145,-116.7 10,-116.7"/>
<text text-anchor="start" x="30" y="-123.8" font-family="Helvetica,sans-Serif" font-size="11.00" fill="#000000">c_timestamp</text>
<polygon fill="none" stroke="#000000" points="145,-116.7 145,-138.7 212,-138.7 212,-116.7 145,-116.7"/>
<text text-anchor="start" x="148" y="-124.4" font-family="Helvetica,sans-Serif" font-size="11.00" fill="#000000">int8[19]</text>
<polygon fill="none" stroke="#000000" points="10,-94.7 10,-116.7 145,-116.7 145,-94.7 10,-94.7"/>
<text text-anchor="start" x="30" y="-101.8" font-family="Helvetica,sans-Serif" font-size="11.00" fill="#000000">c_trace_id</text>
<polygon fill="none" stroke="#000000" points="145,-94.7 145,-116.7 212,-116.7 212,-94.7 145,-94.7"/>
<text text-anchor="start" x="147.9365" y="-102.4" font-family="Helvetica,sans-Serif" font-size="11.00" fill="#000000">varchar[255]</text>
<polygon fill="none" stroke="#000000" points="10,-72.7 10,-94.7 145,-94.7 145,-72.7 10,-72.7"/>
<text text-anchor="start" x="30" y="-79.8" font-family="Helvetica,sans-Serif" font-size="11.00" fill="#000000">c_user</text>
<polygon fill="none" stroke="#000000" points="145,-72.7 145,-94.7 212,-94.7 212,-72.7 145,-72.7"/>
<text text-anchor="start" x="147.9365" y="-80.4" font-family="Helvetica,sans-Serif" font-size="11.00" fill="#000000">varchar[255]</text>
<polygon fill="#ffffff" stroke="transparent" points="10,-53.7 10,-72.7 82,-72.7 82,-53.7 10,-53.7"/>
<polygon fill="none" stroke="#000000" points="10,-53.7 10,-72.7 82,-72.7 82,-53.7 10,-53.7"/>
<text text-anchor="start" x="13" y="-59.8" font-family="Helvetica,sans-Serif" font-size="11.00" fill="#000000">&lt; 0</text>
<polygon fill="#ffffff" stroke="transparent" points="82,-53.7 82,-72.7 145,-72.7 145,-53.7 82,-53.7"/>
<polygon fill="none" stroke="#000000" points="82,-53.7 82,-72.7 145,-72.7 145,-53.7 82,-53.7"/>
<text text-anchor="start" x="135.8862" y="-59.8" font-family="Helvetica,sans-Serif" font-size="11.00" fill="#000000"> &#160;</text>
<polygon fill="#ffffff" stroke="transparent" points="145,-53.7 145,-72.7 212,-72.7 212,-53.7 145,-53.7"/>
<polygon fill="none" stroke="#000000" points="145,-53.7 145,-72.7 212,-72.7 212,-53.7 145,-53.7"/>
<text text-anchor="start" x="193.4053" y="-59.8" font-family="Helvetica,sans-Serif" font-size="11.00" fill="#000000">2 &gt;</text>
<polygon fill="none" stroke="#000000" stroke-width="2" points="9,-52.7 9,-184.7 213,-184.7 213,-52.7 9,-52.7"/>
</a>
</g>
</g>
<!-- com_transport_unit_log&#45;&gt;com_srv_revision -->
<g id="edge1" class="edge">
<title>com_transport_unit_log:w&#45;&gt;com_srv_revision:e</title>
<path fill="none" stroke="#000000" d="M249.799,-208.1692C232.6358,-193.7239 242.2316,-149.7 212,-149.7"/>
<polygon fill="#000000" stroke="#000000" points="255.9045,-210.1882 262.3697,-216.118 259.7023,-211.4441 263.5,-212.7 263.5,-212.7 263.5,-212.7 259.7023,-211.4441 264.6303,-209.282 255.9045,-210.1882 255.9045,-210.1882"/>
<ellipse fill="none" stroke="#000000" cx="252.8663" cy="-209.1835" rx="3.2" ry="3.2"/>
</g>
<!-- com_tu_reservation_log -->
<g id="node3" class="node">
<title>com_tu_reservation_log</title>
<g id="a_node3"><a xlink:href="../../tables/com_tu_reservation_log.html" xlink:title="com_tu_reservation_log" target="_top">
<polygon fill="#ffffff" stroke="transparent" points="263,-38.2 263,-143.2 460,-143.2 460,-38.2 263,-38.2"/>
<polygon fill="#f5f5f5" stroke="transparent" points="263.5,-119.7 263.5,-142.7 460.5,-142.7 460.5,-119.7 263.5,-119.7"/>
<polygon fill="none" stroke="#000000" points="263.5,-119.7 263.5,-142.7 460.5,-142.7 460.5,-119.7 263.5,-119.7"/>
<text text-anchor="start" x="268.5" y="-128.3" font-family="Helvetica,sans-Serif" font-weight="bold" font-size="11.00" fill="#000000">com_tu_reservation_log</text>
<text text-anchor="start" x="426.0219" y="-127.8" font-family="Helvetica,sans-Serif" font-size="11.00" fill="#000000">[table]</text>
<polygon fill="none" stroke="#000000" points="263.5,-97.7 263.5,-119.7 460.5,-119.7 460.5,-97.7 263.5,-97.7"/>
<image xlink:href="../../images/primaryKeys.png" width="11px" height="12px" preserveAspectRatio="xMinYMin meet" x="268.5" y="-114.7"/>
<text text-anchor="start" x="292.5" y="-104.8" font-family="Helvetica,sans-Serif" font-size="11.00" fill="#000000">c_pk</text>
<polygon fill="none" stroke="#000000" points="263.5,-75.7 263.5,-97.7 460.5,-97.7 460.5,-75.7 263.5,-75.7"/>
<image xlink:href="../../images/primaryKeys.png" width="11px" height="12px" preserveAspectRatio="xMinYMin meet" x="268.5" y="-92.7"/>
<text text-anchor="start" x="292.5" y="-82.8" font-family="Helvetica,sans-Serif" font-size="11.00" fill="#000000">c_rev</text>
<polygon fill="none" stroke="#000000" points="263.5,-56.7 263.5,-75.7 460.5,-75.7 460.5,-56.7 263.5,-56.7"/>
<text text-anchor="start" x="266.5" y="-62.8" font-family="Helvetica,sans-Serif" font-size="11.00" fill="#000000">...</text>
<polygon fill="#ffffff" stroke="transparent" points="263.5,-37.7 263.5,-56.7 360.5,-56.7 360.5,-37.7 263.5,-37.7"/>
<polygon fill="none" stroke="#000000" points="263.5,-37.7 263.5,-56.7 360.5,-56.7 360.5,-37.7 263.5,-37.7"/>
<text text-anchor="start" x="266.5" y="-43.8" font-family="Helvetica,sans-Serif" font-size="11.00" fill="#000000">&lt; 1</text>
<polygon fill="#ffffff" stroke="transparent" points="360.5,-37.7 360.5,-56.7 410.5,-56.7 410.5,-37.7 360.5,-37.7"/>
<polygon fill="none" stroke="#000000" points="360.5,-37.7 360.5,-56.7 410.5,-56.7 410.5,-37.7 360.5,-37.7"/>
<text text-anchor="start" x="401.3862" y="-43.8" font-family="Helvetica,sans-Serif" font-size="11.00" fill="#000000"> &#160;</text>
<polygon fill="#ffffff" stroke="transparent" points="410.5,-37.7 410.5,-56.7 460.5,-56.7 460.5,-37.7 410.5,-37.7"/>
<polygon fill="none" stroke="#000000" points="410.5,-37.7 410.5,-56.7 460.5,-56.7 460.5,-37.7 410.5,-37.7"/>
<text text-anchor="start" x="451.3862" y="-43.8" font-family="Helvetica,sans-Serif" font-size="11.00" fill="#000000"> &#160;</text>
</a>
</g>
</g>
<!-- com_tu_reservation_log&#45;&gt;com_srv_revision -->
<g id="edge2" class="edge">
<title>com_tu_reservation_log:w&#45;&gt;com_srv_revision:e</title>
<path fill="none" stroke="#000000" d="M249.799,-91.2308C232.6358,-105.6761 242.2316,-149.7 212,-149.7"/>
<polygon fill="#000000" stroke="#000000" points="255.9045,-89.2118 264.6303,-90.118 259.7023,-87.9559 263.5,-86.7 263.5,-86.7 263.5,-86.7 259.7023,-87.9559 262.3697,-83.282 255.9045,-89.2118 255.9045,-89.2118"/>
<ellipse fill="none" stroke="#000000" cx="252.8663" cy="-90.2165" rx="3.2" ry="3.2"/>
</g>
</g>
</svg>
