<?xml version="1.0" encoding="UTF-8" standalone="no"?>
<!DOCTYPE svg PUBLIC "-//W3C//DTD SVG 1.1//EN"
 "http://www.w3.org/Graphics/SVG/1.1/DTD/svg11.dtd">
<!-- Generated by graphviz version 2.40.1 (20161225.0304)
 -->
<!-- Title: oneDegreeRelationshipsDiagram Pages: 1 -->
<svg width="962pt" height="1225pt"
 viewBox="0.00 0.00 962.00 1224.70" xmlns="http://www.w3.org/2000/svg" xmlns:xlink="http://www.w3.org/1999/xlink">
<g id="graph0" class="graph" transform="scale(1 1) rotate(0) translate(4 1220.7)">
<title>oneDegreeRelationshipsDiagram</title>
<polygon fill="#ffffff" stroke="transparent" points="-4,4 -4,-1220.7 958,-1220.7 958,4 -4,4"/>
<text text-anchor="middle" x="72.4936" y="-7.3" font-family="Helvetica,sans-Serif" font-size="11.00" fill="#000000">Generated by SchemaSpy</text>
<!-- com_location -->
<g id="node1" class="node">
<title>com_location</title>
<g id="a_node1"><a xlink:href="../../tables/com_location.html" xlink:title="com_location" target="_top">
<polygon fill="#ffffff" stroke="transparent" points="418,-312.7 418,-1040.7 705,-1040.7 705,-312.7 418,-312.7"/>
<polygon fill="#f5f5f5" stroke="transparent" points="420.5,-1015.7 420.5,-1038.7 703.5,-1038.7 703.5,-1015.7 420.5,-1015.7"/>
<polygon fill="none" stroke="#000000" points="420.5,-1015.7 420.5,-1038.7 703.5,-1038.7 703.5,-1015.7 420.5,-1015.7"/>
<text text-anchor="start" x="425.5" y="-1024.3" font-family="Helvetica,sans-Serif" font-weight="bold" font-size="11.00" fill="#000000">com_location</text>
<text text-anchor="start" x="668.5437" y="-1023.8" font-family="Helvetica,sans-Serif" font-size="11.00" fill="#000000">[table]</text>
<polygon fill="none" stroke="#000000" points="420.5,-993.7 420.5,-1015.7 619.5,-1015.7 619.5,-993.7 420.5,-993.7"/>
<image xlink:href="../../images/primaryKeys.png" width="11px" height="12px" preserveAspectRatio="xMinYMin meet" x="425.5" y="-1010.7"/>
<text text-anchor="start" x="440.5" y="-1000.8" font-family="Helvetica,sans-Serif" font-size="11.00" fill="#000000">c_pk</text>
<polygon fill="none" stroke="#000000" points="619.5,-993.7 619.5,-1015.7 703.5,-1015.7 703.5,-993.7 619.5,-993.7"/>
<text text-anchor="start" x="622.5" y="-1001.4" font-family="Helvetica,sans-Serif" font-size="11.00" fill="#000000">int8[19]</text>
<polygon fill="none" stroke="#000000" points="420.5,-971.7 420.5,-993.7 619.5,-993.7 619.5,-971.7 420.5,-971.7"/>
<text text-anchor="start" x="440.5" y="-978.8" font-family="Helvetica,sans-Serif" font-size="11.00" fill="#000000">c_created</text>
<polygon fill="none" stroke="#000000" points="619.5,-971.7 619.5,-993.7 703.5,-993.7 703.5,-971.7 619.5,-971.7"/>
<text text-anchor="start" x="622.3807" y="-979.4" font-family="Helvetica,sans-Serif" font-size="11.00" fill="#000000">timestamp[29,6]</text>
<polygon fill="none" stroke="#000000" points="420.5,-949.7 420.5,-971.7 619.5,-971.7 619.5,-949.7 420.5,-949.7"/>
<text text-anchor="start" x="440.5" y="-956.8" font-family="Helvetica,sans-Serif" font-size="11.00" fill="#000000">c_created_by</text>
<polygon fill="none" stroke="#000000" points="619.5,-949.7 619.5,-971.7 703.5,-971.7 703.5,-949.7 619.5,-949.7"/>
<text text-anchor="start" x="622.5" y="-957.4" font-family="Helvetica,sans-Serif" font-size="11.00" fill="#000000">varchar[255]</text>
<polygon fill="none" stroke="#000000" points="420.5,-927.7 420.5,-949.7 619.5,-949.7 619.5,-927.7 420.5,-927.7"/>
<text text-anchor="start" x="440.5" y="-934.8" font-family="Helvetica,sans-Serif" font-size="11.00" fill="#000000">c_updated_by</text>
<polygon fill="none" stroke="#000000" points="619.5,-927.7 619.5,-949.7 703.5,-949.7 703.5,-927.7 619.5,-927.7"/>
<text text-anchor="start" x="622.5" y="-935.4" font-family="Helvetica,sans-Serif" font-size="11.00" fill="#000000">varchar[255]</text>
<polygon fill="none" stroke="#000000" points="420.5,-905.7 420.5,-927.7 619.5,-927.7 619.5,-905.7 420.5,-905.7"/>
<text text-anchor="start" x="440.5" y="-912.8" font-family="Helvetica,sans-Serif" font-size="11.00" fill="#000000">c_updated</text>
<polygon fill="none" stroke="#000000" points="619.5,-905.7 619.5,-927.7 703.5,-927.7 703.5,-905.7 619.5,-905.7"/>
<text text-anchor="start" x="622.3807" y="-913.4" font-family="Helvetica,sans-Serif" font-size="11.00" fill="#000000">timestamp[29,6]</text>
<polygon fill="none" stroke="#000000" points="420.5,-883.7 420.5,-905.7 619.5,-905.7 619.5,-883.7 420.5,-883.7"/>
<text text-anchor="start" x="440.5" y="-890.8" font-family="Helvetica,sans-Serif" font-size="11.00" fill="#000000">c_ol</text>
<polygon fill="none" stroke="#000000" points="619.5,-883.7 619.5,-905.7 703.5,-905.7 703.5,-883.7 619.5,-883.7"/>
<text text-anchor="start" x="622.5" y="-891.4" font-family="Helvetica,sans-Serif" font-size="11.00" fill="#000000">int8[19]</text>
<polygon fill="#ffffff" stroke="transparent" points="420.5,-861.7 420.5,-883.7 619.5,-883.7 619.5,-861.7 420.5,-861.7"/>
<polygon fill="none" stroke="#000000" points="420.5,-861.7 420.5,-883.7 619.5,-883.7 619.5,-861.7 420.5,-861.7"/>
<text text-anchor="start" x="440.5" y="-868.8" font-family="Helvetica,sans-Serif" font-size="11.00" fill="#000000">c_pid</text>
<polygon fill="none" stroke="#000000" points="619.5,-861.7 619.5,-883.7 703.5,-883.7 703.5,-861.7 619.5,-861.7"/>
<text text-anchor="start" x="622.5" y="-869.4" font-family="Helvetica,sans-Serif" font-size="11.00" fill="#000000">varchar[255]</text>
<polygon fill="none" stroke="#000000" points="420.5,-839.7 420.5,-861.7 619.5,-861.7 619.5,-839.7 420.5,-839.7"/>
<text text-anchor="start" x="440.5" y="-846.8" font-family="Helvetica,sans-Serif" font-size="11.00" fill="#000000">c_classification</text>
<polygon fill="none" stroke="#000000" points="619.5,-839.7 619.5,-861.7 703.5,-861.7 703.5,-839.7 619.5,-839.7"/>
<text text-anchor="start" x="622.5" y="-847.4" font-family="Helvetica,sans-Serif" font-size="11.00" fill="#000000">varchar[255]</text>
<polygon fill="none" stroke="#000000" points="420.5,-817.7 420.5,-839.7 619.5,-839.7 619.5,-817.7 420.5,-817.7"/>
<text text-anchor="start" x="440.5" y="-824.8" font-family="Helvetica,sans-Serif" font-size="11.00" fill="#000000">c_considered_in_allocation</text>
<polygon fill="none" stroke="#000000" points="619.5,-817.7 619.5,-839.7 703.5,-839.7 703.5,-817.7 619.5,-817.7"/>
<text text-anchor="start" x="622.5" y="-825.4" font-family="Helvetica,sans-Serif" font-size="11.00" fill="#000000">bool[1]</text>
<polygon fill="none" stroke="#000000" points="420.5,-795.7 420.5,-817.7 619.5,-817.7 619.5,-795.7 420.5,-795.7"/>
<text text-anchor="start" x="440.5" y="-802.8" font-family="Helvetica,sans-Serif" font-size="11.00" fill="#000000">c_description</text>
<polygon fill="none" stroke="#000000" points="619.5,-795.7 619.5,-817.7 703.5,-817.7 703.5,-795.7 619.5,-795.7"/>
<text text-anchor="start" x="622.5" y="-803.4" font-family="Helvetica,sans-Serif" font-size="11.00" fill="#000000">varchar[255]</text>
<polygon fill="#ffffff" stroke="transparent" points="420.5,-773.7 420.5,-795.7 619.5,-795.7 619.5,-773.7 420.5,-773.7"/>
<polygon fill="none" stroke="#000000" points="420.5,-773.7 420.5,-795.7 619.5,-795.7 619.5,-773.7 420.5,-773.7"/>
<text text-anchor="start" x="440.5" y="-780.8" font-family="Helvetica,sans-Serif" font-size="11.00" fill="#000000">c_erp_code</text>
<polygon fill="none" stroke="#000000" points="619.5,-773.7 619.5,-795.7 703.5,-795.7 703.5,-773.7 619.5,-773.7"/>
<text text-anchor="start" x="622.5" y="-781.4" font-family="Helvetica,sans-Serif" font-size="11.00" fill="#000000">varchar[255]</text>
<polygon fill="none" stroke="#000000" points="420.5,-751.7 420.5,-773.7 619.5,-773.7 619.5,-751.7 420.5,-751.7"/>
<text text-anchor="start" x="440.5" y="-758.8" font-family="Helvetica,sans-Serif" font-size="11.00" fill="#000000">c_group</text>
<polygon fill="none" stroke="#000000" points="619.5,-751.7 619.5,-773.7 703.5,-773.7 703.5,-751.7 619.5,-751.7"/>
<text text-anchor="start" x="622.5" y="-759.4" font-family="Helvetica,sans-Serif" font-size="11.00" fill="#000000">varchar[255]</text>
<polygon fill="none" stroke="#000000" points="420.5,-729.7 420.5,-751.7 619.5,-751.7 619.5,-729.7 420.5,-729.7"/>
<text text-anchor="start" x="440.5" y="-736.8" font-family="Helvetica,sans-Serif" font-size="11.00" fill="#000000">c_incoming_active</text>
<polygon fill="none" stroke="#000000" points="619.5,-729.7 619.5,-751.7 703.5,-751.7 703.5,-729.7 619.5,-729.7"/>
<text text-anchor="start" x="622.5" y="-737.4" font-family="Helvetica,sans-Serif" font-size="11.00" fill="#000000">bool[1]</text>
<polygon fill="none" stroke="#000000" points="420.5,-707.7 420.5,-729.7 619.5,-729.7 619.5,-707.7 420.5,-707.7"/>
<text text-anchor="start" x="440.5" y="-714.8" font-family="Helvetica,sans-Serif" font-size="11.00" fill="#000000">c_labels</text>
<polygon fill="none" stroke="#000000" points="619.5,-707.7 619.5,-729.7 703.5,-729.7 703.5,-707.7 619.5,-707.7"/>
<text text-anchor="start" x="622.5" y="-715.4" font-family="Helvetica,sans-Serif" font-size="11.00" fill="#000000">varchar[1024]</text>
<polygon fill="none" stroke="#000000" points="420.5,-685.7 420.5,-707.7 619.5,-707.7 619.5,-685.7 420.5,-685.7"/>
<text text-anchor="start" x="440.5" y="-692.8" font-family="Helvetica,sans-Serif" font-size="11.00" fill="#000000">c_last_movement</text>
<polygon fill="none" stroke="#000000" points="619.5,-685.7 619.5,-707.7 703.5,-707.7 703.5,-685.7 619.5,-685.7"/>
<text text-anchor="start" x="622.3807" y="-693.4" font-family="Helvetica,sans-Serif" font-size="11.00" fill="#000000">timestamp[29,6]</text>
<polygon fill="none" stroke="#000000" points="420.5,-663.7 420.5,-685.7 619.5,-685.7 619.5,-663.7 420.5,-663.7"/>
<text text-anchor="start" x="440.5" y="-670.8" font-family="Helvetica,sans-Serif" font-size="11.00" fill="#000000">c_lg_counting_active</text>
<polygon fill="none" stroke="#000000" points="619.5,-663.7 619.5,-685.7 703.5,-685.7 703.5,-663.7 619.5,-663.7"/>
<text text-anchor="start" x="622.5" y="-671.4" font-family="Helvetica,sans-Serif" font-size="11.00" fill="#000000">bool[1]</text>
<polygon fill="#ffffff" stroke="transparent" points="420.5,-641.7 420.5,-663.7 619.5,-663.7 619.5,-641.7 420.5,-641.7"/>
<polygon fill="none" stroke="#000000" points="420.5,-641.7 420.5,-663.7 619.5,-663.7 619.5,-641.7 420.5,-641.7"/>
<text text-anchor="start" x="440.5" y="-648.8" font-family="Helvetica,sans-Serif" font-size="11.00" fill="#000000">c_aisle</text>
<polygon fill="none" stroke="#000000" points="619.5,-641.7 619.5,-663.7 703.5,-663.7 703.5,-641.7 619.5,-641.7"/>
<text text-anchor="start" x="622.5" y="-649.4" font-family="Helvetica,sans-Serif" font-size="11.00" fill="#000000">varchar[255]</text>
<polygon fill="#ffffff" stroke="transparent" points="420.5,-619.7 420.5,-641.7 619.5,-641.7 619.5,-619.7 420.5,-619.7"/>
<polygon fill="none" stroke="#000000" points="420.5,-619.7 420.5,-641.7 619.5,-641.7 619.5,-619.7 420.5,-619.7"/>
<text text-anchor="start" x="440.5" y="-626.8" font-family="Helvetica,sans-Serif" font-size="11.00" fill="#000000">c_area</text>
<polygon fill="none" stroke="#000000" points="619.5,-619.7 619.5,-641.7 703.5,-641.7 703.5,-619.7 619.5,-619.7"/>
<text text-anchor="start" x="622.5" y="-627.4" font-family="Helvetica,sans-Serif" font-size="11.00" fill="#000000">varchar[255]</text>
<polygon fill="#ffffff" stroke="transparent" points="420.5,-597.7 420.5,-619.7 619.5,-619.7 619.5,-597.7 420.5,-597.7"/>
<polygon fill="none" stroke="#000000" points="420.5,-597.7 420.5,-619.7 619.5,-619.7 619.5,-597.7 420.5,-597.7"/>
<text text-anchor="start" x="440.5" y="-604.8" font-family="Helvetica,sans-Serif" font-size="11.00" fill="#000000">c_x</text>
<polygon fill="none" stroke="#000000" points="619.5,-597.7 619.5,-619.7 703.5,-619.7 703.5,-597.7 619.5,-597.7"/>
<text text-anchor="start" x="622.5" y="-605.4" font-family="Helvetica,sans-Serif" font-size="11.00" fill="#000000">varchar[255]</text>
<polygon fill="#ffffff" stroke="transparent" points="420.5,-575.7 420.5,-597.7 619.5,-597.7 619.5,-575.7 420.5,-575.7"/>
<polygon fill="none" stroke="#000000" points="420.5,-575.7 420.5,-597.7 619.5,-597.7 619.5,-575.7 420.5,-575.7"/>
<text text-anchor="start" x="440.5" y="-582.8" font-family="Helvetica,sans-Serif" font-size="11.00" fill="#000000">c_y</text>
<polygon fill="none" stroke="#000000" points="619.5,-575.7 619.5,-597.7 703.5,-597.7 703.5,-575.7 619.5,-575.7"/>
<text text-anchor="start" x="622.5" y="-583.4" font-family="Helvetica,sans-Serif" font-size="11.00" fill="#000000">varchar[255]</text>
<polygon fill="#ffffff" stroke="transparent" points="420.5,-553.7 420.5,-575.7 619.5,-575.7 619.5,-553.7 420.5,-553.7"/>
<polygon fill="none" stroke="#000000" points="420.5,-553.7 420.5,-575.7 619.5,-575.7 619.5,-553.7 420.5,-553.7"/>
<text text-anchor="start" x="440.5" y="-560.8" font-family="Helvetica,sans-Serif" font-size="11.00" fill="#000000">c_z</text>
<polygon fill="none" stroke="#000000" points="619.5,-553.7 619.5,-575.7 703.5,-575.7 703.5,-553.7 619.5,-553.7"/>
<text text-anchor="start" x="622.5" y="-561.4" font-family="Helvetica,sans-Serif" font-size="11.00" fill="#000000">varchar[255]</text>
<polygon fill="none" stroke="#000000" points="420.5,-531.7 420.5,-553.7 619.5,-553.7 619.5,-531.7 420.5,-531.7"/>
<text text-anchor="start" x="440.5" y="-538.8" font-family="Helvetica,sans-Serif" font-size="11.00" fill="#000000">c_maximum_weight</text>
<polygon fill="none" stroke="#000000" points="619.5,-531.7 619.5,-553.7 703.5,-553.7 703.5,-531.7 619.5,-531.7"/>
<text text-anchor="start" x="622.5" y="-539.4" font-family="Helvetica,sans-Serif" font-size="11.00" fill="#000000">numeric[38,2]</text>
<polygon fill="none" stroke="#000000" points="420.5,-509.7 420.5,-531.7 619.5,-531.7 619.5,-509.7 420.5,-509.7"/>
<text text-anchor="start" x="440.5" y="-516.8" font-family="Helvetica,sans-Serif" font-size="11.00" fill="#000000">c_no_max_transport_units</text>
<polygon fill="none" stroke="#000000" points="619.5,-509.7 619.5,-531.7 703.5,-531.7 703.5,-509.7 619.5,-509.7"/>
<text text-anchor="start" x="622.5" y="-517.4" font-family="Helvetica,sans-Serif" font-size="11.00" fill="#000000">int4[10]</text>
<polygon fill="none" stroke="#000000" points="420.5,-487.7 420.5,-509.7 619.5,-509.7 619.5,-487.7 420.5,-487.7"/>
<text text-anchor="start" x="440.5" y="-494.8" font-family="Helvetica,sans-Serif" font-size="11.00" fill="#000000">c_outgoing_active</text>
<polygon fill="none" stroke="#000000" points="619.5,-487.7 619.5,-509.7 703.5,-509.7 703.5,-487.7 619.5,-487.7"/>
<text text-anchor="start" x="622.5" y="-495.4" font-family="Helvetica,sans-Serif" font-size="11.00" fill="#000000">bool[1]</text>
<polygon fill="#ffffff" stroke="transparent" points="420.5,-465.7 420.5,-487.7 619.5,-487.7 619.5,-465.7 420.5,-465.7"/>
<polygon fill="none" stroke="#000000" points="420.5,-465.7 420.5,-487.7 619.5,-487.7 619.5,-465.7 420.5,-465.7"/>
<text text-anchor="start" x="440.5" y="-472.8" font-family="Helvetica,sans-Serif" font-size="11.00" fill="#000000">c_plc_code</text>
<polygon fill="none" stroke="#000000" points="619.5,-465.7 619.5,-487.7 703.5,-487.7 703.5,-465.7 619.5,-465.7"/>
<text text-anchor="start" x="622.5" y="-473.4" font-family="Helvetica,sans-Serif" font-size="11.00" fill="#000000">varchar[255]</text>
<polygon fill="none" stroke="#000000" points="420.5,-443.7 420.5,-465.7 619.5,-465.7 619.5,-443.7 420.5,-443.7"/>
<text text-anchor="start" x="440.5" y="-450.8" font-family="Helvetica,sans-Serif" font-size="11.00" fill="#000000">c_plc_state</text>
<polygon fill="none" stroke="#000000" points="619.5,-443.7 619.5,-465.7 703.5,-465.7 703.5,-443.7 619.5,-443.7"/>
<text text-anchor="start" x="622.5" y="-451.4" font-family="Helvetica,sans-Serif" font-size="11.00" fill="#000000">int4[10]</text>
<polygon fill="none" stroke="#000000" points="420.5,-421.7 420.5,-443.7 619.5,-443.7 619.5,-421.7 420.5,-421.7"/>
<text text-anchor="start" x="440.5" y="-428.8" font-family="Helvetica,sans-Serif" font-size="11.00" fill="#000000">c_sort</text>
<polygon fill="none" stroke="#000000" points="619.5,-421.7 619.5,-443.7 703.5,-443.7 703.5,-421.7 619.5,-421.7"/>
<text text-anchor="start" x="622.5" y="-429.4" font-family="Helvetica,sans-Serif" font-size="11.00" fill="#000000">int4[10]</text>
<polygon fill="none" stroke="#000000" points="420.5,-399.7 420.5,-421.7 619.5,-421.7 619.5,-399.7 420.5,-399.7"/>
<text text-anchor="start" x="440.5" y="-406.8" font-family="Helvetica,sans-Serif" font-size="11.00" fill="#000000">c_stock_zone</text>
<polygon fill="none" stroke="#000000" points="619.5,-399.7 619.5,-421.7 703.5,-421.7 703.5,-399.7 619.5,-399.7"/>
<text text-anchor="start" x="622.5" y="-407.4" font-family="Helvetica,sans-Serif" font-size="11.00" fill="#000000">varchar[255]</text>
<polygon fill="none" stroke="#000000" points="420.5,-377.7 420.5,-399.7 619.5,-399.7 619.5,-377.7 420.5,-377.7"/>
<image xlink:href="../../images/foreignKeys.png" width="11px" height="12px" preserveAspectRatio="xMinYMin meet" x="425.5" y="-394.7"/>
<text text-anchor="start" x="440.5" y="-384.8" font-family="Helvetica,sans-Serif" font-size="11.00" fill="#000000">c_account</text>
<polygon fill="none" stroke="#000000" points="619.5,-377.7 619.5,-399.7 703.5,-399.7 703.5,-377.7 619.5,-377.7"/>
<text text-anchor="start" x="622.5" y="-385.4" font-family="Helvetica,sans-Serif" font-size="11.00" fill="#000000">varchar[255]</text>
<polygon fill="none" stroke="#000000" points="420.5,-355.7 420.5,-377.7 619.5,-377.7 619.5,-355.7 420.5,-355.7"/>
<image xlink:href="../../images/foreignKeys.png" width="11px" height="12px" preserveAspectRatio="xMinYMin meet" x="425.5" y="-372.7"/>
<text text-anchor="start" x="440.5" y="-362.8" font-family="Helvetica,sans-Serif" font-size="11.00" fill="#000000">c_location_group</text>
<polygon fill="none" stroke="#000000" points="619.5,-355.7 619.5,-377.7 703.5,-377.7 703.5,-355.7 619.5,-355.7"/>
<text text-anchor="start" x="622.5" y="-363.4" font-family="Helvetica,sans-Serif" font-size="11.00" fill="#000000">int8[19]</text>
<polygon fill="none" stroke="#000000" points="420.5,-333.7 420.5,-355.7 619.5,-355.7 619.5,-333.7 420.5,-333.7"/>
<image xlink:href="../../images/foreignKeys.png" width="11px" height="12px" preserveAspectRatio="xMinYMin meet" x="425.5" y="-350.7"/>
<text text-anchor="start" x="440.5" y="-340.8" font-family="Helvetica,sans-Serif" font-size="11.00" fill="#000000">c_location_type</text>
<polygon fill="none" stroke="#000000" points="619.5,-333.7 619.5,-355.7 703.5,-355.7 703.5,-333.7 619.5,-333.7"/>
<text text-anchor="start" x="622.5" y="-341.4" font-family="Helvetica,sans-Serif" font-size="11.00" fill="#000000">int8[19]</text>
<polygon fill="#ffffff" stroke="transparent" points="420.5,-314.7 420.5,-333.7 508.5,-333.7 508.5,-314.7 420.5,-314.7"/>
<polygon fill="none" stroke="#000000" points="420.5,-314.7 420.5,-333.7 508.5,-333.7 508.5,-314.7 420.5,-314.7"/>
<text text-anchor="start" x="423.5" y="-320.8" font-family="Helvetica,sans-Serif" font-size="11.00" fill="#000000">&lt; 3</text>
<polygon fill="#ffffff" stroke="transparent" points="508.5,-314.7 508.5,-333.7 619.5,-333.7 619.5,-314.7 508.5,-314.7"/>
<polygon fill="none" stroke="#000000" points="508.5,-314.7 508.5,-333.7 619.5,-333.7 619.5,-314.7 508.5,-314.7"/>
<text text-anchor="start" x="577.9956" y="-320.8" font-family="Helvetica,sans-Serif" font-size="11.00" fill="#000000">32 rows</text>
<polygon fill="#ffffff" stroke="transparent" points="619.5,-314.7 619.5,-333.7 703.5,-333.7 703.5,-314.7 619.5,-314.7"/>
<polygon fill="none" stroke="#000000" points="619.5,-314.7 619.5,-333.7 703.5,-333.7 703.5,-314.7 619.5,-314.7"/>
<text text-anchor="start" x="684.9053" y="-320.8" font-family="Helvetica,sans-Serif" font-size="11.00" fill="#000000">3 &gt;</text>
<polygon fill="none" stroke="#000000" stroke-width="2" points="419,-313.7 419,-1039.7 704,-1039.7 704,-313.7 419,-313.7"/>
</a>
</g>
</g>
<!-- com_account -->
<g id="node2" class="node">
<title>com_account</title>
<g id="a_node2"><a xlink:href="../../tables/com_account.html" xlink:title="com_account" target="_top">
<polygon fill="#ffffff" stroke="transparent" points="8,-292.2 8,-441.2 134,-441.2 134,-292.2 8,-292.2"/>
<polygon fill="#f5f5f5" stroke="transparent" points="8,-417.7 8,-440.7 134,-440.7 134,-417.7 8,-417.7"/>
<polygon fill="none" stroke="#000000" points="8,-417.7 8,-440.7 134,-440.7 134,-417.7 8,-417.7"/>
<text text-anchor="start" x="13" y="-426.3" font-family="Helvetica,sans-Serif" font-weight="bold" font-size="11.00" fill="#000000">com_account</text>
<text text-anchor="start" x="99.5219" y="-425.8" font-family="Helvetica,sans-Serif" font-size="11.00" fill="#000000">[table]</text>
<polygon fill="none" stroke="#000000" points="8,-395.7 8,-417.7 134,-417.7 134,-395.7 8,-395.7"/>
<image xlink:href="../../images/primaryKeys.png" width="11px" height="12px" preserveAspectRatio="xMinYMin meet" x="13" y="-412.7"/>
<text text-anchor="start" x="35" y="-402.8" font-family="Helvetica,sans-Serif" font-size="11.00" fill="#000000">c_pk</text>
<polygon fill="#ffffff" stroke="transparent" points="8,-373.7 8,-395.7 134,-395.7 134,-373.7 8,-373.7"/>
<polygon fill="none" stroke="#000000" points="8,-373.7 8,-395.7 134,-395.7 134,-373.7 8,-373.7"/>
<text text-anchor="start" x="35" y="-380.8" font-family="Helvetica,sans-Serif" font-size="11.00" fill="#000000">c_pid</text>
<polygon fill="#ffffff" stroke="transparent" points="8,-351.7 8,-373.7 134,-373.7 134,-351.7 8,-351.7"/>
<polygon fill="none" stroke="#000000" points="8,-351.7 8,-373.7 134,-373.7 134,-351.7 8,-351.7"/>
<text text-anchor="start" x="35" y="-358.8" font-family="Helvetica,sans-Serif" font-size="11.00" fill="#000000">c_identifier</text>
<polygon fill="#ffffff" stroke="transparent" points="8,-329.7 8,-351.7 134,-351.7 134,-329.7 8,-329.7"/>
<polygon fill="none" stroke="#000000" points="8,-329.7 8,-351.7 134,-351.7 134,-329.7 8,-329.7"/>
<text text-anchor="start" x="35" y="-336.8" font-family="Helvetica,sans-Serif" font-size="11.00" fill="#000000">c_name</text>
<polygon fill="none" stroke="#000000" points="8,-310.7 8,-329.7 134,-329.7 134,-310.7 8,-310.7"/>
<text text-anchor="start" x="11" y="-316.8" font-family="Helvetica,sans-Serif" font-size="11.00" fill="#000000">...</text>
<polygon fill="#ffffff" stroke="transparent" points="8,-291.7 8,-310.7 47,-310.7 47,-291.7 8,-291.7"/>
<polygon fill="none" stroke="#000000" points="8,-291.7 8,-310.7 47,-310.7 47,-291.7 8,-291.7"/>
<text text-anchor="start" x="11" y="-297.8" font-family="Helvetica,sans-Serif" font-size="11.00" fill="#000000"> &#160;</text>
<polygon fill="#ffffff" stroke="transparent" points="47,-291.7 47,-310.7 99,-310.7 99,-291.7 47,-291.7"/>
<polygon fill="none" stroke="#000000" points="47,-291.7 47,-310.7 99,-310.7 99,-291.7 47,-291.7"/>
<text text-anchor="start" x="63.6105" y="-297.8" font-family="Helvetica,sans-Serif" font-size="11.00" fill="#000000">2 rows</text>
<polygon fill="#ffffff" stroke="transparent" points="99,-291.7 99,-310.7 134,-310.7 134,-291.7 99,-291.7"/>
<polygon fill="none" stroke="#000000" points="99,-291.7 99,-310.7 134,-310.7 134,-291.7 99,-291.7"/>
<text text-anchor="start" x="115.4053" y="-297.8" font-family="Helvetica,sans-Serif" font-size="11.00" fill="#000000">2 &gt;</text>
</a>
</g>
</g>
<!-- com_location&#45;&gt;com_account -->
<g id="edge1" class="edge">
<title>com_location:w&#45;&gt;com_account:e</title>
<path fill="none" stroke="#000000" d="M406.2006,-392.2364C396.756,-397.6891 392.2561,-407.915 377,-411.7 289.8639,-433.3181 256.3399,-449.6982 175,-411.7 149.273,-399.6815 162.3958,-362.7 134,-362.7"/>
<polygon fill="#000000" stroke="#000000" points="412.734,-390.6207 421.3643,-392.1947 416.617,-389.6603 420.5,-388.7 420.5,-388.7 420.5,-388.7 416.617,-389.6603 419.6357,-385.2053 412.734,-390.6207 412.734,-390.6207"/>
<ellipse fill="none" stroke="#000000" cx="409.6276" cy="-391.389" rx="3.2" ry="3.2"/>
</g>
<!-- com_location_group -->
<g id="node3" class="node">
<title>com_location_group</title>
<g id="a_node3"><a xlink:href="../../tables/com_location_group.html" xlink:title="com_location_group" target="_top">
<polygon fill="#ffffff" stroke="transparent" points="183,-186.2 183,-401.2 369,-401.2 369,-186.2 183,-186.2"/>
<polygon fill="#f5f5f5" stroke="transparent" points="183,-377.7 183,-400.7 369,-400.7 369,-377.7 183,-377.7"/>
<polygon fill="none" stroke="#000000" points="183,-377.7 183,-400.7 369,-400.7 369,-377.7 183,-377.7"/>
<text text-anchor="start" x="188" y="-386.3" font-family="Helvetica,sans-Serif" font-weight="bold" font-size="11.00" fill="#000000">com_location_group</text>
<text text-anchor="start" x="334.0437" y="-385.8" font-family="Helvetica,sans-Serif" font-size="11.00" fill="#000000">[table]</text>
<polygon fill="none" stroke="#000000" points="183,-355.7 183,-377.7 369,-377.7 369,-355.7 183,-355.7"/>
<image xlink:href="../../images/primaryKeys.png" width="11px" height="12px" preserveAspectRatio="xMinYMin meet" x="188" y="-372.7"/>
<text text-anchor="start" x="203" y="-362.8" font-family="Helvetica,sans-Serif" font-size="11.00" fill="#000000">c_pk</text>
<polygon fill="#ffffff" stroke="transparent" points="183,-333.7 183,-355.7 369,-355.7 369,-333.7 183,-333.7"/>
<polygon fill="none" stroke="#000000" points="183,-333.7 183,-355.7 369,-355.7 369,-333.7 183,-333.7"/>
<text text-anchor="start" x="203" y="-340.8" font-family="Helvetica,sans-Serif" font-size="11.00" fill="#000000">c_pid</text>
<polygon fill="#ffffff" stroke="transparent" points="183,-311.7 183,-333.7 369,-333.7 369,-311.7 183,-311.7"/>
<polygon fill="none" stroke="#000000" points="183,-311.7 183,-333.7 369,-333.7 369,-311.7 183,-311.7"/>
<text text-anchor="start" x="203" y="-318.8" font-family="Helvetica,sans-Serif" font-size="11.00" fill="#000000">c_name</text>
<polygon fill="none" stroke="#000000" points="183,-289.7 183,-311.7 369,-311.7 369,-289.7 183,-289.7"/>
<image xlink:href="../../images/foreignKeys.png" width="11px" height="12px" preserveAspectRatio="xMinYMin meet" x="188" y="-306.7"/>
<text text-anchor="start" x="203" y="-296.8" font-family="Helvetica,sans-Serif" font-size="11.00" fill="#000000">c_account</text>
<polygon fill="none" stroke="#000000" points="183,-267.7 183,-289.7 369,-289.7 369,-267.7 183,-267.7"/>
<image xlink:href="../../images/foreignKeys.png" width="11px" height="12px" preserveAspectRatio="xMinYMin meet" x="188" y="-284.7"/>
<text text-anchor="start" x="203" y="-274.8" font-family="Helvetica,sans-Serif" font-size="11.00" fill="#000000">c_parent</text>
<polygon fill="none" stroke="#000000" points="183,-245.7 183,-267.7 369,-267.7 369,-245.7 183,-245.7"/>
<image xlink:href="../../images/foreignKeys.png" width="11px" height="12px" preserveAspectRatio="xMinYMin meet" x="188" y="-262.7"/>
<text text-anchor="start" x="203" y="-252.8" font-family="Helvetica,sans-Serif" font-size="11.00" fill="#000000">c_in_locker</text>
<polygon fill="none" stroke="#000000" points="183,-223.7 183,-245.7 369,-245.7 369,-223.7 183,-223.7"/>
<image xlink:href="../../images/foreignKeys.png" width="11px" height="12px" preserveAspectRatio="xMinYMin meet" x="188" y="-240.7"/>
<text text-anchor="start" x="203" y="-230.8" font-family="Helvetica,sans-Serif" font-size="11.00" fill="#000000">c_out_locker</text>
<polygon fill="none" stroke="#000000" points="183,-204.7 183,-223.7 369,-223.7 369,-204.7 183,-204.7"/>
<text text-anchor="start" x="186" y="-210.8" font-family="Helvetica,sans-Serif" font-size="11.00" fill="#000000">...</text>
<polygon fill="#ffffff" stroke="transparent" points="183,-185.7 183,-204.7 254,-204.7 254,-185.7 183,-185.7"/>
<polygon fill="none" stroke="#000000" points="183,-185.7 183,-204.7 254,-204.7 254,-185.7 183,-185.7"/>
<text text-anchor="start" x="186" y="-191.8" font-family="Helvetica,sans-Serif" font-size="11.00" fill="#000000">&lt; 4</text>
<polygon fill="#ffffff" stroke="transparent" points="254,-185.7 254,-204.7 323,-204.7 323,-185.7 254,-185.7"/>
<polygon fill="none" stroke="#000000" points="254,-185.7 254,-204.7 323,-204.7 323,-185.7 254,-185.7"/>
<text text-anchor="start" x="281.4956" y="-191.8" font-family="Helvetica,sans-Serif" font-size="11.00" fill="#000000">42 rows</text>
<polygon fill="#ffffff" stroke="transparent" points="323,-185.7 323,-204.7 369,-204.7 369,-185.7 323,-185.7"/>
<polygon fill="none" stroke="#000000" points="323,-185.7 323,-204.7 369,-204.7 369,-185.7 323,-185.7"/>
<text text-anchor="start" x="350.4053" y="-191.8" font-family="Helvetica,sans-Serif" font-size="11.00" fill="#000000">4 &gt;</text>
</a>
</g>
</g>
<!-- com_location&#45;&gt;com_location_group -->
<g id="edge2" class="edge">
<title>com_location:w&#45;&gt;com_location_group:e</title>
<path fill="none" stroke="#000000" d="M406.0156,-366.7C393.6771,-366.7 386.1667,-366.7 369,-366.7"/>
<polygon fill="#000000" stroke="#000000" points="412.5,-366.7001 420.5,-370.3 416.5,-366.7 420.5,-366.7 420.5,-366.7 420.5,-366.7 416.5,-366.7 420.5,-363.1 412.5,-366.7001 412.5,-366.7001"/>
<ellipse fill="none" stroke="#000000" cx="409.3" cy="-366.7001" rx="3.2" ry="3.2"/>
</g>
<!-- com_location_type -->
<g id="node4" class="node">
<title>com_location_type</title>
<g id="a_node4"><a xlink:href="../../tables/com_location_type.html" xlink:title="com_location_type" target="_top">
<polygon fill="#ffffff" stroke="transparent" points="194.5,-38.2 194.5,-165.2 357.5,-165.2 357.5,-38.2 194.5,-38.2"/>
<polygon fill="#f5f5f5" stroke="transparent" points="195,-141.7 195,-164.7 358,-164.7 358,-141.7 195,-141.7"/>
<polygon fill="none" stroke="#000000" points="195,-141.7 195,-164.7 358,-164.7 358,-141.7 195,-141.7"/>
<text text-anchor="start" x="200" y="-150.3" font-family="Helvetica,sans-Serif" font-weight="bold" font-size="11.00" fill="#000000">com_location_type</text>
<text text-anchor="start" x="323.5219" y="-149.8" font-family="Helvetica,sans-Serif" font-size="11.00" fill="#000000">[table]</text>
<polygon fill="none" stroke="#000000" points="195,-119.7 195,-141.7 358,-141.7 358,-119.7 195,-119.7"/>
<image xlink:href="../../images/primaryKeys.png" width="11px" height="12px" preserveAspectRatio="xMinYMin meet" x="200" y="-136.7"/>
<text text-anchor="start" x="224" y="-126.8" font-family="Helvetica,sans-Serif" font-size="11.00" fill="#000000">c_pk</text>
<polygon fill="#ffffff" stroke="transparent" points="195,-97.7 195,-119.7 358,-119.7 358,-97.7 195,-97.7"/>
<polygon fill="none" stroke="#000000" points="195,-97.7 195,-119.7 358,-119.7 358,-97.7 195,-97.7"/>
<text text-anchor="start" x="224" y="-104.8" font-family="Helvetica,sans-Serif" font-size="11.00" fill="#000000">c_pid</text>
<polygon fill="#ffffff" stroke="transparent" points="195,-75.7 195,-97.7 358,-97.7 358,-75.7 195,-75.7"/>
<polygon fill="none" stroke="#000000" points="195,-75.7 195,-97.7 358,-97.7 358,-75.7 195,-75.7"/>
<text text-anchor="start" x="224" y="-82.8" font-family="Helvetica,sans-Serif" font-size="11.00" fill="#000000">c_type</text>
<polygon fill="none" stroke="#000000" points="195,-56.7 195,-75.7 358,-75.7 358,-56.7 195,-56.7"/>
<text text-anchor="start" x="198" y="-62.8" font-family="Helvetica,sans-Serif" font-size="11.00" fill="#000000">...</text>
<polygon fill="#ffffff" stroke="transparent" points="195,-37.7 195,-56.7 253,-56.7 253,-37.7 195,-37.7"/>
<polygon fill="none" stroke="#000000" points="195,-37.7 195,-56.7 253,-56.7 253,-37.7 195,-37.7"/>
<text text-anchor="start" x="198" y="-43.8" font-family="Helvetica,sans-Serif" font-size="11.00" fill="#000000"> &#160;</text>
<polygon fill="#ffffff" stroke="transparent" points="253,-37.7 253,-56.7 314,-56.7 314,-37.7 253,-37.7"/>
<polygon fill="none" stroke="#000000" points="253,-37.7 253,-56.7 314,-56.7 314,-37.7 253,-37.7"/>
<text text-anchor="start" x="278.6105" y="-43.8" font-family="Helvetica,sans-Serif" font-size="11.00" fill="#000000">2 rows</text>
<polygon fill="#ffffff" stroke="transparent" points="314,-37.7 314,-56.7 358,-56.7 358,-37.7 314,-37.7"/>
<polygon fill="none" stroke="#000000" points="314,-37.7 314,-56.7 358,-56.7 358,-37.7 314,-37.7"/>
<text text-anchor="start" x="339.4053" y="-43.8" font-family="Helvetica,sans-Serif" font-size="11.00" fill="#000000">2 &gt;</text>
</a>
</g>
</g>
<!-- com_location&#45;&gt;com_location_type -->
<g id="edge3" class="edge">
<title>com_location:w&#45;&gt;com_location_type:e</title>
<path fill="none" stroke="#000000" d="M405.8374,-342.7181C336.0312,-321.1444 451.4722,-130.7 358,-130.7"/>
<polygon fill="#000000" stroke="#000000" points="412.5721,-343.6284 420.0178,-348.2676 416.536,-344.1642 420.5,-344.7 420.5,-344.7 420.5,-344.7 416.536,-344.1642 420.9822,-341.1324 412.5721,-343.6284 412.5721,-343.6284"/>
<ellipse fill="none" stroke="#000000" cx="409.4009" cy="-343.1997" rx="3.2" ry="3.2"/>
</g>
<!-- com_location_group&#45;&gt;com_account -->
<g id="edge4" class="edge">
<title>com_location_group:w&#45;&gt;com_account:e</title>
<path fill="none" stroke="#000000" d="M169.3131,-305.565C153.5154,-320.181 163.0857,-362.7 134,-362.7"/>
<polygon fill="#000000" stroke="#000000" points="175.462,-303.3794 184.2057,-304.0921 179.231,-302.0397 183,-300.7 183,-300.7 183,-300.7 179.231,-302.0397 181.7943,-297.3079 175.462,-303.3794 175.462,-303.3794"/>
<ellipse fill="none" stroke="#000000" cx="172.4468" cy="-304.4512" rx="3.2" ry="3.2"/>
</g>
<!-- com_location_message -->
<g id="node5" class="node">
<title>com_location_message</title>
<g id="a_node5"><a xlink:href="../../tables/com_location_message.html" xlink:title="com_location_message" target="_top">
<polygon fill="#ffffff" stroke="transparent" points="754,-1126.7 754,-1212.7 946,-1212.7 946,-1126.7 754,-1126.7"/>
<polygon fill="#f5f5f5" stroke="transparent" points="754,-1189.7 754,-1212.7 946,-1212.7 946,-1189.7 754,-1189.7"/>
<polygon fill="none" stroke="#000000" points="754,-1189.7 754,-1212.7 946,-1212.7 946,-1189.7 754,-1189.7"/>
<text text-anchor="start" x="759" y="-1198.3" font-family="Helvetica,sans-Serif" font-weight="bold" font-size="11.00" fill="#000000">com_location_message</text>
<text text-anchor="start" x="911.5219" y="-1197.8" font-family="Helvetica,sans-Serif" font-size="11.00" fill="#000000">[table]</text>
<polygon fill="none" stroke="#000000" points="754,-1167.7 754,-1189.7 946,-1189.7 946,-1167.7 754,-1167.7"/>
<image xlink:href="../../images/primaryKeys.png" width="11px" height="12px" preserveAspectRatio="xMinYMin meet" x="759" y="-1184.7"/>
<text text-anchor="start" x="783" y="-1174.8" font-family="Helvetica,sans-Serif" font-size="11.00" fill="#000000">c_location_id</text>
<polygon fill="none" stroke="#000000" points="754,-1145.7 754,-1167.7 946,-1167.7 946,-1145.7 754,-1145.7"/>
<image xlink:href="../../images/primaryKeys.png" width="11px" height="12px" preserveAspectRatio="xMinYMin meet" x="759" y="-1162.7"/>
<text text-anchor="start" x="783" y="-1152.8" font-family="Helvetica,sans-Serif" font-size="11.00" fill="#000000">c_message_id</text>
<polygon fill="#ffffff" stroke="transparent" points="754,-1126.7 754,-1145.7 848,-1145.7 848,-1126.7 754,-1126.7"/>
<polygon fill="none" stroke="#000000" points="754,-1126.7 754,-1145.7 848,-1145.7 848,-1126.7 754,-1126.7"/>
<text text-anchor="start" x="757" y="-1132.8" font-family="Helvetica,sans-Serif" font-size="11.00" fill="#000000">&lt; 2</text>
<polygon fill="#ffffff" stroke="transparent" points="848,-1126.7 848,-1145.7 897,-1145.7 897,-1126.7 848,-1126.7"/>
<polygon fill="none" stroke="#000000" points="848,-1126.7 848,-1145.7 897,-1145.7 897,-1126.7 848,-1126.7"/>
<text text-anchor="start" x="887.8862" y="-1132.8" font-family="Helvetica,sans-Serif" font-size="11.00" fill="#000000"> &#160;</text>
<polygon fill="#ffffff" stroke="transparent" points="897,-1126.7 897,-1145.7 946,-1145.7 946,-1126.7 897,-1126.7"/>
<polygon fill="none" stroke="#000000" points="897,-1126.7 897,-1145.7 946,-1145.7 946,-1126.7 897,-1126.7"/>
<text text-anchor="start" x="936.8862" y="-1132.8" font-family="Helvetica,sans-Serif" font-size="11.00" fill="#000000"> &#160;</text>
</a>
</g>
</g>
<!-- com_location_message&#45;&gt;com_location -->
<g id="edge5" class="edge">
<title>com_location_message:w&#45;&gt;com_location:e</title>
<path fill="none" stroke="#000000" d="M739.7154,-1176.2403C688.0768,-1155.0915 778.3626,-1004.7 703.5,-1004.7"/>
<polygon fill="#000000" stroke="#000000" points="746.116,-1177.3424 753.3891,-1182.2478 750.058,-1178.0212 754,-1178.7 754,-1178.7 754,-1178.7 750.058,-1178.0212 754.6109,-1175.1522 746.116,-1177.3424 746.116,-1177.3424"/>
<ellipse fill="none" stroke="#000000" cx="742.9624" cy="-1176.7993" rx="3.2" ry="3.2"/>
</g>
<!-- com_transport_unit -->
<g id="node6" class="node">
<title>com_transport_unit</title>
<g id="a_node6"><a xlink:href="../../tables/com_transport_unit.html" xlink:title="com_transport_unit" target="_top">
<polygon fill="#ffffff" stroke="transparent" points="764,-890.2 764,-1105.2 936,-1105.2 936,-890.2 764,-890.2"/>
<polygon fill="#f5f5f5" stroke="transparent" points="764,-1081.7 764,-1104.7 936,-1104.7 936,-1081.7 764,-1081.7"/>
<polygon fill="none" stroke="#000000" points="764,-1081.7 764,-1104.7 936,-1104.7 936,-1081.7 764,-1081.7"/>
<text text-anchor="start" x="769" y="-1090.3" font-family="Helvetica,sans-Serif" font-weight="bold" font-size="11.00" fill="#000000">com_transport_unit</text>
<text text-anchor="start" x="901.0437" y="-1089.8" font-family="Helvetica,sans-Serif" font-size="11.00" fill="#000000">[table]</text>
<polygon fill="none" stroke="#000000" points="764,-1059.7 764,-1081.7 936,-1081.7 936,-1059.7 764,-1059.7"/>
<image xlink:href="../../images/primaryKeys.png" width="11px" height="12px" preserveAspectRatio="xMinYMin meet" x="769" y="-1076.7"/>
<text text-anchor="start" x="784" y="-1066.8" font-family="Helvetica,sans-Serif" font-size="11.00" fill="#000000">c_pk</text>
<polygon fill="#ffffff" stroke="transparent" points="764,-1037.7 764,-1059.7 936,-1059.7 936,-1037.7 764,-1037.7"/>
<polygon fill="none" stroke="#000000" points="764,-1037.7 764,-1059.7 936,-1059.7 936,-1037.7 764,-1037.7"/>
<text text-anchor="start" x="784" y="-1044.8" font-family="Helvetica,sans-Serif" font-size="11.00" fill="#000000">c_pid</text>
<polygon fill="#ffffff" stroke="transparent" points="764,-1015.7 764,-1037.7 936,-1037.7 936,-1015.7 764,-1015.7"/>
<polygon fill="none" stroke="#000000" points="764,-1015.7 764,-1037.7 936,-1037.7 936,-1015.7 764,-1015.7"/>
<text text-anchor="start" x="784" y="-1022.8" font-family="Helvetica,sans-Serif" font-size="11.00" fill="#000000">c_barcode</text>
<polygon fill="none" stroke="#000000" points="764,-993.7 764,-1015.7 936,-1015.7 936,-993.7 764,-993.7"/>
<image xlink:href="../../images/foreignKeys.png" width="11px" height="12px" preserveAspectRatio="xMinYMin meet" x="769" y="-1010.7"/>
<text text-anchor="start" x="784" y="-1000.8" font-family="Helvetica,sans-Serif" font-size="11.00" fill="#000000">c_actual_location</text>
<polygon fill="none" stroke="#000000" points="764,-971.7 764,-993.7 936,-993.7 936,-971.7 764,-971.7"/>
<image xlink:href="../../images/foreignKeys.png" width="11px" height="12px" preserveAspectRatio="xMinYMin meet" x="769" y="-988.7"/>
<text text-anchor="start" x="784" y="-978.8" font-family="Helvetica,sans-Serif" font-size="11.00" fill="#000000">c_parent</text>
<polygon fill="none" stroke="#000000" points="764,-949.7 764,-971.7 936,-971.7 936,-949.7 764,-949.7"/>
<image xlink:href="../../images/foreignKeys.png" width="11px" height="12px" preserveAspectRatio="xMinYMin meet" x="769" y="-966.7"/>
<text text-anchor="start" x="784" y="-956.8" font-family="Helvetica,sans-Serif" font-size="11.00" fill="#000000">c_target_location</text>
<polygon fill="none" stroke="#000000" points="764,-927.7 764,-949.7 936,-949.7 936,-927.7 764,-927.7"/>
<image xlink:href="../../images/foreignKeys.png" width="11px" height="12px" preserveAspectRatio="xMinYMin meet" x="769" y="-944.7"/>
<text text-anchor="start" x="784" y="-934.8" font-family="Helvetica,sans-Serif" font-size="11.00" fill="#000000">c_transport_unit_type</text>
<polygon fill="none" stroke="#000000" points="764,-908.7 764,-927.7 936,-927.7 936,-908.7 764,-908.7"/>
<text text-anchor="start" x="767" y="-914.8" font-family="Helvetica,sans-Serif" font-size="11.00" fill="#000000">...</text>
<polygon fill="#ffffff" stroke="transparent" points="764,-889.7 764,-908.7 831,-908.7 831,-889.7 764,-889.7"/>
<polygon fill="none" stroke="#000000" points="764,-889.7 764,-908.7 831,-908.7 831,-889.7 764,-889.7"/>
<text text-anchor="start" x="767" y="-895.8" font-family="Helvetica,sans-Serif" font-size="11.00" fill="#000000">&lt; 4</text>
<polygon fill="#ffffff" stroke="transparent" points="831,-889.7 831,-908.7 892,-908.7 892,-889.7 831,-889.7"/>
<polygon fill="none" stroke="#000000" points="831,-889.7 831,-908.7 892,-908.7 892,-889.7 831,-889.7"/>
<text text-anchor="start" x="856.6105" y="-895.8" font-family="Helvetica,sans-Serif" font-size="11.00" fill="#000000">2 rows</text>
<polygon fill="#ffffff" stroke="transparent" points="892,-889.7 892,-908.7 936,-908.7 936,-889.7 892,-889.7"/>
<polygon fill="none" stroke="#000000" points="892,-889.7 892,-908.7 936,-908.7 936,-889.7 892,-889.7"/>
<text text-anchor="start" x="917.4053" y="-895.8" font-family="Helvetica,sans-Serif" font-size="11.00" fill="#000000">3 &gt;</text>
</a>
</g>
</g>
<!-- com_transport_unit&#45;&gt;com_location -->
<g id="edge6" class="edge">
<title>com_transport_unit:w&#45;&gt;com_location:e</title>
<path fill="none" stroke="#000000" d="M749.2977,-1004.7C733.3779,-1004.7 724.717,-1004.7 703.5,-1004.7"/>
<polygon fill="#000000" stroke="#000000" points="756,-1004.7001 764,-1008.3 760,-1004.7 764,-1004.7 764,-1004.7 764,-1004.7 760,-1004.7 764,-1001.1 756,-1004.7001 756,-1004.7001"/>
<ellipse fill="none" stroke="#000000" cx="752.8" cy="-1004.7001" rx="3.2" ry="3.2"/>
</g>
<!-- com_transport_unit&#45;&gt;com_location -->
<g id="edge7" class="edge">
<title>com_transport_unit:w&#45;&gt;com_location:e</title>
<path fill="none" stroke="#000000" d="M749.9359,-964.1526C731.6538,-974.5252 731.0335,-1004.7 703.5,-1004.7"/>
<polygon fill="#000000" stroke="#000000" points="756.2307,-962.6073 764.8583,-964.1962 760.1153,-961.6537 764,-960.7 764,-960.7 764,-960.7 760.1153,-961.6537 763.1417,-957.2038 756.2307,-962.6073 756.2307,-962.6073"/>
<ellipse fill="none" stroke="#000000" cx="753.123" cy="-963.3703" rx="3.2" ry="3.2"/>
</g>
</g>
</svg>
