<?xml version="1.0" encoding="UTF-8" standalone="no"?>
<!DOCTYPE svg PUBLIC "-//W3C//DTD SVG 1.1//EN"
 "http://www.w3.org/Graphics/SVG/1.1/DTD/svg11.dtd">
<!-- Generated by graphviz version 2.40.1 (20161225.0304)
 -->
<!-- Title: oneDegreeRelationshipsDiagram Pages: 1 -->
<svg width="505pt" height="675pt"
 viewBox="0.00 0.00 505.00 674.70" xmlns="http://www.w3.org/2000/svg" xmlns:xlink="http://www.w3.org/1999/xlink">
<g id="graph0" class="graph" transform="scale(1 1) rotate(0) translate(4 670.7)">
<title>oneDegreeRelationshipsDiagram</title>
<polygon fill="#ffffff" stroke="transparent" points="-4,4 -4,-670.7 501,-670.7 501,4 -4,4"/>
<text text-anchor="middle" x="72.4936" y="-7.3" font-family="Helvetica,sans-Serif" font-size="11.00" fill="#000000">Generated by SchemaSpy</text>
<!-- com_location -->
<g id="node1" class="node">
<title>com_location</title>
<g id="a_node1"><a xlink:href="../../tables/com_location.html" xlink:title="com_location" target="_top">
<polygon fill="#ffffff" stroke="transparent" points="290,-337.7 290,-662.7 489,-662.7 489,-337.7 290,-337.7"/>
<polygon fill="#f5f5f5" stroke="transparent" points="290.5,-639.2 290.5,-662.2 489.5,-662.2 489.5,-639.2 290.5,-639.2"/>
<polygon fill="none" stroke="#000000" points="290.5,-639.2 290.5,-662.2 489.5,-662.2 489.5,-639.2 290.5,-639.2"/>
<text text-anchor="start" x="295.5" y="-647.8" font-family="Helvetica,sans-Serif" font-weight="bold" font-size="11.00" fill="#000000">com_location</text>
<text text-anchor="start" x="454.5437" y="-647.3" font-family="Helvetica,sans-Serif" font-size="11.00" fill="#000000">[table]</text>
<polygon fill="none" stroke="#000000" points="290.5,-617.2 290.5,-639.2 489.5,-639.2 489.5,-617.2 290.5,-617.2"/>
<image xlink:href="../../images/primaryKeys.png" width="11px" height="12px" preserveAspectRatio="xMinYMin meet" x="295.5" y="-634.2"/>
<text text-anchor="start" x="310.5" y="-624.3" font-family="Helvetica,sans-Serif" font-size="11.00" fill="#000000">c_pk</text>
<polygon fill="#ffffff" stroke="transparent" points="290.5,-595.2 290.5,-617.2 489.5,-617.2 489.5,-595.2 290.5,-595.2"/>
<polygon fill="none" stroke="#000000" points="290.5,-595.2 290.5,-617.2 489.5,-617.2 489.5,-595.2 290.5,-595.2"/>
<text text-anchor="start" x="310.5" y="-602.3" font-family="Helvetica,sans-Serif" font-size="11.00" fill="#000000">c_pid</text>
<polygon fill="#ffffff" stroke="transparent" points="290.5,-573.2 290.5,-595.2 489.5,-595.2 489.5,-573.2 290.5,-573.2"/>
<polygon fill="none" stroke="#000000" points="290.5,-573.2 290.5,-595.2 489.5,-595.2 489.5,-573.2 290.5,-573.2"/>
<text text-anchor="start" x="310.5" y="-580.3" font-family="Helvetica,sans-Serif" font-size="11.00" fill="#000000">c_erp_code</text>
<polygon fill="#ffffff" stroke="transparent" points="290.5,-551.2 290.5,-573.2 489.5,-573.2 489.5,-551.2 290.5,-551.2"/>
<polygon fill="none" stroke="#000000" points="290.5,-551.2 290.5,-573.2 489.5,-573.2 489.5,-551.2 290.5,-551.2"/>
<text text-anchor="start" x="310.5" y="-558.3" font-family="Helvetica,sans-Serif" font-size="11.00" fill="#000000">c_aisle</text>
<polygon fill="#ffffff" stroke="transparent" points="290.5,-529.2 290.5,-551.2 489.5,-551.2 489.5,-529.2 290.5,-529.2"/>
<polygon fill="none" stroke="#000000" points="290.5,-529.2 290.5,-551.2 489.5,-551.2 489.5,-529.2 290.5,-529.2"/>
<text text-anchor="start" x="310.5" y="-536.3" font-family="Helvetica,sans-Serif" font-size="11.00" fill="#000000">c_area</text>
<polygon fill="#ffffff" stroke="transparent" points="290.5,-507.2 290.5,-529.2 489.5,-529.2 489.5,-507.2 290.5,-507.2"/>
<polygon fill="none" stroke="#000000" points="290.5,-507.2 290.5,-529.2 489.5,-529.2 489.5,-507.2 290.5,-507.2"/>
<text text-anchor="start" x="310.5" y="-514.3" font-family="Helvetica,sans-Serif" font-size="11.00" fill="#000000">c_x</text>
<polygon fill="#ffffff" stroke="transparent" points="290.5,-485.2 290.5,-507.2 489.5,-507.2 489.5,-485.2 290.5,-485.2"/>
<polygon fill="none" stroke="#000000" points="290.5,-485.2 290.5,-507.2 489.5,-507.2 489.5,-485.2 290.5,-485.2"/>
<text text-anchor="start" x="310.5" y="-492.3" font-family="Helvetica,sans-Serif" font-size="11.00" fill="#000000">c_y</text>
<polygon fill="#ffffff" stroke="transparent" points="290.5,-463.2 290.5,-485.2 489.5,-485.2 489.5,-463.2 290.5,-463.2"/>
<polygon fill="none" stroke="#000000" points="290.5,-463.2 290.5,-485.2 489.5,-485.2 489.5,-463.2 290.5,-463.2"/>
<text text-anchor="start" x="310.5" y="-470.3" font-family="Helvetica,sans-Serif" font-size="11.00" fill="#000000">c_z</text>
<polygon fill="#ffffff" stroke="transparent" points="290.5,-441.2 290.5,-463.2 489.5,-463.2 489.5,-441.2 290.5,-441.2"/>
<polygon fill="none" stroke="#000000" points="290.5,-441.2 290.5,-463.2 489.5,-463.2 489.5,-441.2 290.5,-441.2"/>
<text text-anchor="start" x="310.5" y="-448.3" font-family="Helvetica,sans-Serif" font-size="11.00" fill="#000000">c_plc_code</text>
<polygon fill="none" stroke="#000000" points="290.5,-419.2 290.5,-441.2 489.5,-441.2 489.5,-419.2 290.5,-419.2"/>
<image xlink:href="../../images/foreignKeys.png" width="11px" height="12px" preserveAspectRatio="xMinYMin meet" x="295.5" y="-436.2"/>
<text text-anchor="start" x="310.5" y="-426.3" font-family="Helvetica,sans-Serif" font-size="11.00" fill="#000000">c_account</text>
<polygon fill="none" stroke="#000000" points="290.5,-397.2 290.5,-419.2 489.5,-419.2 489.5,-397.2 290.5,-397.2"/>
<image xlink:href="../../images/foreignKeys.png" width="11px" height="12px" preserveAspectRatio="xMinYMin meet" x="295.5" y="-414.2"/>
<text text-anchor="start" x="310.5" y="-404.3" font-family="Helvetica,sans-Serif" font-size="11.00" fill="#000000">c_location_group</text>
<polygon fill="none" stroke="#000000" points="290.5,-375.2 290.5,-397.2 489.5,-397.2 489.5,-375.2 290.5,-375.2"/>
<image xlink:href="../../images/foreignKeys.png" width="11px" height="12px" preserveAspectRatio="xMinYMin meet" x="295.5" y="-392.2"/>
<text text-anchor="start" x="310.5" y="-382.3" font-family="Helvetica,sans-Serif" font-size="11.00" fill="#000000">c_location_type</text>
<polygon fill="none" stroke="#000000" points="290.5,-356.2 290.5,-375.2 489.5,-375.2 489.5,-356.2 290.5,-356.2"/>
<text text-anchor="start" x="293.5" y="-362.3" font-family="Helvetica,sans-Serif" font-size="11.00" fill="#000000">...</text>
<polygon fill="#ffffff" stroke="transparent" points="290.5,-337.2 290.5,-356.2 367.5,-356.2 367.5,-337.2 290.5,-337.2"/>
<polygon fill="none" stroke="#000000" points="290.5,-337.2 290.5,-356.2 367.5,-356.2 367.5,-337.2 290.5,-337.2"/>
<text text-anchor="start" x="293.5" y="-343.3" font-family="Helvetica,sans-Serif" font-size="11.00" fill="#000000">&lt; 3</text>
<polygon fill="#ffffff" stroke="transparent" points="367.5,-337.2 367.5,-356.2 439.5,-356.2 439.5,-337.2 367.5,-337.2"/>
<polygon fill="none" stroke="#000000" points="367.5,-337.2 367.5,-356.2 439.5,-356.2 439.5,-337.2 367.5,-337.2"/>
<text text-anchor="start" x="397.9956" y="-343.3" font-family="Helvetica,sans-Serif" font-size="11.00" fill="#000000">32 rows</text>
<polygon fill="#ffffff" stroke="transparent" points="439.5,-337.2 439.5,-356.2 489.5,-356.2 489.5,-337.2 439.5,-337.2"/>
<polygon fill="none" stroke="#000000" points="439.5,-337.2 439.5,-356.2 489.5,-356.2 489.5,-337.2 439.5,-337.2"/>
<text text-anchor="start" x="470.9053" y="-343.3" font-family="Helvetica,sans-Serif" font-size="11.00" fill="#000000">3 &gt;</text>
</a>
</g>
</g>
<!-- com_location_type -->
<g id="node2" class="node">
<title>com_location_type</title>
<g id="a_node2"><a xlink:href="../../tables/com_location_type.html" xlink:title="com_location_type" target="_top">
<polygon fill="#ffffff" stroke="transparent" points="8,-38.2 8,-348.2 241,-348.2 241,-38.2 8,-38.2"/>
<polygon fill="#f5f5f5" stroke="transparent" points="10.5,-323.2 10.5,-346.2 239.5,-346.2 239.5,-323.2 10.5,-323.2"/>
<polygon fill="none" stroke="#000000" points="10.5,-323.2 10.5,-346.2 239.5,-346.2 239.5,-323.2 10.5,-323.2"/>
<text text-anchor="start" x="15.5" y="-331.8" font-family="Helvetica,sans-Serif" font-weight="bold" font-size="11.00" fill="#000000">com_location_type</text>
<text text-anchor="start" x="204.5437" y="-331.3" font-family="Helvetica,sans-Serif" font-size="11.00" fill="#000000">[table]</text>
<polygon fill="none" stroke="#000000" points="10.5,-301.2 10.5,-323.2 155.5,-323.2 155.5,-301.2 10.5,-301.2"/>
<image xlink:href="../../images/primaryKeys.png" width="11px" height="12px" preserveAspectRatio="xMinYMin meet" x="15.5" y="-318.2"/>
<text text-anchor="start" x="30.5" y="-308.3" font-family="Helvetica,sans-Serif" font-size="11.00" fill="#000000">c_pk</text>
<polygon fill="none" stroke="#000000" points="155.5,-301.2 155.5,-323.2 239.5,-323.2 239.5,-301.2 155.5,-301.2"/>
<text text-anchor="start" x="158.5" y="-308.9" font-family="Helvetica,sans-Serif" font-size="11.00" fill="#000000">int8[19]</text>
<polygon fill="none" stroke="#000000" points="10.5,-279.2 10.5,-301.2 155.5,-301.2 155.5,-279.2 10.5,-279.2"/>
<text text-anchor="start" x="30.5" y="-286.3" font-family="Helvetica,sans-Serif" font-size="11.00" fill="#000000">c_created</text>
<polygon fill="none" stroke="#000000" points="155.5,-279.2 155.5,-301.2 239.5,-301.2 239.5,-279.2 155.5,-279.2"/>
<text text-anchor="start" x="158.3807" y="-286.9" font-family="Helvetica,sans-Serif" font-size="11.00" fill="#000000">timestamp[29,6]</text>
<polygon fill="none" stroke="#000000" points="10.5,-257.2 10.5,-279.2 155.5,-279.2 155.5,-257.2 10.5,-257.2"/>
<text text-anchor="start" x="30.5" y="-264.3" font-family="Helvetica,sans-Serif" font-size="11.00" fill="#000000">c_created_by</text>
<polygon fill="none" stroke="#000000" points="155.5,-257.2 155.5,-279.2 239.5,-279.2 239.5,-257.2 155.5,-257.2"/>
<text text-anchor="start" x="158.5" y="-264.9" font-family="Helvetica,sans-Serif" font-size="11.00" fill="#000000">varchar[255]</text>
<polygon fill="none" stroke="#000000" points="10.5,-235.2 10.5,-257.2 155.5,-257.2 155.5,-235.2 10.5,-235.2"/>
<text text-anchor="start" x="30.5" y="-242.3" font-family="Helvetica,sans-Serif" font-size="11.00" fill="#000000">c_updated_by</text>
<polygon fill="none" stroke="#000000" points="155.5,-235.2 155.5,-257.2 239.5,-257.2 239.5,-235.2 155.5,-235.2"/>
<text text-anchor="start" x="158.5" y="-242.9" font-family="Helvetica,sans-Serif" font-size="11.00" fill="#000000">varchar[255]</text>
<polygon fill="none" stroke="#000000" points="10.5,-213.2 10.5,-235.2 155.5,-235.2 155.5,-213.2 10.5,-213.2"/>
<text text-anchor="start" x="30.5" y="-220.3" font-family="Helvetica,sans-Serif" font-size="11.00" fill="#000000">c_updated</text>
<polygon fill="none" stroke="#000000" points="155.5,-213.2 155.5,-235.2 239.5,-235.2 239.5,-213.2 155.5,-213.2"/>
<text text-anchor="start" x="158.3807" y="-220.9" font-family="Helvetica,sans-Serif" font-size="11.00" fill="#000000">timestamp[29,6]</text>
<polygon fill="none" stroke="#000000" points="10.5,-191.2 10.5,-213.2 155.5,-213.2 155.5,-191.2 10.5,-191.2"/>
<text text-anchor="start" x="30.5" y="-198.3" font-family="Helvetica,sans-Serif" font-size="11.00" fill="#000000">c_ol</text>
<polygon fill="none" stroke="#000000" points="155.5,-191.2 155.5,-213.2 239.5,-213.2 239.5,-191.2 155.5,-191.2"/>
<text text-anchor="start" x="158.5" y="-198.9" font-family="Helvetica,sans-Serif" font-size="11.00" fill="#000000">int8[19]</text>
<polygon fill="#ffffff" stroke="transparent" points="10.5,-169.2 10.5,-191.2 155.5,-191.2 155.5,-169.2 10.5,-169.2"/>
<polygon fill="none" stroke="#000000" points="10.5,-169.2 10.5,-191.2 155.5,-191.2 155.5,-169.2 10.5,-169.2"/>
<text text-anchor="start" x="30.5" y="-176.3" font-family="Helvetica,sans-Serif" font-size="11.00" fill="#000000">c_pid</text>
<polygon fill="none" stroke="#000000" points="155.5,-169.2 155.5,-191.2 239.5,-191.2 239.5,-169.2 155.5,-169.2"/>
<text text-anchor="start" x="158.5" y="-176.9" font-family="Helvetica,sans-Serif" font-size="11.00" fill="#000000">varchar[255]</text>
<polygon fill="none" stroke="#000000" points="10.5,-147.2 10.5,-169.2 155.5,-169.2 155.5,-147.2 10.5,-147.2"/>
<text text-anchor="start" x="30.5" y="-154.3" font-family="Helvetica,sans-Serif" font-size="11.00" fill="#000000">c_description</text>
<polygon fill="none" stroke="#000000" points="155.5,-147.2 155.5,-169.2 239.5,-169.2 239.5,-147.2 155.5,-147.2"/>
<text text-anchor="start" x="158.5" y="-154.9" font-family="Helvetica,sans-Serif" font-size="11.00" fill="#000000">varchar[255]</text>
<polygon fill="none" stroke="#000000" points="10.5,-125.2 10.5,-147.2 155.5,-147.2 155.5,-125.2 10.5,-125.2"/>
<text text-anchor="start" x="30.5" y="-132.3" font-family="Helvetica,sans-Serif" font-size="11.00" fill="#000000">c_height</text>
<polygon fill="none" stroke="#000000" points="155.5,-125.2 155.5,-147.2 239.5,-147.2 239.5,-125.2 155.5,-125.2"/>
<text text-anchor="start" x="158.5" y="-132.9" font-family="Helvetica,sans-Serif" font-size="11.00" fill="#000000">int4[10]</text>
<polygon fill="none" stroke="#000000" points="10.5,-103.2 10.5,-125.2 155.5,-125.2 155.5,-103.2 10.5,-103.2"/>
<text text-anchor="start" x="30.5" y="-110.3" font-family="Helvetica,sans-Serif" font-size="11.00" fill="#000000">c_length</text>
<polygon fill="none" stroke="#000000" points="155.5,-103.2 155.5,-125.2 239.5,-125.2 239.5,-103.2 155.5,-103.2"/>
<text text-anchor="start" x="158.5" y="-110.9" font-family="Helvetica,sans-Serif" font-size="11.00" fill="#000000">int4[10]</text>
<polygon fill="#ffffff" stroke="transparent" points="10.5,-81.2 10.5,-103.2 155.5,-103.2 155.5,-81.2 10.5,-81.2"/>
<polygon fill="none" stroke="#000000" points="10.5,-81.2 10.5,-103.2 155.5,-103.2 155.5,-81.2 10.5,-81.2"/>
<text text-anchor="start" x="30.5" y="-88.3" font-family="Helvetica,sans-Serif" font-size="11.00" fill="#000000">c_type</text>
<polygon fill="none" stroke="#000000" points="155.5,-81.2 155.5,-103.2 239.5,-103.2 239.5,-81.2 155.5,-81.2"/>
<text text-anchor="start" x="158.5" y="-88.9" font-family="Helvetica,sans-Serif" font-size="11.00" fill="#000000">varchar[255]</text>
<polygon fill="none" stroke="#000000" points="10.5,-59.2 10.5,-81.2 155.5,-81.2 155.5,-59.2 10.5,-59.2"/>
<text text-anchor="start" x="30.5" y="-66.3" font-family="Helvetica,sans-Serif" font-size="11.00" fill="#000000">c_width</text>
<polygon fill="none" stroke="#000000" points="155.5,-59.2 155.5,-81.2 239.5,-81.2 239.5,-59.2 155.5,-59.2"/>
<text text-anchor="start" x="158.5" y="-66.9" font-family="Helvetica,sans-Serif" font-size="11.00" fill="#000000">int4[10]</text>
<polygon fill="#ffffff" stroke="transparent" points="10.5,-40.2 10.5,-59.2 74.5,-59.2 74.5,-40.2 10.5,-40.2"/>
<polygon fill="none" stroke="#000000" points="10.5,-40.2 10.5,-59.2 74.5,-59.2 74.5,-40.2 10.5,-40.2"/>
<text text-anchor="start" x="13.5" y="-46.3" font-family="Helvetica,sans-Serif" font-size="11.00" fill="#000000">&lt; 0</text>
<polygon fill="#ffffff" stroke="transparent" points="74.5,-40.2 74.5,-59.2 155.5,-59.2 155.5,-40.2 74.5,-40.2"/>
<polygon fill="none" stroke="#000000" points="74.5,-40.2 74.5,-59.2 155.5,-59.2 155.5,-40.2 74.5,-40.2"/>
<text text-anchor="start" x="120.1105" y="-46.3" font-family="Helvetica,sans-Serif" font-size="11.00" fill="#000000">2 rows</text>
<polygon fill="#ffffff" stroke="transparent" points="155.5,-40.2 155.5,-59.2 239.5,-59.2 239.5,-40.2 155.5,-40.2"/>
<polygon fill="none" stroke="#000000" points="155.5,-40.2 155.5,-59.2 239.5,-59.2 239.5,-40.2 155.5,-40.2"/>
<text text-anchor="start" x="220.9053" y="-46.3" font-family="Helvetica,sans-Serif" font-size="11.00" fill="#000000">2 &gt;</text>
<polygon fill="none" stroke="#000000" stroke-width="2" points="9,-39.2 9,-347.2 240,-347.2 240,-39.2 9,-39.2"/>
</a>
</g>
</g>
<!-- com_location&#45;&gt;com_location_type -->
<g id="edge1" class="edge">
<title>com_location:w&#45;&gt;com_location_type:e</title>
<path fill="none" stroke="#000000" d="M276.5503,-381.571C257.7607,-365.3706 273.3581,-312.2 239.5,-312.2"/>
<polygon fill="#000000" stroke="#000000" points="282.9071,-383.6804 289.3662,-389.6168 286.7036,-384.9402 290.5,-386.2 290.5,-386.2 290.5,-386.2 286.7036,-384.9402 291.6338,-382.7832 282.9071,-383.6804 282.9071,-383.6804"/>
<ellipse fill="none" stroke="#000000" cx="279.87" cy="-382.6725" rx="3.2" ry="3.2"/>
</g>
<!-- com_type_placing_rule -->
<g id="node3" class="node">
<title>com_type_placing_rule</title>
<g id="a_node3"><a xlink:href="../../tables/com_type_placing_rule.html" xlink:title="com_type_placing_rule" target="_top">
<polygon fill="#ffffff" stroke="transparent" points="294,-167.7 294,-316.7 485,-316.7 485,-167.7 294,-167.7"/>
<polygon fill="#f5f5f5" stroke="transparent" points="294.5,-293.2 294.5,-316.2 485.5,-316.2 485.5,-293.2 294.5,-293.2"/>
<polygon fill="none" stroke="#000000" points="294.5,-293.2 294.5,-316.2 485.5,-316.2 485.5,-293.2 294.5,-293.2"/>
<text text-anchor="start" x="299.5" y="-301.8" font-family="Helvetica,sans-Serif" font-weight="bold" font-size="11.00" fill="#000000">com_type_placing_rule</text>
<text text-anchor="start" x="451.0219" y="-301.3" font-family="Helvetica,sans-Serif" font-size="11.00" fill="#000000">[table]</text>
<polygon fill="none" stroke="#000000" points="294.5,-271.2 294.5,-293.2 485.5,-293.2 485.5,-271.2 294.5,-271.2"/>
<image xlink:href="../../images/primaryKeys.png" width="11px" height="12px" preserveAspectRatio="xMinYMin meet" x="299.5" y="-288.2"/>
<text text-anchor="start" x="319.5" y="-278.3" font-family="Helvetica,sans-Serif" font-size="11.00" fill="#000000">c_pk</text>
<polygon fill="#ffffff" stroke="transparent" points="294.5,-249.2 294.5,-271.2 485.5,-271.2 485.5,-249.2 294.5,-249.2"/>
<polygon fill="none" stroke="#000000" points="294.5,-249.2 294.5,-271.2 485.5,-271.2 485.5,-249.2 294.5,-249.2"/>
<text text-anchor="start" x="319.5" y="-256.3" font-family="Helvetica,sans-Serif" font-size="11.00" fill="#000000">c_privilege_level</text>
<polygon fill="#ffffff" stroke="transparent" points="294.5,-227.2 294.5,-249.2 485.5,-249.2 485.5,-227.2 294.5,-227.2"/>
<polygon fill="none" stroke="#000000" points="294.5,-227.2 294.5,-249.2 485.5,-249.2 485.5,-227.2 294.5,-227.2"/>
<image xlink:href="../../images/foreignKeys.png" width="11px" height="12px" preserveAspectRatio="xMinYMin meet" x="299.5" y="-244.2"/>
<text text-anchor="start" x="319.5" y="-234.3" font-family="Helvetica,sans-Serif" font-size="11.00" fill="#000000">c_allowed_location_type</text>
<polygon fill="#ffffff" stroke="transparent" points="294.5,-205.2 294.5,-227.2 485.5,-227.2 485.5,-205.2 294.5,-205.2"/>
<polygon fill="none" stroke="#000000" points="294.5,-205.2 294.5,-227.2 485.5,-227.2 485.5,-205.2 294.5,-205.2"/>
<image xlink:href="../../images/foreignKeys.png" width="11px" height="12px" preserveAspectRatio="xMinYMin meet" x="299.5" y="-222.2"/>
<text text-anchor="start" x="319.5" y="-212.3" font-family="Helvetica,sans-Serif" font-size="11.00" fill="#000000">c_tut_id</text>
<polygon fill="none" stroke="#000000" points="294.5,-186.2 294.5,-205.2 485.5,-205.2 485.5,-186.2 294.5,-186.2"/>
<text text-anchor="start" x="297.5" y="-192.3" font-family="Helvetica,sans-Serif" font-size="11.00" fill="#000000">...</text>
<polygon fill="#ffffff" stroke="transparent" points="294.5,-167.2 294.5,-186.2 375.5,-186.2 375.5,-167.2 294.5,-167.2"/>
<polygon fill="none" stroke="#000000" points="294.5,-167.2 294.5,-186.2 375.5,-186.2 375.5,-167.2 294.5,-167.2"/>
<text text-anchor="start" x="297.5" y="-173.3" font-family="Helvetica,sans-Serif" font-size="11.00" fill="#000000">&lt; 2</text>
<polygon fill="#ffffff" stroke="transparent" points="375.5,-167.2 375.5,-186.2 443.5,-186.2 443.5,-167.2 375.5,-167.2"/>
<polygon fill="none" stroke="#000000" points="375.5,-167.2 375.5,-186.2 443.5,-186.2 443.5,-167.2 375.5,-167.2"/>
<text text-anchor="start" x="408.1105" y="-173.3" font-family="Helvetica,sans-Serif" font-size="11.00" fill="#000000">3 rows</text>
<polygon fill="#ffffff" stroke="transparent" points="443.5,-167.2 443.5,-186.2 485.5,-186.2 485.5,-167.2 443.5,-167.2"/>
<polygon fill="none" stroke="#000000" points="443.5,-167.2 443.5,-186.2 485.5,-186.2 485.5,-167.2 443.5,-167.2"/>
<text text-anchor="start" x="476.3862" y="-173.3" font-family="Helvetica,sans-Serif" font-size="11.00" fill="#000000"> &#160;</text>
</a>
</g>
</g>
<!-- com_type_placing_rule&#45;&gt;com_location_type -->
<g id="edge2" class="edge">
<title>com_type_placing_rule:w&#45;&gt;com_location_type:e</title>
<path fill="none" stroke="#000000" d="M280.5792,-242.3906C259.8948,-258.0448 274.5555,-312.2 239.5,-312.2"/>
<polygon fill="#000000" stroke="#000000" points="286.8396,-240.5061 295.5377,-241.6472 290.6698,-239.353 294.5,-238.2 294.5,-238.2 294.5,-238.2 290.6698,-239.353 293.4623,-234.7528 286.8396,-240.5061 286.8396,-240.5061"/>
<ellipse fill="none" stroke="#000000" cx="283.7754" cy="-241.4285" rx="3.2" ry="3.2"/>
</g>
</g>
</svg>
