<?xml version="1.0" encoding="UTF-8" standalone="no"?>
<!DOCTYPE svg PUBLIC "-//W3C//DTD SVG 1.1//EN"
 "http://www.w3.org/Graphics/SVG/1.1/DTD/svg11.dtd">
<!-- Generated by graphviz version 2.40.1 (20161225.0304)
 -->
<!-- Title: twoDegreesRelationshipsDiagram Pages: 1 -->
<svg width="493pt" height="399pt"
 viewBox="0.00 0.00 493.00 398.70" xmlns="http://www.w3.org/2000/svg" xmlns:xlink="http://www.w3.org/1999/xlink">
<g id="graph0" class="graph" transform="scale(1 1) rotate(0) translate(4 394.7)">
<title>twoDegreesRelationshipsDiagram</title>
<polygon fill="#ffffff" stroke="transparent" points="-4,4 -4,-394.7 489,-394.7 489,4 -4,4"/>
<text text-anchor="middle" x="72.4936" y="-7.3" font-family="Helvetica,sans-Serif" font-size="11.00" fill="#000000">Generated by SchemaSpy</text>
<!-- com_transport_unit_log -->
<g id="node1" class="node">
<title>com_transport_unit_log</title>
<g id="a_node1"><a xlink:href="../../tables/com_transport_unit_log.html" xlink:title="com_transport_unit_log" target="_top">
<polygon fill="#ffffff" stroke="transparent" points="245.5,-325.7 245.5,-386.7 441.5,-386.7 441.5,-325.7 245.5,-325.7"/>
<polygon fill="#f5f5f5" stroke="transparent" points="245.5,-363.2 245.5,-386.2 441.5,-386.2 441.5,-363.2 245.5,-363.2"/>
<polygon fill="none" stroke="#000000" points="245.5,-363.2 245.5,-386.2 441.5,-386.2 441.5,-363.2 245.5,-363.2"/>
<text text-anchor="start" x="250.5" y="-371.8" font-family="Helvetica,sans-Serif" font-weight="bold" font-size="11.00" fill="#000000">com_transport_unit_log</text>
<text text-anchor="start" x="407.0219" y="-371.3" font-family="Helvetica,sans-Serif" font-size="11.00" fill="#000000">[table]</text>
<polygon fill="none" stroke="#000000" points="245.5,-344.2 245.5,-363.2 441.5,-363.2 441.5,-344.2 245.5,-344.2"/>
<text text-anchor="start" x="248.5" y="-350.3" font-family="Helvetica,sans-Serif" font-size="11.00" fill="#000000">...</text>
<polygon fill="#ffffff" stroke="transparent" points="245.5,-325.2 245.5,-344.2 341.5,-344.2 341.5,-325.2 245.5,-325.2"/>
<polygon fill="none" stroke="#000000" points="245.5,-325.2 245.5,-344.2 341.5,-344.2 341.5,-325.2 245.5,-325.2"/>
<text text-anchor="start" x="248.5" y="-331.3" font-family="Helvetica,sans-Serif" font-size="11.00" fill="#000000">&lt; 1</text>
<polygon fill="#ffffff" stroke="transparent" points="341.5,-325.2 341.5,-344.2 391.5,-344.2 391.5,-325.2 341.5,-325.2"/>
<polygon fill="none" stroke="#000000" points="341.5,-325.2 341.5,-344.2 391.5,-344.2 391.5,-325.2 341.5,-325.2"/>
<text text-anchor="start" x="382.3862" y="-331.3" font-family="Helvetica,sans-Serif" font-size="11.00" fill="#000000"> &#160;</text>
<polygon fill="#ffffff" stroke="transparent" points="391.5,-325.2 391.5,-344.2 441.5,-344.2 441.5,-325.2 391.5,-325.2"/>
<polygon fill="none" stroke="#000000" points="391.5,-325.2 391.5,-344.2 441.5,-344.2 441.5,-325.2 391.5,-325.2"/>
<text text-anchor="start" x="432.3862" y="-331.3" font-family="Helvetica,sans-Serif" font-size="11.00" fill="#000000"> &#160;</text>
</a>
</g>
</g>
<!-- com_srv_revision -->
<g id="node2" class="node">
<title>com_srv_revision</title>
<g id="a_node2"><a xlink:href="../../tables/com_srv_revision.html" xlink:title="com_srv_revision" target="_top">
<polygon fill="#ffffff" stroke="transparent" points="8,-250.7 8,-333.7 161,-333.7 161,-250.7 8,-250.7"/>
<polygon fill="#f5f5f5" stroke="transparent" points="8.5,-310.2 8.5,-333.2 161.5,-333.2 161.5,-310.2 8.5,-310.2"/>
<polygon fill="none" stroke="#000000" points="8.5,-310.2 8.5,-333.2 161.5,-333.2 161.5,-310.2 8.5,-310.2"/>
<text text-anchor="start" x="13.5" y="-318.8" font-family="Helvetica,sans-Serif" font-weight="bold" font-size="11.00" fill="#000000">com_srv_revision</text>
<text text-anchor="start" x="127.0219" y="-318.3" font-family="Helvetica,sans-Serif" font-size="11.00" fill="#000000">[table]</text>
<polygon fill="none" stroke="#000000" points="8.5,-288.2 8.5,-310.2 161.5,-310.2 161.5,-288.2 8.5,-288.2"/>
<image xlink:href="../../images/primaryKeys.png" width="11px" height="12px" preserveAspectRatio="xMinYMin meet" x="13.5" y="-305.2"/>
<text text-anchor="start" x="37.5" y="-295.3" font-family="Helvetica,sans-Serif" font-size="11.00" fill="#000000">c_pk</text>
<polygon fill="none" stroke="#000000" points="8.5,-269.2 8.5,-288.2 161.5,-288.2 161.5,-269.2 8.5,-269.2"/>
<text text-anchor="start" x="11.5" y="-275.3" font-family="Helvetica,sans-Serif" font-size="11.00" fill="#000000">...</text>
<polygon fill="#ffffff" stroke="transparent" points="8.5,-250.2 8.5,-269.2 74.5,-269.2 74.5,-250.2 8.5,-250.2"/>
<polygon fill="none" stroke="#000000" points="8.5,-250.2 8.5,-269.2 74.5,-269.2 74.5,-250.2 8.5,-250.2"/>
<text text-anchor="start" x="11.5" y="-256.3" font-family="Helvetica,sans-Serif" font-size="11.00" fill="#000000"> &#160;</text>
<polygon fill="#ffffff" stroke="transparent" points="74.5,-250.2 74.5,-269.2 113.5,-269.2 113.5,-250.2 74.5,-250.2"/>
<polygon fill="none" stroke="#000000" points="74.5,-250.2 74.5,-269.2 113.5,-269.2 113.5,-250.2 74.5,-250.2"/>
<text text-anchor="start" x="104.3862" y="-256.3" font-family="Helvetica,sans-Serif" font-size="11.00" fill="#000000"> &#160;</text>
<polygon fill="#ffffff" stroke="transparent" points="113.5,-250.2 113.5,-269.2 161.5,-269.2 161.5,-250.2 113.5,-250.2"/>
<polygon fill="none" stroke="#000000" points="113.5,-250.2 113.5,-269.2 161.5,-269.2 161.5,-250.2 113.5,-250.2"/>
<text text-anchor="start" x="142.9053" y="-256.3" font-family="Helvetica,sans-Serif" font-size="11.00" fill="#000000">2 &gt;</text>
</a>
</g>
</g>
<!-- com_transport_unit_log&#45;&gt;com_srv_revision -->
<g id="edge1" class="edge">
<title>com_transport_unit_log:w&#45;&gt;com_srv_revision:e</title>
<path fill="none" stroke="#000000" d="M230.9684,-350.8797C201.541,-340.5438 200.3344,-299.2 161.5,-299.2"/>
<polygon fill="#000000" stroke="#000000" points="237.6001,-351.9385 244.9323,-356.755 241.55,-352.5693 245.5,-353.2 245.5,-353.2 245.5,-353.2 241.55,-352.5693 246.0677,-349.645 237.6001,-351.9385 237.6001,-351.9385"/>
<ellipse fill="none" stroke="#000000" cx="234.4401" cy="-351.434" rx="3.2" ry="3.2"/>
</g>
<!-- com_tu_reservation_log -->
<g id="node3" class="node">
<title>com_tu_reservation_log</title>
<g id="a_node3"><a xlink:href="../../tables/com_tu_reservation_log.html" xlink:title="com_tu_reservation_log" target="_top">
<polygon fill="#ffffff" stroke="transparent" points="210,-38.2 210,-304.2 477,-304.2 477,-38.2 210,-38.2"/>
<polygon fill="#f5f5f5" stroke="transparent" points="212.5,-279.2 212.5,-302.2 475.5,-302.2 475.5,-279.2 212.5,-279.2"/>
<polygon fill="none" stroke="#000000" points="212.5,-279.2 212.5,-302.2 475.5,-302.2 475.5,-279.2 212.5,-279.2"/>
<text text-anchor="start" x="217.5" y="-287.8" font-family="Helvetica,sans-Serif" font-weight="bold" font-size="11.00" fill="#000000">com_tu_reservation_log</text>
<text text-anchor="start" x="440.5437" y="-287.3" font-family="Helvetica,sans-Serif" font-size="11.00" fill="#000000">[table]</text>
<polygon fill="none" stroke="#000000" points="212.5,-257.2 212.5,-279.2 391.5,-279.2 391.5,-257.2 212.5,-257.2"/>
<image xlink:href="../../images/primaryKeys.png" width="11px" height="12px" preserveAspectRatio="xMinYMin meet" x="217.5" y="-274.2"/>
<text text-anchor="start" x="232.5" y="-264.3" font-family="Helvetica,sans-Serif" font-size="11.00" fill="#000000">c_pk</text>
<polygon fill="none" stroke="#000000" points="391.5,-257.2 391.5,-279.2 475.5,-279.2 475.5,-257.2 391.5,-257.2"/>
<text text-anchor="start" x="394.5" y="-264.9" font-family="Helvetica,sans-Serif" font-size="11.00" fill="#000000">int8[19]</text>
<polygon fill="none" stroke="#000000" points="212.5,-235.2 212.5,-257.2 391.5,-257.2 391.5,-235.2 212.5,-235.2"/>
<image xlink:href="../../images/primaryKeys.png" width="11px" height="12px" preserveAspectRatio="xMinYMin meet" x="217.5" y="-252.2"/>
<text text-anchor="start" x="232.5" y="-242.3" font-family="Helvetica,sans-Serif" font-size="11.00" fill="#000000">c_rev</text>
<polygon fill="none" stroke="#000000" points="391.5,-235.2 391.5,-257.2 475.5,-257.2 475.5,-235.2 391.5,-235.2"/>
<text text-anchor="start" x="394.5" y="-242.9" font-family="Helvetica,sans-Serif" font-size="11.00" fill="#000000">int8[19]</text>
<polygon fill="none" stroke="#000000" points="212.5,-213.2 212.5,-235.2 391.5,-235.2 391.5,-213.2 212.5,-213.2"/>
<text text-anchor="start" x="232.5" y="-220.3" font-family="Helvetica,sans-Serif" font-size="11.00" fill="#000000">c_rev_type</text>
<polygon fill="none" stroke="#000000" points="391.5,-213.2 391.5,-235.2 475.5,-235.2 475.5,-213.2 391.5,-213.2"/>
<text text-anchor="start" x="394.5" y="-220.9" font-family="Helvetica,sans-Serif" font-size="11.00" fill="#000000">int2[5]</text>
<polygon fill="none" stroke="#000000" points="212.5,-191.2 212.5,-213.2 391.5,-213.2 391.5,-191.2 212.5,-191.2"/>
<text text-anchor="start" x="232.5" y="-198.3" font-family="Helvetica,sans-Serif" font-size="11.00" fill="#000000">c_created</text>
<polygon fill="none" stroke="#000000" points="391.5,-191.2 391.5,-213.2 475.5,-213.2 475.5,-191.2 391.5,-191.2"/>
<text text-anchor="start" x="394.3807" y="-198.9" font-family="Helvetica,sans-Serif" font-size="11.00" fill="#000000">timestamp[29,6]</text>
<polygon fill="none" stroke="#000000" points="212.5,-169.2 212.5,-191.2 391.5,-191.2 391.5,-169.2 212.5,-169.2"/>
<text text-anchor="start" x="232.5" y="-176.3" font-family="Helvetica,sans-Serif" font-size="11.00" fill="#000000">c_created_by</text>
<polygon fill="none" stroke="#000000" points="391.5,-169.2 391.5,-191.2 475.5,-191.2 475.5,-169.2 391.5,-169.2"/>
<text text-anchor="start" x="394.5" y="-176.9" font-family="Helvetica,sans-Serif" font-size="11.00" fill="#000000">varchar[255]</text>
<polygon fill="none" stroke="#000000" points="212.5,-147.2 212.5,-169.2 391.5,-169.2 391.5,-147.2 212.5,-147.2"/>
<text text-anchor="start" x="232.5" y="-154.3" font-family="Helvetica,sans-Serif" font-size="11.00" fill="#000000">c_updated_by</text>
<polygon fill="none" stroke="#000000" points="391.5,-147.2 391.5,-169.2 475.5,-169.2 475.5,-147.2 391.5,-147.2"/>
<text text-anchor="start" x="394.5" y="-154.9" font-family="Helvetica,sans-Serif" font-size="11.00" fill="#000000">varchar[255]</text>
<polygon fill="none" stroke="#000000" points="212.5,-125.2 212.5,-147.2 391.5,-147.2 391.5,-125.2 212.5,-125.2"/>
<text text-anchor="start" x="232.5" y="-132.3" font-family="Helvetica,sans-Serif" font-size="11.00" fill="#000000">c_updated</text>
<polygon fill="none" stroke="#000000" points="391.5,-125.2 391.5,-147.2 475.5,-147.2 475.5,-125.2 391.5,-125.2"/>
<text text-anchor="start" x="394.3807" y="-132.9" font-family="Helvetica,sans-Serif" font-size="11.00" fill="#000000">timestamp[29,6]</text>
<polygon fill="none" stroke="#000000" points="212.5,-103.2 212.5,-125.2 391.5,-125.2 391.5,-103.2 212.5,-103.2"/>
<text text-anchor="start" x="232.5" y="-110.3" font-family="Helvetica,sans-Serif" font-size="11.00" fill="#000000">c_pid</text>
<polygon fill="none" stroke="#000000" points="391.5,-103.2 391.5,-125.2 475.5,-125.2 475.5,-103.2 391.5,-103.2"/>
<text text-anchor="start" x="394.5" y="-110.9" font-family="Helvetica,sans-Serif" font-size="11.00" fill="#000000">varchar[255]</text>
<polygon fill="none" stroke="#000000" points="212.5,-81.2 212.5,-103.2 391.5,-103.2 391.5,-81.2 212.5,-81.2"/>
<text text-anchor="start" x="232.5" y="-88.3" font-family="Helvetica,sans-Serif" font-size="11.00" fill="#000000">c_reserved_at</text>
<polygon fill="none" stroke="#000000" points="391.5,-81.2 391.5,-103.2 475.5,-103.2 475.5,-81.2 391.5,-81.2"/>
<text text-anchor="start" x="394.5" y="-88.9" font-family="Helvetica,sans-Serif" font-size="11.00" fill="#000000">timestamp[22]</text>
<polygon fill="none" stroke="#000000" points="212.5,-59.2 212.5,-81.2 391.5,-81.2 391.5,-59.2 212.5,-59.2"/>
<text text-anchor="start" x="232.5" y="-66.3" font-family="Helvetica,sans-Serif" font-size="11.00" fill="#000000">c_reserved_by</text>
<polygon fill="none" stroke="#000000" points="391.5,-59.2 391.5,-81.2 475.5,-81.2 475.5,-59.2 391.5,-59.2"/>
<text text-anchor="start" x="394.5" y="-66.9" font-family="Helvetica,sans-Serif" font-size="11.00" fill="#000000">varchar[255]</text>
<polygon fill="#ffffff" stroke="transparent" points="212.5,-40.2 212.5,-59.2 306.5,-59.2 306.5,-40.2 212.5,-40.2"/>
<polygon fill="none" stroke="#000000" points="212.5,-40.2 212.5,-59.2 306.5,-59.2 306.5,-40.2 212.5,-40.2"/>
<text text-anchor="start" x="215.5" y="-46.3" font-family="Helvetica,sans-Serif" font-size="11.00" fill="#000000">&lt; 1</text>
<polygon fill="#ffffff" stroke="transparent" points="306.5,-40.2 306.5,-59.2 391.5,-59.2 391.5,-40.2 306.5,-40.2"/>
<polygon fill="none" stroke="#000000" points="306.5,-40.2 306.5,-59.2 391.5,-59.2 391.5,-40.2 306.5,-40.2"/>
<text text-anchor="start" x="382.3862" y="-46.3" font-family="Helvetica,sans-Serif" font-size="11.00" fill="#000000"> &#160;</text>
<polygon fill="#ffffff" stroke="transparent" points="391.5,-40.2 391.5,-59.2 475.5,-59.2 475.5,-40.2 391.5,-40.2"/>
<polygon fill="none" stroke="#000000" points="391.5,-40.2 391.5,-59.2 475.5,-59.2 475.5,-40.2 391.5,-40.2"/>
<text text-anchor="start" x="456.9053" y="-46.3" font-family="Helvetica,sans-Serif" font-size="11.00" fill="#000000">0 &gt;</text>
<polygon fill="none" stroke="#000000" stroke-width="2" points="211,-39.2 211,-303.2 476,-303.2 476,-39.2 211,-39.2"/>
</a>
</g>
</g>
<!-- com_tu_reservation_log&#45;&gt;com_srv_revision -->
<g id="edge2" class="edge">
<title>com_tu_reservation_log:w&#45;&gt;com_srv_revision:e</title>
<path fill="none" stroke="#000000" d="M198.4557,-251.0911C183.5477,-264.2117 188.0607,-299.2 161.5,-299.2"/>
<polygon fill="#000000" stroke="#000000" points="204.945,-248.8311 213.684,-249.5997 208.7225,-247.5156 212.5,-246.2 212.5,-246.2 212.5,-246.2 208.7225,-247.5156 211.316,-242.8003 204.945,-248.8311 204.945,-248.8311"/>
<ellipse fill="none" stroke="#000000" cx="201.9231" cy="-249.8836" rx="3.2" ry="3.2"/>
</g>
</g>
</svg>
